<svg id="Camada_1" xmlns="http://www.w3.org/2000/svg" viewBox="0 0 116.6 116.2"><style>.st0{fill:none;stroke:#4cc185;stroke-width:2.8;stroke-linecap:round;stroke-linejoin:round;stroke-miterlimit:10}</style><g id="Camada_9_2_"><circle class="st0" cx="32.5" cy="30.2" r="9.3"/><circle class="st0" cx="32.5" cy="30.3" r="3.7"/><circle class="st0" cx="85.9" cy="30.3" r="3.7"/><circle class="st0" cx="85.9" cy="30.2" r="9.3"/><path class="st0" d="M5.6 9.3c-1.9 0-3.5-1.6-3.5-3.5s1.6-3.5 3.5-3.5m104.5-.1c1.9 0 3.5 1.6 3.5 3.5s-1.6 3.5-3.5 3.5"/><circle class="st0" cx="9.7" cy="99.8" r="7.5"/><circle class="st0" cx="105.9" cy="99.8" r="7.5"/><path class="st0" d="M5.6 2.2h74.2m30.3 0H85.9M5.6 9.3h104.5m-81.3 0v12.3m7.5-12.3v12.3m4.8 5h36M41 34.1h20.9m15.5 0h-9.6M9.7 107.3h80.8m15.4 0h-9.5m-84.5-.4l4 7.3h86.2l3.5-6m-95.9-16h96.2M93.5 56.9v6.2c0 3.4-2.5 3.8-3.4 3.8h-8.6c-.8 0-3.4-.4-3.4-3.8V52c0-3.4 2.5-3.8 3.4-3.8h8.6c.8 0 3.4.4 3.4 3.8v4.9zm-15.3.9h15.3M82.1 38.7v9.6m7.5-9.6v9.6m-3.8 18.6v7.6M10 99.7h3.1m89.5 0h3m-88.4.1h7.9m5.8 0h6.2m5.7 0h6.3m5.7 0H61m5.7 0H73m5.7 0h6.2m5.8 0h7.9m-59.5-7.9H24.5c-1.1 0-2-.9-2-2v-7.2c0-1.1.9-2 2-2h14.6c1.1 0 2 .9 2 2v7.2c0 1-.9 2-2 2zm27.3 0H51.7c-1.1 0-2-.9-2-2v-7.2c0-1.1.9-2 2-2h14.6c1.1 0 2 .9 2 2v7.2c.1 1-.8 2-1.9 2zm27.2 0H79c-1.1 0-2-.9-2-2v-7.2c0-1.1.9-2 2-2h14.6c1.1 0 2 .9 2 2v7.2c0 1-.9 2-2 2z"/></g></svg>