<svg xmlns="http://www.w3.org/2000/svg" xmlns:xlink="http://www.w3.org/1999/xlink" viewBox="0 0 522.28 309.21"><defs><style>.i{fill:none;stroke-linejoin:round;stroke-linecap:round}.h{fill:#d7e1ee}.i{stroke:#1f3178;stroke-width:1.5px}</style><linearGradient id="a" x1="141.81" y1="177.02" x2="141.81" y2="142.87" gradientUnits="userSpaceOnUse"><stop offset="0" stop-color="#83c456"/><stop offset=".22" stop-color="#7dc256"/><stop offset=".53" stop-color="#6bbb56"/><stop offset=".88" stop-color="#4eb056"/><stop offset="1" stop-color="#43ac56"/></linearGradient><linearGradient id="b" x1="280.22" y1="177.02" x2="280.22" y2="142.62" xlink:href="#a"/><linearGradient id="c" x1="418.63" y1="177.02" x2="418.63" y2="142.62" xlink:href="#a"/><linearGradient id="d" x1="72.47" y1="144.18" x2="72.47" y2="103.52" xlink:href="#a"/><linearGradient id="e" x1="210.88" y1="144.18" x2="210.88" y2="103.52" xlink:href="#a"/><linearGradient id="f" x1="349.29" y1="144.18" x2="349.29" y2="103.52" xlink:href="#a"/><linearGradient id="g" x1="259.38" y1="139.18" x2="259.38" y2="144.18" xlink:href="#a"/><linearGradient id="h" x1="1316.26" y1="1108.77" x2="1316.26" y2="1126.73" gradientTransform="rotate(90 1402.815 228.235)" xlink:href="#a"/></defs><path d="M241.77 281.24v-8.78h3.78a2.3 2.3 0 0 1 1.9.73 3.08 3.08 0 0 1 .54 2 4.65 4.65 0 0 1-.17 1.32 2.71 2.71 0 0 1-.39.85 1.69 1.69 0 0 1-.6.45 2.51 2.51 0 0 1-1 .21 13.52 13.52 0 0 1-1.36-.1c-.62-.08-1-.12-1-.14v3.48zm3.65-7.29h-2v2.57h2a.87.87 0 0 0 .46-.11c.28-.16.41-.57.41-1.23 0-.82-.29-1.18-.87-1.18zm3.93 7.29v-8.78H251v8.78zm3.18-1.7v-7.08h1.68v6.61c0 .31.09.49.26.55a1.28 1.28 0 0 0 .49.08h3v1.54h-3.61c-1.21 0-1.82-.57-1.82-1.7zm6.4-.47a7.71 7.71 0 0 1-.13-1 12.25 12.25 0 0 1-.05-1.3 10.91 10.91 0 0 1 .09-1.44 6.76 6.76 0 0 1 .24-1.15 2.59 2.59 0 0 1 .43-.81 2.41 2.41 0 0 1 .53-.53 2 2 0 0 1 .66-.3 4.78 4.78 0 0 1 1.32-.18h1a4.44 4.44 0 0 1 .67.11 1.92 1.92 0 0 1 .6.22 2.65 2.65 0 0 1 .51.36 1.65 1.65 0 0 1 .43.57 5.79 5.79 0 0 1 .3.78 7.26 7.26 0 0 1 .26 2.08 14.13 14.13 0 0 1-.09 1.83 6.37 6.37 0 0 1-.23 1.1 3 3 0 0 1-.39.8 2.14 2.14 0 0 1-.52.52 2 2 0 0 1-.65.31 6.83 6.83 0 0 1-2.34.17 3.69 3.69 0 0 1-1.08-.18 3.88 3.88 0 0 1-.58-.31 1.42 1.42 0 0 1-.41-.4 2.67 2.67 0 0 1-.33-.56 3.66 3.66 0 0 1-.24-.69zm1.63-4c0 .21-.07.46-.1.76s0 .67 0 1.11a9.62 9.62 0 0 0 .05 1.15 3.41 3.41 0 0 0 .16.81 1 1 0 0 0 .34.5 2.2 2.2 0 0 0 1.3.3 2.09 2.09 0 0 0 1.26-.31c.39-.29.58-1.14.58-2.52a7.33 7.33 0 0 0-.15-1.86 3.43 3.43 0 0 0-.27-.65.89.89 0 0 0-.36-.3 2.3 2.3 0 0 0-.87-.15h-.7a3.1 3.1 0 0 0-.42.08.78.78 0 0 0-.35.19 1.36 1.36 0 0 0-.25.34 1.49 1.49 0 0 0-.22.59zm6.01-1.07v-1.55h6.5V274h-2.44v7.23H269V274zm7.53 5.07a7.71 7.71 0 0 1-.13-1 12.25 12.25 0 0 1-.05-1.3 10.91 10.91 0 0 1 .09-1.44 6.76 6.76 0 0 1 .24-1.15 2.81 2.81 0 0 1 .42-.81 2.67 2.67 0 0 1 .54-.53 2 2 0 0 1 .66-.3 4.78 4.78 0 0 1 1.32-.18h1a4.44 4.44 0 0 1 .67.11 1.92 1.92 0 0 1 .6.22 2.65 2.65 0 0 1 .51.36 1.65 1.65 0 0 1 .43.57 5.79 5.79 0 0 1 .3.78 7.26 7.26 0 0 1 .26 2.08 14.13 14.13 0 0 1-.09 1.83 6.37 6.37 0 0 1-.23 1.1 3 3 0 0 1-.39.8 2.33 2.33 0 0 1-.52.52 2 2 0 0 1-.65.31 6.83 6.83 0 0 1-2.34.17 3.69 3.69 0 0 1-1.08-.18 3.88 3.88 0 0 1-.58-.31 1.6 1.6 0 0 1-.42-.4 3.19 3.19 0 0 1-.32-.56 3.66 3.66 0 0 1-.24-.69zm1.63-4c0 .21-.07.46-.1.76s0 .67 0 1.11a9.62 9.62 0 0 0 0 1.15 3.41 3.41 0 0 0 .16.81 1 1 0 0 0 .34.5 2.2 2.2 0 0 0 1.3.3 2.11 2.11 0 0 0 1.26-.31c.39-.29.58-1.14.58-2.52a7.33 7.33 0 0 0-.15-1.86 3.43 3.43 0 0 0-.27-.65.89.89 0 0 0-.36-.3 2.3 2.3 0 0 0-.87-.15h-.7a3.1 3.1 0 0 0-.42.08.78.78 0 0 0-.35.19 1.36 1.36 0 0 0-.25.34 1.49 1.49 0 0 0-.17.59zm9.85 4.47v-7.08h1.68v6.61c0 .31.08.49.25.55a1.34 1.34 0 0 0 .5.08h3v1.54h-3.61c-1.21 0-1.82-.57-1.82-1.7zm6.71 1.7v-8.78H294v8.78zm3.18 0v-8.78h1.7l3.48 5.67v-5.67h1.68v8.78h-1.68l-3.49-5.61v5.61zm8.38 0v-8.78h1.68v3.77h3v-3.77h1.68v8.78h-1.68v-3.48h-3v3.48zm7.54 0l3-8.78h1.9l2.86 8.78h-1.79l-.62-1.94h-2.88l-.64 1.94zm2.88-3.43h2l-1-3.14zm-73.81 17.38v-8.79h3.73c2 0 3.05 1.48 3.05 4.43 0 1.83-.43 3.09-1.31 3.79a2.64 2.64 0 0 1-1.74.57zm5.1-4.37q0-2.19-.69-2.7a1.36 1.36 0 0 0-.81-.23h-1.92v5.8h1.92c1 0 1.5-.96 1.5-2.87zm3.44-4.09a2 2 0 0 1 .59-.25 2.08 2.08 0 0 1 .47-.08l1.73.05a18.81 18.81 0 0 1 2.33.15v1.4h-3.47c-.29 0-.48.07-.55.21a1.2 1.2 0 0 0-.07.46V290l3.55.12v1.39l-3.55.11V293c0 .3.08.48.25.55a1.34 1.34 0 0 0 .49.07h3.35V295c-.4.06-1.39.11-3 .17h-1.34a2.79 2.79 0 0 1-.49-.13 1.64 1.64 0 0 1-.5-.29 1.7 1.7 0 0 1-.48-1.33v-5.23a1.63 1.63 0 0 1 .69-1.46zm9.57 8.46v-8.79h3.78a2.27 2.27 0 0 1 1.89.74 3.08 3.08 0 0 1 .54 2 4.68 4.68 0 0 1-.16 1.32 2.64 2.64 0 0 1-.39.84 1.49 1.49 0 0 1-.6.45 2.36 2.36 0 0 1-1 .22c-.28 0-.73 0-1.36-.11s-1-.12-1-.13v3.48zm3.65-7.3h-2v2.57h2a.89.89 0 0 0 .46-.11c.28-.16.41-.57.41-1.22-.01-.83-.3-1.24-.87-1.24zm7.65-1.49a2.3 2.3 0 0 1 1.72.59 3 3 0 0 1 .68 2.15 2.71 2.71 0 0 1-.71 2.24 1.53 1.53 0 0 1-.34.23l-.35.12 1.67 3.46h-1.9l-1.45-3.33-1.48-.16v3.49H266v-8.79zm-2.15 4h2a.81.81 0 0 0 .66-.24 1.68 1.68 0 0 0 .2-1 1.64 1.64 0 0 0-.22-1 .77.77 0 0 0-.64-.27h-2zm5.77 2.6a7.59 7.59 0 0 1-.14-1c0-.36-.05-.8-.05-1.31a11.1 11.1 0 0 1 .1-1.44 7 7 0 0 1 .24-1.15 2.82 2.82 0 0 1 .42-.81 3.3 3.3 0 0 1 .53-.53 2.76 2.76 0 0 1 .67-.3 4.78 4.78 0 0 1 1.32-.18h1a4.3 4.3 0 0 1 .68.1 2.34 2.34 0 0 1 .6.22 3.27 3.27 0 0 1 .51.37 1.89 1.89 0 0 1 .43.56 5.46 5.46 0 0 1 .3.79 7.5 7.5 0 0 1 .26 2.07 13.91 13.91 0 0 1-.09 1.83 7.94 7.94 0 0 1-.23 1.11 2.77 2.77 0 0 1-.39.79 2.62 2.62 0 0 1-.52.53 2.05 2.05 0 0 1-.65.3 6.64 6.64 0 0 1-2.34.17 3.12 3.12 0 0 1-1.08-.18 4 4 0 0 1-.59-.3 1.56 1.56 0 0 1-.41-.4 3.6 3.6 0 0 1-.32-.56 3.14 3.14 0 0 1-.25-.68zm1.63-4c0 .21-.07.47-.1.76s0 .67 0 1.12v1.14a3.81 3.81 0 0 0 .17.81.91.91 0 0 0 .34.51 2.19 2.19 0 0 0 1.29.3 2.16 2.16 0 0 0 1.26-.31c.4-.3.59-1.14.59-2.52a7.22 7.22 0 0 0-.15-1.86 3.16 3.16 0 0 0-.27-.65.88.88 0 0 0-.36-.3 2.14 2.14 0 0 0-.87-.16h-.71a2.37 2.37 0 0 0-.42.08.89.89 0 0 0-.35.18 2.29 2.29 0 0 0-.25.35 1.73 1.73 0 0 0-.17.6zm6.61 6.19v-8.79h3.73q3 0 3.05 4.43c0 1.83-.44 3.09-1.31 3.79a2.64 2.64 0 0 1-1.74.57zm5.1-4.37c0-1.46-.23-2.36-.7-2.7a1.33 1.33 0 0 0-.8-.23h-1.92v5.8h1.92c1 0 1.5-.96 1.5-2.87zm6.47 4.43h-.17a4.08 4.08 0 0 1-1.92-.3 4 4 0 0 1-.51-.43 1.88 1.88 0 0 1-.43-.69 7.43 7.43 0 0 1-.36-2.48v-5h1.68v5a4.66 4.66 0 0 0 .23 1.69 1.05 1.05 0 0 0 .8.61 4.82 4.82 0 0 0 .77.05 1.73 1.73 0 0 0 .83-.18c.47-.26.71-1 .71-2.17v-5h1.69v5a5.14 5.14 0 0 1-.55 2.73 2.59 2.59 0 0 1-.36.49 1.52 1.52 0 0 1-.44.32 3.42 3.42 0 0 1-.46.21 2.52 2.52 0 0 1-.52.1 9 9 0 0 1-.99.05zm5.19-7.77a2.32 2.32 0 0 1 1.33-1 3.9 3.9 0 0 1 1.06-.13 11 11 0 0 1 3.06.39V288h-2.62a3.24 3.24 0 0 0-.69.05 1.34 1.34 0 0 0-.47.22.92.92 0 0 0-.34.48 7.28 7.28 0 0 0-.24 2.19 4.89 4.89 0 0 0 .34 2.19 1.41 1.41 0 0 0 1.37.72c.75 0 1.51 0 2.28-.07h.38v1.3a9.36 9.36 0 0 1-2.78.34h-.28a2.51 2.51 0 0 1-2.3-1.15 6.66 6.66 0 0 1-.69-3.39 6.54 6.54 0 0 1 .59-3.4zm1.15 8.15h1.13a2.2 2.2 0 0 1-.29 1.32 1.25 1.25 0 0 1-1.05.37h-.67v-.72l.52-.18a.52.52 0 0 0 .3-.25 1.73 1.73 0 0 0 .06-.54zm5.25-.44l3-8.79h1.91l2.86 8.79h-1.79l-.63-1.95h-2.88l-.63 1.95zm4.63-10.65a1.88 1.88 0 0 0 1.06-.45l.28.72a2 2 0 0 1-1.34.81 1.67 1.67 0 0 1-.72-.21 1.63 1.63 0 0 0-.58-.21h-.48a.71.71 0 0 0-.18.07l-.16.08-.18.11-.18.1-.29-.66a2.08 2.08 0 0 1 1.45-.84 1.67 1.67 0 0 1 .68.22 1.57 1.57 0 0 0 .51.2zm-1.75 7.22h2l-1-3.15zm5.68 1.24a7.59 7.59 0 0 1-.14-1c0-.36-.05-.8-.05-1.31a11.13 11.13 0 0 1 .09-1.44 6.89 6.89 0 0 1 .25-1.15 2.59 2.59 0 0 1 .42-.81 2.94 2.94 0 0 1 .53-.53 2.6 2.6 0 0 1 .67-.3 4.66 4.66 0 0 1 1.31-.18h1a4.18 4.18 0 0 1 .67.1 2.29 2.29 0 0 1 .61.22 3.27 3.27 0 0 1 .51.37 1.89 1.89 0 0 1 .43.56 4.51 4.51 0 0 1 .29.79 7.12 7.12 0 0 1 .27 2.07 13.91 13.91 0 0 1-.09 1.83 7.94 7.94 0 0 1-.23 1.11 2.77 2.77 0 0 1-.39.79 2.62 2.62 0 0 1-.52.53 2.05 2.05 0 0 1-.65.3 6.67 6.67 0 0 1-2.35.17A3.22 3.22 0 0 1 315 295a4.46 4.46 0 0 1-.58-.3 1.56 1.56 0 0 1-.41-.4 3.6 3.6 0 0 1-.32-.56 3.14 3.14 0 0 1-.24-.74zm1.63-4a6.44 6.44 0 0 0-.1.76v1.12c0 .45 0 .83.05 1.14a3.86 3.86 0 0 0 .16.81 1 1 0 0 0 .35.51 2.19 2.19 0 0 0 1.29.3 2.16 2.16 0 0 0 1.26-.31c.39-.3.59-1.14.59-2.52a7.22 7.22 0 0 0-.15-1.86 2.62 2.62 0 0 0-.28-.65.79.79 0 0 0-.35-.3 2.16 2.16 0 0 0-.88-.16h-.7a2.37 2.37 0 0 0-.42.08.83.83 0 0 0-.35.18 1.76 1.76 0 0 0-.25.35 1.73 1.73 0 0 0-.22.6zM276.93 8.88V.1h3.78a2.3 2.3 0 0 1 1.9.73 3.08 3.08 0 0 1 .54 2 4.65 4.65 0 0 1-.15 1.3 2.35 2.35 0 0 1-.39.84 1.49 1.49 0 0 1-.6.45 2.36 2.36 0 0 1-1 .22c-.28 0-.73 0-1.36-.11a9.29 9.29 0 0 1-1-.13v3.48zm3.65-7.3h-2v2.57h2a.84.84 0 0 0 .47-.11c.27-.16.4-.56.4-1.22 0-.82-.3-1.24-.87-1.24zM288.23.1a2.29 2.29 0 0 1 1.77.58 3 3 0 0 1 .68 2.15 2.75 2.75 0 0 1-.71 2.25 1.41 1.41 0 0 1-.34.22 2 2 0 0 1-.35.12l1.67 3.46H289l-1.45-3.32-1.48-.17v3.49h-1.68V.1zm-2.14 4h2a.81.81 0 0 0 .66-.24 1.59 1.59 0 0 0 .2-1 1.74 1.74 0 0 0-.21-1 .79.79 0 0 0-.65-.27h-2zm5.76 2.61c-.06-.28-.1-.6-.14-1s0-.8 0-1.3a10.91 10.91 0 0 1 .05-1.41 6.89 6.89 0 0 1 .24-1.15 3.09 3.09 0 0 1 .42-.81 2.6 2.6 0 0 1 .58-.52 2 2 0 0 1 .66-.3 4.78 4.78 0 0 1 1.28-.22h1a5.88 5.88 0 0 1 .68.1 2.34 2.34 0 0 1 .6.22 3.27 3.27 0 0 1 .51.37 1.86 1.86 0 0 1 .43.56 5.46 5.46 0 0 1 .3.79 7.52 7.52 0 0 1 .26 2.08 14.13 14.13 0 0 1-.09 1.88 8.09 8.09 0 0 1-.23 1.1 2.77 2.77 0 0 1-.39.79 2.62 2.62 0 0 1-.52.53 2.31 2.31 0 0 1-.65.31 6.89 6.89 0 0 1-2.34.16 3.12 3.12 0 0 1-1.08-.18 2.85 2.85 0 0 1-.58-.3 1.46 1.46 0 0 1-.42-.4 3.19 3.19 0 0 1-.32-.56 3.14 3.14 0 0 1-.25-.74zm1.63-4c0 .21-.07.47-.1.76s0 .67 0 1.12v1.15a4.1 4.1 0 0 0 .17.81 1 1 0 0 0 .34.5 2.19 2.19 0 0 0 1.29.3 2.09 2.09 0 0 0 1.26-.31c.4-.3.59-1.14.59-2.52a7.22 7.22 0 0 0-.15-1.86 3.16 3.16 0 0 0-.27-.65.88.88 0 0 0-.36-.3 2.33 2.33 0 0 0-.87-.16h-.71a2.37 2.37 0 0 0-.42.08.71.71 0 0 0-.34.19 1.43 1.43 0 0 0-.26.34 1.73 1.73 0 0 0-.17.58zM300 8.88V.1h3.78a2.27 2.27 0 0 1 1.89.73 3 3 0 0 1 .54 2 4.68 4.68 0 0 1-.21 1.3 2.54 2.54 0 0 1-.39.84 1.49 1.49 0 0 1-.6.45 2.36 2.36 0 0 1-1 .22c-.28 0-.73 0-1.36-.11a9.29 9.29 0 0 1-1-.13v3.48zm3.65-7.3h-2v2.57h2a.81.81 0 0 0 .46-.11c.28-.16.41-.56.41-1.22-.04-.82-.33-1.24-.9-1.24zm3.72 5.13a7.59 7.59 0 0 1-.14-1c0-.36-.05-.8-.05-1.3a10.91 10.91 0 0 1 .09-1.41 6 6 0 0 1 .25-1.16 2.59 2.59 0 0 1 .42-.81 2.35 2.35 0 0 1 .53-.52 2 2 0 0 1 .67-.3 4.66 4.66 0 0 1 1.31-.21h1a6.06 6.06 0 0 1 .67.1 2.29 2.29 0 0 1 .61.22 3.27 3.27 0 0 1 .51.37 1.83 1.83 0 0 1 .42.56 4.5 4.5 0 0 1 .3.79 7.14 7.14 0 0 1 .27 2.08 14.13 14.13 0 0 1-.08 1.88 6.74 6.74 0 0 1-.24 1.1 2.64 2.64 0 0 1-.9 1.32 2.24 2.24 0 0 1-.66.31 6.87 6.87 0 0 1-2.35.17 3.22 3.22 0 0 1-1.08-.18 3.14 3.14 0 0 1-.58-.3 1.56 1.56 0 0 1-.41-.4 4 4 0 0 1-.33-.56 3.67 3.67 0 0 1-.23-.75zm1.62-4a6.64 6.64 0 0 0-.09.76v1.12c0 .45 0 .83.05 1.15a4.14 4.14 0 0 0 .16.81 1 1 0 0 0 .34.5 2.23 2.23 0 0 0 1.3.3 2.09 2.09 0 0 0 1.25-.28c.39-.3.59-1.14.59-2.52a7.22 7.22 0 0 0-.15-1.86 3.06 3.06 0 0 0-.28-.65.79.79 0 0 0-.35-.3 2.34 2.34 0 0 0-.88-.16h-.7a2.37 2.37 0 0 0-.42.08.69.69 0 0 0-.35.19 1.43 1.43 0 0 0-.25.34 1.5 1.5 0 0 0-.21.55zm6.48.34v-.76a2.13 2.13 0 0 1 .69-1.79 2.83 2.83 0 0 1 1.69-.5h.61c.3 0 .75 0 1.35.1a8.94 8.94 0 0 1 1.44.25v1.34c-.92-.08-1.64-.12-2.18-.12h-.87a1.57 1.57 0 0 0-.79.15c-.17.09-.26.33-.26.7v.44a.84.84 0 0 0 .21.67 1.18 1.18 0 0 0 .73.17h1.39a1.8 1.8 0 0 1 1.84 1.09 3.07 3.07 0 0 1 .24 1.21v.59a2.08 2.08 0 0 1-1.07 2.1 3.08 3.08 0 0 1-1.36.27 12.48 12.48 0 0 1-3.39-.36V7.3c.88.08 1.64.13 2.3.13a11.21 11.21 0 0 0 1.15 0 1 1 0 0 0 .33-.09.63.63 0 0 0 .36-.64v-.5c0-.41-.13-.67-.4-.76a1.07 1.07 0 0 0-.39-.06h-1.35a2 2 0 0 1-2.27-2.33zm6.74-1.41V.1h6.49v1.54h-2.44v7.24h-1.68V1.64zm6.01 7.24l3-8.78h1.91l2.85 8.78h-1.78l-.63-1.94h-2.88L330 8.88zm2.88-3.43h2l-1-3.15zm9.11 3.43V.1H344a2.28 2.28 0 0 1 1.9.73 3.08 3.08 0 0 1 .54 2 4.68 4.68 0 0 1-.16 1.32 2.35 2.35 0 0 1-.4.84 1.39 1.39 0 0 1-.59.45 2.38 2.38 0 0 1-1 .22c-.28 0-.73 0-1.35-.11s-.95-.11-1-.13v3.46zm3.64-7.3h-2v2.57h2a.82.82 0 0 0 .47-.11c.27-.16.41-.56.41-1.22-.01-.82-.3-1.24-.88-1.24zm2.53 7.3l3-8.78h1.91l2.85 8.78h-1.79l-.62-1.94h-2.88l-.64 1.94zm2.88-3.43h2l-1-3.15zM359 .1a2.29 2.29 0 0 1 1.72.58 3 3 0 0 1 .68 2.15 2.75 2.75 0 0 1-.71 2.25 1.41 1.41 0 0 1-.34.22 2 2 0 0 1-.35.12l1.67 3.46h-1.9l-1.45-3.32-1.48-.17v3.49h-1.68V.1zm-2.15 4h2a.81.81 0 0 0 .66-.24 1.66 1.66 0 0 0 .2-1 1.65 1.65 0 0 0-.22-1 .77.77 0 0 0-.64-.27h-2zm5.6 4.78l3-8.78h1.9l2.86 8.78h-1.79l-.62-1.94h-2.88l-.64 1.94zm2.88-3.43h2l-1-3.15zm8.91 3.43l3-8.78h1.91L382 8.88h-1.78l-.63-1.94h-2.88L376 8.88zm2.88-3.43h2l-1-3.15zm9.19 3.43V1.94a1.61 1.61 0 0 1 1.21-1.76A1.69 1.69 0 0 1 388 .1h1.75c1 0 1.82.08 2.33.15v1.43h-3.47c-.29 0-.48.07-.55.22a1.12 1.12 0 0 0-.07.45v1.37l3.55.12v1.39l-3.54.11v3.54zm7.08 0V.1h1.68v8.78zm6.9-8.78a2.25 2.25 0 0 1 1.71.58 3 3 0 0 1 .69 2.15 2.78 2.78 0 0 1-.69 2.25 1.42 1.42 0 0 1-.35.22 1.72 1.72 0 0 1-.35.12l1.7 3.46h-1.89l-1.51-3.32-1.47-.17v3.49h-1.68V.1zm-2.15 4h2a.83.83 0 0 0 .67-.24 1.66 1.66 0 0 0 .2-1 1.73 1.73 0 0 0-.22-1 .78.78 0 0 0-.65-.27h-2zm5.72 4.78l.77-8.78H407l1.47 6 1.45-6h2.33l.75 8.78h-1.65L410.8 3l-1.42 5.87h-1.87L406 3l-.52 5.87zm10.31 0l3-8.78H419l2.86 8.78h-1.79l-.62-1.94h-2.88L416 8.88zm2.88-3.43h2l-1-3.15zM94.86 280.36v-8.79h3.73q3 0 3 4.43c0 1.82-.44 3.09-1.31 3.79a2.64 2.64 0 0 1-1.74.57zM100 276c0-1.46-.23-2.36-.7-2.7a1.33 1.33 0 0 0-.8-.23h-1.96v5.8h1.92c1-.01 1.54-.97 1.54-2.87zm3.41-4.1a2.23 2.23 0 0 1 .6-.26 2.54 2.54 0 0 1 .47-.07h1.73c1 0 1.82.08 2.33.15v1.4h-3.47c-.3 0-.48.07-.55.21a1.17 1.17 0 0 0-.07.46v1.37l3.55.12v1.39l-3.55.11v1.36c0 .31.08.49.25.56a1.55 1.55 0 0 0 .49.07h3.35v1.38c-.4.05-1.39.11-3 .17h-1a2.19 2.19 0 0 1-.33 0 1.91 1.91 0 0 1-.49-.12 1.64 1.64 0 0 1-.5-.29 1.67 1.67 0 0 1-.48-1.33v-5.18a1.63 1.63 0 0 1 .67-1.5zm6.21 8.46l.77-8.79h2.34l1.46 6 1.45-6H118l.82 8.79h-1.66l-.58-5.87-1.41 5.87h-1.87l-1.48-5.87-.52 5.87zm10.44-2.18a7.71 7.71 0 0 1-.13-1 12.25 12.25 0 0 1-.05-1.3 10.91 10.91 0 0 1 .09-1.44 7 7 0 0 1 .24-1.15 2.81 2.81 0 0 1 .42-.81 3 3 0 0 1 .54-.53 2 2 0 0 1 .66-.3 4.78 4.78 0 0 1 1.32-.18h1a4.35 4.35 0 0 1 .67.1 1.92 1.92 0 0 1 .6.22 3.27 3.27 0 0 1 .51.37 1.61 1.61 0 0 1 .43.56 5.46 5.46 0 0 1 .3.79 7.14 7.14 0 0 1 .26 2.07 14.13 14.13 0 0 1-.09 1.83 6.72 6.72 0 0 1-.23 1.11 2.91 2.91 0 0 1-.39.79 2.62 2.62 0 0 1-.52.53 2 2 0 0 1-.65.3 6.83 6.83 0 0 1-2.34.17 3.12 3.12 0 0 1-1.08-.18 3.88 3.88 0 0 1-.58-.31 1.56 1.56 0 0 1-.42-.39 3.74 3.74 0 0 1-.32-.57 3.66 3.66 0 0 1-.24-.68zm1.63-4c0 .21-.07.46-.1.76s0 .67 0 1.12a9.45 9.45 0 0 0 0 1.14 3.31 3.31 0 0 0 .16.81 1 1 0 0 0 .34.51 2.2 2.2 0 0 0 1.3.3 2.13 2.13 0 0 0 1.26-.32c.39-.29.58-1.13.58-2.52a7.33 7.33 0 0 0-.15-1.86 3 3 0 0 0-.27-.64.82.82 0 0 0-.36-.3 2.11 2.11 0 0 0-.87-.16h-.7a2.07 2.07 0 0 0-.42.08.77.77 0 0 0-.35.18 1.58 1.58 0 0 0-.25.34 1.64 1.64 0 0 0-.17.6zm6.61 6.18v-8.79h1.7l3.48 5.68v-5.68h1.68v8.79h-1.68l-3.5-5.62v5.62zm8.25-5.84v-.75a2.11 2.11 0 0 1 .68-1.79 2.85 2.85 0 0 1 1.69-.48h.61a12.14 12.14 0 0 1 1.35.1 7.79 7.79 0 0 1 1.44.25v1.32c-.91-.08-1.64-.12-2.18-.12h-.87a1.74 1.74 0 0 0-.79.14c-.17.1-.25.33-.25.71v.43c0 .34.06.56.2.67a1.14 1.14 0 0 0 .73.17h1.39a1.82 1.82 0 0 1 1.84 1.09 3.08 3.08 0 0 1 .24 1.24v.59a2.08 2.08 0 0 1-1.07 2.1 3.22 3.22 0 0 1-1.35.26 12.61 12.61 0 0 1-3.4-.36v-1.32a22.89 22.89 0 0 0 2.3.13h1.15a1.39 1.39 0 0 0 .33-.1.61.61 0 0 0 .36-.63v-.47c0-.42-.13-.67-.4-.77a1.07 1.07 0 0 0-.39-.06h-1.35a2 2 0 0 1-2.26-2.35zm6.73-1.4v-1.55h6.49v1.55h-2.44v7.24h-1.68v-7.24zm11.43-1.55a2.3 2.3 0 0 1 1.72.59 3 3 0 0 1 .68 2.15 2.72 2.72 0 0 1-.71 2.24 1.53 1.53 0 0 1-.34.23l-.35.12 1.67 3.46h-1.9L154 277l-1.48-.17v3.5h-1.68v-8.79zm-2.15 4h2a.81.81 0 0 0 .66-.24 1.64 1.64 0 0 0 .2-1 1.7 1.7 0 0 0-.21-1 .8.8 0 0 0-.65-.27h-2zm5.63 4.79l3-8.79h1.91l2.85 8.79h-1.79l-.62-1.95h-2.88l-.64 1.95zm2.88-3.44h2l-1-3.14zm6-4.27a2.27 2.27 0 0 1 1.34-1 3.77 3.77 0 0 1 1.05-.13 10.93 10.93 0 0 1 3.06.39v1.32h-2.62a3.14 3.14 0 0 0-.69.06 1.31 1.31 0 0 0-.47.21 1 1 0 0 0-.34.49 7.21 7.21 0 0 0-.24 2.18 5.06 5.06 0 0 0 .34 2.2 1.42 1.42 0 0 0 1.37.72c.75 0 1.51 0 2.28-.07h.38v1.31a9.36 9.36 0 0 1-2.78.34h-.28a2.51 2.51 0 0 1-2.3-1.15 6.66 6.66 0 0 1-.69-3.39 6.54 6.54 0 0 1 .59-3.48zm1.16 8.15h1.12a2.25 2.25 0 0 1-.28 1.31 1.26 1.26 0 0 1-1.06.38h-.67v-.72l.53-.18a.47.47 0 0 0 .29-.26 1.55 1.55 0 0 0 .07-.53zm5.24-.44l3-8.79h1.91l2.86 8.79h-1.79l-.62-1.95h-2.88l-.64 1.95zm4.63-10.65a1.85 1.85 0 0 0 1.06-.45l.29.72a2 2 0 0 1-1.35.81 1.67 1.67 0 0 1-.72-.21 1.63 1.63 0 0 0-.58-.21h-.28a.69.69 0 0 0-.19 0 .76.76 0 0 0-.19.07l-.16.08-.18.1-.18.11-.29-.66a2.1 2.1 0 0 1 1.45-.84 1.75 1.75 0 0 1 .69.22 1.75 1.75 0 0 0 .5.2zm-1.75 7.21h2l-1-3.14zm5.65 1.26a7.59 7.59 0 0 1-.14-1v-1.3a10.91 10.91 0 0 1 .09-1.44 6.89 6.89 0 0 1 .25-1.15 2.39 2.39 0 0 1 .42-.81 2.94 2.94 0 0 1 .53-.53 2.07 2.07 0 0 1 .67-.3 4.71 4.71 0 0 1 1.31-.18h1a4.18 4.18 0 0 1 .67.1 2 2 0 0 1 .61.22 3.27 3.27 0 0 1 .51.37 1.89 1.89 0 0 1 .43.56 5.46 5.46 0 0 1 .3.79 7.5 7.5 0 0 1 .26 2.07 14.13 14.13 0 0 1-.09 1.83 7.94 7.94 0 0 1-.23 1.11 2.57 2.57 0 0 1-.91 1.32 2.05 2.05 0 0 1-.65.3 6.88 6.88 0 0 1-2.34.17 3.12 3.12 0 0 1-1.08-.18 4 4 0 0 1-.59-.31 1.52 1.52 0 0 1-.41-.39 3.74 3.74 0 0 1-.32-.57 3.14 3.14 0 0 1-.29-.68zm1.63-4a6.17 6.17 0 0 0-.1.76v2.26a3.86 3.86 0 0 0 .16.81 1 1 0 0 0 .35.51 2.19 2.19 0 0 0 1.29.3 2.09 2.09 0 0 0 1.26-.32c.39-.29.59-1.13.59-2.52a7.33 7.33 0 0 0-.15-1.86 2.51 2.51 0 0 0-.28-.64.79.79 0 0 0-.35-.3 2.16 2.16 0 0 0-.88-.16h-.7a2.37 2.37 0 0 0-.42.08.83.83 0 0 0-.35.18 2.74 2.74 0 0 0-.25.34 1.9 1.9 0 0 0-.14.6zm-72.3 12.89v-1.55h6.49v1.55h-2.44v7.23h-1.68v-7.23zm8.09-1.23a2.13 2.13 0 0 1 .59-.25 2 2 0 0 1 .47-.07h1.73c1 0 1.82.08 2.33.15v1.39h-3.47c-.29 0-.48.07-.55.22a1.12 1.12 0 0 0-.07.45v1.37l3.55.12v1.39l-3.55.11v1.37c0 .3.08.49.25.55a1.3 1.3 0 0 0 .49.07h3.35v1.38c-.4.06-1.39.12-3 .17h-1.34a2.16 2.16 0 0 1-1-.41 1.73 1.73 0 0 1-.48-1.34v-5.23a1.61 1.61 0 0 1 .7-1.44zm6.29 2.63v-.76a2.09 2.09 0 0 1 .69-1.78 2.71 2.71 0 0 1 1.69-.48h.61q.47 0 1.35.09a10 10 0 0 1 1.44.25v1.32c-.91-.08-1.64-.12-2.18-.12h-.87a1.6 1.6 0 0 0-.79.15c-.17.09-.25.33-.25.71v.43a.84.84 0 0 0 .2.67 1.2 1.2 0 0 0 .73.17h1.39a1.8 1.8 0 0 1 1.84 1.09 3.08 3.08 0 0 1 .24 1.24v.55a2.06 2.06 0 0 1-1.07 2.1 3.07 3.07 0 0 1-1.35.27A12.61 12.61 0 0 1 126 294v-1.32a22.89 22.89 0 0 0 2.3.13h1.15a1.39 1.39 0 0 0 .33-.1.62.62 0 0 0 .36-.64v-.46c0-.42-.13-.68-.4-.77a1.07 1.07 0 0 0-.39-.06H128a2 2 0 0 1-2.29-2.31zm6.74-1.4v-1.55h6.49v1.55h-2.44v7.23h-1.68v-7.23zm10.95 7.23v-8.78h3.6a2.18 2.18 0 0 1 2.47 2.35 2.51 2.51 0 0 1-.3 1.22 1.23 1.23 0 0 1-.9.65 1.54 1.54 0 0 1 1 .64 2.23 2.23 0 0 1 .38 1.34 2.72 2.72 0 0 1-.61 1.92 2.61 2.61 0 0 1-2 .66zm1.68-5.3h1.84a.9.9 0 0 0 .69-.26 1.09 1.09 0 0 0 .23-.77.9.9 0 0 0-.26-.74 1 1 0 0 0-.66-.22h-1.84zm2.88 2.65a1.53 1.53 0 0 0-.24-.89.83.83 0 0 0-.73-.35h-1.91v2.4h1.91c.65.02 1.01-.38 1.01-1.16zm3.54-5.81a2.19 2.19 0 0 1 .6-.25 1.9 1.9 0 0 1 .47-.07h1.73c1 0 1.82.08 2.33.15v1.39h-3.47c-.3 0-.48.07-.55.22a1.12 1.12 0 0 0-.07.45v1.37l3.55.12v1.39l-3.55.11v1.37c0 .3.08.49.25.55a1.3 1.3 0 0 0 .49.07h3.35v1.38c-.4.06-1.39.12-3 .17h-1.33a2.16 2.16 0 0 1-1-.41 1.73 1.73 0 0 1-.48-1.34v-5.23a1.63 1.63 0 0 1 .68-1.44zm6.44 8.46v-8.78h3.73c2 0 3 1.47 3 4.43 0 1.82-.43 3.08-1.3 3.79a2.73 2.73 0 0 1-1.74.56zm5.1-4.37c0-1.45-.24-2.35-.7-2.7a1.35 1.35 0 0 0-.8-.22h-1.92v5.79h1.92c1 0 1.46-.95 1.46-2.87zm2.96-1.46v-.76a2.12 2.12 0 0 1 .68-1.78 2.71 2.71 0 0 1 1.69-.48h.63c.31 0 .76 0 1.36.09a10 10 0 0 1 1.43.25v1.32c-.91-.08-1.64-.12-2.18-.12h-.87a1.6 1.6 0 0 0-.79.15c-.17.09-.25.33-.25.71v.43a.88.88 0 0 0 .2.67 1.2 1.2 0 0 0 .73.17H170a1.79 1.79 0 0 1 1.83 1.09 3.08 3.08 0 0 1 .24 1.24v.55a2 2 0 0 1-1.07 2.1 3 3 0 0 1-1.35.27 12.61 12.61 0 0 1-3.4-.36v-1.32a22.92 22.92 0 0 0 2.31.13h1.14a1.39 1.39 0 0 0 .33-.1.62.62 0 0 0 .36-.64v-.46c0-.42-.13-.68-.39-.77a1.16 1.16 0 0 0-.4-.06h-1.34a2 2 0 0 1-2.26-2.32zm1.07-279.59V.1h3.62a2.4 2.4 0 0 1 1.87.65 2.42 2.42 0 0 1 .6 1.7 2.51 2.51 0 0 1-.3 1.22 1.23 1.23 0 0 1-.9.65 1.49 1.49 0 0 1 1 .64 2.21 2.21 0 0 1 .39 1.34 2.72 2.72 0 0 1-.62 1.92 2.6 2.6 0 0 1-2 .66zm1.68-5.3h1.83a.88.88 0 0 0 .69-.26 1.1 1.1 0 0 0 .24-.78.88.88 0 0 0-.27-.73 1 1 0 0 0-.66-.23h-1.83zm2.88 2.65a1.53 1.53 0 0 0-.24-.89.84.84 0 0 0-.73-.35h-1.91v2.4h1.91c.64.01.97-.39.97-1.16zm6.31 2.71h-.17a4.08 4.08 0 0 1-1.92-.3 4 4 0 0 1-.5-.43 1.62 1.62 0 0 1-.43-.69 7.18 7.18 0 0 1-.36-2.52V.1h1.68V5a4.7 4.7 0 0 0 .22 1.69 1 1 0 0 0 .81.61 3.75 3.75 0 0 0 .76 0 1.73 1.73 0 0 0 .83-.18c.48-.25.71-1 .71-2.17V.1h1.69V5a5.18 5.18 0 0 1-.55 2.74 3 3 0 0 1-.35.48 1.75 1.75 0 0 1-.45.33 3.21 3.21 0 0 1-.46.2 2.55 2.55 0 0 1-.51.1 9.37 9.37 0 0 1-1 .09zm4.69-5.89v-.76a2.13 2.13 0 0 1 .69-1.79A2.83 2.83 0 0 1 185 0h.6c.31 0 .76 0 1.36.1a8.59 8.59 0 0 1 1.43.25v1.34c-.91-.08-1.63-.12-2.17-.12h-.87a1.64 1.64 0 0 0-.8.15c-.16.09-.25.33-.25.7v.44a.84.84 0 0 0 .21.67 1.18 1.18 0 0 0 .73.17h1.39a1.81 1.81 0 0 1 1.84 1.09 3.25 3.25 0 0 1 .24 1.21v.59a2.07 2.07 0 0 1-1.06 2.1 3.08 3.08 0 0 1-1.36.27 12.48 12.48 0 0 1-3.39-.36V7.3c.88.08 1.64.13 2.3.13a11.21 11.21 0 0 0 1.15 0 1 1 0 0 0 .32-.09.63.63 0 0 0 .37-.64v-.5c0-.41-.14-.67-.4-.76a1.12 1.12 0 0 0-.4-.06h-1.34a2 2 0 0 1-2.27-2.33zm7.45 5.83V.1h1.68v8.78zm3.18 0V.1H195l3.48 5.67V.1h1.68v8.78h-1.68L195 3.26v5.62zm8.99-8.46a2.19 2.19 0 0 1 .6-.25 1.9 1.9 0 0 1 .46-.07h1.74c1 0 1.81.08 2.33.15v1.43h-3.47c-.3 0-.48.07-.55.22a1.1 1.1 0 0 0-.08.45v1.37l3.56.12v1.39l-3.56.11v1.37c0 .3.09.49.26.55a1.3 1.3 0 0 0 .49.07h3.35v1.38c-.4.06-1.39.11-3 .17h-1.33a1.89 1.89 0 0 1-.49-.13 1.83 1.83 0 0 1-.51-.29 1.69 1.69 0 0 1-.48-1.33V1.92a1.63 1.63 0 0 1 .68-1.5zm6.3 2.63v-.76a2.13 2.13 0 0 1 .69-1.79 2.8 2.8 0 0 1 1.69-.5h.6c.31 0 .76 0 1.36.1a8.59 8.59 0 0 1 1.43.25v1.34c-.91-.08-1.63-.12-2.17-.12h-.87a1.64 1.64 0 0 0-.8.15c-.16.09-.25.33-.25.7v.44a.84.84 0 0 0 .21.67 1.18 1.18 0 0 0 .73.17h1.39a1.81 1.81 0 0 1 1.84 1.09 3.25 3.25 0 0 1 .23 1.21v.59a2.07 2.07 0 0 1-1.06 2.1 3.08 3.08 0 0 1-1.36.27 12.48 12.48 0 0 1-3.39-.36V7.3c.88.08 1.64.13 2.3.13a11.21 11.21 0 0 0 1.15 0 1 1 0 0 0 .32-.09.63.63 0 0 0 .37-.64v-.5c0-.41-.14-.67-.4-.76a1.12 1.12 0 0 0-.4-.06h-1.34a2 2 0 0 1-2.27-2.33zm7.32 0v-.76a2.15 2.15 0 0 1 .68-1.79 2.86 2.86 0 0 1 1.7-.48h.6c.31 0 .76 0 1.36.1a8.79 8.79 0 0 1 1.43.25v1.32c-.91-.08-1.63-.12-2.18-.12h-.87a1.6 1.6 0 0 0-.79.15c-.17.09-.25.33-.25.7v.44a.84.84 0 0 0 .21.67 1.16 1.16 0 0 0 .73.17h1.39a1.79 1.79 0 0 1 1.83 1.09A3.07 3.07 0 0 1 222 6v.59a2.07 2.07 0 0 1-1.06 2.1 3.08 3.08 0 0 1-1.36.27 12.61 12.61 0 0 1-3.4-.36V7.3c.88.08 1.65.13 2.31.13a11.35 11.35 0 0 0 1.15 0 1 1 0 0 0 .32-.09.63.63 0 0 0 .36-.64v-.5c0-.41-.13-.67-.39-.76a1.16 1.16 0 0 0-.4-.06h-1.34a2 2 0 0 1-2.32-2.33zm11.06-1.87a2.32 2.32 0 0 1 1.34-1 3.77 3.77 0 0 1 1-.13 10.56 10.56 0 0 1 3.06.4v1.27h-2.62a3.9 3.9 0 0 0-.69.05 1.3 1.3 0 0 0-.48.22.94.94 0 0 0-.33.48 7.08 7.08 0 0 0-.21 2.05 5 5 0 0 0 .36 2.21 1.37 1.37 0 0 0 1.35.67c.75 0 1.51 0 2.28-.07h.38v1.29a9.69 9.69 0 0 1-2.77.38h-.28A2.49 2.49 0 0 1 227 7.8a6.56 6.56 0 0 1-.69-3.39 6.6 6.6 0 0 1 .62-3.23zm6.4 7.7l3-8.78h1.9l2.86 8.78h-1.79l-.62-1.94h-2.88l-.64 1.94zm2.88-3.43h2l-1-3.15zm5.5-2.4v-.76a2.13 2.13 0 0 1 .68-1.79 2.85 2.85 0 0 1 1.69-.5h.61c.31 0 .76 0 1.35.1a8.74 8.74 0 0 1 1.44.25v1.34c-.91-.08-1.64-.12-2.18-.12h-.87a1.6 1.6 0 0 0-.79.15c-.17.09-.25.33-.25.7v.44a.84.84 0 0 0 .2.67 1.2 1.2 0 0 0 .73.17h1.39a1.8 1.8 0 0 1 1.84 1.09 3.07 3.07 0 0 1 .24 1.21v.59a2.08 2.08 0 0 1-1.07 2.1 3.07 3.07 0 0 1-1.35.27 12.61 12.61 0 0 1-3.4-.36V7.3c.88.08 1.65.13 2.3.13a11.21 11.21 0 0 0 1.15 0 1 1 0 0 0 .33-.09.63.63 0 0 0 .36-.64v-.5c0-.41-.13-.67-.4-.76a1.07 1.07 0 0 0-.39-.06H244a2 2 0 0 1-2.29-2.33zm8.06-2.63a2.27 2.27 0 0 1 .59-.25 2 2 0 0 1 .47-.07h1.74c1 0 1.81.08 2.32.15v1.43h-3.46c-.3 0-.48.07-.56.22a1.32 1.32 0 0 0-.07.45v1.37l3.55.12v1.39l-3.55.11v1.37c0 .3.09.49.25.55a1.36 1.36 0 0 0 .5.07h3.34v1.38c-.4.06-1.38.11-3 .17h-1.33a1.89 1.89 0 0 1-.49-.13 1.69 1.69 0 0 1-.51-.29 1.69 1.69 0 0 1-.48-1.33V1.92a1.63 1.63 0 0 1 .69-1.5zm-204.3.76a2.3 2.3 0 0 1 1.33-1A3.9 3.9 0 0 1 47.86 0a10.56 10.56 0 0 1 3.06.4v1.32H48.3a4.07 4.07 0 0 0-.69.05 1.34 1.34 0 0 0-.47.22 1 1 0 0 0-.34.48 7.47 7.47 0 0 0-.24 2.22 5 5 0 0 0 .36 2.21 1.37 1.37 0 0 0 1.35.68c.75 0 1.51 0 2.28-.08h.38v1.12a9.74 9.74 0 0 1-2.79.38h-.28a2.51 2.51 0 0 1-2.3-1.15 6.66 6.66 0 0 1-.69-3.39 6.47 6.47 0 0 1 .6-3.28zM52 6.71a7.59 7.59 0 0 1-.14-1v-1.3A10.91 10.91 0 0 1 51.91 3a6 6 0 0 1 .25-1.16 2.59 2.59 0 0 1 .42-.84 2.35 2.35 0 0 1 .53-.52 2 2 0 0 1 .67-.3A4.66 4.66 0 0 1 55.09 0h1a6.06 6.06 0 0 1 .67.1 2.29 2.29 0 0 1 .61.22 3.82 3.82 0 0 1 .51.37 1.83 1.83 0 0 1 .42.56 5.46 5.46 0 0 1 .3.79 7.14 7.14 0 0 1 .27 2.08A14.13 14.13 0 0 1 58.79 6a6.74 6.74 0 0 1-.24 1.1 2.64 2.64 0 0 1-.9 1.32 2 2 0 0 1-.66.31 7.1 7.1 0 0 1-2.34.17 3.44 3.44 0 0 1-1.08-.19 3.14 3.14 0 0 1-.58-.3 1.56 1.56 0 0 1-.41-.4 3.18 3.18 0 0 1-.33-.56 3.67 3.67 0 0 1-.25-.74zm1.62-4a6.92 6.92 0 0 0-.09.76v2.27a3.52 3.52 0 0 0 .16.81 1 1 0 0 0 .34.5 2.23 2.23 0 0 0 1.3.3 2.09 2.09 0 0 0 1.26-.31c.39-.3.59-1.14.59-2.52a7.22 7.22 0 0 0-.15-1.86 3.06 3.06 0 0 0-.26-.66.79.79 0 0 0-.35-.3 2.34 2.34 0 0 0-.88-.16h-.7a3.83 3.83 0 0 0-.42.08.69.69 0 0 0-.35.19 1.43 1.43 0 0 0-.25.34 1.5 1.5 0 0 0-.19.59zm6.63 6.17V.1H62l3.48 5.67V.1h1.68v8.78h-1.73l-3.49-5.62v5.62zM69 1.18a2.3 2.3 0 0 1 1.33-1A3.9 3.9 0 0 1 71.38 0a10.65 10.65 0 0 1 3.06.4v1.32h-2.62a4.07 4.07 0 0 0-.69.05 1.34 1.34 0 0 0-.47.22 1 1 0 0 0-.34.48 7.47 7.47 0 0 0-.24 2.22 5 5 0 0 0 .36 2.21 1.37 1.37 0 0 0 1.35.68c.75 0 1.51 0 2.28-.08h.38v1.12a9.74 9.74 0 0 1-2.79.38h-.28a2.51 2.51 0 0 1-2.3-1.15 6.66 6.66 0 0 1-.69-3.39A6.47 6.47 0 0 1 69 1.18zm7.32-.76a2.19 2.19 0 0 1 .6-.25 1.9 1.9 0 0 1 .47-.07h1.73c1 0 1.82.08 2.33.15v1.43H78c-.3 0-.48.07-.55.22a1.12 1.12 0 0 0-.07.45v1.37l3.55.12v1.39l-3.55.11v1.37c0 .3.08.49.25.55a1.3 1.3 0 0 0 .49.07h3.35v1.38c-.4.06-1.39.12-3 .17h-1.33a2 2 0 0 1-.49-.13 1.64 1.64 0 0 1-.5-.29 1.69 1.69 0 0 1-.48-1.33V1.92a1.63 1.63 0 0 1 .65-1.5zm6.44 8.46V.1h1.68v8.78zm2.82-7.24V.1h6.49v1.54h-2.44v7.24H88V1.64zm7.53 5.07a7.59 7.59 0 0 1-.14-1v-1.3A10.91 10.91 0 0 1 93 3a6 6 0 0 1 .25-1.16 2.59 2.59 0 0 1 .43-.84 2.35 2.35 0 0 1 .53-.52 2 2 0 0 1 .67-.3A4.66 4.66 0 0 1 96.19 0h1a6.06 6.06 0 0 1 .67.1 2.29 2.29 0 0 1 .61.22 4.6 4.6 0 0 1 .53.43 1.83 1.83 0 0 1 .42.56 5.46 5.46 0 0 1 .3.79 7.14 7.14 0 0 1 .28 2.08A14.13 14.13 0 0 1 99.89 6a6.74 6.74 0 0 1-.24 1.1 2.54 2.54 0 0 1-.39.79 2.36 2.36 0 0 1-.51.53 2 2 0 0 1-.66.31 7.1 7.1 0 0 1-2.34.17 3.44 3.44 0 0 1-1.08-.19 3.14 3.14 0 0 1-.58-.3 1.42 1.42 0 0 1-.41-.4 3.18 3.18 0 0 1-.33-.56 3.67 3.67 0 0 1-.24-.74zm1.62-4a6.92 6.92 0 0 0-.09.76v1.12c0 .45 0 .83.05 1.15a3.52 3.52 0 0 0 .16.81 1 1 0 0 0 .34.5 2.23 2.23 0 0 0 1.3.3 2.09 2.09 0 0 0 1.26-.31c.39-.3.59-1.14.59-2.52a7.22 7.22 0 0 0-.15-1.86 3.06 3.06 0 0 0-.32-.66.79.79 0 0 0-.35-.3 2.34 2.34 0 0 0-.88-.16h-.7a3.83 3.83 0 0 0-.42.08.69.69 0 0 0-.35.19 1.43 1.43 0 0 0-.25.34 1.5 1.5 0 0 0-.19.59zm275.7 278.53v-8.78h1.68v8.78zm2.95 0l.77-8.78h2.34l1.46 6 1.46-6h2.32l.82 8.78h-1.66l-.57-5.86-1.42 5.86H377l-1.48-5.86-.51 5.86zm10.51 0v-8.78h3.78a2.28 2.28 0 0 1 1.9.73 3.08 3.08 0 0 1 .54 2 4.68 4.68 0 0 1-.16 1.32 2.5 2.5 0 0 1-.4.85 1.57 1.57 0 0 1-.59.45 2.52 2.52 0 0 1-1 .21 13.18 13.18 0 0 1-1.35-.1c-.63-.08-.95-.12-1-.14v3.48zm3.65-7.29h-2v2.57h2a.93.93 0 0 0 .47-.11c.27-.16.41-.57.41-1.23-.01-.82-.3-1.18-.88-1.18zm3.94 5.59v-7.08h1.68v6.61c0 .31.08.49.25.55a1.28 1.28 0 0 0 .49.08h3v1.54h-3.6c-1.21 0-1.82-.57-1.82-1.7zm7.32-6.76a2.27 2.27 0 0 1 .59-.25 2 2 0 0 1 .47-.07h1.73c1 0 1.82.08 2.33.15V274h-3.47c-.29 0-.48.08-.55.22a1.12 1.12 0 0 0-.07.45v1.37l3.55.12v1.39l-3.55.11v1.37c0 .31.08.49.25.55a1.32 1.32 0 0 0 .49.08h3.35v1.38c-.4.05-1.39.11-3 .16h-1.25a1.68 1.68 0 0 1-.5-.13 1.62 1.62 0 0 1-.5-.28 1.7 1.7 0 0 1-.48-1.33v-5.24a1.66 1.66 0 0 1 .61-1.44zm6.2 8.46l.77-8.78h2.34l1.46 6 1.46-6h2.32l.82 8.78h-1.66l-.57-5.86-1.42 5.86h-1.87l-1.48-5.86-.51 5.86zm11-8.46a2.13 2.13 0 0 1 .59-.25 2 2 0 0 1 .47-.07h1.73c1 0 1.82.08 2.33.15V274h-3.47c-.29 0-.48.08-.55.22a1.12 1.12 0 0 0-.07.45v1.37l3.55.12v1.39l-3.55.11v1.37c0 .31.08.49.25.55a1.28 1.28 0 0 0 .49.08h3.35v1.38c-.4.05-1.39.11-3 .16h-1.34a2.16 2.16 0 0 1-1-.41 1.7 1.7 0 0 1-.48-1.33v-5.24a1.63 1.63 0 0 1 .7-1.44zm6.44 8.46v-8.78h1.7l3.48 5.67v-5.67h1.68v8.78h-1.68l-3.49-5.61v5.61zm8.01-7.24v-1.55h6.49V274h-2.43v7.23h-1.68V274zm6.01 7.24l3-8.78h1.91l2.85 8.78h-1.82l-.62-1.94h-2.88l-.64 1.94zm2.88-3.43h2l-1-3.14zm6-4.27a2.26 2.26 0 0 1 1.34-1 3.76 3.76 0 0 1 1.05-.14 10.91 10.91 0 0 1 3.06.4v1.32h-2.62a3.9 3.9 0 0 0-.69 0 1.3 1.3 0 0 0-.48.22.93.93 0 0 0-.33.49 7.14 7.14 0 0 0-.25 2.18 5.06 5.06 0 0 0 .34 2.2 1.42 1.42 0 0 0 1.37.72c.75 0 1.51 0 2.28-.07h.38V281a9.65 9.65 0 0 1-2.78.34h-.28a2.5 2.5 0 0 1-2.29-1.16 6.56 6.56 0 0 1-.69-3.39 6.63 6.63 0 0 1 .59-3.25zm1.16 8.15h1.13a2.24 2.24 0 0 1-.29 1.31 1.27 1.27 0 0 1-1.06.38h-.67v-.72l.53-.18a.47.47 0 0 0 .29-.26 1.64 1.64 0 0 0 .07-.53zm5.24-.45l3-8.78h1.91l2.86 8.78h-1.79l-.62-1.94h-2.88l-.64 1.94zm4.63-10.64a1.81 1.81 0 0 0 1.06-.46l.29.72a2 2 0 0 1-1.35.82 1.67 1.67 0 0 1-.72-.21 1.63 1.63 0 0 0-.58-.21h-.47l-.19.07-.16.08a.84.84 0 0 1-.18.11l-.18.11-.29-.66a2.1 2.1 0 0 1 1.45-.84 1.75 1.75 0 0 1 .69.22 1.75 1.75 0 0 0 .5.2zm-1.75 7.21h2l-1-3.14zm5.68 1.26c-.06-.28-.1-.6-.14-1s0-.79 0-1.3a10.91 10.91 0 0 1 .09-1.44 6.76 6.76 0 0 1 .24-1.15 2.81 2.81 0 0 1 .42-.81 2.67 2.67 0 0 1 .54-.53 2 2 0 0 1 .66-.3 4.78 4.78 0 0 1 1.32-.18h1a4.36 4.36 0 0 1 .68.11 2 2 0 0 1 .6.22 2.65 2.65 0 0 1 .51.36 1.79 1.79 0 0 1 .43.57 5.79 5.79 0 0 1 .3.78 7.63 7.63 0 0 1 .26 2.08 14.13 14.13 0 0 1-.09 1.83 7.48 7.48 0 0 1-.23 1.1 3 3 0 0 1-.39.8 2.55 2.55 0 0 1-.52.52 2.06 2.06 0 0 1-.65.31 6.83 6.83 0 0 1-2.34.17 3.69 3.69 0 0 1-1.08-.18 3.44 3.44 0 0 1-.58-.31 1.46 1.46 0 0 1-.42-.4 3.19 3.19 0 0 1-.32-.56 3.14 3.14 0 0 1-.29-.69zm1.63-4c0 .21-.07.46-.1.76s0 .67 0 1.11v1.15a4 4 0 0 0 .17.81 1 1 0 0 0 .34.5 2.19 2.19 0 0 0 1.29.3 2.09 2.09 0 0 0 1.26-.31c.4-.29.59-1.14.59-2.52a7.33 7.33 0 0 0-.15-1.86 3.43 3.43 0 0 0-.27-.65 1 1 0 0 0-.36-.3 2.33 2.33 0 0 0-.87-.15h-.71a3.83 3.83 0 0 0-.42.08.8.8 0 0 0-.34.19 1.67 1.67 0 0 0-.26.34 1.71 1.71 0 0 0-.17.59zM367.12 288v-1.6h6.49v1.6h-2.44v7.24h-1.68V288zm11.43-1.6a2.3 2.3 0 0 1 1.72.59 3 3 0 0 1 .68 2.15 2.75 2.75 0 0 1-.7 2.24 1.79 1.79 0 0 1-.35.23l-.35.12 1.67 3.46h-1.9l-1.45-3.33-1.48-.16v3.49h-1.68v-8.79zm-2.14 4h2a.81.81 0 0 0 .66-.24 1.6 1.6 0 0 0 .2-1 1.73 1.73 0 0 0-.21-1 .79.79 0 0 0-.65-.27h-2zm5.59 4.79l3-8.79h1.91l2.85 8.79H388l-.62-1.95h-2.88l-.64 1.95zm2.88-3.43h2l-1-3.15zm6.02 3.43v-8.79h1.7l3.49 5.68v-5.68h1.67v8.79h-1.67l-3.5-5.62v5.62zm8.24-5.83v-.76a2.13 2.13 0 0 1 .69-1.79 2.85 2.85 0 0 1 1.69-.48h.61a12.3 12.3 0 0 1 1.35.1 8.74 8.74 0 0 1 1.44.25V288c-.91-.08-1.64-.12-2.18-.12h-.87a1.74 1.74 0 0 0-.79.14c-.17.1-.25.34-.25.71v.43a.86.86 0 0 0 .2.68 1.21 1.21 0 0 0 .73.16h1.39a1.81 1.81 0 0 1 1.84 1.1 3 3 0 0 1 .24 1.23v.59a2.08 2.08 0 0 1-1.07 2.1 3.09 3.09 0 0 1-1.36.26 12.53 12.53 0 0 1-3.39-.36v-1.32c.88.09 1.65.14 2.3.14a11.21 11.21 0 0 0 1.15 0 1.35 1.35 0 0 0 .33-.09.63.63 0 0 0 .36-.64v-.47c0-.41-.13-.67-.4-.77a1.07 1.07 0 0 0-.39-.06h-1.35a2 2 0 0 1-2.27-2.35zm7.42 5.83v-6.94a1.61 1.61 0 0 1 1.21-1.76 1.77 1.77 0 0 1 .48-.09l1.75.05a18.81 18.81 0 0 1 2.33.15v1.4h-3.46c-.3 0-.49.07-.56.21a1.44 1.44 0 0 0-.07.46V290l3.55.12v1.39l-3.55.11v3.54zm7.02-2.19a6.13 6.13 0 0 1-.14-1c0-.36-.05-.8-.05-1.31a11.13 11.13 0 0 1 .09-1.44 7 7 0 0 1 .24-1.15 2.84 2.84 0 0 1 .43-.81 2.65 2.65 0 0 1 .53-.53 2.52 2.52 0 0 1 .66-.3 4.78 4.78 0 0 1 1.32-.18h1a4.35 4.35 0 0 1 .67.1 2.29 2.29 0 0 1 .61.22 4.6 4.6 0 0 1 .51.37 1.72 1.72 0 0 1 .42.56 5.46 5.46 0 0 1 .3.79 7.12 7.12 0 0 1 .27 2.07 13.91 13.91 0 0 1-.09 1.83 6.65 6.65 0 0 1-.24 1.11 2.54 2.54 0 0 1-.39.79 2.19 2.19 0 0 1-.52.53 1.86 1.86 0 0 1-.65.3 6.59 6.59 0 0 1-2.34.17 3.17 3.17 0 0 1-1.08-.18 3.89 3.89 0 0 1-.58-.3 1.42 1.42 0 0 1-.41-.4 3 3 0 0 1-.33-.56 3.14 3.14 0 0 1-.23-.68zm1.62-4a6.64 6.64 0 0 0-.09.76v1.12c0 .45 0 .83.05 1.14a3.31 3.31 0 0 0 .16.81 1 1 0 0 0 .34.51 2.23 2.23 0 0 0 1.3.3 2.16 2.16 0 0 0 1.26-.31c.39-.3.58-1.14.58-2.52a7.9 7.9 0 0 0-.14-1.86 3.7 3.7 0 0 0-.28-.65.79.79 0 0 0-.35-.3 2.16 2.16 0 0 0-.88-.16h-.7a2.21 2.21 0 0 0-.42.08.77.77 0 0 0-.35.18 1.43 1.43 0 0 0-.25.35 1.5 1.5 0 0 0-.23.6zm10.33-2.6a2.3 2.3 0 0 1 1.72.59 3 3 0 0 1 .68 2.15 2.71 2.71 0 0 1-.71 2.24 1.53 1.53 0 0 1-.34.23l-.35.12 1.67 3.46h-1.9l-1.45-3.33-1.48-.16v3.49h-1.68v-8.79zm-2.15 4h2a.81.81 0 0 0 .66-.24 1.68 1.68 0 0 0 .2-1 1.64 1.64 0 0 0-.22-1 .77.77 0 0 0-.64-.27h-2zm5.73 4.79l.77-8.79h2.34l1.46 6 1.45-6h2.33l.82 8.79h-1.66l-.57-5.87-1.42 5.87h-1.87l-1.48-5.87-.52 5.87zm10.31 0l3-8.79h1.91l2.85 8.79h-1.78l-.63-1.95h-2.88l-.63 1.95zm2.88-3.43h2l-1-3.15zm6-4.28a2.29 2.29 0 0 1 1.33-1 3.8 3.8 0 0 1 1.06-.13 11 11 0 0 1 3.06.39V288h-2.62a3.13 3.13 0 0 0-.69.05 1.38 1.38 0 0 0-.48.22.9.9 0 0 0-.33.48 7.28 7.28 0 0 0-.24 2.19 5.07 5.07 0 0 0 .33 2.19 1.43 1.43 0 0 0 1.37.72c.75 0 1.51 0 2.28-.07h.39v1.3a9.39 9.39 0 0 1-2.79.34h-.27a2.49 2.49 0 0 1-2.3-1.15 6.66 6.66 0 0 1-.69-3.39 6.54 6.54 0 0 1 .59-3.4zm1.15 8.15h1.13a2.28 2.28 0 0 1-.29 1.32 1.26 1.26 0 0 1-1.06.37h-.67v-.72l.53-.18a.49.49 0 0 0 .29-.25 1.43 1.43 0 0 0 .07-.54zm5.24-.44l3-8.79h1.9l2.86 8.79h-1.79l-.62-1.95h-2.88l-.64 1.95zm4.63-10.65a1.85 1.85 0 0 0 1.06-.45l.29.72a2 2 0 0 1-1.35.81 1.67 1.67 0 0 1-.72-.21 1.63 1.63 0 0 0-.58-.21h-.47a.76.76 0 0 0-.19.07l-.15.08-.18.11-.19.1-.29-.66a2.1 2.1 0 0 1 1.45-.84 1.7 1.7 0 0 1 .69.22 1.48 1.48 0 0 0 .5.2zm-1.75 7.22h2l-1-3.15zm5.68 1.24a7.71 7.71 0 0 1-.13-1 12.46 12.46 0 0 1-.05-1.31 11.13 11.13 0 0 1 .09-1.44 7 7 0 0 1 .24-1.15 3.09 3.09 0 0 1 .42-.81 3 3 0 0 1 .54-.53 2.52 2.52 0 0 1 .66-.3 4.78 4.78 0 0 1 1.32-.18h1a4.35 4.35 0 0 1 .67.1 2.21 2.21 0 0 1 .6.22 3.27 3.27 0 0 1 .51.37 1.61 1.61 0 0 1 .43.56 5.46 5.46 0 0 1 .3.79 7.14 7.14 0 0 1 .26 2.07 13.91 13.91 0 0 1-.09 1.83 6.72 6.72 0 0 1-.23 1.11 2.77 2.77 0 0 1-.39.79 2.39 2.39 0 0 1-.52.53 2 2 0 0 1-.65.3 6.59 6.59 0 0 1-2.34.17 3.12 3.12 0 0 1-1.08-.18 3.89 3.89 0 0 1-.58-.3 1.6 1.6 0 0 1-.42-.4 3.6 3.6 0 0 1-.32-.56 3.66 3.66 0 0 1-.24-.68zm1.63-4c0 .21-.07.47-.1.76s0 .67 0 1.12a9.35 9.35 0 0 0 .05 1.14 3.31 3.31 0 0 0 .16.81 1 1 0 0 0 .34.51 2.2 2.2 0 0 0 1.3.3 2.16 2.16 0 0 0 1.26-.31c.39-.3.58-1.14.58-2.52a7.22 7.22 0 0 0-.15-1.86 3.16 3.16 0 0 0-.27-.65.82.82 0 0 0-.36-.3 2.11 2.11 0 0 0-.87-.16h-.7a2.07 2.07 0 0 0-.42.08.77.77 0 0 0-.35.18 1.43 1.43 0 0 0-.25.35 1.5 1.5 0 0 0-.22.6zm-67.08 20.13v-8.78h3.73q3 0 3.05 4.43c0 1.82-.44 3.09-1.31 3.79a2.67 2.67 0 0 1-1.74.56zm5.1-4.36c0-1.46-.24-2.36-.7-2.7a1.29 1.29 0 0 0-.8-.23h-1.92v5.79h1.92c1 0 1.5-.95 1.5-2.86zm3.1 4.36v-8.78h1.68v8.78zm3.22-1.75a7 7 0 0 1-.24-1.24c0-.41-.05-.89-.05-1.44a12.45 12.45 0 0 1 .07-1.45 5.9 5.9 0 0 1 .25-1.21 2.71 2.71 0 0 1 .51-1 2.51 2.51 0 0 1 2-.82 16.64 16.64 0 0 1 1.73.08 12.8 12.8 0 0 1 1.64.31V302h-.2l-.49-.05-.67-.06c-.57 0-1.11-.07-1.62-.07a1.28 1.28 0 0 0-1.27.64 6.06 6.06 0 0 0-.31 2.36 5.93 5.93 0 0 0 .29 2.29 1.23 1.23 0 0 0 1.22.59 2 2 0 0 0 .74-.14 2.55 2.55 0 0 0 .57-.27l.19-.14v-1.65h-1.18v-1.07a5.85 5.85 0 0 1 2.09-.29h.81v5h-1.2l-.45-.58a2.05 2.05 0 0 1-.9.51 3.41 3.41 0 0 1-2.21-.07 2.12 2.12 0 0 1-.83-.61 2.83 2.83 0 0 1-.49-1.01zm7.55 1.75v-8.78h1.68v8.78zm2.82-7.23v-1.55h6.49v1.55h-2.44v7.23H422v-7.23zm6.01 7.23l3-8.78h1.91l2.86 8.78h-1.79l-.62-1.94H428l-.64 1.94zm2.88-3.43h2l-1-3.14zm5.99 1.73v-7.08h1.68V307c0 .31.08.49.25.55a1.28 1.28 0 0 0 .49.08h3v1.54h-3.61c-1.2-.04-1.81-.6-1.81-1.74z" fill="#1f3178"/><path stroke="url(#a)" stroke-width="5" fill="none" stroke-linejoin="round" d="M141.81 177.02v-34.15"/><path stroke="url(#b)" stroke-width="5" fill="none" stroke-linejoin="round" d="M280.22 177.02v-34.4"/><path stroke="url(#c)" stroke-width="5" fill="none" stroke-linejoin="round" d="M418.63 177.02v-34.4"/><path stroke="url(#d)" stroke-linecap="round" stroke-width="5" fill="none" stroke-linejoin="round" d="M72.47 141.68v-35.66"/><path stroke="url(#e)" stroke-linecap="round" stroke-width="5" fill="none" stroke-linejoin="round" d="M210.88 141.68v-35.66"/><path stroke="url(#f)" stroke-linecap="round" stroke-width="5" fill="none" stroke-linejoin="round" d="M349.29 141.68v-35.66"/><circle class="h" cx="280.22" cy="209.71" r="41.87"/><circle class="h" cx="418.63" cy="209.71" r="41.87"/><circle class="h" cx="141.81" cy="209.71" r="41.87"/><circle class="h" cx="349.29" cy="71.59" r="41.87"/><circle class="h" cx="72.47" cy="71.59" r="41.87"/><circle class="h" cx="210.88" cy="71.59" r="41.87"/><circle class="i" cx="263.95" cy="226.35" r="4.97"/><circle class="i" cx="324.51" cy="226.35" r="4.97"/><path class="i" d="M263.95 231.3h50.38m10.18 0h-6.29m-52.85-.21l2.64 12.85h53.93l2.33-12.01m-60.32-10.55h60.56m-60.37 4.9h2.02m56.11 0h2m-54.8.07h1.8m3.99 0h4.32m3.97 0h4.32m3.99 0h4.31m3.98 0h4.33m3.97 0h4.34m3.97 0h2.78m-35.28-5.23h-9.65a1.33 1.33 0 0 1-1.32-1.32V215a1.33 1.33 0 0 1 1.32-1.32h9.65a1.33 1.33 0 0 1 1.32 1.32v4.76a1.33 1.33 0 0 1-1.32 1.36zm29.59 0h-9.65a1.33 1.33 0 0 1-1.32-1.32V215a1.33 1.33 0 0 1 1.32-1.32h9.65a1.33 1.33 0 0 1 1.32 1.32v4.76a1.33 1.33 0 0 1-1.32 1.36zm-42.54-30.62a5.94 5.94 0 1 0 9.7 0m-11.89 0v-1.56a7 7 0 0 1 14.09 0v1.56m1.94 0h-4.13m-9.71 0h9.71m-9.71 0h-4.14m14.59 11.94s.37-.41 3.86.49 3.59 5.16 3.59 5.16v9m-26.09.03v-9s.12-4.26 3.6-5.16 3.85-.49 3.85-.49a10.71 10.71 0 0 0 11.2 0v6.75m-5.61-18.72v-10.18"/><path class="i" d="M269.66 217.12v-6.37a1.81 1.81 0 0 1 1.8-1.8h9.4a1.79 1.79 0 0 1 1.68 1.16m-11.73-7.76v6.67m36.63-18.48a5.94 5.94 0 1 0 9.69 0"/><path class="i" d="M305.25 190.54V189a7 7 0 0 1 14.09 0v1.56m1.94-.02h-4.13m-9.71 0h9.71m-9.71 0h-4.15m14.6 11.94s.37-.41 3.85.49 3.6 5.16 3.6 5.16v9m-26.09.03v-9s.12-4.26 3.59-5.16 3.86-.49 3.86-.49a10.71 10.71 0 0 0 11.2 0v6.75m-5.61-18.72v-10.18"/><path class="i" d="M305.91 210.13a1.81 1.81 0 0 1 1.68-1.14H317a1.81 1.81 0 0 1 1.8 1.8v6.37m-11.86-14.77v6.67m127.47 14.32l-.34 2.56a1.4 1.4 0 0 1-1.25 1.35h-1.31a1.4 1.4 0 0 1-1.25-1.35l-.33-2.56a10.65 10.65 0 0 1-3.5-1.48l-2 1.56a1.36 1.36 0 0 1-1.82 0l-.46-.47-.47-.48a1.48 1.48 0 0 1 .05-1.87l1.57-2a11 11 0 0 1-1.49-3.66l-2.49-.34a1.4 1.4 0 0 1-1.32-1.28v-1.35a1.4 1.4 0 0 1 1.32-1.28l2.48-.31a11 11 0 0 1 1.47-3.65h-.06l-1.48-2a1.48 1.48 0 0 1-.05-1.87l.47-.48.46-.47a1.36 1.36 0 0 1 1.82.05l2 1.56a10.53 10.53 0 0 1 3.53-1.49l.3-2.55a1.4 1.4 0 0 1 1.25-1.35h1.31a1.4 1.4 0 0 1 1.25 1.35l.35 2.56a10.34 10.34 0 0 1 3.46 1.47l2-1.55a1.36 1.36 0 0 1 1.82-.05l.47.47.46.48a1.45 1.45 0 0 1-.05 1.87l-1.53 2a11.09 11.09 0 0 1 1.46 3.6l2.48.34a1.4 1.4 0 0 1 1.32 1.28v1.35a1.4 1.4 0 0 1-1.32 1.28l-2.48.31a10.81 10.81 0 0 1-1.42 3.57l1.49 2.1a1.45 1.45 0 0 1 .05 1.87l-.46.48-.47.47a1.36 1.36 0 0 1-1.82 0l-2-1.56a10.15 10.15 0 0 1-3.48 1.48"/><ellipse class="i" cx="432.17" cy="212.75" rx="4.71" ry="4.84"/><path class="i" d="M419.5 244.43h25.33m-12.66-.52v-7.13m-4.08-47.54h-2.26m13.01 0h-2.64m-18.5 0H403a4 4 0 0 0-4 4v39.06a4 4 0 0 0 4 4h58.3a4 4 0 0 0 4-4v-39.09a4 4 0 0 0-4-4h-14.45m-46.93 42.08h64.49m-17.56-37.07h17.56m-28.21 0h2.64m-13.1 0h2.35m-28.17 0h17.78"/><path class="i" d="M414.67 221.41l2.57 2.56-2.56 2.58m-9.16-5.14l-2.58 2.56 2.56 2.58m6-5.14l-2.81 5.25m52.63-9.79h-6.07m6.07 4.65h-9.2m9.2 4.65h-9.2m-19.95-27.95l.14-18.61M421.69 203zm20.99 0z"/><circle class="i" cx="432.31" cy="177.48" r="2.13"/><circle class="i" cx="410.74" cy="177.48" r="2.13"/><circle class="i" cx="453.8" cy="177.48" r="2.13"/><path class="i" d="M421.69 185.23h-10.95v-5.62m32.12 5.62h10.95v-5.62"/><circle class="i" cx="128.61" cy="196.75" r="6.48"/><circle class="i" cx="165.66" cy="196.75" r="6.48"/><path class="i" d="M121.11 184.66a2.46 2.46 0 0 1 0-4.92m58.73 0a2.46 2.46 0 1 1 0 4.92m-58.73-4.92h40.31m18.42 0h-14.18m-44.55 4.92h58.73m-53.81 0v6.16m5.18-6.16v6.16m3.37 3.44h24.96m-25.04 5.19h14.53m10.75 0h-6.68m17.84 14.86v4.27a2.3 2.3 0 0 1-2.34 2.61h-6a2.3 2.3 0 0 1-2.34-2.61v-7.66a2.3 2.3 0 0 1 2.34-2.62h6a2.31 2.31 0 0 1 2.34 2.62zM163 202.67v5.62m5.24 0v-5.46m-2.61 18.36v5.28m11.54 13.88h-51.72a1.74 1.74 0 0 1 0-3.47h50a1.74 1.74 0 1 0 0-3.47h-50.11a1.74 1.74 0 0 1 0-3.47h50.08a1.73 1.73 0 1 0 0-3.46h-6.13"/><circle class="i" cx="128.61" cy="196.86" r="2.59"/><circle class="i" cx="165.66" cy="196.86" r="2.59"/><path class="i" d="M160.29 214.75h5.32m2.27 0h.44m70.83-130.58l10.34-8.63m-19.97 5.85l5.57 3.07m-15.76-.58l5.85-2.85m-15.42 2.28l5.21 1.35m-17.86 3.26l7.95-3.9"/><circle class="i" cx="207.41" cy="82.93" r="2.23"/><circle class="i" cx="217.3" cy="85.06" r="2.23"/><circle class="i" cx="227.47" cy="79.94" r="2.23"/><circle class="i" cx="237.31" cy="85.65" r="2.23"/><path class="i" d="M253.46 98.38H193.2a4.11 4.11 0 0 1-4.11-4.1V53.86a4.11 4.11 0 0 1 4.11-4.1h60.26a4.11 4.11 0 0 1 4.11 4.1v40.42a4.11 4.11 0 0 1-4.11 4.1zm-63.47-5.14h63.56M189.99 54.9h66.69m-46.44 51.58h26.19m-13.1-.54v-7.36"/><path class="i" d="M207.29 67.63h3.48v5.21h-3.48zm-6.81-3.78h3.48v8.99h-3.48zm13.63.03h3.48v8.94h-3.48zm6.83-3.34h3.48v12.28h-3.48zm14.13 3.53a5.14 5.14 0 0 0-1.78 3.47 5.1 5.1 0 0 0 10.16.85"/><path class="i" d="M246.05 67.73a7.42 7.42 0 0 0-7.42-7.42v7.42zm126.4 20.55c-.83-.83.79-3.8 1.62-4.63l22-22a2.14 2.14 0 0 1 3 0 2.13 2.13 0 0 1 0 3l-22 22c-.82.84-3.8 2.46-4.62 1.63zm18.85-21.86l3.01 3M361 105.73h-25a2.78 2.78 0 0 1-2.78-2.79V50a2.78 2.78 0 0 1 2.78-2.76h9.08m20.27 58.49h-1.09M380 88.51v14.43a2.78 2.78 0 0 1-2.78 2.79h-5.76m-3.35-58.49h9.08A2.78 2.78 0 0 1 380 50v23.48"/><path class="i" d="M374.66 91.25v6.38a2.78 2.78 0 0 1-2.79 2.78h-30.51a2.77 2.77 0 0 1-2.78-2.78V56.68a2.77 2.77 0 0 1 2.78-2.78h4.06m22.39 0h4.06a2.78 2.78 0 0 1 2.79 2.78v22.43m-6.65-18.95h1.04m-11.77 0h7.56m-7.56 4.87h11.77m-6.93 4.88h6.93m-25.06 0h14.97m-2.28 4.87h12.37m-25.06 0h9.4m3.89 4.88h11.77m-7.24 4.87h7.24m-11.77 0h1.11m7.4 4.87h3.26m-25.06 0h18.64m-.03 4.75h6.64m-25.06 0h15.28"/><path class="i" d="M343.99 62.05l3.67 3.38 3.96-5.27m-7.63 21.26l3.67 3.38 3.96-5.27m-1.84-24.12a5.32 5.32 0 1 1 0-10.64m13.67 0a5.32 5.32 0 0 1 0 10.64M351.3 44.77a5.32 5.32 0 0 1 10.63 0m-12.15 0h1.52m10.63 0h1.52m-13.67 10.64h13.67"/><circle class="i" cx="356.62" cy="45.16" r="2.07"/><path class="i" d="M73.09 71.86c.12.11.24.22.37.32M75 76v-.29m-1.91-3.85l.37.32m0 0A5.18 5.18 0 0 1 75 75.74m0 .26v-.3m5.44-22.25a10.67 10.67 0 0 0-7.35 18.41M75 76v2.44a.72.72 0 0 0 .72.72h4.74"/><path class="i" d="M87.78 71.86c-.12.11-.23.22-.36.32M85.89 76v-.29m1.89-3.85l-.36.32m.01 0a5.19 5.19 0 0 0-1.54 3.56m0 .26v-.3m-5.45-22.25a10.67 10.67 0 0 1 7.34 18.41M85.89 76v2.44a.71.71 0 0 1-.71.72h-4.74m3.19 5.32h-6.37a.81.81 0 0 1-.81-.81V80a.81.81 0 0 1 .81-.81h6.37a.82.82 0 0 1 .81.81v3.68a.82.82 0 0 1-.81.8zm-4.65 2.45h2.92m-5.2-5.1h2.92m-2.15-24.19a7.06 7.06 0 0 0-2.08 11.62m5.21-18.75v-3.85m-6.94 5.77l-1.79-3.09m-6.82 6.15l3.69 2.12m-6.58 6.85h4.73m1.85 6.85l-1.85 1.06m-2.14 1.24l-.2.12m7.55 5.45l-.22.38m-1.11 1.93l-.1.17m16.86-29.23l1.79-3.09m6.82 6.15l-3.69 2.12m6.58 6.85H94.3m-1.85 6.85l1.85 1.06m2.14 1.24l.2.12m-7.55 5.45l.22.38m1.11 1.93l.1.17m16.31-16.31h8.7l3.83-4.5m-.28 8.15h-12.26m-.07 3.79h8.7l3.83 4.49m-34.76 28.66v-7.82l4.5-3.83m-8.15.28v11.39"/><circle class="i" cx="120.81" cy="59.4" r="1.45"/><circle class="i" cx="120.28" cy="78.59" r="1.45"/><circle class="i" cx="71.22" cy="93.12" r="1.45"/><circle class="i" cx="120.99" cy="69" r="1.45"/><circle class="i" cx="90.16" cy="93.12" r="1.45"/><circle class="i" cx="80.8" cy="92.92" r="1.45"/><path class="i" d="M77.08 106.02V98.2l-4.5-3.83"/><path class="i" d="M96.29 88.26V106a.49.49 0 0 1-.49.5H66.23a.5.5 0 0 1-.5-.5V94.89a1.22 1.22 0 0 0-1.22-1.22h-5.75a3.54 3.54 0 0 1-3.55-3.54v-9.27a1.83 1.83 0 0 0-1.1-1.68l-3.73-1.6a1.1 1.1 0 0 1-.55-1.51l5-9.83a4.8 4.8 0 0 0 .52-1.7c1.8-15.77 17.81-27.24 34.91-21.24 6.18 2.17 12.95 9.1 15 15.31a26 26 0 0 1-9 29.6"/><path stroke="url(#g)" stroke-linecap="round" stroke-width="5" fill="none" stroke-linejoin="round" d="M2.5 141.68h513.76"/><path stroke="url(#h)" stroke-linecap="round" stroke-width="5" fill="none" stroke-linejoin="round" d="M506.82 154.64l12.96-12.96-12.96-12.97"/></svg>