<svg xmlns="http://www.w3.org/2000/svg" viewBox="0 0 529.47 286.16"><defs><style>.c{fill:none;stroke-linecap:round;stroke-linejoin:round}.b{fill:#d7e1ee}.c{stroke:#1f3178;stroke-width:1.5px}</style><linearGradient id="a" x1="152.61" y1="224.94" x2="378.61" y2="-1.05" gradientUnits="userSpaceOnUse"><stop offset="0" stop-color="#83c456"/><stop offset=".22" stop-color="#7dc256"/><stop offset=".53" stop-color="#6bbb56"/><stop offset=".88" stop-color="#4eb056"/><stop offset="1" stop-color="#43ac56"/></linearGradient></defs><path stroke-width="5" stroke="url(#a)" fill="none" stroke-linecap="round" stroke-linejoin="round" d="M49.07 106.8L123 191.79l70.77-84.82 70.94 83.7 74.18-84.35 69.67 84.35 75.54-82.69"/><circle class="b" cx="53.58" cy="107.68" r="41.87"/><circle class="b" cx="194.16" cy="107.68" r="41.87"/><circle class="b" cx="334.99" cy="107.68" r="41.87"/><circle class="b" cx="476.6" cy="107.68" r="41.87"/><circle class="b" cx="123.62" cy="189.76" r="41.87"/><circle class="b" cx="264.6" cy="189.76" r="41.87"/><circle class="b" cx="405.38" cy="189.76" r="41.87"/><path class="c" d="M136.61 196.64l3.59 1.95m-12.46.38l5.22-2.54m-13.77 2.03l4.65 1.21m-15.95 2.91l7.1-3.48"/><circle class="c" cx="117.1" cy="198.12" r="1.99"/><circle class="c" cx="125.92" cy="200.03" r="1.99"/><circle class="c" cx="135.01" cy="195.45" r="1.99"/><circle class="c" cx="141.98" cy="199.49" r="1.99"/><path class="c" d="M100.73 208.26v-35.33m61.17.39v3.92m-30.58 39.09v-2.68"/><circle class="c" cx="131.32" cy="219.53" r="2.26"/><rect class="c" x="98.27" y="167.94" width="65.9" height="4.99" rx="2.49" ry="2.49"/><path class="c" d="M113.88 184.45h3.11v4.65h-3.11zm-6.08-3.38h3.11v8.03h-3.11zm12.17.03h3.11v7.99h-3.11zm12.14.17a4.56 4.56 0 1 0 7.49 3.86"/><path class="c" d="M141.92 184.54a6.63 6.63 0 0 0-6.63-6.63v6.63zm-7.42 28.71H99.64a1.37 1.37 0 0 1-1.37-1.37v-2.25a1.37 1.37 0 0 1 1.37-1.37h36m2.91 17.74v-12.77s.17-6 5.1-7.33 5.47-.69 5.47-.69a15.15 15.15 0 0 0 15.89 0s.53-.58 5.48.69 5.09 7.33 5.09 7.33V226m-26.65-35.15a8.43 8.43 0 1 0 16.22 0"/><path class="c" d="M165.15 190.85l.44-2.64a8.52 8.52 0 0 0-8.41-8.41c-4.35-.06-7.92 2.34-8.51 6.4a10.19 10.19 0 0 1-.72 2.55l-.59 1.35s9.12 3.47 12.81-1.1a2.46 2.46 0 0 0 1.69 1.6m-12.74 14.61l7.97 20.75m3.3-8.73l-3.14-9.77m-.39 0l-3.12 9.77m11.29-12.02l-7.97 20.75m7.61-104.73h-2.58a2.84 2.84 0 0 1-2.84-2.84v-54a2.84 2.84 0 0 1 2.84-2.84h9.26m-2.22 59.68h-1.11m14.72 0h-7.41m19.49-59.7h9.27a2.84 2.84 0 0 1 2.84 2.84v11.51"/><path class="c" d="M182.76 115.8h-15.24a2.85 2.85 0 0 1-2.85-2.84V71.17a2.86 2.86 0 0 1 2.85-2.85h4.14m22.85 0h4.15a2.85 2.85 0 0 1 2.84 2.85v8.52m-6.78-4.97h1.45m-12.41 0h7.73m-7.73 4.97h12.41m-7.46 4.98h7.46m-25.97 0h15.28m-2.33 4.97h9.53m-22.48 0h9.59m3.97 4.98h7.53m-2.91 4.97h2.75m-7.37 0h1.14m4.84 4.98h1.39m-20.93 0h16.31m-16.12 4.84h16.38"/><path class="c" d="M170.2 76.65l3.74 3.45 4.05-5.38m-7.79 21.7l3.74 3.45 4.05-5.38m-1.88-24.62a5.43 5.43 0 0 1 0-10.86m13.95-.01a5.43 5.43 0 1 1 0 10.86M177.66 59a5.43 5.43 0 1 1 10.85 0m-12.4.01h1.55m10.85 0h1.55m-13.95 10.86h13.95"/><circle class="c" cx="183.09" cy="59.41" r="2.11"/><circle class="c" cx="206.96" cy="97.43" r="6.11"/><path class="c" d="M218.67 107.85s4.2 2.73 5.75 3.88c4.51 3.35 2.79 8.62 2.79 8.62l-1.38 4.94h-7.18V96.44c0-8-8.86-13.79-11.75-16.68-2.89 2.89-11.72 8.67-11.72 16.68v28.87H188l-1.37-4.94s-1.73-5.29 2.79-8.62c1.57-1.17 5.74-3.88 5.74-3.88m.04 11.54h23.47m-11.83 0v15.18m-5.74-15.18v9.27m11.73-9.27v9.27m-11.73 5.09v.82m11.73-.82v.82M42.28 122.2H22.12a2.85 2.85 0 0 1-2.84-2.85v-54a2.85 2.85 0 0 1 2.84-2.85h9.26m23.47-.01h9.27A2.85 2.85 0 0 1 67 65.34v10.49"/><path class="c" d="M42.73 116.77H27.55a2.85 2.85 0 0 1-2.85-2.84v-41.8a2.85 2.85 0 0 1 2.85-2.84h4.14m22.85 0h4.15a2.84 2.84 0 0 1 2.84 2.84v6.63m-6.78-3.08h1.06m-12.01 0h7.72m-7.72 4.98h12.01m-7.07 4.97h7.07m-25.58 0h15.28m-2.33 4.98h12.63m-25.58 0h9.59m3.98 4.97h12.01m-7.39 4.98h4.29m-8.91 0h1.13m1.74 4.97h5.27m-21.71 0h13.21m5.78 4.85h2.91m-21.71 0h15.6"/><path class="c" d="M30.23 77.61l3.74 3.45 4.05-5.38m-7.79 21.71l3.74 3.45 4.05-5.39m-1.88-24.62a5.43 5.43 0 1 1 0-10.85m13.95.02a5.43 5.43 0 1 1 0 10.85M37.69 60a5.43 5.43 0 1 1 10.85 0m-12.4-.02h1.55m10.85 0h1.55M36.14 70.83h13.95"/><circle class="c" cx="43.12" cy="60.37" r="2.11"/><path class="c" d="M50.35 115.18h33.26"/><circle class="c" cx="50.35" cy="119.45" r="4.27"/><circle class="c" cx="83.61" cy="119.45" r="4.27"/><path class="c" d="M50.35 123.71h22.2m11.06 0h-7.72m-27.82-.18l2.27 11.06h32.51l2-10.34m-19.46-9.38V110a1 1 0 0 1 .94-1h6.92a1 1 0 0 1 1 1v4.83M62.8 88.62a5.11 5.11 0 1 0 8.34 0m-10.22 0v-1.34a6.06 6.06 0 0 1 12.12 0v1.34m1.67 0h-3.56m-8.35 0h8.35m-8.35 0h-3.56m12.55 10.27s.32-.35 3.32.42 3.09 4.44 3.09 4.44v7.77"/><path class="c" d="M55.76 111.52v-7.77s.1-3.67 3.09-4.44 3.32-.42 3.32-.42a9.2 9.2 0 0 0 9.63 0v5.8m-4.83-16.07v-8.76"/><path class="c" d="M61.38 111.52V106a1.55 1.55 0 0 1 1.55-1.54H71a1.54 1.54 0 0 1 1.44 1m-10.07-6.65v5.74m214.92 88.3a4.31 4.31 0 0 1 .56.85c.1.21.19.41.27.63l.09.33a4.43 4.43 0 0 1 .15 1.15 4.59 4.59 0 0 1-1.07 3m5.1 1.84a10.14 10.14 0 0 1-1.45 2m-.02-13.65a9.9 9.9 0 0 1 2.73 6.83 10.39 10.39 0 0 1-.08 1.26m5.43-1.28a15.3 15.3 0 0 1-4.32 10.67m.05-21.31a15.33 15.33 0 0 1 3.79 6.72l.06.22m-23.6 22.03h11.67m-5.84-15.75v12.23m-2.78 0h5.56v3.52h-5.56z"/><circle class="c" cx="270.81" cy="195.63" r="2.06"/><path class="c" d="M264.42 192.85a4.75 4.75 0 0 0-.55.85 5 5 0 0 0-.27.63c0 .11-.07.22-.09.33a4.43 4.43 0 0 0-.15 1.15 4.63 4.63 0 0 0 1.06 3m-5.09 1.84a10.14 10.14 0 0 0 1.45 2m.02-13.65a9.9 9.9 0 0 0-2.73 6.83 10.39 10.39 0 0 0 .08 1.26m-5.46-1.28a15.3 15.3 0 0 0 4.31 10.67m0-21.31a15.33 15.33 0 0 0-3.79 6.72l-.06.22m20.64-2.41a4.88 4.88 0 0 0-.86-.56 4.78 4.78 0 0 0-.62-.26l-.33-.1a4.91 4.91 0 0 0-1.16-.14 4.67 4.67 0 0 0-3 1.06m-1.82-5.1a9.8 9.8 0 0 0-2 1.46m13.66.01a9.9 9.9 0 0 0-6.84-2.72 10.36 10.36 0 0 0-1.25.08m1.25-5.43a15.25 15.25 0 0 0-10.66 4.32m21.31-.05a15.28 15.28 0 0 0-6.72-3.79l-.23-.06m8.35-4.06v-4.26s-.1-3.93-3.31-4.76-3.55-.45-3.55-.45a9.83 9.83 0 0 1-10.31 0s-.35-.38-3.55.45-3.31 4.76-3.31 4.76v4.26"/><circle class="c" cx="270.84" cy="157.06" r="5.46"/><path class="c" d="M254.7 223.39v-4.26s-.1-3.93-3.31-4.76-3.56-.45-3.56-.45a9.85 9.85 0 0 1-10.32 0s-.35-.38-3.55.45-3.31 4.76-3.31 4.76v4.26"/><circle class="c" cx="242.67" cy="206.09" r="5.46"/><path class="c" d="M310.81 223.39v-4.26s-.09-3.93-3.31-4.76-3.55-.45-3.55-.45a9.83 9.83 0 0 1-10.31 0s-.35-.38-3.55.45-3.31 4.76-3.31 4.76v4.26"/><circle class="c" cx="298.78" cy="206.09" r="5.46"/><path class="c" d="M249.47 174.36a30.67 30.67 0 0 1 4.81-3.91m-13.69 25.33a30.13 30.13 0 0 1 6.41-18.64m13.89 47.23q-.79-.28-1.56-.6m23.06 0a30.46 30.46 0 0 1-17.75 1.63m35.88-35.7a30.43 30.43 0 0 1 .61 6.08m-13.59-25.26a30.3 30.3 0 0 1 12 15.54"/><circle class="c" cx="436.64" cy="199.47" r="4.37"/><path class="c" d="M445 206.92s3 2 4.11 2.78a5.7 5.7 0 0 1 2 6.16l-1 3.53H445v-20.63c0-5.74-6.34-9.86-8.41-11.93-2.07 2.07-8.38 6.21-8.38 11.93v20.64h-5.13l-1-3.53a5.7 5.7 0 0 1 2-6.16c1.12-.83 4.11-2.78 4.11-2.78m.05 8.26h16.78m-8.46 0v10.85m-4.11-10.85v6.62m8.4-6.62v6.62m-8.4 3.65v.58m8.4-.58v.58"/><circle class="c" cx="387.54" cy="199.47" r="4.37"/><path class="c" d="M395.92 206.92s3 2 4.11 2.78a5.7 5.7 0 0 1 2 6.16l-1 3.53h-5.13v-20.63c0-5.74-6.34-9.86-8.41-11.93-2.07 2.07-8.38 6.21-8.38 11.93v20.64H374l-1-3.53a5.7 5.7 0 0 1 2-6.16c1.12-.83 4.11-2.78 4.11-2.78m.03 8.26h16.78m-8.46 0v10.85m-4.11-10.85v6.62m8.4-6.62v6.62m-8.4 3.65v.58m8.4-.58v.58m8.42-58.44h23.79"/><circle class="c" cx="400.17" cy="170.65" r="3.06"/><circle class="c" cx="423.96" cy="170.65" r="3.06"/><path class="c" d="M400.17 173.7h15.12m8.67 0h-5.52m-19.9-.13l1.63 7.91h23.24l1.43-7.39m-15.05-6.71v-3.46a.68.68 0 0 1 .68-.68h4.94a.69.69 0 0 1 .68.68v3.46m-7.01-18.78a3.65 3.65 0 1 0 6 0m-7.35 0v-1a4.34 4.34 0 0 1 8.67 0v1m1.19 0h-2.54m-5.97 0h5.97m-5.97 0h-2.55m8.98 7.4s.22-.26 2.37.3 2.21 3.17 2.21 3.17V165M404 165v-5.56s.08-2.62 2.21-3.17 2.37-.3 2.37-.3a6.6 6.6 0 0 0 6.89 0m-3.41-7.37v-6.26M394 165.65a29.6 29.6 0 0 1 5.12-3.18m-16.29 21.91a29.59 29.59 0 0 1 8.17-16.06m18.26 50.25a30.3 30.3 0 0 1-2.38-.32m10.92-.1a30.11 30.11 0 0 1-5.74.55m28.17-38.7a29.51 29.51 0 0 1 1.07 4.43m-16.46-22.05A29.72 29.72 0 0 1 439 176.7m40.23-57.76v11.54a.34.34 0 0 1-.34.34h-20.38a.34.34 0 0 1-.34-.34v-7a.84.84 0 0 0-.84-.84h-4a2.45 2.45 0 0 1-2.45-2.45v-6.38a1.26 1.26 0 0 0-.76-1.16l-2.57-1.1a.77.77 0 0 1-.37-1l3.46-6.77a3.39 3.39 0 0 0 .36-1.17 17.85 17.85 0 0 1 24-14.64 19.16 19.16 0 0 1 10.43 10.53 17.89 17.89 0 0 1-6.23 20.4"/><path class="c" d="M468.81 108.36a2.85 2.85 0 0 1-1.43.38 2.64 2.64 0 0 1-2.7-2.58 2.3 2.3 0 0 1 1-1.93 2.9 2.9 0 0 1 1.69-.52m5.09 4.17a1.76 1.76 0 0 1-1.19 1.65 2 2 0 0 1-.64.11 1.83 1.83 0 0 1-1.78-1.31 1.63 1.63 0 0 1-.06-.45m10.51-2.4a3.78 3.78 0 0 1-4 3.46"/><path class="c" d="M471.32 109.51c.16 1.25.77 3.69 3.06 4.35a4 4 0 0 1 1 .43 2.22 2.22 0 0 1 1.12 1.39m-1.41-8.14a5.94 5.94 0 0 0-.35 2 2.84 2.84 0 0 0 2.2 2.37 4.56 4.56 0 0 1 1 .43 3.83 3.83 0 0 1 1.42 1.65m-.06-8.51a2.67 2.67 0 0 0 2.5-2.82 2.5 2.5 0 0 0-2.05-2.79M477.84 96a2.56 2.56 0 0 0 0-.39 3 3 0 0 0-3.09-2.85 3.22 3.22 0 0 0-2 .69m7.85 6.47a3.08 3.08 0 0 0 .64-1.73 3 3 0 0 0-3.08-2.84h-.31"/><path class="c" d="M473.16 94.79c0-1.77-1.85-3.21-4.13-3.21a4.11 4.11 0 0 0-4 2.34m-1.24 6.83a2.59 2.59 0 0 0 1.13 1.09m-8.35.93a2.59 2.59 0 0 1-.23-4.85 2 2 0 0 1 0-.43 2 2 0 0 1 2-2 2.08 2.08 0 0 1 .71.12m5.66 11.13a3.07 3.07 0 0 1-3 2 2.92 2.92 0 0 1-3.12-2.65 2.46 2.46 0 0 1 .11-.72h-.11a1.73 1.73 0 1 1 0-3.42 2.33 2.33 0 0 1 .92.19m3.11-8.77a2 2 0 0 1 1.86-1.24 2.05 2.05 0 0 1 1.31.47"/><path class="c" d="M459.08 96.17a3.4 3.4 0 0 1-.07-1 2.48 2.48 0 0 1 2.35-2.17 2.37 2.37 0 0 1 1.26.35m-2.19 4.91l-.18-.24m5.95-.8a3.88 3.88 0 0 1 .58-.28 4.91 4.91 0 0 1 .51-.15m3.32 7.77a3.11 3.11 0 0 1 1.39-1.46m1.61-3.9a5.14 5.14 0 0 0-.12-1.35m4.16 5.99l-.18-.25m-.64-26.39c.08.07.15.15.24.22M478.1 80v-.2m-1.27-2.6l.24.22m0 0a3.49 3.49 0 0 1 1 2.39m.03.19v-.2m3.68-15a7.19 7.19 0 0 0-4.95 12.4m1.27 2.8v1.65a.49.49 0 0 0 .48.48h3.2"/><path class="c" d="M486.73 77.2l-.25.22M485.45 80v-.2m1.28-2.6l-.25.22m.01 0a3.49 3.49 0 0 0-1 2.39m-.04.19v-.2m-3.67-15a7.19 7.19 0 0 1 5 12.4m-1.33 2.8v1.65a.49.49 0 0 1-.48.48h-3.19"/><path class="c" d="M483.93 85.7h-4.3a.54.54 0 0 1-.54-.54v-2.48a.55.55 0 0 1 .54-.55h4.3a.55.55 0 0 1 .54.55v2.48a.54.54 0 0 1-.54.54zm-3.13 2.4h1.96m-1.98-19.83a4.23 4.23 0 0 0-2.89 3.85 4 4 0 0 0 1.49 3"/><rect class="c" x="438.65" y="61.38" width="53.59" height="73.21" rx="8" ry="8"/><path class="c" d="M433.96 68.49h7.1m-7.1 8.33h7.1m-7.1 8.33h7.1m-7.1 8.32h7.1m-7.1 8.33h7.1m-7.1 8.32h7.1m-7.1 8.33h7.1m-7.1 8.33h7.1m23.76-58.9h4.27m-21.46 0h13.39m-2.83 4.31h10.9m-21.46 0h6.68m-1.4 4.3h16.18m-21.46 0h1.48m17.77 4.3h2.21m-21.46 0h15.68M304.44 92.92a10.69 10.69 0 0 0 1 1.16 11.49 11.49 0 0 0 8 3.15H316a11 11 0 0 0 11-11V82a11 11 0 0 0-11-11h-23.17a11 11 0 0 0-11 11v4.26a11 11 0 0 0 11 11h2.55a11.49 11.49 0 0 0 8-3.15 11.92 11.92 0 0 0 1.06-1.19z"/><path class="c" d="M304.44 86.09a2.49 2.49 0 0 1 1.68.67c.71.6 3.12 3.44 4.37 4.18a5.32 5.32 0 0 0 2.82.6h1.54a6.77 6.77 0 0 0 7-6.49v-1.42c0-3.57-1.8-6.49-7-6.49H294c-5.18 0-7 2.92-7 6.49v1.42a6.77 6.77 0 0 0 7 6.49h1.54a5.32 5.32 0 0 0 2.82-.6c1.25-.74 3.66-3.58 4.37-4.18a2.5 2.5 0 0 1 1.71-.67zm5.99 10.72a6.51 6.51 0 0 1-12 0"/><path class="c" d="M301.15 99.9v6.31a11.36 11.36 0 0 0 22.72 0V94"/><path class="c" d="M307.6 100v6.25a4.91 4.91 0 0 0 9.82 0v-9.11m6.45-23.11V62.61h-6.45v8.17m0 32.56h3.23m-3.23-36.7h3.23m-23.91 10.5l-3.63 6.47m-2.07 3.46l-1.6 2.86m12.07-12.79l-1.97 3.51m-2.18 3.67l-3.52 6.27m21-13.45l-3.63 6.47m-2.07 3.46l-.99 1.77m10.93-10.74l-1.44 2.55m-2.18 3.67l-3.52 6.27"/><circle class="c" cx="332.16" cy="104.55" r="5.04"/><path class="c" d="M309.51 120.92a3.12 3.12 0 0 0 .42 3.89l2.12 2.1a3.12 3.12 0 0 0 3.89.42l5.27-3.4a.67.67 0 0 1 .67 0 22.81 22.81 0 0 0 3.85 1.46.72.72 0 0 1 .51.52l1.36 6.28a3.11 3.11 0 0 0 3 2.44h3a3.11 3.11 0 0 0 3-2.44l1.37-6.28a.71.71 0 0 1 .5-.52 25.19 25.19 0 0 0 3.85-1.46.62.62 0 0 1 .67 0l5.27 3.4a3.12 3.12 0 0 0 3.89-.42l2.14-2.14a3.12 3.12 0 0 0 .42-3.89l-3.1-4.79a.65.65 0 0 1 0-.73 21.69 21.69 0 0 0 2.06-4.51.68.68 0 0 1 .52-.46l5.36-1.15a3.13 3.13 0 0 0 2.46-3v-3.34a3.11 3.11 0 0 0-2.46-3l-5.36-1.16a.71.71 0 0 1-.52-.46 21.84 21.84 0 0 0-2.06-4.5.75.75 0 0 1 0-.74l3.1-4.79a3.12 3.12 0 0 0-.42-3.89l-2.12-2.1a3.12 3.12 0 0 0-3.89-.42l-5.27 3.41a.72.72 0 0 1-.67 0 22 22 0 0 0-3.85-1.47.72.72 0 0 1-.51-.52L336.71 77a3.11 3.11 0 0 0-3-2.45h-3a3.16 3.16 0 0 0-1.57.43"/><path class="c" d="M345 98.79a14.35 14.35 0 0 1 1.25 5.79 14.12 14.12 0 0 1-22 11.69m5.83-25.72a14.35 14.35 0 0 1 2.08-.15 14.13 14.13 0 0 1 9.32 3.5"/><path d="M18.4 19.47a2.28 2.28 0 0 1 1.33-1 3.9 3.9 0 0 1 1.06-.13 11 11 0 0 1 3.06.39V20h-2.62a3.14 3.14 0 0 0-.69.06 1.18 1.18 0 0 0-.47.22.88.88 0 0 0-.34.48 7.37 7.37 0 0 0-.24 2.22 5 5 0 0 0 .36 2.2 1.37 1.37 0 0 0 1.35.68c.75 0 1.51 0 2.28-.07h.38v1.31a9.36 9.36 0 0 1-2.78.34h-.28a2.51 2.51 0 0 1-2.3-1.15 6.66 6.66 0 0 1-.69-3.39 6.54 6.54 0 0 1 .59-3.43zm6.4 7.71l3-8.79h1.91l2.86 8.79h-1.83l-.63-1.95h-2.88l-.63 1.95zm2.88-3.43h2l-1-3.15zm5.99 3.43v-8.79h3.73q3 0 3.05 4.43c0 1.82-.44 3.09-1.31 3.79a2.68 2.68 0 0 1-1.74.57zm5.1-4.37c0-1.46-.24-2.36-.7-2.7a1.35 1.35 0 0 0-.8-.23h-1.92v5.8h1.92c1 0 1.5-.96 1.5-2.87zM41 27.18l3-8.79h1.91l2.85 8.79h-1.84l-.62-1.95h-2.88l-.64 1.95zm2.88-3.43h2l-1-3.15zm5.48-2.41v-.75A2.14 2.14 0 0 1 50 18.8a2.86 2.86 0 0 1 1.7-.48h.6a12.44 12.44 0 0 1 1.36.1 7.82 7.82 0 0 1 1.43.25V20c-.91-.08-1.64-.12-2.18-.12h-.87a1.74 1.74 0 0 0-.79.14c-.17.1-.25.33-.25.71v.43a.9.9 0 0 0 .2.68 1.23 1.23 0 0 0 .8.16h1.39a1.8 1.8 0 0 1 1.83 1.09 3.12 3.12 0 0 1 .24 1.24v.59A2.07 2.07 0 0 1 54.38 27a3.23 3.23 0 0 1-1.36.26 12.61 12.61 0 0 1-3.4-.36v-1.31a22.92 22.92 0 0 0 2.31.13h1.14a1.39 1.39 0 0 0 .33-.1.61.61 0 0 0 .36-.63v-.49c0-.42-.13-.67-.39-.77a1.16 1.16 0 0 0-.4-.06h-1.34a2 2 0 0 1-2.27-2.33zm6.73-1.4v-1.55h6.49v1.55h-2.43v7.24h-1.68v-7.24zm11.44-1.55a2.3 2.3 0 0 1 1.72.59 3 3 0 0 1 .68 2.15 2.76 2.76 0 0 1-.71 2.24 1.54 1.54 0 0 1-.35.23l-.34.12 1.66 3.46H68.3l-1.46-3.33-1.47-.17v3.5h-1.68v-8.79zm-2.15 4h2a.79.79 0 0 0 .67-.25 1.64 1.64 0 0 0 .2-1 1.64 1.64 0 0 0-.22-1 .78.78 0 0 0-.65-.27h-2zM71.15 25a7.59 7.59 0 0 1-.15-1c0-.36-.05-.79-.05-1.3a10.91 10.91 0 0 1 .09-1.44 6 6 0 0 1 .25-1.15 2.39 2.39 0 0 1 .42-.81 2.65 2.65 0 0 1 .53-.53 2 2 0 0 1 .67-.3 4.66 4.66 0 0 1 1.31-.18h1a4.35 4.35 0 0 1 .67.1 2 2 0 0 1 .61.22 4.6 4.6 0 0 1 .51.37 1.72 1.72 0 0 1 .42.56 5.46 5.46 0 0 1 .3.79 7.12 7.12 0 0 1 .27 2.14 14 14 0 0 1-.09 1.83 6.65 6.65 0 0 1-.24 1.11 2.43 2.43 0 0 1-.39.79 2.59 2.59 0 0 1-.51.53 2 2 0 0 1-.66.3 6.83 6.83 0 0 1-2.34.17 3.22 3.22 0 0 1-1.06-.2 3.88 3.88 0 0 1-.58-.31 1.52 1.52 0 0 1-.41-.39 3.73 3.73 0 0 1-.33-.57 3.31 3.31 0 0 1-.24-.73zm1.62-4a6.37 6.37 0 0 0-.09.76v2.26a3.31 3.31 0 0 0 .16.81 1.07 1.07 0 0 0 .34.51 2.23 2.23 0 0 0 1.3.3 2.16 2.16 0 0 0 1.26-.31c.39-.3.59-1.14.59-2.53a7.33 7.33 0 0 0-.14-1.8 2.93 2.93 0 0 0-.28-.64.79.79 0 0 0-.35-.3 2.16 2.16 0 0 0-.88-.16h-.7a2.37 2.37 0 0 0-.42.08.77.77 0 0 0-.35.18 2 2 0 0 0-.25.34 1.64 1.64 0 0 0-.19.5zm10.47-2.28a2.17 2.17 0 0 1 .59-.26 2.67 2.67 0 0 1 .47-.07h1.73c1 0 1.82.08 2.33.15V20h-3.47c-.29 0-.48.07-.55.21a1.17 1.17 0 0 0-.07.46V22l3.55.12v1.39l-3.55.11V25c0 .31.08.49.25.56a1.55 1.55 0 0 0 .49.07h3.35V27c-.4 0-1.39.11-3 .17h-1.01a2.19 2.19 0 0 1-.33 0 1.91 1.91 0 0 1-.49-.12 1.64 1.64 0 0 1-.5-.29 1.7 1.7 0 0 1-.48-1.33v-5.21a1.61 1.61 0 0 1 .69-1.5zM0 35.29v-.76a2.12 2.12 0 0 1 .68-1.78 2.73 2.73 0 0 1 1.7-.48H3c.31 0 .76 0 1.36.09a10 10 0 0 1 1.43.25v1.32c-.91-.08-1.64-.12-2.18-.12h-.89a1.6 1.6 0 0 0-.79.15c-.17.09-.25.33-.25.71v.43a.88.88 0 0 0 .2.67 1.22 1.22 0 0 0 .74.17H4A1.79 1.79 0 0 1 5.84 37a3.08 3.08 0 0 1 .24 1.24v.58A2.05 2.05 0 0 1 5 41a3.08 3.08 0 0 1-1.36.27 12.61 12.61 0 0 1-3.4-.36v-1.37a22.92 22.92 0 0 0 2.31.13h1.14a1.39 1.39 0 0 0 .33-.1.62.62 0 0 0 .36-.64v-.46c0-.42-.13-.68-.39-.77a1.16 1.16 0 0 0-.4-.06H2.27A2 2 0 0 1 0 35.29zm7.7-2.63a2.19 2.19 0 0 1 .6-.25 1.9 1.9 0 0 1 .47-.07h1.73c1 0 1.82.08 2.33.15v1.39H9.36c-.3 0-.48.07-.55.22a1.12 1.12 0 0 0-.07.45V36l3.55.12v1.39l-3.55.11V39c0 .3.08.49.25.55a1.3 1.3 0 0 0 .49.07h3.35V41c-.4.06-1.39.12-3 .17h-1.3A1.63 1.63 0 0 1 8 41a1.62 1.62 0 0 1-.5-.28 1.73 1.73 0 0 1-.48-1.34v-5.22a1.63 1.63 0 0 1 .68-1.5zm6.08 6.76v-7.08h1.68V39c0 .3.08.49.25.55a1.3 1.3 0 0 0 .49.07h3v1.55h-3.6c-1.22-.05-1.82-.62-1.82-1.75zm6.96-6.76a2.13 2.13 0 0 1 .59-.25 2 2 0 0 1 .47-.07h1.73c1 0 1.82.08 2.33.15v1.39h-3.47c-.29 0-.48.07-.55.22a1.12 1.12 0 0 0-.07.45V36l3.55.12v1.39l-3.55.11V39c0 .3.08.49.25.55a1.3 1.3 0 0 0 .49.07h3.35V41c-.4.06-1.39.12-3 .17h-1.34a2.16 2.16 0 0 1-1-.41 1.73 1.73 0 0 1-.48-1.34v-5.26a1.61 1.61 0 0 1 .7-1.5zm6.44.76a2.27 2.27 0 0 1 1.33-1.05 4.21 4.21 0 0 1 1.06-.13 10.65 10.65 0 0 1 3.06.4V34h-2.62a3.9 3.9 0 0 0-.69.05 1.47 1.47 0 0 0-.48.22.93.93 0 0 0-.33.49 7.21 7.21 0 0 0-.24 2.18 5.1 5.1 0 0 0 .33 2.2 1.43 1.43 0 0 0 1.37.72c.75 0 1.52 0 2.28-.08h.39v1.31a9.77 9.77 0 0 1-2.79.33h-.27A2.49 2.49 0 0 1 27.27 40a6.66 6.66 0 0 1-.69-3.39 6.47 6.47 0 0 1 .6-3.19zm1.15 8.15h1.13a2.24 2.24 0 0 1-.29 1.31 1.25 1.25 0 0 1-1.05.38h-.68v-.72l.53-.18a.56.56 0 0 0 .3-.26 1.7 1.7 0 0 0 .06-.53zm4.89-.45l3-8.78h1.91l2.85 8.78h-1.82l-.63-1.94h-2.88L35 41.12zm4.63-10.64a1.81 1.81 0 0 0 1-.46l.29.72a2 2 0 0 1-1.34.82 1.67 1.67 0 0 1-.72-.21 1.69 1.69 0 0 0-.58-.21 1.28 1.28 0 0 0-.29 0h-.19l-.18.07-.16.08-.18.11-.19.11-.28-.66a2.08 2.08 0 0 1 1.45-.84 1.79 1.79 0 0 1 .68.21 1.62 1.62 0 0 0 .51.21zm-1.75 7.21h2l-1-3.14zM41.42 39a7.59 7.59 0 0 1-.14-1c0-.36-.05-.79-.05-1.3a10.91 10.91 0 0 1 .09-1.44 5.85 5.85 0 0 1 .25-1.15 2.39 2.39 0 0 1 .42-.81 2.41 2.41 0 0 1 .53-.53 2 2 0 0 1 .67-.3 4.66 4.66 0 0 1 1.31-.18h1a6.06 6.06 0 0 1 .67.1 2.28 2.28 0 0 1 .61.23 3 3 0 0 1 .51.36 1.76 1.76 0 0 1 .42.57 5.31 5.31 0 0 1 .3.78 7.19 7.19 0 0 1 .27 2.08 14.13 14.13 0 0 1-.09 1.83 6.51 6.51 0 0 1-.24 1.1 2.64 2.64 0 0 1-.9 1.32 2 2 0 0 1-.66.31 7.1 7.1 0 0 1-2.34.17A3.83 3.83 0 0 1 43 41a3.88 3.88 0 0 1-.58-.31 1.56 1.56 0 0 1-.41-.4 4 4 0 0 1-.33-.56 3.67 3.67 0 0 1-.26-.73zM43 35a6.84 6.84 0 0 0-.09.77v1.11c0 .45 0 .83.05 1.15a3.52 3.52 0 0 0 .16.81 1 1 0 0 0 .34.5 2.23 2.23 0 0 0 1.3.3 2.09 2.09 0 0 0 1.24-.33c.39-.3.59-1.14.59-2.52a7.22 7.22 0 0 0-.15-1.86 3.32 3.32 0 0 0-.28-.65.79.79 0 0 0-.35-.3 2.35 2.35 0 0 0-.88-.15h-.7a3.83 3.83 0 0 0-.42.08.69.69 0 0 0-.35.19 1.66 1.66 0 0 0-.25.34A1.5 1.5 0 0 0 43 35zm9.17 6.12v-8.78h1.68v8.78zm2.83 0v-8.78h1.7L60.18 38v-5.66h1.68v8.78h-1.68l-3.49-5.61v5.61zm8 0v-8.78h3.73c2 0 3.05 1.47 3.05 4.43 0 1.82-.44 3.08-1.31 3.79a2.69 2.69 0 0 1-1.74.56zm5.1-4.37c0-1.45-.23-2.35-.7-2.7a1.31 1.31 0 0 0-.8-.22h-1.91v5.79h1.92c1 0 1.5-.95 1.5-2.87zm6.12 4.43h-.17a4.08 4.08 0 0 1-1.92-.3 3.83 3.83 0 0 1-.5-.42 1.78 1.78 0 0 1-.44-.69 7.49 7.49 0 0 1-.36-2.49v-4.94h1.68v4.94a4.66 4.66 0 0 0 .23 1.72 1.08 1.08 0 0 0 .81.62 4.92 4.92 0 0 0 .76 0 1.73 1.73 0 0 0 .83-.18c.47-.25.71-1 .71-2.17v-4.93h1.69v4.94A5.18 5.18 0 0 1 77 40a3 3 0 0 1-.35.48 1.54 1.54 0 0 1-.45.33 3.21 3.21 0 0 1-.46.2 2 2 0 0 1-.52.1 7.07 7.07 0 0 1-1 .07zm-.58-9.62l1.08-1.67h1.48l-1.47 1.67zm4.91 3.73v-.76a2.12 2.12 0 0 1 .68-1.78 2.73 2.73 0 0 1 1.7-.48h.6c.31 0 .76 0 1.36.09a10 10 0 0 1 1.43.25v1.32c-.91-.08-1.64-.12-2.18-.12h-.87a1.6 1.6 0 0 0-.79.15c-.17.09-.25.33-.25.71v.43a.88.88 0 0 0 .2.67 1.22 1.22 0 0 0 .74.17h1.39A1.79 1.79 0 0 1 84.39 37a3.08 3.08 0 0 1 .24 1.24v.58A2.05 2.05 0 0 1 83.57 41a3.08 3.08 0 0 1-1.36.27 12.61 12.61 0 0 1-3.4-.36v-1.37a22.92 22.92 0 0 0 2.31.13h1.14a1.39 1.39 0 0 0 .33-.1.62.62 0 0 0 .36-.64v-.46c0-.42-.13-.68-.39-.77a1.16 1.16 0 0 0-.4-.06h-1.34a2 2 0 0 1-2.27-2.35zm6.37-1.4v-1.55h6.5v1.55H89v7.23h-1.7v-7.23zM96 32.34a2.26 2.26 0 0 1 1.72.59 3 3 0 0 1 .68 2.14 2.78 2.78 0 0 1-.71 2.25 2 2 0 0 1-.35.23l-.34.12 1.66 3.45h-1.89l-1.45-3.32-1.48-.17v3.49h-1.68v-8.78zm-2.15 4h2a.81.81 0 0 0 .67-.24 1.64 1.64 0 0 0 .2-1 1.62 1.62 0 0 0-.22-1 .78.78 0 0 0-.65-.27h-2zm5.59 4.78v-8.78h1.68v8.78zm2.5 0l3-8.78h1.91l2.86 8.78h-1.79l-.62-1.94h-2.88l-.64 1.94zm2.88-3.43h2l-1-3.14zM46.68 6.88V2a1.84 1.84 0 0 1 .58-1.46A2.19 2.19 0 0 1 48.75 0h1.84a1.76 1.76 0 0 1 1.9 1.18 2.68 2.68 0 0 1 .11.82v4.9a1.75 1.75 0 0 1-2 1.94h-1.85a2.35 2.35 0 0 1-1.45-.43 1.78 1.78 0 0 1-.62-1.53zm.69 0a1.11 1.11 0 0 0 .38.94 1.52 1.52 0 0 0 1 .32h1.84q1.32 0 1.32-1.26V2q0-1.26-1.32-1.26h-1.84a1.42 1.42 0 0 0-1 .34 1.21 1.21 0 0 0-.35.92zM57 0v8.82h-.68v-8l-2 .7v-.46l2-1zm2.28 8.59v-.71c0-.16.08-.25.23-.25H60a.23.23 0 0 1 .25.25v.71c0 .15-.09.23-.25.23h-.47a.24.24 0 0 1-.23-.23zm98.55 10.88a2.25 2.25 0 0 1 1.33-1 3.8 3.8 0 0 1 1.06-.13 11 11 0 0 1 3.06.39V20h-2.57a3 3 0 0 0-.69.06 1.22 1.22 0 0 0-.48.22.87.87 0 0 0-.33.48 7.37 7.37 0 0 0-.24 2.22 5.12 5.12 0 0 0 .35 2.2 1.39 1.39 0 0 0 1.35.68c.75 0 1.51 0 2.28-.07h.39v1.31a9.39 9.39 0 0 1-2.79.34h-.27a2.49 2.49 0 0 1-2.3-1.15 6.66 6.66 0 0 1-.69-3.39 6.54 6.54 0 0 1 .54-3.43zm6.39 7.71l3-8.79h1.91l2.87 8.79h-1.79l-.62-1.95h-2.88l-.71 1.95zm2.88-3.43h2l-1-3.15zm5.99 3.43v-8.79h3.73c2 0 3.05 1.48 3.05 4.43 0 1.82-.43 3.09-1.31 3.79a2.64 2.64 0 0 1-1.74.57zm5.1-4.37q0-2.19-.69-2.7a1.36 1.36 0 0 0-.81-.23h-1.92v5.8h1.92c1 0 1.5-.96 1.5-2.87zm2.22 4.37l3-8.79h1.91l2.86 8.79h-1.79l-.62-1.95h-2.88l-.64 1.95zm2.88-3.43h2l-1-3.15zm5.5-2.41v-.75a2.11 2.11 0 0 1 .68-1.79 2.85 2.85 0 0 1 1.69-.48h.61a12.14 12.14 0 0 1 1.35.1 7.79 7.79 0 0 1 1.44.25V20c-.91-.08-1.64-.12-2.18-.12h-.87a1.74 1.74 0 0 0-.79.14c-.17.1-.25.33-.25.71v.43a.86.86 0 0 0 .2.68 1.21 1.21 0 0 0 .73.16h1.39a1.81 1.81 0 0 1 1.84 1.09 3.12 3.12 0 0 1 .24 1.24v.59A2.08 2.08 0 0 1 193.8 27a3.22 3.22 0 0 1-1.35.26 12.61 12.61 0 0 1-3.4-.36v-1.31a22.89 22.89 0 0 0 2.3.13h1.15a1.39 1.39 0 0 0 .33-.1.61.61 0 0 0 .36-.63v-.49c0-.42-.13-.67-.4-.77a1.07 1.07 0 0 0-.39-.06h-1.35a2 2 0 0 1-2.26-2.33zm6.73-1.4v-1.55H202v1.55h-2.44v7.24h-1.68v-7.24zM207 18.39a2.29 2.29 0 0 1 1.71.59 2.94 2.94 0 0 1 .68 2.15 2.76 2.76 0 0 1-.7 2.24 1.54 1.54 0 0 1-.35.23l-.35.12 1.67 3.46h-1.9l-1.45-3.33-1.48-.17v3.5h-1.67v-8.79zm-2.15 4h2a.78.78 0 0 0 .66-.25 1.57 1.57 0 0 0 .2-1 1.73 1.73 0 0 0-.21-1 .79.79 0 0 0-.65-.27h-2zm5.72 2.61c-.06-.28-.1-.6-.14-1s0-.79 0-1.3a10.91 10.91 0 0 1 .09-1.44 7 7 0 0 1 .24-1.15 2.81 2.81 0 0 1 .42-.81 3 3 0 0 1 .54-.53 2 2 0 0 1 .66-.3 4.78 4.78 0 0 1 1.32-.18h1a4.3 4.3 0 0 1 .68.1 2 2 0 0 1 .6.22 3.27 3.27 0 0 1 .51.37 1.74 1.74 0 0 1 .43.56 5.46 5.46 0 0 1 .3.79 7.5 7.5 0 0 1 .26 2.07 14 14 0 0 1-.09 1.83 7.94 7.94 0 0 1-.23 1.11 2.57 2.57 0 0 1-.91 1.32 2.05 2.05 0 0 1-.65.3 6.83 6.83 0 0 1-2.34.17 3.12 3.12 0 0 1-1.08-.18 3.44 3.44 0 0 1-.58-.31 1.43 1.43 0 0 1-.42-.39 3.74 3.74 0 0 1-.32-.57 2.87 2.87 0 0 1-.29-.68zm1.63-4c0 .21-.07.46-.1.76s0 .67 0 1.12v1.14a3.81 3.81 0 0 0 .17.81 1 1 0 0 0 .34.51 2.19 2.19 0 0 0 1.29.3 2.16 2.16 0 0 0 1.26-.31c.4-.3.59-1.14.59-2.53a7.33 7.33 0 0 0-.15-1.86 3 3 0 0 0-.27-.64.88.88 0 0 0-.33-.3 2.14 2.14 0 0 0-.87-.16h-.71a2.37 2.37 0 0 0-.42.16.79.79 0 0 0-.34.18 2 2 0 0 0-.26.34 1.9 1.9 0 0 0-.2.48zm10.46-2.28a2.23 2.23 0 0 1 .6-.26 2.58 2.58 0 0 1 .46-.07h1.74c1 0 1.81.08 2.33.15V20h-3.47c-.3 0-.48.07-.55.21a1.15 1.15 0 0 0-.08.46V22l3.56.12v1.39l-3.56.11V25c0 .31.09.49.26.56a1.55 1.55 0 0 0 .49.07h3.35V27c-.4 0-1.39.11-3 .17h-1a2.19 2.19 0 0 1-.33 0 2 2 0 0 1-1-.41 1.7 1.7 0 0 1-.48-1.33v-5.21a1.63 1.63 0 0 1 .68-1.5zm-81.37 16.57v-.76a2.09 2.09 0 0 1 .68-1.78 2.71 2.71 0 0 1 1.69-.48h.61q.47 0 1.35.09a10 10 0 0 1 1.44.25v1.32c-.91-.08-1.64-.12-2.18-.12H144a1.6 1.6 0 0 0-.79.15c-.17.09-.25.33-.25.71v.43a.84.84 0 0 0 .2.67 1.2 1.2 0 0 0 .73.17h1.39a1.8 1.8 0 0 1 1.85 1.06 3.08 3.08 0 0 1 .24 1.24v.58A2.06 2.06 0 0 1 146.3 41a3.07 3.07 0 0 1-1.35.27 12.61 12.61 0 0 1-3.4-.36v-1.37a22.89 22.89 0 0 0 2.3.13H145a1.39 1.39 0 0 0 .33-.1.62.62 0 0 0 .36-.64v-.46c0-.42-.13-.68-.4-.77a1.07 1.07 0 0 0-.39-.06h-1.35a2 2 0 0 1-2.26-2.35zm8.06-2.63a2.27 2.27 0 0 1 .59-.25 2 2 0 0 1 .47-.07h1.74c1 0 1.81.08 2.32.15v1.39H151c-.3 0-.48.07-.56.22a1.32 1.32 0 0 0-.07.45V36l3.55.12v1.39l-3.55.11V39c0 .3.09.49.25.55a1.36 1.36 0 0 0 .5.07h3.34V41c-.4.06-1.38.12-3 .17h-1.33a1.56 1.56 0 0 1-.49-.13 1.67 1.67 0 0 1-.51-.28 1.73 1.73 0 0 1-.48-1.34v-5.26a1.63 1.63 0 0 1 .7-1.5zm6.43 6.76v-7.08h1.68V39c0 .3.09.49.25.55a1.36 1.36 0 0 0 .5.07h3v1.55h-3.61c-1.21-.05-1.82-.62-1.82-1.75zm7.32-6.76a2.19 2.19 0 0 1 .6-.25 1.9 1.9 0 0 1 .46-.07h1.74c1 0 1.81.08 2.32.15v1.39h-3.46c-.3 0-.48.07-.55.22a1.1 1.1 0 0 0-.08.45V36l3.55.12v1.39l-3.55.11V39c0 .3.09.49.25.55a1.36 1.36 0 0 0 .5.07h3.34V41c-.39.06-1.38.12-3 .17h-1.33a1.56 1.56 0 0 1-.49-.13 1.8 1.8 0 0 1-.51-.28 1.73 1.73 0 0 1-.48-1.34v-5.26a1.63 1.63 0 0 1 .69-1.5zm6.8.76a2.29 2.29 0 0 1 1.34-1.05 4.19 4.19 0 0 1 1-.13 10.56 10.56 0 0 1 3.06.4V34h-2.62a3.86 3.86 0 0 0-.68.05 1.3 1.3 0 0 0-.48.22 1 1 0 0 0-.34.49 7.21 7.21 0 0 0-.24 2.18 5.06 5.06 0 0 0 .34 2.2 1.42 1.42 0 0 0 1.37.72c.75 0 1.51 0 2.28-.08h.38v1.31a9.69 9.69 0 0 1-2.78.33h-.28A2.47 2.47 0 0 1 170 40a6.55 6.55 0 0 1-.7-3.39 6.47 6.47 0 0 1 .6-3.19zm1.16 8.15h1.12a2.25 2.25 0 0 1-.28 1.31 1.27 1.27 0 0 1-1.06.38h-.67v-.72l.53-.18a.5.5 0 0 0 .29-.26 1.64 1.64 0 0 0 .07-.53zm5.24-.45l3-8.78h1.91l2.79 8.78h-1.79l-.62-1.94h-2.88l-.64 1.94zm4.63-10.64A1.81 1.81 0 0 0 182 30l.29.72a2 2 0 0 1-1.35.82 1.67 1.67 0 0 1-.72-.21 1.63 1.63 0 0 0-.58-.21 1.19 1.19 0 0 0-.28 0h-.19l-.19.07-.16.08-.18.11-.18.11-.29-.66a2.1 2.1 0 0 1 1.45-.84 1.89 1.89 0 0 1 .69.21 1.6 1.6 0 0 0 .5.21zm-1.75 7.21h2l-1-3.14zm5.68 1.31c-.06-.28-.1-.6-.14-1s0-.79 0-1.3a10.91 10.91 0 0 1 .09-1.44 6.76 6.76 0 0 1 .19-1.16 2.81 2.81 0 0 1 .42-.81 2.67 2.67 0 0 1 .54-.53 2 2 0 0 1 .66-.3 4.78 4.78 0 0 1 1.32-.18h1a5.88 5.88 0 0 1 .68.1 2.35 2.35 0 0 1 .6.23 2.65 2.65 0 0 1 .51.36 1.79 1.79 0 0 1 .43.57 5.31 5.31 0 0 1 .3.78 7.58 7.58 0 0 1 .26 2.08 14.13 14.13 0 0 1-.09 1.83 7.77 7.77 0 0 1-.23 1.1 2.77 2.77 0 0 1-.39.79 2.62 2.62 0 0 1-.52.53 2.06 2.06 0 0 1-.65.31 7.1 7.1 0 0 1-2.34.17 3.69 3.69 0 0 1-1.08-.18 3.44 3.44 0 0 1-.58-.31 1.46 1.46 0 0 1-.42-.4 3.19 3.19 0 0 1-.32-.56 3.14 3.14 0 0 1-.24-.68zm1.63-4c0 .22-.07.47-.1.77s0 .66 0 1.11v1.15a4.1 4.1 0 0 0 .17.81 1 1 0 0 0 .34.5 2.19 2.19 0 0 0 1.29.3 2.09 2.09 0 0 0 1.26-.31c.4-.3.59-1.14.59-2.52a7.22 7.22 0 0 0-.15-1.86 3.43 3.43 0 0 0-.27-.65.88.88 0 0 0-.36-.3 2.33 2.33 0 0 0-.87-.15h-.71a3.83 3.83 0 0 0-.42.08.71.71 0 0 0-.34.19 1.67 1.67 0 0 0-.26.34 1.73 1.73 0 0 0-.17.54zm9.72.29v-.76a2.12 2.12 0 0 1 .68-1.78 2.71 2.71 0 0 1 1.69-.48h.61c.31 0 .76 0 1.36.09a10 10 0 0 1 1.43.25v1.32c-.91-.08-1.64-.12-2.18-.12h-.87a1.6 1.6 0 0 0-.79.15c-.17.09-.25.33-.25.71v.43a.88.88 0 0 0 .2.67 1.2 1.2 0 0 0 .73.17h1.4a1.79 1.79 0 0 1 1.83 1.06 3.08 3.08 0 0 1 .24 1.24v.58a2 2 0 0 1-1.07 2.1 3 3 0 0 1-1.35.27 12.61 12.61 0 0 1-3.4-.36v-1.29a22.92 22.92 0 0 0 2.31.13h1.14a1.39 1.39 0 0 0 .33-.1.62.62 0 0 0 .36-.64v-.46c0-.42-.13-.68-.39-.77a1.16 1.16 0 0 0-.4-.06h-1.34a2 2 0 0 1-2.27-2.35zm6.73-1.4v-1.55h6.49v1.55H207v7.23h-1.68v-7.23zm6.06 7.23l3-8.78h1.91l2.85 8.78h-1.79l-.62-1.94h-2.88l-.64 1.94zm2.88-3.43h2l-1-3.14zm9.66-5.35a2.26 2.26 0 0 1 1.72.59 3 3 0 0 1 .68 2.14 2.78 2.78 0 0 1-.71 2.25 2 2 0 0 1-.35.23l-.34.12 1.66 3.45h-1.89l-1.45-3.32-1.48-.17v3.49h-1.68v-8.78zm-2.15 4h2a.81.81 0 0 0 .67-.24 1.64 1.64 0 0 0 .2-1 1.62 1.62 0 0 0-.22-1 .78.78 0 0 0-.65-.27h-2zm5.61-2.45v-1.55h6.5v1.55H229v7.23h-1.68v-7.23zm11.08 7.29h-.16a4.08 4.08 0 0 1-1.92-.3 3.28 3.28 0 0 1-.51-.42 1.88 1.88 0 0 1-.43-.69 7.49 7.49 0 0 1-.36-2.49v-4.94h1.68v4.94a4.66 4.66 0 0 0 .23 1.69 1.06 1.06 0 0 0 .8.62 5 5 0 0 0 .76 0 1.74 1.74 0 0 0 .84-.18c.47-.25.71-1 .71-2.17v-4.9h1.69v4.94a5.28 5.28 0 0 1-.55 2.74 2.49 2.49 0 0 1-.36.48 1.37 1.37 0 0 1-.44.33 3.78 3.78 0 0 1-.46.2 2 2 0 0 1-.52.1 7.14 7.14 0 0 1-1 .05zm4.71-.06v-8.78h3.78a2.27 2.27 0 0 1 1.89.73 3 3 0 0 1 .54 2 4.68 4.68 0 0 1-.16 1.32 2.71 2.71 0 0 1-.39.85 1.69 1.69 0 0 1-.6.45 2.51 2.51 0 0 1-1 .21 11.6 11.6 0 0 1-1.36-.11 9.29 9.29 0 0 1-1-.13v3.48zm3.65-7.29h-2v2.56h2a.87.87 0 0 0 .46-.1c.28-.16.41-.57.41-1.23q-.01-1.23-.87-1.23zm-58.6-26.95V2a1.84 1.84 0 0 1 .58-1.44 2.19 2.19 0 0 1 1.49-.5h1.84a1.76 1.76 0 0 1 1.9 1.18 2.68 2.68 0 0 1 .11.76v4.9a1.75 1.75 0 0 1-2 1.94h-1.84a2.35 2.35 0 0 1-1.45-.43 1.78 1.78 0 0 1-.63-1.53zm.69 0a1.11 1.11 0 0 0 .38.94 1.54 1.54 0 0 0 1 .32h1.84q1.32 0 1.32-1.26V2q0-1.26-1.32-1.26h-1.84a1.42 1.42 0 0 0-1 .34 1.21 1.21 0 0 0-.35.92zm6.8-6.6a5.85 5.85 0 0 1 1.36-.28H197a2.08 2.08 0 0 1 1.52.57 1.92 1.92 0 0 1 .57 1.43v.83a2.07 2.07 0 0 1-.17.84 1.38 1.38 0 0 1-.85.79 1.78 1.78 0 0 1 1 1.73v.71c0 1.34-.71 2-2.14 2-1.12 0-1.93 0-2.41-.06a5.68 5.68 0 0 1-1.14-.2v-.43h3.46c.72 0 1.18-.21 1.36-.64a1.53 1.53 0 0 0 .13-.68v-.71a1.21 1.21 0 0 0-.42-1 1.76 1.76 0 0 0-1-.35l-2.8-.08V4.2l2.8-.11a1.66 1.66 0 0 0 1.09-.34 1.16 1.16 0 0 0 .4-.93V2a1.15 1.15 0 0 0-.4-1 1.58 1.58 0 0 0-1-.32h-3.64zm7.96 8.31v-.71c0-.16.07-.25.22-.25h.49a.22.22 0 0 1 .25.25v.71c0 .15-.08.23-.25.23h-.47a.22.22 0 0 1-.22-.23zm108.79 18.59v-8.79h1.68v8.79zm2.92 0l.77-8.79h2.34l1.46 6 1.46-6h2.32l.82 8.79h-1.66l-.51-5.87-1.42 5.87h-1.87l-1.48-5.87-.51 5.87zm11-8.46a2.17 2.17 0 0 1 .59-.26 2.67 2.67 0 0 1 .47-.07h1.73c1 0 1.82.08 2.33.15V20h-3.47c-.29 0-.48.07-.55.21a1.17 1.17 0 0 0-.07.46V22l3.55.12v1.39l-3.55.11V25c0 .31.08.49.25.56a1.55 1.55 0 0 0 .49.07h3.35V27c-.4 0-1.39.11-3 .17h-1.01a2.19 2.19 0 0 1-.33 0 1.91 1.91 0 0 1-.49-.12 1.64 1.64 0 0 1-.5-.29 1.7 1.7 0 0 1-.48-1.33v-5.21a1.61 1.61 0 0 1 .69-1.5zm10.19-.33a2.26 2.26 0 0 1 1.71.59 2.94 2.94 0 0 1 .69 2.15 2.76 2.76 0 0 1-.71 2.24 1.54 1.54 0 0 1-.35.23l-.35.12 1.67 3.46H335l-1.46-3.33-1.54-.17v3.5h-1.68v-8.79zm-2.15 4h2a.8.8 0 0 0 .67-.25 1.64 1.64 0 0 0 .2-1 1.71 1.71 0 0 0-.22-1 .78.78 0 0 0-.65-.27h-2zm5.82-1.05v-.75a2.14 2.14 0 0 1 .68-1.79 2.86 2.86 0 0 1 1.7-.48h.6a12.44 12.44 0 0 1 1.36.1 7.82 7.82 0 0 1 1.43.25V20c-.91-.08-1.64-.12-2.18-.12h-.87a1.74 1.74 0 0 0-.79.14c-.17.1-.25.33-.25.71v.43a.9.9 0 0 0 .2.68 1.23 1.23 0 0 0 .74.16h1.39a1.8 1.8 0 0 1 1.83 1.09 3.12 3.12 0 0 1 .24 1.24v.59a2.07 2.07 0 0 1-1.06 2.1 3.23 3.23 0 0 1-1.36.26 12.61 12.61 0 0 1-3.4-.36v-1.33a22.92 22.92 0 0 0 2.31.13h1.14a1.39 1.39 0 0 0 .33-.1.61.61 0 0 0 .36-.63v-.49c0-.42-.13-.67-.39-.77a1.16 1.16 0 0 0-.4-.06h-1.34a2 2 0 0 1-2.27-2.33zm6.77 5.84l3-8.79h1.91l2.86 8.79h-1.79l-.63-1.95h-2.88l-.63 1.95zm4.63-10.65a1.88 1.88 0 0 0 1.06-.45l.28.72a2 2 0 0 1-1.34.81 1.67 1.67 0 0 1-.72-.21 1.63 1.63 0 0 0-.58-.21h-.28a.88.88 0 0 0-.2 0l-.18.07-.16.08-.18.1-.18.11-.29-.66a2.08 2.08 0 0 1 1.45-.84 1.67 1.67 0 0 1 .68.22 1.88 1.88 0 0 0 .51.2zm-1.75 7.22h2l-1-3.15zm5.68 1.25a7.59 7.59 0 0 1-.14-1c0-.36-.05-.79-.05-1.3a10.91 10.91 0 0 1 .09-1.44 6.89 6.89 0 0 1 .25-1.15 2.39 2.39 0 0 1 .42-.81 2.94 2.94 0 0 1 .53-.53 2.07 2.07 0 0 1 .67-.3 4.71 4.71 0 0 1 1.31-.18h1a4.18 4.18 0 0 1 .67.1 2 2 0 0 1 .61.22 3.27 3.27 0 0 1 .51.37 1.89 1.89 0 0 1 .43.56 5.46 5.46 0 0 1 .3.79 7.5 7.5 0 0 1 .26 2.07 14 14 0 0 1-.05 1.9 7.94 7.94 0 0 1-.23 1.11 2.57 2.57 0 0 1-.91 1.32 2.05 2.05 0 0 1-.65.3 6.88 6.88 0 0 1-2.34.17 3.12 3.12 0 0 1-1.08-.18 4 4 0 0 1-.59-.31 1.52 1.52 0 0 1-.41-.39 3.74 3.74 0 0 1-.32-.57 2.87 2.87 0 0 1-.28-.75zm1.63-4a6.17 6.17 0 0 0-.1.76v1.12c0 .45 0 .83.05 1.14a3.86 3.86 0 0 0 .16.81 1 1 0 0 0 .35.51 2.19 2.19 0 0 0 1.29.3 2.16 2.16 0 0 0 1.26-.31c.39-.3.59-1.14.59-2.53a7.33 7.33 0 0 0-.15-1.86 2.51 2.51 0 0 0-.28-.64.79.79 0 0 0-.35-.3 2.16 2.16 0 0 0-.88-.16h-.7a2.37 2.37 0 0 0-.42.08.83.83 0 0 0-.35.18 2.74 2.74 0 0 0-.25.34 1.9 1.9 0 0 0-.22.56zM305 41.12v-8.78h1.68v8.78zm3.18 0v-8.78h1.7l3.48 5.66v-5.66H315v8.78h-1.68l-3.49-5.61v5.61zm8.37 0v-8.78h3.74c2 0 3 1.47 3 4.43 0 1.82-.43 3.08-1.3 3.79a2.73 2.73 0 0 1-1.74.56zm5.1-4.37q0-2.18-.69-2.7a1.36 1.36 0 0 0-.81-.22h-1.92v5.79h1.92c1 0 1.5-.95 1.5-2.87zm6.47 4.43H328a4.08 4.08 0 0 1-1.92-.3 3.83 3.83 0 0 1-.5-.42 1.76 1.76 0 0 1-.43-.69 7.49 7.49 0 0 1-.36-2.49v-4.94h1.68v4.94a4.45 4.45 0 0 0 .23 1.69 1 1 0 0 0 .8.62 5 5 0 0 0 .76 0 1.8 1.8 0 0 0 .84-.18c.47-.25.7-1 .7-2.17v-4.9h1.7v4.94a5.17 5.17 0 0 1-.56 2.74 2.49 2.49 0 0 1-.35.48 1.49 1.49 0 0 1-.44.33 3.26 3.26 0 0 1-.47.2 1.91 1.91 0 0 1-.51.1 7.23 7.23 0 0 1-1.05.05zm-.57-9.62l1.08-1.67h1.47l-1.46 1.67zm5.26 3.73v-.76a2.09 2.09 0 0 1 .69-1.78 2.69 2.69 0 0 1 1.69-.48h.61c.3 0 .76 0 1.35.09a10 10 0 0 1 1.44.25v1.32c-.92-.08-1.64-.12-2.18-.12h-.87a1.57 1.57 0 0 0-.79.15c-.17.09-.26.33-.26.71v.43a.84.84 0 0 0 .21.67 1.18 1.18 0 0 0 .73.17h1.39a1.8 1.8 0 0 1 1.84 1.06 3.08 3.08 0 0 1 .24 1.24v.58a2.06 2.06 0 0 1-1.07 2.1 3.08 3.08 0 0 1-1.36.27 12.53 12.53 0 0 1-3.39-.36v-1.29a22.89 22.89 0 0 0 2.3.13h1.15a1.39 1.39 0 0 0 .33-.1.62.62 0 0 0 .36-.64v-.46c0-.42-.13-.68-.4-.77a1.07 1.07 0 0 0-.39-.06h-1.35a2 2 0 0 1-2.27-2.35zm6.74-1.4v-1.55H346v1.55h-2.4v7.23h-1.68v-7.23zM351 32.34a2.26 2.26 0 0 1 1.72.59 3 3 0 0 1 .68 2.14 2.75 2.75 0 0 1-.71 2.25 2 2 0 0 1-.34.23l-.35.12 1.67 3.45h-1.9l-1.47-3.32-1.48-.17v3.49h-1.68v-8.78zm-2.15 4h2a.81.81 0 0 0 .66-.24 1.64 1.64 0 0 0 .2-1 1.62 1.62 0 0 0-.22-1 .77.77 0 0 0-.64-.27h-2zm5.94 4.78v-8.78h1.68v8.78zm2.85 0l3-8.78h1.9l2.86 8.78h-1.79l-.61-1.94h-2.88l-.64 1.94zm2.88-3.43h2l-1-3.14zM326.57 6.88V2a1.81 1.81 0 0 1 .58-1.44 2.16 2.16 0 0 1 1.48-.5h1.85a1.76 1.76 0 0 1 1.9 1.18 2.68 2.68 0 0 1 .1.76v4.9a1.74 1.74 0 0 1-2 1.94h-1.85a2.34 2.34 0 0 1-1.44-.43 1.78 1.78 0 0 1-.62-1.53zm.68 0a1.12 1.12 0 0 0 .39.94 1.49 1.49 0 0 0 1 .32h1.85q1.32 0 1.32-1.26V2q0-1.26-1.32-1.26h-1.85a1.38 1.38 0 0 0-1 .34 1.22 1.22 0 0 0-.36.92zm10.03-3.38h1.05a1.9 1.9 0 0 1 1.49.53 2.11 2.11 0 0 1 .48 1.46v1.34a1.84 1.84 0 0 1-1 1.79 2.22 2.22 0 0 1-1 .25h-2a14.44 14.44 0 0 1-1.65-.19v-.53h3.65a1.22 1.22 0 0 0 .95-.38 1.41 1.41 0 0 0 .33-1V5.54a1.4 1.4 0 0 0-.3-1 1.27 1.27 0 0 0-1-.34h-1.85a1.17 1.17 0 0 0-.8.31 1 1 0 0 0-.35.8h-.63L335 0h5v.72h-4.4L335.44 4a1.24 1.24 0 0 1 .42-.32 1.38 1.38 0 0 1 .61-.18h.81zm5 5.09v-.71c0-.16.07-.25.22-.25h.5a.22.22 0 0 1 .25.25v.71c0 .15-.08.23-.25.23h-.47a.22.22 0 0 1-.22-.23zm98.86 18.59l3-8.79H446l2.86 8.79h-1.79l-.62-1.95h-2.88l-.64 1.95zm2.86-3.43h2l-1-3.15zm5.71 1.67a6.78 6.78 0 0 1-.24-1.24c0-.41-.05-.89-.05-1.44a12.57 12.57 0 0 1 .07-1.45 6 6 0 0 1 .25-1.21 2.71 2.71 0 0 1 .51-1 2.52 2.52 0 0 1 2-.81 14.25 14.25 0 0 1 1.73.08 12.61 12.61 0 0 1 1.64.3V20h-.2l-.49-.05-.67-.05c-.57-.05-1.11-.07-1.62-.07a1.27 1.27 0 0 0-1.27.64 6.19 6.19 0 0 0-.31 2.36 6 6 0 0 0 .29 2.29 1.24 1.24 0 0 0 1.22.59 2.2 2.2 0 0 0 .74-.14 3.91 3.91 0 0 0 .57-.27l.19-.15v-1.61h-1.22v-1.07a5.85 5.85 0 0 1 2.09-.29h.81v5h-1.2l-.45-.59a2.05 2.05 0 0 1-.9.51 3.34 3.34 0 0 1-2.2-.1 2 2 0 0 1-.83-.61 2.75 2.75 0 0 1-.46-.97zm8.16-6.7a2.32 2.32 0 0 1 .59-.26 2.8 2.8 0 0 1 .47-.07h1.74c1 0 1.81.08 2.32.15V20h-3.46c-.3 0-.49.07-.56.21a1.39 1.39 0 0 0-.07.46V22l3.55.12v1.39l-3.55.11V25c0 .31.09.49.25.56a1.62 1.62 0 0 0 .5.07H463V27c-.4 0-1.38.11-3 .17h-1a2.06 2.06 0 0 1-.33 0 1.82 1.82 0 0 1-.49-.12 1.46 1.46 0 0 1-1-1.62v-5.21a1.63 1.63 0 0 1 .69-1.5zm6.43 8.46v-8.79h1.7l3.48 5.68v-5.68h1.68v8.79h-1.68L466 21.56v5.62zm8.38 0v-8.79h3.73q3 0 3 4.43c0 1.82-.44 3.09-1.31 3.79a2.68 2.68 0 0 1-1.74.57zm5.1-4.37c0-1.46-.24-2.36-.7-2.7a1.35 1.35 0 0 0-.8-.23h-1.92v5.8h1.92c1 0 1.5-.96 1.5-2.87zm2.22 4.37l3-8.79h1.91l2.85 8.79h-1.78l-.63-1.95h-2.88l-.63 1.95zm2.88-3.43h2l-1-3.15zm9.22 3.43v-8.79h3.74q3 0 3 4.43c0 1.82-.43 3.09-1.3 3.79a2.68 2.68 0 0 1-1.74.57zm5.1-4.37q0-2.19-.69-2.7a1.36 1.36 0 0 0-.81-.23h-1.92v5.8h1.92c1 0 1.5-.96 1.5-2.87zm3.46-4.09a2.23 2.23 0 0 1 .6-.26 2.58 2.58 0 0 1 .46-.07h1.74c1 0 1.81.08 2.33.15V20h-3.47c-.3 0-.48.07-.55.21a1.15 1.15 0 0 0-.08.46V22l3.56.12v1.39l-3.56.11V25c0 .31.09.49.26.56a1.55 1.55 0 0 0 .49.07h3.35V27c-.4 0-1.39.11-3 .17h-1a2.13 2.13 0 0 1-.33 0 2 2 0 0 1-1-.41 1.7 1.7 0 0 1-.48-1.33v-5.21a1.63 1.63 0 0 1 .68-1.5zm-82.58 22.4v-8.78h1.71l3.48 5.66v-5.66H425v8.78h-1.68l-3.49-5.61v5.61zm8.07-2.12a7.71 7.71 0 0 1-.13-1 12.25 12.25 0 0 1 0-1.3 10.91 10.91 0 0 1 .09-1.44 6.76 6.76 0 0 1 .24-1.15 2.81 2.81 0 0 1 .42-.81 2.67 2.67 0 0 1 .54-.53 2 2 0 0 1 .66-.3 4.78 4.78 0 0 1 1.32-.18h1a6.06 6.06 0 0 1 .67.1 2.21 2.21 0 0 1 .6.23 2.65 2.65 0 0 1 .44.38 1.65 1.65 0 0 1 .43.57 5.31 5.31 0 0 1 .3.78 7.21 7.21 0 0 1 .26 2.08 14.13 14.13 0 0 1-.09 1.83 7.77 7.77 0 0 1-.23 1.1 2.77 2.77 0 0 1-.39.79 2.39 2.39 0 0 1-.52.53 2 2 0 0 1-.65.31 7.1 7.1 0 0 1-2.34.17 3.69 3.69 0 0 1-1.08-.18 3.88 3.88 0 0 1-.58-.31 1.46 1.46 0 0 1-.42-.4 3.19 3.19 0 0 1-.32-.56 3.14 3.14 0 0 1-.22-.71zm1.63-4c0 .22-.07.47-.1.77s0 .66 0 1.11a9.62 9.62 0 0 0 .02 1.12 3.52 3.52 0 0 0 .16.81 1 1 0 0 0 .34.5 2.2 2.2 0 0 0 1.3.3 2.08 2.08 0 0 0 1.25-.31c.4-.3.59-1.14.59-2.52a7.22 7.22 0 0 0-.15-1.86 3.43 3.43 0 0 0-.27-.65.88.88 0 0 0-.36-.3 2.3 2.3 0 0 0-.87-.15H429a3.1 3.1 0 0 0-.42.08.69.69 0 0 0-.35.19 1.67 1.67 0 0 0-.26.34 1.73 1.73 0 0 0-.19.57zm5.51-2.66h1.79l1.92 6.57 2.06-6.57h1.79L438 41.12h-1.94zm6.42 8.78l3-8.78h1.91l2.85 8.78h-1.78l-.69-1.94h-2.88l-.63 1.94zm2.88-3.43h2l-1-3.14zm5.13-2.4v-.76a2.09 2.09 0 0 1 .69-1.78 2.69 2.69 0 0 1 1.69-.48h.6c.31 0 .76 0 1.36.09a9.78 9.78 0 0 1 1.43.25v1.32c-.91-.08-1.63-.12-2.17-.12h-.87a1.64 1.64 0 0 0-.8.15c-.16.09-.25.33-.25.71v.43a.84.84 0 0 0 .21.67 1.18 1.18 0 0 0 .73.17h1.39a1.81 1.81 0 0 1 1.84 1.06 3.08 3.08 0 0 1 .24 1.24v.58a2.06 2.06 0 0 1-1.07 2.1 3.08 3.08 0 0 1-1.36.27 12.48 12.48 0 0 1-3.39-.36v-1.29a22.73 22.73 0 0 0 2.3.13h1.15a1.73 1.73 0 0 0 .33-.1.62.62 0 0 0 .36-.64v-.46c0-.42-.14-.68-.4-.77a1.12 1.12 0 0 0-.4-.06H450a2 2 0 0 1-2.28-2.35zm10.59-2.63a2.27 2.27 0 0 1 .59-.25 2 2 0 0 1 .47-.07h1.73c1 0 1.82.08 2.33.15v1.39H460c-.29 0-.48.07-.55.22a1.12 1.12 0 0 0-.07.45V36l3.55.12v1.39l-3.55.11V39c0 .3.08.49.25.55a1.34 1.34 0 0 0 .49.07h3.35V41c-.4.06-1.39.12-3 .17h-1.34a2.16 2.16 0 0 1-1-.41 1.73 1.73 0 0 1-.48-1.34v-5.26a1.63 1.63 0 0 1 .66-1.5zm5.94 2.63v-.76a2.09 2.09 0 0 1 .68-1.78 2.71 2.71 0 0 1 1.69-.48h.61q.47 0 1.35.09a10 10 0 0 1 1.44.25v1.32c-.91-.08-1.64-.12-2.18-.12H467a1.6 1.6 0 0 0-.79.15c-.17.09-.25.33-.25.71v.43a.84.84 0 0 0 .2.67 1.2 1.2 0 0 0 .73.17h1.39a1.8 1.8 0 0 1 1.81 1.06 3.08 3.08 0 0 1 .24 1.24v.58a2.06 2.06 0 0 1-1.07 2.1 3.07 3.07 0 0 1-1.35.27 12.61 12.61 0 0 1-3.4-.36v-1.29a22.89 22.89 0 0 0 2.3.13h1.15a1.39 1.39 0 0 0 .33-.1.62.62 0 0 0 .36-.64v-.46c0-.42-.13-.68-.4-.77a1.07 1.07 0 0 0-.39-.06h-1.35a2 2 0 0 1-2.26-2.35zm6.37-1.4v-1.55h6.49v1.55h-2.44v7.23H473v-7.23zm11.07-1.55a2.26 2.26 0 0 1 1.72.59 2.93 2.93 0 0 1 .68 2.14 2.78 2.78 0 0 1-.7 2.25 2.45 2.45 0 0 1-.35.23l-.35.12 1.67 3.45h-1.9L481 37.8l-1.48-.17v3.49h-1.68v-8.78zm-2.14 4h2a.81.81 0 0 0 .66-.24 1.57 1.57 0 0 0 .2-1 1.7 1.7 0 0 0-.21-1 .79.79 0 0 0-.65-.27h-2zm5.27 4.78l3-8.78h1.91l2.85 8.78h-1.79l-.62-1.94h-2.88l-.63 1.94zm2.88-3.43h2l-1-3.14zm4.12-3.8v-1.55h6.49v1.55h-2.43v7.23h-1.68v-7.23zm7.08 5.5v-5.23a1.61 1.61 0 0 1 .65-1.49 2.19 2.19 0 0 1 1.16-.33h1.62q1.57 0 2.34.15v1.39h-3.46c-.3 0-.48.07-.55.22a1.1 1.1 0 0 0-.08.45V36l3.55.12v1.39l-3.55.11V39c0 .3.09.49.25.55a1.4 1.4 0 0 0 .5.07h3.34V41c-.39.06-1.38.12-3 .17h-1.33a1.56 1.56 0 0 1-.49-.13 1.8 1.8 0 0 1-.51-.28 1.73 1.73 0 0 1-.44-1.37zm2.61-7.81l1.09-1.65h1.46l-1.46 1.65zm4.17 7.78a6.65 6.65 0 0 1-.23-1.23c0-.41-.05-.89-.05-1.44s0-1 .06-1.45a6.94 6.94 0 0 1 .25-1.22 3 3 0 0 1 .51-1 2.51 2.51 0 0 1 2-.82 17 17 0 0 1 1.74.08 11.52 11.52 0 0 1 1.64.31v1.3h-.69l-.67-.06c-.58 0-1.12-.07-1.62-.07a1.27 1.27 0 0 0-1.27.64 6.06 6.06 0 0 0-.31 2.36 6 6 0 0 0 .28 2.29 1.25 1.25 0 0 0 1.23.59 2.24 2.24 0 0 0 .74-.14 2.55 2.55 0 0 0 .57-.27l.19-.14v-1.6h-1.23v-1.07a5.89 5.89 0 0 1 2.09-.29h.82v5h-1.2l-.46-.59a2 2 0 0 1-.9.52A3.41 3.41 0 0 1 507 41a2.12 2.12 0 0 1-.83-.61 3 3 0 0 1-.49-1.03zm7.19 1.76v-8.78h1.68v8.78zm2.5 0l3-8.78h1.91l2.86 8.78h-1.79l-.63-1.94h-2.92l-.63 1.94zm2.88-3.43h2l-1-3.14zm5.13-2.4v-.76a2.09 2.09 0 0 1 .69-1.78 2.69 2.69 0 0 1 1.69-.48h.61q.45 0 1.35.09a10.21 10.21 0 0 1 1.44.25v1.32c-.92-.08-1.64-.12-2.18-.12h-.87a1.57 1.57 0 0 0-.79.15c-.17.09-.26.33-.26.71v.43a.84.84 0 0 0 .21.67 1.18 1.18 0 0 0 .73.17h1.39a1.8 1.8 0 0 1 1.84 1.06 3.08 3.08 0 0 1 .24 1.24v.58A2.06 2.06 0 0 1 528.4 41a3.08 3.08 0 0 1-1.36.27 12.48 12.48 0 0 1-3.39-.36v-1.37a22.73 22.73 0 0 0 2.3.13h1.15a1.39 1.39 0 0 0 .33-.1.62.62 0 0 0 .36-.64v-.46c0-.42-.13-.68-.4-.77a1.07 1.07 0 0 0-.39-.06h-1.35a2 2 0 0 1-2.27-2.35zM468.61 6.88V2a1.81 1.81 0 0 1 .58-1.44 2.16 2.16 0 0 1 1.48-.5h1.85a1.76 1.76 0 0 1 1.9 1.18 2.68 2.68 0 0 1 .1.76v4.9a1.74 1.74 0 0 1-2 1.94h-1.85a2.32 2.32 0 0 1-1.44-.43 1.76 1.76 0 0 1-.62-1.53zm.68 0a1.14 1.14 0 0 0 .38.94 1.54 1.54 0 0 0 1 .32h1.85q1.32 0 1.32-1.26V2q0-1.26-1.32-1.26h-1.85a1.42 1.42 0 0 0-1 .34 1.25 1.25 0 0 0-.35.92zm6.8-6.16V0h5.43l.29.48-3.08 8.3h-.81l3-8.1zm7.31 7.87v-.71c0-.16.08-.25.23-.25h.47a.22.22 0 0 1 .25.25v.71c0 .15-.08.23-.25.23h-.47a.2.2 0 0 1-.16-.07.19.19 0 0 1-.07-.16zM91 263.34h1.78l2 6.51 1.58-6.51h1.8l-.61 2.26 1.39 4.29 1.61-6.55h1.78l-2.42 8.78h-2.03l-1.19-3.6-1 3.6h-1.97zm12.06 6.66a7.59 7.59 0 0 1-.14-1v-1.3a10.91 10.91 0 0 1 .09-1.44 6 6 0 0 1 .25-1.16 2.59 2.59 0 0 1 .42-.81 2.35 2.35 0 0 1 .53-.52 2 2 0 0 1 .67-.3 4.66 4.66 0 0 1 1.31-.18h1a5.73 5.73 0 0 1 .67.1 2.29 2.29 0 0 1 .61.22 3.27 3.27 0 0 1 .51.37 1.83 1.83 0 0 1 .42.56 3.83 3.83 0 0 1 .3.79 7.14 7.14 0 0 1 .27 2.08 14.13 14.13 0 0 1-.09 1.83 6.74 6.74 0 0 1-.24 1.1 2.64 2.64 0 0 1-.9 1.32 2.24 2.24 0 0 1-.66.31 6.87 6.87 0 0 1-2.34.16 3.22 3.22 0 0 1-1.08-.18 3.49 3.49 0 0 1-.58-.3 1.56 1.56 0 0 1-.41-.4 4 4 0 0 1-.33-.56 3.67 3.67 0 0 1-.28-.69zm1.62-4a6.64 6.64 0 0 0-.09.76v2.27a4.14 4.14 0 0 0 .16.81 1 1 0 0 0 .34.5 2.25 2.25 0 0 0 1.3.3 2.09 2.09 0 0 0 1.26-.31c.39-.3.59-1.14.59-2.52a7.22 7.22 0 0 0-.15-1.86 2.62 2.62 0 0 0-.28-.65.79.79 0 0 0-.35-.3 2.34 2.34 0 0 0-.88-.16h-.7a2.37 2.37 0 0 0-.42.08.74.74 0 0 0-.35.19 1.43 1.43 0 0 0-.25.34 1.73 1.73 0 0 0-.18.55zm10.32-2.66a2.27 2.27 0 0 1 1.71.58 3 3 0 0 1 .69 2.15 2.78 2.78 0 0 1-.71 2.25 1.42 1.42 0 0 1-.35.22 2 2 0 0 1-.35.12l1.67 3.46h-1.9l-1.45-3.32-1.47-.17v3.49h-1.68v-8.78zm-2.15 4h2a.84.84 0 0 0 .67-.24 1.68 1.68 0 0 0 .19-1 1.74 1.74 0 0 0-.21-1 .79.79 0 0 0-.65-.27h-2zm5.97 4.78v-8.78h1.61V267h.71l2.23-3.67h1.95l-2.68 4.4 2.68 4.38h-1.95l-2.23-3.62h-.7v3.62zm7.52-5.83v-.76a2.13 2.13 0 0 1 .69-1.79 2.83 2.83 0 0 1 1.69-.48h.61c.3 0 .76 0 1.35.1a8.74 8.74 0 0 1 1.44.25v1.32c-.92-.08-1.64-.12-2.18-.12h-.87a1.57 1.57 0 0 0-.79.15c-.17.09-.26.33-.26.7v.44a.84.84 0 0 0 .21.67 1.18 1.18 0 0 0 .73.17h1.39a1.8 1.8 0 0 1 1.84 1.09 3.07 3.07 0 0 1 .24 1.23v.59a2.08 2.08 0 0 1-1.07 2.1 3.08 3.08 0 0 1-1.36.27 12.53 12.53 0 0 1-3.39-.36v-1.32c.88.08 1.65.13 2.3.13a11.21 11.21 0 0 0 1.15 0 1 1 0 0 0 .33-.09.63.63 0 0 0 .36-.64v-.47c0-.41-.13-.67-.4-.76a1.07 1.07 0 0 0-.39-.06h-1.35a2 2 0 0 1-2.27-2.36zm7.46 5.83v-8.78h1.68v3.76h3v-3.76h1.68v8.78h-1.68v-3.48h-3v3.48zm7.92-2.12c-.06-.28-.1-.6-.14-1s0-.8 0-1.3a10.91 10.91 0 0 1 .09-1.44 6.89 6.89 0 0 1 .24-1.16 3.09 3.09 0 0 1 .42-.81 2.6 2.6 0 0 1 .54-.52 2 2 0 0 1 .66-.3 4.78 4.78 0 0 1 1.32-.18h1a5.88 5.88 0 0 1 .68.1 2.34 2.34 0 0 1 .6.22 3.27 3.27 0 0 1 .51.37 1.86 1.86 0 0 1 .43.56 5.46 5.46 0 0 1 .3.79 7.52 7.52 0 0 1 .26 2.08 14.13 14.13 0 0 1-.09 1.83 8.09 8.09 0 0 1-.23 1.1 2.77 2.77 0 0 1-.39.79 2.62 2.62 0 0 1-.52.53 2.31 2.31 0 0 1-.65.31 6.87 6.87 0 0 1-2.34.16 3.12 3.12 0 0 1-1.08-.18 2.85 2.85 0 0 1-.58-.3 1.46 1.46 0 0 1-.42-.4 3.19 3.19 0 0 1-.32-.56 3.14 3.14 0 0 1-.29-.69zm1.63-4c0 .21-.07.47-.1.76s0 .67 0 1.12v1.15a4.1 4.1 0 0 0 .17.81 1 1 0 0 0 .34.5 2.19 2.19 0 0 0 1.29.3 2.09 2.09 0 0 0 1.26-.31c.4-.3.59-1.14.59-2.52a7.22 7.22 0 0 0-.15-1.86 3.16 3.16 0 0 0-.27-.65.88.88 0 0 0-.36-.3 2.33 2.33 0 0 0-.87-.16h-.71a2.37 2.37 0 0 0-.42.08.71.71 0 0 0-.34.19 1.43 1.43 0 0 0-.26.34 1.73 1.73 0 0 0-.17.55zm6.49 6.12v-8.78h3.78a2.3 2.3 0 0 1 1.9.73 3.08 3.08 0 0 1 .54 2 4.65 4.65 0 0 1-.17 1.32 2.35 2.35 0 0 1-.39.84 1.49 1.49 0 0 1-.6.45 2.36 2.36 0 0 1-1 .22c-.28 0-.73 0-1.36-.11a9.29 9.29 0 0 1-1-.13v3.48zm3.65-7.3h-2v2.57h2a.84.84 0 0 0 .47-.11c.27-.16.4-.56.4-1.22 0-.82-.3-1.24-.87-1.24zm-72.21 21.25l.77-8.79h2.34l1.46 6 1.45-6h2.33l.82 8.79h-1.66l-.58-5.87-1.41 5.87h-1.87l-1.48-5.87-.52 5.87zm10.63 0v-8.79h1.68v8.79zm2.82-7.24v-1.55h6.49v1.55h-2.43v7.24h-1.68v-7.24zm10.96 7.24v-8.79h1.68v8.79zm3.18 0v-8.79h1.7l3.48 5.68v-5.68h1.68v8.79h-1.68l-3.49-5.62v5.62zm8.37 0v-8.79H121c2 0 3 1.48 3 4.43 0 1.82-.43 3.09-1.31 3.79a2.64 2.64 0 0 1-1.74.57zm5.1-4.37q0-2.19-.69-2.7a1.36 1.36 0 0 0-.81-.23h-1.92v5.8h1.92c1 0 1.5-.96 1.5-2.87zm6.47 4.42h-.17a4.11 4.11 0 0 1-1.92-.29 4 4 0 0 1-.5-.43 1.76 1.76 0 0 1-.43-.69 7.43 7.43 0 0 1-.36-2.48v-5h1.68v5a4.74 4.74 0 0 0 .22 1.69 1.07 1.07 0 0 0 .81.61 4.67 4.67 0 0 0 .76.05 1.73 1.73 0 0 0 .83-.18c.48-.26.71-1 .71-2.17v-5h1.69v5a5.17 5.17 0 0 1-.55 2.73 3.7 3.7 0 0 1-.35.49 1.72 1.72 0 0 1-.45.32l-.46.21a3.53 3.53 0 0 1-.51.1 9.66 9.66 0 0 1-1 .04zm-.58-9.62l1.08-1.67h1.48l-1.46 1.67zm5.27 3.73v-.75a2.12 2.12 0 0 1 .69-1.79 2.83 2.83 0 0 1 1.69-.48h.6a12.44 12.44 0 0 1 1.36.1 7.66 7.66 0 0 1 1.43.25v1.32c-.91-.08-1.63-.12-2.17-.12h-.87a1.79 1.79 0 0 0-.8.14c-.16.1-.25.33-.25.71v.39a.82.82 0 0 0 .21.67 1.12 1.12 0 0 0 .73.17h1.39a1.83 1.83 0 0 1 1.84 1.09 3.08 3.08 0 0 1 .24 1.24v.59a2.08 2.08 0 0 1-1.07 2.1 3.23 3.23 0 0 1-1.36.26 12.48 12.48 0 0 1-3.39-.36v-1.32a22.73 22.73 0 0 0 2.3.13h1.15a1.73 1.73 0 0 0 .33-.1.61.61 0 0 0 .36-.63v-.47c0-.42-.14-.67-.4-.77a1.12 1.12 0 0 0-.4-.06h-1.34a2 2 0 0 1-2.27-2.31zm6.73-1.4v-1.55h6.5v1.55h-2.44v7.24h-1.68v-7.24zm11.44-1.55a2.3 2.3 0 0 1 1.72.59 3 3 0 0 1 .68 2.15 2.76 2.76 0 0 1-.71 2.24 1.54 1.54 0 0 1-.35.23l-.34.12 1.66 3.46h-1.89l-1.44-3.33-1.48-.17v3.5h-1.68v-8.79zm-2.15 4h2a.81.81 0 0 0 .67-.24 1.64 1.64 0 0 0 .2-1 1.62 1.62 0 0 0-.22-1 .78.78 0 0 0-.65-.27h-2zm5.95 4.79v-8.79h1.68v8.79zm2.86 0l3-8.79h1.91l2.86 8.79h-1.79l-.62-1.95h-2.88l-.64 1.95zm2.88-3.44h2l-1-3.14zm-45.92-30.81v-4.9a1.84 1.84 0 0 1 .58-1.44 2.24 2.24 0 0 1 1.49-.5h1.84a1.76 1.76 0 0 1 1.9 1.19 2.56 2.56 0 0 1 .11.75v4.9c0 1.3-.67 1.94-2 1.94h-1.84a2.3 2.3 0 0 1-1.44-.43 1.75 1.75 0 0 1-.64-1.51zm.69 0a1.15 1.15 0 0 0 .38 1 1.53 1.53 0 0 0 1 .31h1.84q1.32 0 1.32-1.26v-4.9q0-1.26-1.32-1.26h-1.84a1.43 1.43 0 0 0-1 .35 1.18 1.18 0 0 0-.35.91zm6.94-6.26v-.5a28.66 28.66 0 0 1 3.53-.2 2.14 2.14 0 0 1 2.29 1.57 3.13 3.13 0 0 1 .15 1 2.92 2.92 0 0 1-.42 1.35 7 7 0 0 1-1 1.41 15.3 15.3 0 0 1-1.27 1.29 18.57 18.57 0 0 1-1.95 1.58h4.6v.68H123v-.63q1.53-1.11 2.28-1.77c.49-.44.91-.83 1.25-1.18a12.82 12.82 0 0 0 .85-1 3.36 3.36 0 0 0 .8-1.86 1.58 1.58 0 0 0-1-1.68 2.26 2.26 0 0 0-.77-.12zm7.83 7.98v-.71c0-.17.07-.25.23-.25h.46c.17 0 .26.08.26.25v.71c0 .15-.09.22-.26.22H131a.25.25 0 0 1-.17-.06.25.25 0 0 1-.08-.16zm114.41 18.58l.77-8.78h2.34l1.47 6 1.45-6h2.33l.81 8.78h-1.66l-.57-5.87-1.42 5.87h-1.87l-1.48-5.87-.51 5.87zm10.31 0l3-8.78h1.9l2.86 8.78h-1.79l-.62-1.94h-2.88l-.64 1.94zm2.88-3.43h2l-1-3.15zm4.49-3.81v-1.54h6.49v1.54h-2.43v7.24h-1.68v-7.24zm7.85-.46a2.27 2.27 0 0 1 1.33-1.05 3.8 3.8 0 0 1 1.06-.13 10.53 10.53 0 0 1 3.05.4V265h-2.62a3.9 3.9 0 0 0-.69 0 1.38 1.38 0 0 0-.48.22.94.94 0 0 0-.33.48 7.47 7.47 0 0 0-.24 2.22 5.05 5.05 0 0 0 .35 2.21 1.39 1.39 0 0 0 1.35.67c.75 0 1.51 0 2.28-.07h.38v1.31a9.65 9.65 0 0 1-2.78.33h-.27a2.49 2.49 0 0 1-2.3-1.15 6.66 6.66 0 0 1-.69-3.39 6.47 6.47 0 0 1 .6-3.41zm6.72 7.7v-8.78h1.68v3.76h3v-3.76h1.68v8.78h-1.67v-3.48h-3v3.48zm-35.25 13.95l.77-8.79h2.34l1.47 6 1.45-6h2.33l.81 8.79h-1.65l-.58-5.87-1.42 5.87h-1.87l-1.47-5.87-.52 5.87zm10.31 0l3-8.79h1.9l2.86 8.79h-1.79l-.62-1.95h-2.88l-.64 1.95zm2.88-3.44h2l-1-3.14zm5.99 3.44v-8.79H263V281h.71l2.23-3.67h1.95l-2.68 4.41 2.68 4.38h-1.95l-2.23-3.63H263v3.63zm7.78 0v-8.79h1.68v8.79zm3.18 0v-8.79h1.7l3.48 5.68v-5.68h1.68v8.79h-1.68l-3.48-5.62v5.62zm8.43-1.76a6 6 0 0 1-.23-1.24q-.06-.61-.06-1.44c0-.55 0-1 .07-1.45a6 6 0 0 1 .25-1.21 3.06 3.06 0 0 1 .51-1 2.53 2.53 0 0 1 2-.81 17.31 17.31 0 0 1 1.74.07 14.68 14.68 0 0 1 1.63.31v1.31h-.19l-.5-.05-.66-.05c-.58-.05-1.12-.08-1.62-.08a1.26 1.26 0 0 0-1.27.65 5.92 5.92 0 0 0-.32 2.35 6 6 0 0 0 .29 2.3 1.25 1.25 0 0 0 1.23.58 2.12 2.12 0 0 0 .73-.13 3.09 3.09 0 0 0 .57-.27l.2-.15v-1.57h-1.23v-1.07a5.85 5.85 0 0 1 2.09-.29h.82v5h-1.2l-.46-.59a2.05 2.05 0 0 1-.9.51 3.34 3.34 0 0 1-2.21-.07 2 2 0 0 1-.83-.61 2.83 2.83 0 0 1-.45-1zm-24.43-32.49v-4.9a1.81 1.81 0 0 1 .58-1.44 2.21 2.21 0 0 1 1.48-.5h1.85a1.76 1.76 0 0 1 1.9 1.19 2.56 2.56 0 0 1 .11.75v4.9c0 1.3-.67 1.94-2 1.94h-1.85a2.34 2.34 0 0 1-1.44-.43 1.77 1.77 0 0 1-.63-1.51zm.68 0a1.15 1.15 0 0 0 .39 1 1.5 1.5 0 0 0 1 .31h1.85q1.32 0 1.32-1.26v-4.9q0-1.26-1.32-1.26h-1.85a1.4 1.4 0 0 0-1 .35 1.18 1.18 0 0 0-.36.91zm11.5-1.12v-2.6l.34-.9h.35v3.5h1.07v.53l-1.07.18v2.33h-.69v-2.33H264l-.32-.38 3.8-6.05h.8l-3.57 5.72zm3.23 2.84v-.71c0-.17.07-.25.23-.25h.46c.17 0 .26.08.26.25v.71c0 .15-.09.22-.26.22h-.46a.25.25 0 0 1-.17-.06.25.25 0 0 1-.06-.16zM379 264.42a2.3 2.3 0 0 1 1.33-1.05 3.9 3.9 0 0 1 1.06-.13 10.65 10.65 0 0 1 3.06.4V265h-2.62a4 4 0 0 0-.69 0 1.34 1.34 0 0 0-.47.22 1 1 0 0 0-.34.48 7.47 7.47 0 0 0-.24 2.22 5 5 0 0 0 .36 2.21 1.37 1.37 0 0 0 1.35.67c.75 0 1.51 0 2.28-.07h.38v1.31a9.74 9.74 0 0 1-2.78.33h-.28a2.51 2.51 0 0 1-2.3-1.15 6.66 6.66 0 0 1-.69-3.39 6.47 6.47 0 0 1 .59-3.41zm6.54 5.58a6.13 6.13 0 0 1-.14-1v-1.3a10.91 10.91 0 0 1 .09-1.44 6.89 6.89 0 0 1 .24-1.16 2.84 2.84 0 0 1 .43-.81 2.35 2.35 0 0 1 .53-.52 2 2 0 0 1 .66-.3 4.78 4.78 0 0 1 1.32-.18h1a6.06 6.06 0 0 1 .67.1 2.29 2.29 0 0 1 .61.22 4.6 4.6 0 0 1 .51.37 1.83 1.83 0 0 1 .42.56 5.46 5.46 0 0 1 .3.79 7.14 7.14 0 0 1 .27 2.08 14.13 14.13 0 0 1-.09 1.83 8 8 0 0 1-.24 1.1 2.54 2.54 0 0 1-.39.79 2.19 2.19 0 0 1-.52.53 2.07 2.07 0 0 1-.65.31 6.87 6.87 0 0 1-2.34.16 3.17 3.17 0 0 1-1.08-.18 3.14 3.14 0 0 1-.58-.3 1.42 1.42 0 0 1-.41-.4 2.67 2.67 0 0 1-.33-.56 3.14 3.14 0 0 1-.28-.69zm1.62-4a6.64 6.64 0 0 0-.09.76v1.12a9.62 9.62 0 0 0 .05 1.15 3.52 3.52 0 0 0 .16.81 1 1 0 0 0 .34.5 2.23 2.23 0 0 0 1.3.3 2.09 2.09 0 0 0 1.26-.31c.39-.3.58-1.14.58-2.52a7.9 7.9 0 0 0-.14-1.86 3.7 3.7 0 0 0-.28-.65.85.85 0 0 0-.35-.3 2.34 2.34 0 0 0-.88-.16h-.7a2.21 2.21 0 0 0-.42.08.69.69 0 0 0-.35.19 1.2 1.2 0 0 0-.25.34 1.5 1.5 0 0 0-.23.55zm6.61 6.12v-8.78h1.71L399 269v-5.67h1.68v8.78H399l-3.5-5.62v5.62zm8.99-8.46a2.27 2.27 0 0 1 .59-.25 2 2 0 0 1 .47-.07h1.74c1 0 1.81.08 2.32.15v1.39h-3.46c-.3 0-.48.07-.56.22a1.32 1.32 0 0 0-.07.45V267l3.55.12v1.39l-3.55.11V270c0 .3.09.49.25.55a1.36 1.36 0 0 0 .5.07h3.34V272c-.4.06-1.38.11-3 .17h-1.33a1.89 1.89 0 0 1-.49-.13 1.46 1.46 0 0 1-1-1.62v-5.23a1.63 1.63 0 0 1 .7-1.53zm6.11-.32h1.86l1.65 3 1.7-3h1.86l-2.64 4.38 2.58 4.4H414l-1.64-2.95-1.62 2.95h-1.84l2.58-4.4zm7.93 8.78l3-8.78h1.91l2.86 8.78h-1.79l-.62-1.94h-2.88l-.64 1.94zm4.63-10.64a1.87 1.87 0 0 0 1.06-.46l.29.72a2.05 2.05 0 0 1-1.35.82 1.67 1.67 0 0 1-.72-.21 1.63 1.63 0 0 0-.58-.21h-.47l-.19.07-.16.08-.18.11-.18.11-.29-.66a2.1 2.1 0 0 1 1.45-.84 1.71 1.71 0 0 1 .69.21 1.6 1.6 0 0 0 .5.21zm-1.75 7.21h2l-1-3.15zm5.68 1.31c-.06-.28-.1-.6-.14-1s0-.8 0-1.3a10.91 10.91 0 0 1 .09-1.44 6.89 6.89 0 0 1 .24-1.16 3.09 3.09 0 0 1 .42-.81 2.6 2.6 0 0 1 .54-.52 2 2 0 0 1 .66-.3 4.78 4.78 0 0 1 1.32-.18h1a5.88 5.88 0 0 1 .68.1 2.34 2.34 0 0 1 .6.22 3.27 3.27 0 0 1 .51.37 1.86 1.86 0 0 1 .43.56 5.46 5.46 0 0 1 .3.79 7.52 7.52 0 0 1 .26 2.08 14.13 14.13 0 0 1-.09 1.83 8.09 8.09 0 0 1-.23 1.1 2.77 2.77 0 0 1-.39.79 2.62 2.62 0 0 1-.52.53 2.31 2.31 0 0 1-.65.31 6.87 6.87 0 0 1-2.34.16 3.12 3.12 0 0 1-1.08-.18 2.85 2.85 0 0 1-.58-.3 1.46 1.46 0 0 1-.42-.4 3.19 3.19 0 0 1-.32-.56 3.14 3.14 0 0 1-.29-.69zm1.63-4c0 .21-.07.47-.1.76s0 .67 0 1.12v1.15a4.1 4.1 0 0 0 .17.81 1 1 0 0 0 .34.5 2.19 2.19 0 0 0 1.29.3 2.09 2.09 0 0 0 1.26-.31c.4-.3.59-1.14.59-2.52a7.22 7.22 0 0 0-.15-1.86 3.16 3.16 0 0 0-.27-.65.88.88 0 0 0-.36-.3 2.33 2.33 0 0 0-.87-.16h-.71a2.37 2.37 0 0 0-.42.08.71.71 0 0 0-.34.19 1.43 1.43 0 0 0-.26.34 1.73 1.73 0 0 0-.16.55zm-79.4 14.23v-.75a2.12 2.12 0 0 1 .69-1.79 2.8 2.8 0 0 1 1.69-.48h.6a12.44 12.44 0 0 1 1.36.1 7.66 7.66 0 0 1 1.43.25v1.32c-.91-.08-1.63-.12-2.17-.12h-.87a1.79 1.79 0 0 0-.8.14c-.16.1-.25.33-.25.71v.39a.82.82 0 0 0 .21.67 1.12 1.12 0 0 0 .73.17h1.39a1.83 1.83 0 0 1 1.84 1.09 3.26 3.26 0 0 1 .23 1.24v.59a2.07 2.07 0 0 1-1.06 2.1 3.23 3.23 0 0 1-1.36.26 12.48 12.48 0 0 1-3.39-.36v-1.32a22.73 22.73 0 0 0 2.3.13h1.15a1.46 1.46 0 0 0 .32-.1.6.6 0 0 0 .37-.63v-.47c0-.42-.14-.67-.4-.77a1.12 1.12 0 0 0-.4-.06h-1.34a2 2 0 0 1-2.27-2.31zm6.73-1.4v-1.55h6.5v1.55h-2.44v7.24h-1.68v-7.24zm6.02 7.24l3-8.79h1.91l2.85 8.79h-1.78l-.63-1.95h-2.88l-.63 1.95zm2.88-3.44h2l-1-3.14zm9.7-5.35a2.3 2.3 0 0 1 1.72.59 3 3 0 0 1 .68 2.15 2.72 2.72 0 0 1-.71 2.24 1.53 1.53 0 0 1-.34.23l-.35.12 1.67 3.46h-1.9l-1.45-3.33-1.48-.17v3.5h-1.68v-8.79zm-2.15 4h2a.81.81 0 0 0 .66-.24 1.64 1.64 0 0 0 .2-1 1.7 1.7 0 0 0-.21-1 .8.8 0 0 0-.65-.27h-2zm5.6-2.45v-1.55h6.49v1.55h-2.44v7.24h-1.68v-7.24zm11.1 7.29h-.17a4.11 4.11 0 0 1-1.92-.29 4 4 0 0 1-.5-.43 1.78 1.78 0 0 1-.44-.69 7.43 7.43 0 0 1-.36-2.48v-5h1.68v5a4.7 4.7 0 0 0 .23 1.69 1.07 1.07 0 0 0 .81.61 4.67 4.67 0 0 0 .76.05 1.73 1.73 0 0 0 .83-.18c.47-.26.71-1 .71-2.17v-5h1.69v5a5.17 5.17 0 0 1-.55 2.73 3.7 3.7 0 0 1-.35.49 1.72 1.72 0 0 1-.45.32l-.44.23a3.44 3.44 0 0 1-.52.1 9.33 9.33 0 0 1-1.01.02zm4.7-.05v-8.79H396a2.32 2.32 0 0 1 1.9.73 3.08 3.08 0 0 1 .54 2 5 5 0 0 1-.16 1.32 2.5 2.5 0 0 1-.4.85 1.46 1.46 0 0 1-.59.45 2.56 2.56 0 0 1-1.05.22c-.28 0-.73 0-1.35-.11a7.7 7.7 0 0 1-1-.14v3.49zm3.65-7.3h-2v2.57h2a.93.93 0 0 0 .47-.11c.27-.16.41-.57.41-1.22-.01-.83-.3-1.24-.88-1.24zm7.18 7.3v-8.79h1.67v8.79zm3.18 0v-8.79h1.7l3.48 5.68v-5.68H413v8.79h-1.68l-3.49-5.62v5.62zm8.37 0v-8.79h3.73c2 0 3.05 1.48 3.05 4.43 0 1.82-.43 3.09-1.31 3.79a2.64 2.64 0 0 1-1.74.57zm5.1-4.37q0-2.19-.69-2.7a1.36 1.36 0 0 0-.81-.23h-1.92v5.8h1.92c1 0 1.5-.96 1.5-2.87zm6.47 4.42H426a4.11 4.11 0 0 1-1.92-.29 4 4 0 0 1-.5-.43 1.78 1.78 0 0 1-.44-.69 7.45 7.45 0 0 1-.35-2.48v-5h1.68v5a4.74 4.74 0 0 0 .22 1.69 1.07 1.07 0 0 0 .81.61 4.67 4.67 0 0 0 .76.05 1.73 1.73 0 0 0 .83-.18c.47-.26.71-1 .71-2.17v-5h1.69v5a5.17 5.17 0 0 1-.55 2.73 3.7 3.7 0 0 1-.35.49 1.72 1.72 0 0 1-.45.32l-.46.21a3.53 3.53 0 0 1-.51.1 9.66 9.66 0 0 1-1.05.04zm-.58-9.62l1.08-1.67h1.48l-1.47 1.67zm5.27 3.73v-.75a2.12 2.12 0 0 1 .69-1.79 2.8 2.8 0 0 1 1.69-.48h.6a12.44 12.44 0 0 1 1.36.1 7.66 7.66 0 0 1 1.43.25v1.32c-.91-.08-1.63-.12-2.17-.12h-.87a1.76 1.76 0 0 0-.8.14c-.16.1-.25.33-.25.71v.39a.82.82 0 0 0 .21.67 1.12 1.12 0 0 0 .73.17h1.39a1.83 1.83 0 0 1 1.84 1.09 3.26 3.26 0 0 1 .23 1.24v.59a2.07 2.07 0 0 1-1.06 2.1 3.23 3.23 0 0 1-1.36.26 12.48 12.48 0 0 1-3.39-.36v-1.32a22.73 22.73 0 0 0 2.3.13h1.15a1.46 1.46 0 0 0 .32-.1.61.61 0 0 0 .36-.63v-.47c0-.42-.13-.67-.39-.77a1.16 1.16 0 0 0-.4-.06h-1.34a2 2 0 0 1-2.27-2.31zm6.73-1.4v-1.55H444v1.55h-2.4v7.24h-1.68v-7.24zm11.46-1.55a2.3 2.3 0 0 1 1.72.59 3 3 0 0 1 .68 2.15 2.76 2.76 0 0 1-.71 2.24 1.54 1.54 0 0 1-.35.23l-.34.12 1.66 3.46h-1.89l-1.45-3.33-1.48-.17v3.5h-1.68v-8.79zm-2.15 4h2a.81.81 0 0 0 .67-.24 1.64 1.64 0 0 0 .2-1 1.62 1.62 0 0 0-.22-1 .78.78 0 0 0-.65-.27h-2zm5.93 4.79v-8.79h1.68v8.79zm2.86 0l3-8.79h1.91l2.86 8.79h-1.79l-.62-1.95h-2.88l-.64 1.95zm2.88-3.44h2l-1-3.14zm-61.64-30.81v-4.9a1.81 1.81 0 0 1 .58-1.44 2.21 2.21 0 0 1 1.48-.5h1.85a1.74 1.74 0 0 1 1.89 1.19 2.27 2.27 0 0 1 .11.75v4.9a1.74 1.74 0 0 1-2 1.94h-1.85a2.3 2.3 0 0 1-1.44-.43 1.74 1.74 0 0 1-.62-1.51zm.68 0a1.18 1.18 0 0 0 .38 1 1.53 1.53 0 0 0 1 .31h1.85q1.32 0 1.32-1.26v-4.9q0-1.26-1.32-1.26h-1.85a1.43 1.43 0 0 0-1 .35 1.21 1.21 0 0 0-.35.91zm7.28-2.69a9.48 9.48 0 0 1 .18-2 4 4 0 0 1 .47-1.33 1.69 1.69 0 0 1 1.42-.93 26.56 26.56 0 0 1 3.5.19v.49H407a.9.9 0 0 0-.63.25 1.65 1.65 0 0 0-.43.6 4.28 4.28 0 0 0-.25.83 8.7 8.7 0 0 0-.18 1.66 28 28 0 0 1 3.24-.21 1.88 1.88 0 0 1 1.57.54 2 2 0 0 1 .36 1.24V252c0 1.19-.64 1.79-1.93 1.79h-1.65a1.89 1.89 0 0 1-1.85-1.38 10 10 0 0 1-.41-3.28zm.69.28a8.43 8.43 0 0 0 .24 2.36 2 2 0 0 0 .71 1.15 1.09 1.09 0 0 0 .62.17h1.67a1.62 1.62 0 0 0 .92-.23 1 1 0 0 0 .31-.86v-1.5a1 1 0 0 0-.34-.86 1.62 1.62 0 0 0-.92-.23zm7.16 4.13v-.71c0-.17.08-.25.23-.25h.47a.22.22 0 0 1 .25.25v.71c0 .15-.08.22-.25.22h-.47a.23.23 0 0 1-.16-.06.21.21 0 0 1-.07-.16z" fill="#1f3178"/></svg>