<svg xmlns="http://www.w3.org/2000/svg" xmlns:xlink="http://www.w3.org/1999/xlink" viewBox="0 0 500.48 485.92"><defs><style>.a{fill:#1f3178}.h{fill:none;stroke-linecap:round;stroke-linejoin:round}.g{fill:#d7e1ee}.h{stroke:#1f3178}</style><linearGradient id="a" x1="146.57" y1="132.84" x2="146.57" y2="223.93" gradientUnits="userSpaceOnUse"><stop offset="0" stop-color="#83c456"/><stop offset=".22" stop-color="#7dc256"/><stop offset=".53" stop-color="#6bbb56"/><stop offset=".88" stop-color="#4eb056"/><stop offset="1" stop-color="#43ac56"/></linearGradient><linearGradient id="b" x1="219.89" y1="266.96" x2="219.89" y2="271.96" xlink:href="#a"/><linearGradient id="c" x1="452.31" y1="310.87" x2="452.31" y2="327.14" xlink:href="#a"/><linearGradient id="d" x1="349" y1="362.58" x2="349" y2="404.07" xlink:href="#a"/><linearGradient id="e" x1="374.56" y1="132.84" x2="374.56" y2="255.4" xlink:href="#a"/><linearGradient id="f" data-name="Gradiente sem nome 7" x1="6044.2" y1="-53.98" x2="6044.2" y2="-68.71" gradientTransform="rotate(180 3042.98 79.79)" gradientUnits="userSpaceOnUse"><stop offset="0" stop-color="#83c456"/><stop offset=".03" stop-color="#80c356"/><stop offset=".44" stop-color="#5fb656"/><stop offset=".77" stop-color="#4aaf56"/><stop offset="1" stop-color="#43ac56"/></linearGradient><linearGradient id="g" data-name="Gradiente sem nome 8" x1="2666.63" y1="-3191.39" x2="2642.18" y2="-3191.39" gradientTransform="rotate(-90 3138.99 -349.24)" gradientUnits="userSpaceOnUse"><stop offset="0" stop-color="#83c456"/><stop offset=".41" stop-color="#81c356"/><stop offset=".61" stop-color="#79c056"/><stop offset=".76" stop-color="#6cbb56"/><stop offset=".89" stop-color="#5ab456"/><stop offset="1" stop-color="#43ac56"/></linearGradient><linearGradient id="h" x1="2601.07" y1="3259.65" x2="2625.52" y2="3259.65" gradientTransform="rotate(90 3003.485 659.645)" xlink:href="#a"/><linearGradient id="i" x1="-369.45" y1="-40.2" x2="-369.45" y2="-25.48" gradientTransform="translate(821.76 351.07)" xlink:href="#a"/></defs><path class="a" d="M225.28 19V0h4.26v7.9h5.59V0h4.26v19h-4.26v-7.25h-5.59V19zm25.27.16h-.39a12 12 0 0 1-3-.22 13.26 13.26 0 0 1-1.23-.51 2.53 2.53 0 0 1-.93-.7 8.27 8.27 0 0 1-.74-1.06 5 5 0 0 1-.61-1.49 18.34 18.34 0 0 1-.5-4.47V0h4.27v10.71a16.37 16.37 0 0 0 .11 2.21 3.41 3.41 0 0 0 .48 1.39 1.89 1.89 0 0 0 1 .77 5 5 0 0 0 1.62.21 2.6 2.6 0 0 0 2.38-1 7.22 7.22 0 0 0 .63-3.58V0h4.29v10.71q0 5.07-1.89 6.84a7.89 7.89 0 0 1-1.21.94 4.44 4.44 0 0 1-1.39.46 16 16 0 0 1-2.89.21zm11.02-.16V0h8a5.55 5.55 0 0 1 4.17 1.39 5.21 5.21 0 0 1 1.34 3.76 5.17 5.17 0 0 1-.69 2.61 2.6 2.6 0 0 1-2 1.39 3.4 3.4 0 0 1 2.65 2.19 4.68 4.68 0 0 1 .42 2 5.81 5.81 0 0 1-1.41 4.3 6.05 6.05 0 0 1-4.37 1.36zm4.27-11.7h3.48a1.51 1.51 0 0 0 1.2-.48 2.13 2.13 0 0 0 .41-1.4 1.68 1.68 0 0 0-.47-1.34 1.64 1.64 0 0 0-1.14-.42h-3.48zm0 8h3.66c1.16 0 1.74-.74 1.74-2.21a3.07 3.07 0 0 0-.41-1.66 1.45 1.45 0 0 0-1.33-.65h-3.66zM418 341.05l3-8.78h1.91l2.86 8.78H424l-.62-1.94h-2.88l-.64 1.94zm2.88-3.43h2l-1-3.14zm5.73 1.67a6.68 6.68 0 0 1-.24-1.23c0-.41-.05-.89-.05-1.44a12.45 12.45 0 0 1 .07-1.45 5.51 5.51 0 0 1 .25-1.22 2.66 2.66 0 0 1 .51-1 2.48 2.48 0 0 1 2-.82 16.64 16.64 0 0 1 1.73.08 11.27 11.27 0 0 1 1.64.31v1.3h-.69l-.67-.06c-.57-.05-1.11-.07-1.62-.07a1.27 1.27 0 0 0-1.27.64 6.06 6.06 0 0 0-.31 2.36 6 6 0 0 0 .29 2.29 1.24 1.24 0 0 0 1.22.59 2.2 2.2 0 0 0 .74-.14 2.55 2.55 0 0 0 .57-.27l.22-.16v-1.57h-1.22v-1.07a5.85 5.85 0 0 1 2.09-.29h.81v5h-1.2l-.45-.59a2 2 0 0 1-.9.52 3.4 3.4 0 0 1-2.21-.07 2.23 2.23 0 0 1-.84-.61 3 3 0 0 1-.47-1.03zm8.16-6.7a2.27 2.27 0 0 1 .59-.25 2 2 0 0 1 .47-.07h1.73c1 0 1.82.08 2.33.15v1.39h-3.47c-.29 0-.48.07-.55.22a1.12 1.12 0 0 0-.07.45v1.37l3.55.12v1.39l-3.55.11v1.37c0 .3.08.49.25.55a1.34 1.34 0 0 0 .49.07h3.35v1.38c-.4.06-1.39.12-3 .17h-1.33a1.68 1.68 0 0 1-.5-.13 1.62 1.62 0 0 1-.5-.28 1.73 1.73 0 0 1-.48-1.34v-5.23a1.63 1.63 0 0 1 .69-1.44zm6.43 8.46v-8.78h1.7l3.48 5.67v-5.67h1.68v8.78h-1.68l-3.49-5.61v5.61zm8.38 0v-8.78h3.73c2 0 3 1.47 3 4.43 0 1.82-.43 3.08-1.3 3.79a2.73 2.73 0 0 1-1.74.56zm5.1-4.37c0-1.45-.24-2.35-.7-2.7a1.35 1.35 0 0 0-.8-.22h-1.92v5.79h1.92c1 0 1.5-.95 1.5-2.87zm2.21 4.37l3-8.78h1.91l2.85 8.78h-1.79l-.62-1.94h-2.88l-.64 1.94zm2.88-3.43h2l-1-3.14zm9.23 3.43v-8.78h3.73c2 0 3 1.47 3 4.43 0 1.82-.43 3.08-1.31 3.79a2.69 2.69 0 0 1-1.74.56zm5.1-4.37q0-2.18-.69-2.7a1.36 1.36 0 0 0-.81-.22h-1.92v5.79h1.92c1 0 1.5-.95 1.5-2.87zm3.46-4.09a2.27 2.27 0 0 1 .59-.25 2 2 0 0 1 .47-.07h1.73c1 0 1.82.08 2.33.15v1.39h-3.46c-.3 0-.49.07-.56.22a1.32 1.32 0 0 0-.07.45v1.37l3.55.12v1.39l-3.55.11v1.37c0 .3.09.49.25.55a1.36 1.36 0 0 0 .5.07h3.34v1.38c-.4.06-1.38.12-3 .17h-1.33a1.68 1.68 0 0 1-.5-.13 1.74 1.74 0 0 1-.5-.28 1.73 1.73 0 0 1-.48-1.34v-5.23a1.63 1.63 0 0 1 .69-1.44zM403.74 355v-8.79h1.68V355zm2.95 0l.77-8.79h2.34l1.47 6 1.45-6h2.33l.81 8.79h-1.65l-.58-5.87-1.41 5.87h-1.88l-1.47-5.87-.52 5.87zm10.52 0v-8.79H421a2.27 2.27 0 0 1 1.89.74 3 3 0 0 1 .54 2 4.7 4.7 0 0 1-.16 1.33 2.44 2.44 0 0 1-.4.84 1.39 1.39 0 0 1-.59.45 2.36 2.36 0 0 1-1 .22c-.28 0-.73 0-1.36-.11s-.95-.12-1-.13V355zm3.64-7.3h-2v2.57h2a.91.91 0 0 0 .47-.11c.28-.16.41-.57.41-1.22-.01-.83-.3-1.24-.88-1.24zm3.94 5.59v-7.08h1.68v6.62c0 .3.08.48.25.55a1.59 1.59 0 0 0 .49.07h3V355h-3.62c-1.19 0-1.8-.57-1.8-1.71zm7.32-6.75a2 2 0 0 1 .59-.25 2.17 2.17 0 0 1 .47-.08h1.74a20.3 20.3 0 0 1 2.32.16v1.39h-3.46c-.3 0-.48.07-.56.21a1.39 1.39 0 0 0-.07.46v1.37l3.55.12v1.39l-3.55.11v1.37c0 .3.09.48.25.55a1.62 1.62 0 0 0 .5.07h3.34v1.38c-.4.05-1.38.11-3 .17h-1a2.06 2.06 0 0 1-.33 0 1.82 1.82 0 0 1-.49-.12 1.46 1.46 0 0 1-1-1.62V348a1.63 1.63 0 0 1 .7-1.46zm6.2 8.46l.77-8.79h2.34l1.47 6 1.45-6h2.33l.81 8.79h-1.65l-.58-5.87-1.42 5.87H442l-1.47-5.87L440 355zm11.01-8.46a2 2 0 0 1 .59-.25 2.08 2.08 0 0 1 .47-.08h1.73a20.51 20.51 0 0 1 2.33.16v1.39H451c-.29 0-.48.07-.55.21a1.17 1.17 0 0 0-.07.46v1.37l3.55.12v1.39l-3.55.11v1.37c0 .3.08.48.25.55a1.59 1.59 0 0 0 .49.07h3.35v1.38c-.4.05-1.39.11-3 .17h-1a2.06 2.06 0 0 1-.33 0 2 2 0 0 1-.5-.12 1.64 1.64 0 0 1-.5-.29 1.7 1.7 0 0 1-.48-1.33V348a1.63 1.63 0 0 1 .66-1.46zm6.43 8.46v-8.79h1.7l3.48 5.68v-5.68h1.68V355h-1.68l-3.49-5.62V355zm8.02-7.24v-1.55h6.49v1.55h-2.44V355h-1.68v-7.24zm6.01 7.24l3-8.79h1.91l2.86 8.79h-1.79l-.63-1.95h-2.88l-.63 1.95zm2.88-3.43h2l-1-3.15zm6-4.28a2.25 2.25 0 0 1 1.33-1 3.8 3.8 0 0 1 1.06-.13 11 11 0 0 1 3.06.39v1.32h-2.62a3.13 3.13 0 0 0-.69.05 1.22 1.22 0 0 0-.48.22.9.9 0 0 0-.33.48 7.24 7.24 0 0 0-.24 2.19 5.07 5.07 0 0 0 .33 2.19 1.43 1.43 0 0 0 1.37.72c.75 0 1.51 0 2.28-.07h.39v1.31a9.39 9.39 0 0 1-2.79.34h-.27a2.49 2.49 0 0 1-2.3-1.15 6.66 6.66 0 0 1-.69-3.39 6.54 6.54 0 0 1 .59-3.47zm1.15 8.15h1.13a2.22 2.22 0 0 1-.29 1.31 1.23 1.23 0 0 1-1.06.38h-.67v-.72l.53-.18a.47.47 0 0 0 .29-.26 1.34 1.34 0 0 0 .07-.53zm5.24-.44l3-8.79h1.91l2.85 8.79H491l-.62-1.95h-2.88l-.64 1.95zm4.63-10.65a1.85 1.85 0 0 0 1.06-.45l.29.72a2 2 0 0 1-1.35.81 1.6 1.6 0 0 1-.71-.21 1.72 1.72 0 0 0-.59-.21h-.47a.76.76 0 0 0-.19.07l-.15.08-.18.11-.19.1-.29-.66a2.12 2.12 0 0 1 1.45-.84 1.7 1.7 0 0 1 .69.22 1.48 1.48 0 0 0 .5.2zm-1.75 7.22h2l-1-3.15zm5.68 1.26a8.27 8.27 0 0 1-.13-1 12.57 12.57 0 0 1-.05-1.31 11 11 0 0 1 .09-1.44 7 7 0 0 1 .24-1.15 2.65 2.65 0 0 1 1-1.34 2.24 2.24 0 0 1 .66-.3 4.78 4.78 0 0 1 1.32-.18h1a4.35 4.35 0 0 1 .67.1 2.21 2.21 0 0 1 .6.22 3.27 3.27 0 0 1 .51.37 1.61 1.61 0 0 1 .43.56 5.46 5.46 0 0 1 .3.79 7.14 7.14 0 0 1 .26 2.07 14 14 0 0 1-.09 1.83 6.72 6.72 0 0 1-.23 1.11 2.77 2.77 0 0 1-.39.79 2.39 2.39 0 0 1-.52.53 2 2 0 0 1-.65.3 6.83 6.83 0 0 1-2.34.17 3.12 3.12 0 0 1-1.08-.18 3.89 3.89 0 0 1-.58-.3 1.78 1.78 0 0 1-.42-.4 4.14 4.14 0 0 1-.32-.56 3.66 3.66 0 0 1-.28-.68zm1.63-4c0 .21-.07.47-.1.76s0 .67 0 1.12a9.35 9.35 0 0 0 .05 1.14 3.31 3.31 0 0 0 .16.81 1 1 0 0 0 .34.51 2.2 2.2 0 0 0 1.3.3 2.16 2.16 0 0 0 1.26-.31c.39-.3.58-1.14.58-2.52a7.37 7.37 0 0 0-.15-1.87 3.28 3.28 0 0 0-.27-.64.82.82 0 0 0-.36-.3 2.11 2.11 0 0 0-.87-.16h-.7a2.07 2.07 0 0 0-.42.08.77.77 0 0 0-.35.18 1.43 1.43 0 0 0-.25.35 1.5 1.5 0 0 0-.22.58zm-211.06-15.48a2.27 2.27 0 0 1 1.33-1.05 4.19 4.19 0 0 1 1.05-.13 10.56 10.56 0 0 1 3.06.4v1.32h-1.13a4 4 0 0 0-.49 0h-1a3.9 3.9 0 0 0-.69 0 1.3 1.3 0 0 0-.48.22.93.93 0 0 0-.33.49 7.37 7.37 0 0 0-.24 2.22 5 5 0 0 0 .35 2.2 1.39 1.39 0 0 0 1.35.68c.75 0 1.51 0 2.28-.08h.38v1.31a9.69 9.69 0 0 1-2.78.33h-.28a2.47 2.47 0 0 1-2.29-1.15 6.66 6.66 0 0 1-.69-3.39 6.47 6.47 0 0 1 .6-3.37zm6.53 5.53a7.59 7.59 0 0 1-.14-1c0-.36-.05-.79-.05-1.3a10.91 10.91 0 0 1 .09-1.44 6.68 6.68 0 0 1 .25-1.15 2.39 2.39 0 0 1 .42-.81 2.65 2.65 0 0 1 .53-.53 2.07 2.07 0 0 1 .67-.3 4.66 4.66 0 0 1 1.31-.18h1a5.73 5.73 0 0 1 .67.1 2.28 2.28 0 0 1 .61.23 2.65 2.65 0 0 1 .51.36 1.94 1.94 0 0 1 .43.57 4.39 4.39 0 0 1 .29.78 7.19 7.19 0 0 1 .27 2.08 14.13 14.13 0 0 1-.09 1.83 7.77 7.77 0 0 1-.23 1.1 2.77 2.77 0 0 1-.39.79 2.62 2.62 0 0 1-.52.53 2.06 2.06 0 0 1-.65.31 7.18 7.18 0 0 1-2.35.17 3.83 3.83 0 0 1-1.08-.18 4.45 4.45 0 0 1-.58-.31 1.56 1.56 0 0 1-.41-.4 3.19 3.19 0 0 1-.32-.56 3.14 3.14 0 0 1-.24-.69zm1.63-4a6.64 6.64 0 0 0-.1.77v1.11c0 .45 0 .83.05 1.15a4.14 4.14 0 0 0 .16.81 1 1 0 0 0 .35.5 2.19 2.19 0 0 0 1.29.3 2.09 2.09 0 0 0 1.26-.31c.39-.3.59-1.14.59-2.52a7.22 7.22 0 0 0-.15-1.86 2.8 2.8 0 0 0-.28-.65.79.79 0 0 0-.35-.3 2.35 2.35 0 0 0-.88-.15h-.7a3.83 3.83 0 0 0-.42.08.74.74 0 0 0-.35.19 1.66 1.66 0 0 0-.25.34 1.73 1.73 0 0 0-.22.57zm6.66 6.17v-8.78h1.7l3.48 5.67v-5.67h1.68v8.78h-1.68l-3.49-5.61v5.61zm8.19-5.83v-.76a2.12 2.12 0 0 1 .68-1.78 2.73 2.73 0 0 1 1.7-.48h.6c.31 0 .76 0 1.36.09a10 10 0 0 1 1.43.25v1.32c-.91-.08-1.64-.12-2.18-.12h-.87a1.6 1.6 0 0 0-.79.15c-.17.09-.25.33-.25.71v.4a.88.88 0 0 0 .2.67 1.22 1.22 0 0 0 .74.17h1.39A1.79 1.79 0 0 1 313 337a3.08 3.08 0 0 1 .24 1.24v.58a2.05 2.05 0 0 1-1.06 2.1 3.08 3.08 0 0 1-1.36.27 12.61 12.61 0 0 1-3.4-.36v-1.32a22.92 22.92 0 0 0 2.31.13h1.14a1.39 1.39 0 0 0 .33-.1.62.62 0 0 0 .36-.64v-.46c0-.42-.13-.68-.39-.77a1.16 1.16 0 0 0-.4-.06h-1.34a2 2 0 0 1-2.24-2.39zm10.81 5.89h-.17a4.08 4.08 0 0 1-1.92-.3 3.82 3.82 0 0 1-.51-.42 1.88 1.88 0 0 1-.43-.69 7.49 7.49 0 0 1-.36-2.49v-4.94h1.68v4.94a4.66 4.66 0 0 0 .23 1.69 1.06 1.06 0 0 0 .8.62 5.06 5.06 0 0 0 .77 0 1.73 1.73 0 0 0 .83-.18c.47-.25.71-1 .71-2.17v-4.94h1.69v4.94a5.18 5.18 0 0 1-.55 2.74 2.49 2.49 0 0 1-.36.48 1.37 1.37 0 0 1-.44.33 3.21 3.21 0 0 1-.46.2 2 2 0 0 1-.52.1 7.07 7.07 0 0 1-.99.09zm4.85-1.76v-7.08h1.68v6.61c0 .3.08.49.25.55a1.34 1.34 0 0 0 .49.07h3v1.55h-3.62c-1.19 0-1.8-.57-1.8-1.7zm4.91-5.53v-1.55h6.49v1.55h-2.44v7.23h-1.67v-7.23zm7.53 5.06a7.59 7.59 0 0 1-.14-1v-1.3a10.91 10.91 0 0 1 .09-1.44 5.85 5.85 0 0 1 .25-1.15 2.39 2.39 0 0 1 .42-.81 2.41 2.41 0 0 1 .53-.53 2 2 0 0 1 .67-.3 4.66 4.66 0 0 1 1.31-.18h1a5.73 5.73 0 0 1 .67.1 2.28 2.28 0 0 1 .61.23 2.65 2.65 0 0 1 .51.36 1.76 1.76 0 0 1 .42.57 3.73 3.73 0 0 1 .3.78 7.19 7.19 0 0 1 .27 2.08 14.13 14.13 0 0 1-.09 1.83 6.51 6.51 0 0 1-.24 1.1 2.64 2.64 0 0 1-.9 1.32 2 2 0 0 1-.66.31 7.1 7.1 0 0 1-2.34.17 3.83 3.83 0 0 1-1.08-.18 4.45 4.45 0 0 1-.58-.31 1.56 1.56 0 0 1-.41-.4 4 4 0 0 1-.33-.56 3.67 3.67 0 0 1-.28-.69zm1.62-4a6.84 6.84 0 0 0-.09.77v1.11c0 .45 0 .83.05 1.15a4.14 4.14 0 0 0 .16.81 1 1 0 0 0 .34.5 2.25 2.25 0 0 0 1.3.3 2.09 2.09 0 0 0 1.26-.31c.39-.3.59-1.14.59-2.52a7.22 7.22 0 0 0-.15-1.86 2.8 2.8 0 0 0-.28-.65.79.79 0 0 0-.35-.3 2.35 2.35 0 0 0-.88-.15h-.7a3.83 3.83 0 0 0-.42.08.74.74 0 0 0-.35.19 1.66 1.66 0 0 0-.25.34 1.73 1.73 0 0 0-.23.57zm10.34-2.61a2.23 2.23 0 0 1 1.71.59 2.93 2.93 0 0 1 .69 2.14 2.78 2.78 0 0 1-.71 2.25 2 2 0 0 1-.35.23l-.35.12 1.67 3.45H348l-1.45-3.32-1.47-.17v3.49h-1.68v-8.78zm-2.15 4h2a.84.84 0 0 0 .67-.24 1.66 1.66 0 0 0 .19-1 1.7 1.7 0 0 0-.21-1 .79.79 0 0 0-.65-.27h-2zm-187.65 4.78v-6.93a1.62 1.62 0 0 1 1.21-1.77 1.69 1.69 0 0 1 .48-.08h1.75c1 0 1.82.08 2.33.15v1.39h-3.47c-.29 0-.48.07-.55.22a1.12 1.12 0 0 0-.07.45v1.37l3.55.12v1.39l-3.55.11v3.54zm7.02-1.76a6.68 6.68 0 0 1-.24-1.23v-1.44a12.34 12.34 0 0 1 .07-1.45 5.51 5.51 0 0 1 .25-1.22 2.58 2.58 0 0 1 .51-1 2.48 2.48 0 0 1 2-.82 16.64 16.64 0 0 1 1.73.08 12.61 12.61 0 0 1 1.64.3v1.31h-.2a4.41 4.41 0 0 0-.49 0c-.21 0-.43 0-.67-.06-.57-.05-1.11-.07-1.62-.07a1.27 1.27 0 0 0-1.27.64 6 6 0 0 0-.31 2.36 6 6 0 0 0 .29 2.29 1.24 1.24 0 0 0 1.22.59 2.2 2.2 0 0 0 .74-.14 2.55 2.55 0 0 0 .57-.27l.19-.14v-1.57h-1.22v-1.07a5.57 5.57 0 0 1 2.08-.29h.82v5h-1.2l-.46-.59a2 2 0 0 1-.89.52 3.47 3.47 0 0 1-2.21-.07 2.17 2.17 0 0 1-.84-.62 2.82 2.82 0 0 1-.49-1.04zm7.22-7.02h1.79l2 6.57 2.06-6.57h1.79l-2.89 8.78h-2zm12.03 8.78v-8.78h1.67v8.78zm2.81-7.24v-1.54H193v1.54h-2.44v7.24h-1.68v-7.24zm6.02 7.24l3-8.78h1.91l2.85 8.78h-1.78l-.63-1.94H195l-.63 1.94zm2.88-3.43h2l-1-3.15zM2.56 333.31a2.19 2.19 0 0 1 .6-.25 1.9 1.9 0 0 1 .46-.07h1.74c1 0 1.81.08 2.33.15v1.39H4.22c-.3 0-.48.07-.55.22a1.1 1.1 0 0 0-.08.45v1.37l3.56.12v1.39l-3.56.11v1.37c0 .3.09.49.26.55a1.3 1.3 0 0 0 .49.07h3.35v1.38c-.4.06-1.39.11-3 .17h-1.3a1.89 1.89 0 0 1-.49-.13 1.83 1.83 0 0 1-.51-.29 1.69 1.69 0 0 1-.48-1.31v-5.23a1.63 1.63 0 0 1 .65-1.46zm6.21 8.46l.76-8.77h2.34l1.47 6 1.45-6h2.33l.81 8.78h-1.65l-.58-5.87-1.41 5.87h-1.88l-1.47-5.87-.52 5.87zm10.51 0V333h3.78a2.27 2.27 0 0 1 1.89.73 3.08 3.08 0 0 1 .54 2 4.68 4.68 0 0 1-.16 1.32 2.54 2.54 0 0 1-.39.84 1.49 1.49 0 0 1-.6.45 2.36 2.36 0 0 1-1 .22c-.28 0-.73 0-1.36-.11a9.29 9.29 0 0 1-1-.13v3.48zm3.65-7.3H21V337h2a.81.81 0 0 0 .46-.11c.28-.16.41-.56.41-1.22-.08-.78-.37-1.2-.94-1.2zm7.65-1.47a2.29 2.29 0 0 1 1.72.58 3 3 0 0 1 .68 2.15 2.75 2.75 0 0 1-.71 2.25 1.41 1.41 0 0 1-.34.22 2 2 0 0 1-.35.12l1.67 3.46h-1.9l-1.45-3.32-1.48-.17v3.49h-1.68V333zm-2.15 4h2a.81.81 0 0 0 .66-.24 2.44 2.44 0 0 0 0-2 .77.77 0 0 0-.64-.27h-2zm6.57-3.69a2.27 2.27 0 0 1 .59-.25 2 2 0 0 1 .47-.07h1.73c1 0 1.82.08 2.33.15v1.39h-3.47c-.29 0-.48.07-.55.22a1.12 1.12 0 0 0-.07.45v1.37l3.55.12v1.39l-3.55.11v1.37c0 .3.08.49.25.55a1.34 1.34 0 0 0 .49.07h3.35v1.38c-.4.06-1.39.11-3 .17h-1.33a2.06 2.06 0 0 1-.5-.13 1.64 1.64 0 0 1-.5-.29 1.69 1.69 0 0 1-.48-1.33v-5.23a1.63 1.63 0 0 1 .69-1.44zm6.3 2.63v-.76a2.15 2.15 0 0 1 .68-1.79 2.85 2.85 0 0 1 1.69-.48h.61c.31 0 .76 0 1.36.1a8.79 8.79 0 0 1 1.43.25v1.32c-.91-.08-1.64-.12-2.18-.12H44a1.6 1.6 0 0 0-.79.15c-.17.09-.25.33-.25.7v.44a.88.88 0 0 0 .2.67 1.2 1.2 0 0 0 .73.17h1.4a1.79 1.79 0 0 1 1.83 1.09 3.07 3.07 0 0 1 .24 1.23v.59a2.06 2.06 0 0 1-1.07 2.1 3 3 0 0 1-1.35.27 12.61 12.61 0 0 1-3.4-.36v-1.32c.88.08 1.65.13 2.31.13a11.09 11.09 0 0 0 1.14 0 1 1 0 0 0 .33-.09.63.63 0 0 0 .36-.64v-.47c0-.41-.13-.67-.39-.76a1.16 1.16 0 0 0-.4-.06h-1.32a2 2 0 0 1-2.27-2.36zm6.77 5.83L51 333h1.91l2.85 8.78H54l-.63-1.94H50.5l-.63 1.94zm2.93-3.43h2l-1-3.15zm.49-6.13l1.09-1.67H54l-1.46 1.67zm9.16.79a2.29 2.29 0 0 1 1.72.58 3 3 0 0 1 .68 2.15 2.75 2.75 0 0 1-.71 2.25 1.41 1.41 0 0 1-.34.22 2 2 0 0 1-.35.12l1.67 3.46h-1.9L60 338.45l-1.48-.17v3.49h-1.71V333zm-2.15 4h2a.81.81 0 0 0 .66-.24 2.44 2.44 0 0 0 0-2 .77.77 0 0 0-.64-.27h-2zm5.96 4.77V333h1.68v8.78zm3.23-2.17c-.06-.28-.1-.6-.14-1s0-.8 0-1.3a10.91 10.91 0 0 1 .09-1.44 6.89 6.89 0 0 1 .24-1.16 3.09 3.09 0 0 1 .42-.81 2.6 2.6 0 0 1 .54-.52 2 2 0 0 1 .66-.3 4.78 4.78 0 0 1 1.32-.18h1a5.88 5.88 0 0 1 .68.1 2.34 2.34 0 0 1 .6.22 3.27 3.27 0 0 1 .51.37 1.86 1.86 0 0 1 .43.56 5.46 5.46 0 0 1 .3.79 7.52 7.52 0 0 1 .26 2.08 14.13 14.13 0 0 1-.09 1.83 8.09 8.09 0 0 1-.23 1.1 2.77 2.77 0 0 1-.39.79 2.62 2.62 0 0 1-.52.53 2.31 2.31 0 0 1-.65.31 6.87 6.87 0 0 1-2.34.16 3.12 3.12 0 0 1-1.08-.18 2.85 2.85 0 0 1-.58-.3 1.46 1.46 0 0 1-.42-.4 3.19 3.19 0 0 1-.32-.56 3.14 3.14 0 0 1-.29-.69zm1.63-4c0 .21-.07.47-.1.76s0 .67 0 1.12v1.15a4.1 4.1 0 0 0 .17.81 1 1 0 0 0 .34.5 2.19 2.19 0 0 0 1.29.3 2.09 2.09 0 0 0 1.26-.31c.4-.3.59-1.14.59-2.52a7.22 7.22 0 0 0-.15-1.86 3.16 3.16 0 0 0-.27-.65.88.88 0 0 0-.36-.3 2.33 2.33 0 0 0-.87-.16h-.71a2.37 2.37 0 0 0-.42.08.71.71 0 0 0-.34.19 1.43 1.43 0 0 0-.26.34 1.73 1.73 0 0 0-.17.58zm6.48.34v-.76a2.15 2.15 0 0 1 .68-1.79 2.85 2.85 0 0 1 1.69-.48h.61c.31 0 .76 0 1.36.1a8.79 8.79 0 0 1 1.43.25v1.32c-.91-.08-1.64-.12-2.18-.12h-.87a1.6 1.6 0 0 0-.79.15c-.17.09-.25.33-.25.7v.44a.88.88 0 0 0 .2.67 1.2 1.2 0 0 0 .73.17h1.4a1.79 1.79 0 0 1 1.83 1.09 3.07 3.07 0 0 1 .24 1.23v.59a2.06 2.06 0 0 1-1.07 2.1 3 3 0 0 1-1.35.27 12.61 12.61 0 0 1-3.4-.36v-1.32c.88.08 1.65.13 2.31.13a11.09 11.09 0 0 0 1.14 0 1 1 0 0 0 .33-.09.63.63 0 0 0 .36-.64v-.47c0-.41-.13-.67-.39-.76a1.16 1.16 0 0 0-.4-.06h-1.34a2 2 0 0 1-2.27-2.36zM6.59 355.71v-8.78h1.68v8.78zm3.18 0v-8.78h1.71l3.52 5.68v-5.68h1.68v8.78H15l-3.49-5.61v5.61zm8.38 0v-8.78h3.73q3 0 3.05 4.43c0 1.82-.44 3.09-1.31 3.79a2.64 2.64 0 0 1-1.74.56zm5.1-4.36c0-1.46-.23-2.36-.7-2.7a1.31 1.31 0 0 0-.8-.23h-1.92v5.79h1.92c1 0 1.5-.95 1.5-2.86zm6.47 4.42h-.17a4.08 4.08 0 0 1-1.92-.3 2.77 2.77 0 0 1-.5-.42 1.78 1.78 0 0 1-.44-.69 7.43 7.43 0 0 1-.36-2.48v-4.95H28v4.95a4.7 4.7 0 0 0 .23 1.69 1.05 1.05 0 0 0 .81.61 4.59 4.59 0 0 0 .76.05 1.73 1.73 0 0 0 .83-.18c.47-.26.71-1 .71-2.17v-4.95H33v4.95a5.17 5.17 0 0 1-.55 2.73 3.7 3.7 0 0 1-.35.49 1.72 1.72 0 0 1-.45.32 3.21 3.21 0 0 1-.46.2 2.44 2.44 0 0 1-.52.11 9.33 9.33 0 0 1-.95.04zm-.58-9.62l1.08-1.67h1.48l-1.47 1.67zm5.27 3.73v-.75a2.14 2.14 0 0 1 .68-1.79 2.85 2.85 0 0 1 1.69-.48h.61a12.44 12.44 0 0 1 1.36.1 7.82 7.82 0 0 1 1.43.25v1.32c-.91-.08-1.64-.12-2.18-.12h-.87a1.74 1.74 0 0 0-.79.14c-.17.1-.25.33-.25.71v.43a.86.86 0 0 0 .2.67 1.2 1.2 0 0 0 .73.17h1.4a1.79 1.79 0 0 1 1.83 1.09 3.08 3.08 0 0 1 .24 1.24v.59a2.07 2.07 0 0 1-1.06 2.1 3.27 3.27 0 0 1-1.36.26 12.61 12.61 0 0 1-3.4-.36v-1.32a22.92 22.92 0 0 0 2.31.13h1.14a1.39 1.39 0 0 0 .33-.1.61.61 0 0 0 .36-.63V353c0-.42-.13-.67-.39-.77a1.16 1.16 0 0 0-.4-.06h-1.34a2 2 0 0 1-2.27-2.29zm6.73-1.4v-1.55h6.49v1.55H45.2v7.23h-1.68v-7.23zm11.44-1.55a2.26 2.26 0 0 1 1.71.59 2.94 2.94 0 0 1 .69 2.15 2.77 2.77 0 0 1-.71 2.24 1.54 1.54 0 0 1-.35.23l-.35.12 1.67 3.45h-1.89l-1.46-3.32-1.47-.17v3.49h-1.68v-8.78zm-2.15 4h2a.83.83 0 0 0 .67-.24 1.64 1.64 0 0 0 .2-1 1.69 1.69 0 0 0-.22-1 .78.78 0 0 0-.65-.27h-2zm5.95 4.78v-8.78h1.68v8.78zm2.86 0l3-8.78h1.91l2.85 8.78h-1.82l-.63-1.94h-2.88l-.67 1.94zm2.88-3.43h2l-1-3.14zm5.99 3.43v-8.78h1.68v8.78zm3.04-5.83v-.75a2.12 2.12 0 0 1 .69-1.79 2.83 2.83 0 0 1 1.69-.48h.61a12.3 12.3 0 0 1 1.35.1 7.79 7.79 0 0 1 1.44.25v1.32c-.92-.08-1.64-.12-2.18-.12h-.87a1.71 1.71 0 0 0-.79.14c-.17.1-.26.33-.26.71v.43a.82.82 0 0 0 .21.67 1.18 1.18 0 0 0 .73.17h1.39a1.8 1.8 0 0 1 1.84 1.09 3.08 3.08 0 0 1 .24 1.24v.59a2.08 2.08 0 0 1-1.07 2.1 3.23 3.23 0 0 1-1.36.26 12.53 12.53 0 0 1-3.39-.36v-1.32a22.89 22.89 0 0 0 2.3.13h1.15a1.39 1.39 0 0 0 .33-.1.61.61 0 0 0 .36-.63V353c0-.42-.13-.67-.4-.77a1.07 1.07 0 0 0-.39-.06h-1.35a2 2 0 0 1-2.27-2.29zm146.38 116.17v-.76a2.12 2.12 0 0 1 .68-1.78 2.73 2.73 0 0 1 1.7-.48h.6c.31 0 .76 0 1.36.09a10 10 0 0 1 1.43.25v1.32c-.91-.08-1.64-.12-2.18-.12h-.87a1.6 1.6 0 0 0-.79.15c-.17.09-.25.33-.25.71v.43a.88.88 0 0 0 .2.67 1.22 1.22 0 0 0 .74.17h1.39a1.79 1.79 0 0 1 1.83 1.09 3.08 3.08 0 0 1 .24 1.24v.58a2.05 2.05 0 0 1-1.06 2.1 3.08 3.08 0 0 1-1.36.27 12.61 12.61 0 0 1-3.4-.36v-1.32a22.92 22.92 0 0 0 2.31.13h1.14a1.39 1.39 0 0 0 .33-.1.62.62 0 0 0 .36-.64v-.46c0-.42-.13-.68-.39-.77a1.16 1.16 0 0 0-.4-.06h-1.34a2 2 0 0 1-2.27-2.35zm7.47 3.66a7.59 7.59 0 0 1-.14-1c0-.36-.05-.79-.05-1.3a10.91 10.91 0 0 1 .09-1.44 5.85 5.85 0 0 1 .25-1.15 2.39 2.39 0 0 1 .42-.81 2.41 2.41 0 0 1 .53-.53 2 2 0 0 1 .67-.3 4.66 4.66 0 0 1 1.31-.18h1a6.06 6.06 0 0 1 .67.1 2.28 2.28 0 0 1 .61.23 3.46 3.46 0 0 1 .51.36 1.76 1.76 0 0 1 .42.57 5.31 5.31 0 0 1 .3.78 7.19 7.19 0 0 1 .27 2.08 14.13 14.13 0 0 1-.09 1.83 6.51 6.51 0 0 1-.24 1.1 2.64 2.64 0 0 1-.9 1.32 2 2 0 0 1-.66.31 7.1 7.1 0 0 1-2.34.17 3.83 3.83 0 0 1-1.08-.18 3.88 3.88 0 0 1-.58-.31 1.56 1.56 0 0 1-.41-.4 3.18 3.18 0 0 1-.33-.56 3.67 3.67 0 0 1-.23-.69zm1.62-4a6.84 6.84 0 0 0-.09.77v1.11c0 .45 0 .83.05 1.15a3.52 3.52 0 0 0 .16.81 1 1 0 0 0 .34.5 2.23 2.23 0 0 0 1.3.3 2.09 2.09 0 0 0 1.26-.31c.39-.3.59-1.14.59-2.52a7.22 7.22 0 0 0-.15-1.86 3.32 3.32 0 0 0-.28-.65.79.79 0 0 0-.35-.3 2.35 2.35 0 0 0-.88-.15h-.7a3.83 3.83 0 0 0-.42.08.69.69 0 0 0-.35.19 1.66 1.66 0 0 0-.25.34 1.5 1.5 0 0 0-.19.57zm6.65 4.47v-7.08H235v6.61c0 .3.09.49.26.55a1.3 1.3 0 0 0 .49.07h3v1.55h-3.65c-1.22 0-1.83-.57-1.83-1.7zm9.73 1.76h-.17a4.08 4.08 0 0 1-1.92-.3 3.82 3.82 0 0 1-.51-.42 1.88 1.88 0 0 1-.43-.69 7.49 7.49 0 0 1-.36-2.49v-4.94h1.68v4.9a4.66 4.66 0 0 0 .23 1.69 1.06 1.06 0 0 0 .8.62 5.06 5.06 0 0 0 .77 0 1.73 1.73 0 0 0 .83-.18c.47-.25.71-1 .71-2.17v-4.86h1.69v4.9a5.18 5.18 0 0 1-.55 2.74 2.49 2.49 0 0 1-.36.48 1.37 1.37 0 0 1-.44.33 3.21 3.21 0 0 1-.46.2 2 2 0 0 1-.52.1 7.07 7.07 0 0 1-.99.09zm5.14-7.76a2.3 2.3 0 0 1 1.33-1.05 4.33 4.33 0 0 1 1.06-.13 10.65 10.65 0 0 1 3.06.4v1.32h-2.62a4 4 0 0 0-.69.05 1.34 1.34 0 0 0-.47.22.94.94 0 0 0-.34.49 7.21 7.21 0 0 0-.24 2.18 4.91 4.91 0 0 0 .34 2.2 1.41 1.41 0 0 0 1.37.72c.75 0 1.51 0 2.28-.08h.38v1.31a9.74 9.74 0 0 1-2.78.33h-.28a2.49 2.49 0 0 1-2.3-1.15 6.66 6.66 0 0 1-.69-3.39 6.47 6.47 0 0 1 .59-3.42zm1.15 8.15h1.13a2.17 2.17 0 0 1-.29 1.31 1.25 1.25 0 0 1-1 .38h-.67v-.72l.52-.18a.53.53 0 0 0 .3-.26 1.7 1.7 0 0 0 .01-.53zm5.39-2.62a6.13 6.13 0 0 1-.14-1v-1.3a10.91 10.91 0 0 1 .09-1.44 6.76 6.76 0 0 1 .24-1.15 2.59 2.59 0 0 1 .43-.81 2.41 2.41 0 0 1 .53-.53 2 2 0 0 1 .66-.3 4.78 4.78 0 0 1 1.32-.18h1a6.06 6.06 0 0 1 .67.1 2.28 2.28 0 0 1 .61.23 3.46 3.46 0 0 1 .51.36 1.76 1.76 0 0 1 .42.57 5.31 5.31 0 0 1 .3.78 7.19 7.19 0 0 1 .27 2.08 14.13 14.13 0 0 1-.09 1.83 7.67 7.67 0 0 1-.24 1.1 2.54 2.54 0 0 1-.39.79 2.19 2.19 0 0 1-.52.53 1.87 1.87 0 0 1-.65.31 7.1 7.1 0 0 1-2.34.17 3.76 3.76 0 0 1-1.08-.18 3.88 3.88 0 0 1-.58-.31 1.42 1.42 0 0 1-.41-.4 2.67 2.67 0 0 1-.33-.56 3.14 3.14 0 0 1-.28-.69zm4-8.47a1.81 1.81 0 0 0 1.07-.46l.29.72a2 2 0 0 1-1.34.82 1.67 1.67 0 0 1-.73-.21 1.63 1.63 0 0 0-.58-.21 1.14 1.14 0 0 0-.28 0h-.19l-.19.07-.16.08-.18.11-.18.11-.3-.66a2.12 2.12 0 0 1 1.45-.84 1.82 1.82 0 0 1 .7.21 1.6 1.6 0 0 0 .5.21zm-2.42 4.5a6.84 6.84 0 0 0-.09.77v1.11a9.62 9.62 0 0 0 .05 1.15 3.52 3.52 0 0 0 .16.81 1 1 0 0 0 .34.5 2.23 2.23 0 0 0 1.3.3 2.09 2.09 0 0 0 1.26-.31c.39-.3.58-1.14.58-2.52a7.9 7.9 0 0 0-.14-1.86 4.08 4.08 0 0 0-.28-.65.85.85 0 0 0-.35-.3 2.35 2.35 0 0 0-.88-.15h-.7a3.43 3.43 0 0 0-.42.08.69.69 0 0 0-.35.19 1.36 1.36 0 0 0-.25.34 1.5 1.5 0 0 0-.19.54zm7.03-2.32a2.13 2.13 0 0 1 .59-.25 2 2 0 0 1 .47-.07h1.73c1 0 1.82.08 2.33.15v1.39h-3.47c-.29 0-.48.07-.55.22a1.12 1.12 0 0 0-.07.45v1.37l3.55.12v1.39l-3.55.11v1.37c0 .3.08.49.25.55a1.3 1.3 0 0 0 .49.07h3.35v1.38c-.4.06-1.39.12-3 .17h-1.34a2.16 2.16 0 0 1-1-.41 1.73 1.73 0 0 1-.48-1.34v-5.23a1.61 1.61 0 0 1 .7-1.44zm6.29 2.63v-.76a2.09 2.09 0 0 1 .69-1.78A2.69 2.69 0 0 1 272 463h.61c.3 0 .76 0 1.35.09a10 10 0 0 1 1.44.25v1.32c-.92-.08-1.64-.12-2.18-.12h-.87a1.57 1.57 0 0 0-.79.15c-.17.09-.25.33-.25.71v.43a.84.84 0 0 0 .2.67 1.18 1.18 0 0 0 .73.17h1.39a1.8 1.8 0 0 1 1.84 1.09 3.08 3.08 0 0 1 .24 1.24v.58a2.06 2.06 0 0 1-1.07 2.1 3.08 3.08 0 0 1-1.36.27 12.53 12.53 0 0 1-3.39-.36v-1.29a22.89 22.89 0 0 0 2.3.13h1.15a1.39 1.39 0 0 0 .33-.1.62.62 0 0 0 .36-.64v-.46c0-.42-.13-.68-.4-.77a1.07 1.07 0 0 0-.39-.06h-1.35a2 2 0 0 1-2.31-2.35zm-63.91 12.54V477h6.49v1.55h-2.44v7.24H208v-7.24zm8.09-1.22a1.87 1.87 0 0 1 .59-.25 2.08 2.08 0 0 1 .47-.08h1.73a20.51 20.51 0 0 1 2.33.16v1.39h-3.47c-.29 0-.48.07-.55.21a1.2 1.2 0 0 0-.07.46v1.37l3.55.12v1.39l-3.55.11v1.37c0 .3.08.48.25.55a1.55 1.55 0 0 0 .49.07h3.35v1.38c-.4 0-1.39.11-3 .17h-1.01a2.19 2.19 0 0 1-.33 0 1.91 1.91 0 0 1-.49-.12 1.64 1.64 0 0 1-.5-.29 1.7 1.7 0 0 1-.48-1.33v-5.23a1.61 1.61 0 0 1 .69-1.45zm6.8.75a2.25 2.25 0 0 1 1.33-1A3.85 3.85 0 0 1 223 477a11 11 0 0 1 3.06.39v1.32h-2.62a3.13 3.13 0 0 0-.69.05 1.18 1.18 0 0 0-.47.22.87.87 0 0 0-.34.48 7.42 7.42 0 0 0-.24 2.22 5.12 5.12 0 0 0 .35 2.2 1.39 1.39 0 0 0 1.35.68c.76 0 1.52 0 2.28-.07h.39v1.31a9.39 9.39 0 0 1-2.79.34H223a2.51 2.51 0 0 1-2.3-1.15 6.66 6.66 0 0 1-.69-3.39 6.54 6.54 0 0 1 .55-3.48zm6.72 7.71V477H229l3.48 5.68V477h1.68v8.79h-1.68l-3.48-5.58v5.62zm8.43-2.17a7.87 7.87 0 0 1-.14-1v-1.31a11 11 0 0 1 .09-1.44 6.89 6.89 0 0 1 .25-1.15 2.49 2.49 0 0 1 .42-.81 2.94 2.94 0 0 1 .53-.53 2.3 2.3 0 0 1 .67-.3 4.66 4.66 0 0 1 1.31-.18h1a4.18 4.18 0 0 1 .67.1 2.29 2.29 0 0 1 .61.22 3.27 3.27 0 0 1 .51.37 1.89 1.89 0 0 1 .43.56 4.51 4.51 0 0 1 .29.79 7.12 7.12 0 0 1 .27 2.07 13.91 13.91 0 0 1-.09 1.83 7.94 7.94 0 0 1-.23 1.11 2.77 2.77 0 0 1-.39.79 2.62 2.62 0 0 1-.52.53 2.05 2.05 0 0 1-.65.3 6.67 6.67 0 0 1-2.35.17 3.22 3.22 0 0 1-1.08-.18 4.46 4.46 0 0 1-.58-.3 1.73 1.73 0 0 1-.41-.4 4.14 4.14 0 0 1-.32-.56 3.14 3.14 0 0 1-.29-.68zm1.63-4a6.44 6.44 0 0 0-.1.76v1.12c0 .45 0 .83.05 1.14a3.86 3.86 0 0 0 .16.81 1 1 0 0 0 .35.51 2.19 2.19 0 0 0 1.29.3 2.16 2.16 0 0 0 1.26-.31c.39-.3.59-1.14.59-2.52a7.37 7.37 0 0 0-.15-1.87 2.69 2.69 0 0 0-.28-.64.79.79 0 0 0-.35-.3 2.16 2.16 0 0 0-.88-.16h-.7a2.37 2.37 0 0 0-.42.08.83.83 0 0 0-.35.18 1.76 1.76 0 0 0-.25.35 1.73 1.73 0 0 0-.22.58zm6.66 4.46V477h1.68v6.62c0 .3.08.48.25.55a1.55 1.55 0 0 0 .49.07h3v1.55h-3.61c-1.25.04-1.81-.53-1.81-1.67zm6.35-.46a7.87 7.87 0 0 1-.14-1c0-.37-.05-.8-.05-1.31a11 11 0 0 1 .09-1.44 6.89 6.89 0 0 1 .25-1.15 2.49 2.49 0 0 1 .42-.81 2.94 2.94 0 0 1 .53-.53 2.3 2.3 0 0 1 .67-.3 4.71 4.71 0 0 1 1.31-.18h1a4.18 4.18 0 0 1 .67.1 2.29 2.29 0 0 1 .61.22 3.27 3.27 0 0 1 .51.37 1.89 1.89 0 0 1 .43.56 5.46 5.46 0 0 1 .3.79 7.5 7.5 0 0 1 .26 2.07 13.91 13.91 0 0 1-.09 1.83 7.94 7.94 0 0 1-.23 1.11 2.77 2.77 0 0 1-.39.79 2.62 2.62 0 0 1-.52.53 2.05 2.05 0 0 1-.65.3 6.64 6.64 0 0 1-2.34.17 3.12 3.12 0 0 1-1.08-.18 4 4 0 0 1-.59-.3 1.73 1.73 0 0 1-.41-.4 4.14 4.14 0 0 1-.32-.56 3.14 3.14 0 0 1-.24-.68zm1.63-4a6.44 6.44 0 0 0-.1.76v2.26a3.86 3.86 0 0 0 .16.81 1 1 0 0 0 .35.51 2.19 2.19 0 0 0 1.29.3 2.16 2.16 0 0 0 1.32-.3c.39-.3.59-1.14.59-2.52a7.37 7.37 0 0 0-.15-1.87 2.69 2.69 0 0 0-.28-.64.79.79 0 0 0-.35-.3 2.16 2.16 0 0 0-.88-.16h-.7a2.37 2.37 0 0 0-.42.08.83.83 0 0 0-.35.18 2.29 2.29 0 0 0-.25.35 1.73 1.73 0 0 0-.21.57zm1.17-3.43l1.08-1.67h1.48l-1.47 1.67zm5.44 7.84a6.63 6.63 0 0 1-.24-1.24c0-.41-.05-.89-.05-1.44s0-1 .06-1.45a6.06 6.06 0 0 1 .26-1.21 2.71 2.71 0 0 1 .51-1 2.5 2.5 0 0 1 2-.81 14.36 14.36 0 0 1 1.73.08 12.61 12.61 0 0 1 1.64.3v1.31h-.2l-.49-.06-.67-.05c-.57-.05-1.11-.07-1.62-.07a1.27 1.27 0 0 0-1.27.64 6 6 0 0 0-.31 2.36 5.8 5.8 0 0 0 .29 2.29 1.23 1.23 0 0 0 1.22.59 2.2 2.2 0 0 0 .74-.14 3.08 3.08 0 0 0 .57-.27l.19-.15v-1.57h-1.22v-1.07a5.79 5.79 0 0 1 2.08-.29h.82v5h-1.2l-.46-.59a2.05 2.05 0 0 1-.9.51 3.31 3.31 0 0 1-2.2-.07 2.06 2.06 0 0 1-.84-.61 2.91 2.91 0 0 1-.44-.99zm7.55 1.76V477h1.67v8.79zm3.55-7.71a2.25 2.25 0 0 1 1.33-1 3.77 3.77 0 0 1 1.05-.13 10.93 10.93 0 0 1 3.06.39v1.32h-2.62a3.13 3.13 0 0 0-.69.05 1.16 1.16 0 0 0-.48.22.9.9 0 0 0-.33.48 7.42 7.42 0 0 0-.24 2.22 5 5 0 0 0 .35 2.2 1.39 1.39 0 0 0 1.35.68c.75 0 1.51 0 2.28-.07h.38v1.31a9.31 9.31 0 0 1-2.78.34h-.28a2.49 2.49 0 0 1-2.29-1.15 6.66 6.66 0 0 1-.69-3.39 6.54 6.54 0 0 1 .6-3.47zm6.39 7.71l3-8.79H281l2.86 8.79H282l-.62-1.95h-2.88l-.64 1.95zm2.92-3.43h2l-1-3.15zm5.46-2.4v-.76a2.14 2.14 0 0 1 .68-1.79 2.85 2.85 0 0 1 1.69-.48h.61a12.44 12.44 0 0 1 1.36.1 7.82 7.82 0 0 1 1.43.25v1.32c-.91-.08-1.64-.12-2.18-.12h-.87a1.74 1.74 0 0 0-.79.14c-.17.1-.25.34-.25.71v.43a.9.9 0 0 0 .2.68 1.21 1.21 0 0 0 .73.16h1.4a1.8 1.8 0 0 1 1.83 1.1 3 3 0 0 1 .24 1.23v.59a2.06 2.06 0 0 1-1.07 2.1 3.19 3.19 0 0 1-1.35.26 12.61 12.61 0 0 1-3.4-.36v-1.32c.88.09 1.65.14 2.31.14a11.09 11.09 0 0 0 1.14 0 1.39 1.39 0 0 0 .33-.1.61.61 0 0 0 .36-.63v-.47c0-.41-.13-.67-.39-.77a1.16 1.16 0 0 0-.4-.06h-1.34a2 2 0 0 1-2.27-2.35z"/><path stroke="url(#a)" stroke-width="5" fill="none" stroke-linecap="round" stroke-linejoin="round" d="M251.27 135.34H41.87v86.09"/><path stroke="url(#b)" stroke-width="5" fill="none" stroke-linecap="round" stroke-linejoin="round" d="M35.98 269.46h367.83"/><path stroke="url(#c)" stroke-width="5" fill="none" stroke-linecap="round" stroke-linejoin="round" d="M452.31 324.64v-11.27"/><path stroke="url(#d)" stroke-width="5" fill="none" stroke-linecap="round" stroke-linejoin="round" d="M245.69 401.57h206.62v-36.49"/><path stroke="url(#e)" stroke-width="5" fill="none" stroke-linecap="round" stroke-linejoin="round" d="M453.92 252.9V135.34H295.2"/><circle class="g" cx="178.7" cy="269.46" r="41.87"/><circle class="g" cx="41.87" cy="269.46" r="41.87"/><circle class="g" cx="316.68" cy="269.46" r="41.87"/><circle class="g" cx="452.07" cy="269.46" r="41.87"/><circle class="g" cx="248.22" cy="401.57" r="41.87"/><path class="a" d="M209.26 57.94v-8.78H213a2.29 2.29 0 0 1 1.9.73 3.08 3.08 0 0 1 .54 2 4.68 4.68 0 0 1-.16 1.32 2.35 2.35 0 0 1-.4.84 1.39 1.39 0 0 1-.59.45 2.38 2.38 0 0 1-1.05.22c-.28 0-.73 0-1.35-.11a9.28 9.28 0 0 1-1-.13v3.48zm3.65-7.3h-2v2.57h2a.84.84 0 0 0 .47-.11c.27-.16.41-.56.41-1.22-.01-.82-.3-1.24-.88-1.24zm7.66-1.48a2.27 2.27 0 0 1 1.71.58 3 3 0 0 1 .69 2.15 2.78 2.78 0 0 1-.71 2.25 1.42 1.42 0 0 1-.35.22 2 2 0 0 1-.35.12l1.67 3.46h-1.9l-1.45-3.32-1.47-.17v3.49h-1.68v-8.78zm-2.15 4h2a.84.84 0 0 0 .67-.24 1.68 1.68 0 0 0 .19-1 1.74 1.74 0 0 0-.21-1 .79.79 0 0 0-.65-.27h-2zm5.76 2.61a7.71 7.71 0 0 1-.13-1c0-.36-.05-.8-.05-1.3a10.91 10.91 0 0 1 .09-1.44 6.89 6.89 0 0 1 .24-1.16 2.84 2.84 0 0 1 .43-.81 2.35 2.35 0 0 1 .53-.52 2 2 0 0 1 .66-.3 4.78 4.78 0 0 1 1.32-.18h1a6.06 6.06 0 0 1 .67.1 2.42 2.42 0 0 1 .61.22 3.76 3.76 0 0 1 .5.37 1.71 1.71 0 0 1 .43.56 5.46 5.46 0 0 1 .3.79 7.14 7.14 0 0 1 .27 2.08 16.21 16.21 0 0 1-.09 1.83 8 8 0 0 1-.24 1.1 2.54 2.54 0 0 1-.39.79 2.1 2.1 0 0 1-1.17.84 6.87 6.87 0 0 1-2.34.16 2.81 2.81 0 0 1-1.66-.48 1.42 1.42 0 0 1-.41-.4 2.67 2.67 0 0 1-.33-.56 3.66 3.66 0 0 1-.24-.69zm1.63-4a6.64 6.64 0 0 0-.09.76v1.12a9.62 9.62 0 0 0 0 1.15 3.52 3.52 0 0 0 .16.81 1 1 0 0 0 .34.5 2.2 2.2 0 0 0 1.3.3 2.09 2.09 0 0 0 1.26-.31c.39-.3.58-1.14.58-2.52a7.22 7.22 0 0 0-.15-1.86 3.16 3.16 0 0 0-.27-.65.85.85 0 0 0-.35-.3 2.34 2.34 0 0 0-.88-.16h-.7a2.21 2.21 0 0 0-.42.08.69.69 0 0 0-.35.19 1.2 1.2 0 0 0-.25.34 1.5 1.5 0 0 0-.18.58zm6.61 6.17v-8.78h3.63a2.18 2.18 0 0 1 2.47 2.35 2.51 2.51 0 0 1-.3 1.22 1.23 1.23 0 0 1-.9.65 1.54 1.54 0 0 1 1 .64 2.28 2.28 0 0 1 .38 1.34 2.67 2.67 0 0 1-.62 1.92 2.59 2.59 0 0 1-2 .66zm1.68-5.3h1.84a.9.9 0 0 0 .69-.26 1.15 1.15 0 0 0 .23-.78.91.91 0 0 0-.26-.73 1 1 0 0 0-.66-.23h-1.84zm2.9 2.65a1.53 1.53 0 0 0-.24-.89.83.83 0 0 0-.73-.35h-1.93v2.4h1.9c.66.01 1-.38 1-1.16zm2.91.95v-7.08h1.68v6.61c0 .3.08.49.25.55a1.34 1.34 0 0 0 .49.07h3v1.55h-3.62c-1.19 0-1.8-.57-1.8-1.7zm7.32-6.76a2.27 2.27 0 0 1 .59-.25 2 2 0 0 1 .47-.07h1.74c1 0 1.81.08 2.32.15v1.39h-3.46c-.3 0-.48.07-.56.22a1.32 1.32 0 0 0-.07.45v1.37l3.55.12v1.39l-3.55.11v1.37c0 .3.09.49.25.55a1.36 1.36 0 0 0 .5.07h3.34v1.38c-.4.06-1.38.11-3 .17h-1.33a1.89 1.89 0 0 1-.49-.13 1.46 1.46 0 0 1-1-1.62V51a1.63 1.63 0 0 1 .7-1.52zm6.2 8.46l.77-8.78h2.34l1.47 6 1.45-6h2.33l.81 8.78H261l-.58-5.87-1.42 5.87h-1.87l-1.47-5.87-.52 5.87zm10.31 0l3-8.78h1.9l2.86 8.78h-1.79l-.65-1.94h-2.88l-.64 1.94zm2.88-3.43h2l-1-3.15zm5.5-2.4v-.76a2.15 2.15 0 0 1 .68-1.79 2.85 2.85 0 0 1 1.69-.48h.61c.31 0 .76 0 1.36.1a8.79 8.79 0 0 1 1.43.25v1.32c-.91-.08-1.64-.12-2.18-.12h-.87a1.6 1.6 0 0 0-.79.15c-.17.09-.25.33-.25.7v.44a.88.88 0 0 0 .2.67 1.2 1.2 0 0 0 .73.17h1.4a1.79 1.79 0 0 1 1.87 1.09 3.07 3.07 0 0 1 .24 1.23v.59a2.06 2.06 0 0 1-1.07 2.1 3 3 0 0 1-1.35.27 12.61 12.61 0 0 1-3.4-.36v-1.32c.88.08 1.65.13 2.31.13a11.09 11.09 0 0 0 1.14 0 1 1 0 0 0 .33-.09.63.63 0 0 0 .36-.64v-.47c0-.41-.13-.67-.39-.76a1.16 1.16 0 0 0-.4-.06h-1.34a2 2 0 0 1-2.31-2.36zM279 58.8l3.37-10.1h1.74l-3.37 10.1zm-62.78 13.09V63.1H220c2 0 3.05 1.48 3.05 4.43 0 1.82-.43 3.09-1.31 3.79a2.64 2.64 0 0 1-1.74.57zm5.1-4.37q0-2.19-.69-2.7a1.36 1.36 0 0 0-.81-.23h-1.92v5.8h1.92c1 0 1.5-.96 1.5-2.87zm3.46-4.09a2.32 2.32 0 0 1 .59-.26 2.67 2.67 0 0 1 .47-.07h1.73c1 0 1.82.08 2.33.15v1.4h-3.47c-.29 0-.48.07-.55.21a1.17 1.17 0 0 0-.07.46v1.37l3.55.12v1.39l-3.55.11v1.36c0 .31.08.49.25.56a1.59 1.59 0 0 0 .49.07h3.35v1.38c-.4 0-1.39.11-3 .17h-1a2.06 2.06 0 0 1-.33 0 2 2 0 0 1-.5-.12 1.64 1.64 0 0 1-.5-.29 1.7 1.7 0 0 1-.48-1.33v-5.18a1.63 1.63 0 0 1 .69-1.5zm6.22 8.46l.77-8.79h2.34l1.46 6 1.46-6h2.32l.82 8.79h-1.66l-.59-5.89-1.42 5.87h-1.87L233.15 66l-.51 5.87zm10.29 0l3-8.79h1.91l2.8 8.79h-1.79l-.63-2h-2.88l-.63 2zm2.88-3.44h2l-1-3.14zm5.99 3.44V63.1h1.7l3.48 5.68V63.1H257v8.79h-1.68l-3.49-5.62v5.62zm8.37 0V63.1h3.74q3 0 3 4.43c0 1.82-.43 3.09-1.3 3.79a2.68 2.68 0 0 1-1.74.57zm5.1-4.37q0-2.19-.69-2.7a1.36 1.36 0 0 0-.81-.23h-1.92v5.8h1.92c1 0 1.5-.96 1.5-2.87zm2.22 4.37l3-8.79h1.91l2.85 8.79h-1.79l-.62-2h-2.88l-.64 2zm2.88-3.44h2l-1-3.14zm5.5-2.4v-.75a2.14 2.14 0 0 1 .68-1.79 2.85 2.85 0 0 1 1.69-.51h.61a12.44 12.44 0 0 1 1.36.1 7.82 7.82 0 0 1 1.43.25v1.35c-.91-.08-1.64-.12-2.18-.12H277a1.74 1.74 0 0 0-.79.14c-.17.1-.25.33-.25.71v.43a.86.86 0 0 0 .2.67 1.15 1.15 0 0 0 .74.17h1.39a1.8 1.8 0 0 1 1.83 1.09 3.08 3.08 0 0 1 .24 1.24v.59a2.07 2.07 0 0 1-1.06 2.1 3.23 3.23 0 0 1-1.36.26 12.61 12.61 0 0 1-3.4-.36V70.3a22.92 22.92 0 0 0 2.31.13h1.14a1.39 1.39 0 0 0 .33-.1.61.61 0 0 0 .36-.63v-.47c0-.42-.13-.67-.39-.77a1.16 1.16 0 0 0-.4-.06h-1.39a2 2 0 0 1-2.27-2.35z"/><circle class="g" cx="248.22" cy="135.34" r="41.87"/><path class="h" d="M191.32 282.3c-.83-.83.79-3.8 1.62-4.63l22-22a2.13 2.13 0 0 1 3 0 2.15 2.15 0 0 1 0 3l-22 22c-.82.83-3.79 2.45-4.62 1.63zm18.86-21.87l3 3.01m-33.32 36.31h-24.94a2.79 2.79 0 0 1-2.79-2.79V244a2.78 2.78 0 0 1 2.79-2.78H164m20.22 58.53h-1.09m15.72-17.22V297a2.79 2.79 0 0 1-2.79 2.79h-5.76m-3.3-58.53h9.07a2.78 2.78 0 0 1 2.79 2.78v23.46"/><path class="h" d="M193.53 285.26v6.38a2.79 2.79 0 0 1-2.79 2.79h-30.51a2.78 2.78 0 0 1-2.78-2.79V250.7a2.77 2.77 0 0 1 2.78-2.78h4.07m22.38 0h4.06a2.78 2.78 0 0 1 2.79 2.78v22.43m-6.65-18.95h1.05m-11.78 0h7.57m-7.57 4.87h11.78m-6.93 4.87h6.93m-25.07 0h14.97m-2.28 4.88h12.38m-25.07 0h9.4m3.89 4.87h11.78m-7.25 4.88h7.25m-11.78 0h1.11m7.41 4.87h3.26m-25.07 0h18.64m-.03 4.75h6.65m-25.07 0h15.29"/><path class="h" d="M162.86 256.07l3.67 3.38 3.97-5.27m-7.64 21.26l3.67 3.38 3.97-5.27m-1.85-24.12a5.32 5.32 0 1 1 0-10.64m13.67 0a5.32 5.32 0 0 1 0 10.64m-12.15-10.64a5.32 5.32 0 1 1 10.64 0m-12.16 0h1.52m10.64 0h1.51m-13.67 10.64h13.67"/><circle class="h" cx="175.49" cy="239.18" r="2.07"/><path class="h" d="M317.8 274.16l3.58 1.95m-12.45.38l5.22-2.54m-13.77 2.03l4.65 1.21m-15.95 2.91l7.1-3.48"/><circle class="h" cx="298.28" cy="275.64" r="1.99"/><circle class="h" cx="307.11" cy="277.55" r="1.99"/><circle class="h" cx="316.2" cy="272.97" r="1.99"/><circle class="h" cx="323.16" cy="277.01" r="1.99"/><path class="h" d="M281.92 285.78v-35.33m61.17.39v3.93m-30.59 39.08v-2.68"/><circle class="h" cx="312.5" cy="297.05" r="2.26"/><rect class="h" x="279.45" y="245.46" width="65.9" height="4.99" rx="2.49" ry="2.49"/><path class="h" d="M295.07 261.97h3.11v4.65h-3.11zm-6.09-3.38h3.11v8.03h-3.11zm12.18.03h3.11v7.99h-3.11zm12.14.17a4.56 4.56 0 1 0 7.48 3.86"/><path class="h" d="M323.11 262.06a6.64 6.64 0 0 0-6.63-6.63v6.63zm-7.42 28.71h-34.86a1.38 1.38 0 0 1-1.38-1.37v-2.25a1.37 1.37 0 0 1 1.38-1.37h36m2.91 17.79v-12.82s.17-6.05 5.1-7.33 5.47-.69 5.47-.69a15.15 15.15 0 0 0 15.89 0s.53-.58 5.47.69 5.1 7.33 5.1 7.33v12.82m-26.65-35.2a8.43 8.43 0 1 0 16.22 0"/><path class="h" d="M346.34 268.37l.44-2.64a8.52 8.52 0 0 0-8.41-8.41c-4.35-.06-7.92 2.34-8.51 6.4a10.19 10.19 0 0 1-.72 2.55l-.59 1.35s9.11 3.47 12.8-1.09a2.48 2.48 0 0 0 1.7 1.59m-12.74 14.61l7.97 20.75m3.3-8.73l-3.14-9.77m-.4 0l-3.11 9.77m11.28-12.02l-7.96 20.75M16.23 294.8h7.59a7.26 7.26 0 0 1 7.26 7.26H9a7.26 7.26 0 0 1 7.23-7.26zm21.78 7.27h-6.93"/><circle class="h" cx="20.02" cy="275.27" r="7.35"/><path class="h" d="M15.21 280.82v13.98m9.84-13.98v13.98"/><circle class="h" cx="20.02" cy="275.27" r="2.33"/><circle class="h" cx="34.54" cy="242.43" r=".52"/><circle class="h" cx="34.54" cy="242.43" r="5.48"/><path class="h" d="M15.21 269.71l13.85-27.28m-1.8 31.55l10.4-27.04m-2.59-9.99l14.74 1.86v7.23l-14.74 1.87m14.74-5.48h6.09m0-1.96v3.92m0-4.33l4.18-3.64 5.97 3.64m-10.15 4.73l4.18 3.64 5.97-3.64m-19.91 57.28v-12.82s.17-6.05 5.1-7.33 5.47-.69 5.47-.69a13.45 13.45 0 0 0 7.95 2.25 13.43 13.43 0 0 0 7.94-2.25s.53-.58 5.47.69 5.1 7.33 5.1 7.33v12.82m-26.65-35.2a8.43 8.43 0 1 0 16.22 0"/><path class="h" d="M72.74 266.87l.44-2.64a8.52 8.52 0 0 0-8.41-8.41c-4.35-.06-7.92 2.34-8.51 6.4a10.19 10.19 0 0 1-.72 2.55l-.54 1.35s9.12 3.47 12.8-1.09a2.48 2.48 0 0 0 1.7 1.59m-12.79 14.61l7.97 20.75m3.3-8.73l-3.14-9.77m-.4 0l-3.11 9.77m11.29-12.02l-7.97 20.75"/><circle class="h" cx="478.14" cy="295.64" r="13.37"/><path class="h" d="M492.69 287a16.92 16.92 0 1 1-3.43-4.12m1.74 1.75c.11.12.21.25.31.37"/><circle class="h" cx="478.14" cy="295.64" r="1.72"/><path class="h" d="M478.14 297.84v2.71m-6.58-11.91l4.96 5.28m1.62-7.99v1.2m-9.61 8.2h1.2m8.2 9.92v-1.2m9.76-8.51h-1.2m-10.97 9.03c-.29-.09-.57-.19-.85-.3a9 9 0 0 1-2-1.1 9.55 9.55 0 0 1-1.71-1.6m-20.83-58.89h11.86m-28.59 0h11.86m-24.47 8.06h39.86m4.35 0h1.87m-9.2 42.57h-33.74a3.05 3.05 0 0 1-3.14-3V248a5.54 5.54 0 0 1 5.7-5.36h2m38.38.04h2a5.54 5.54 0 0 1 5.7 5.36v27.36m-45.17 11h-.88m31.22 0h-26.88"/><path class="h" d="M428.52 282.18v-24.54h38.35v20.8m-38.35-11.21h38.35m-38.35 9.59h38.35m-28.76-19.18v28.76m9.59-28.76v28.76m9.58-28.76v28.76"/><rect class="h" x="428.52" y="238.24" width="4.88" height="8.44" rx="2.44" ry="2.44"/><rect class="h" x="445.26" y="238.24" width="4.88" height="8.44" rx="2.44" ry="2.44"/><rect class="h" x="461.99" y="238.24" width="4.87" height="8.44" rx="2.44" ry="2.44"/><path class="h" d="M471.3 250.74h3.3M229.26 372.2h45.62v45.62h-45.62z"/><circle class="h" cx="218.54" cy="381.36" r="2.36"/><circle class="h" cx="220.93" cy="390.45" r="2.36"/><circle class="h" cx="220.13" cy="399.53" r="2.36"/><circle class="h" cx="222.52" cy="408.61" r="2.36"/><circle class="h" cx="281.62" cy="381.36" r="2.36"/><circle class="h" cx="284.8" cy="390.45" r="2.36"/><circle class="h" cx="282.42" cy="399.53" r="2.36"/><circle class="h" cx="285.6" cy="408.61" r="2.36"/><circle class="h" cx="238.38" cy="363.07" r="2.36"/><circle class="h" cx="247.51" cy="359.09" r="2.36"/><circle class="h" cx="256.63" cy="363.07" r="2.36"/><circle class="h" cx="265.76" cy="361.48" r="2.36"/><circle class="h" cx="238.38" cy="429.33" r="2.36"/><circle class="h" cx="247.51" cy="427.74" r="2.36"/><circle class="h" cx="256.63" cy="430.13" r="2.36"/><circle class="h" cx="265.76" cy="426.15" r="2.36"/><path class="h" d="M238.38 372.2v-6.77m9.13 6.77v-10.75m9.12 10.75v-6.77m9.13 6.77v-8.36m-27.38 63.17v-9.15m9.13 7.56v-7.56m9.12 9.95v-9.95m9.13 5.97v-5.97m-36.5-9.16h-4.38m4.38-9.13h-6.77m6.77-9.12h-5.98m5.98-9.13h-8.36m62.34 27.38h-8.36m5.18-9.13h-5.18m7.57-9.12h-7.57m4.38-9.13h-4.38m-37.66 4.2v-5.37h9.53m8.21 29.71h-17.74v-19.25m14.17-10.46h15.54v29.71h-6.8"/><path class="h" d="M245.28 406.2h-4.4v-22.38h14.15m8.23 17.43v4.95H249.5m10.19-22.38h3.57v12.84m-11.19 2.6l3.09 3.09m-10.49-10.49l5.04 5.04m2.36-5.33l6.96 6.96m-10.49-10.49l1.38 1.38m-15.34-227.38h6.54m-6.64-58.74h.52m2.59 0h.52m2.58 0h.52m9.31 2.76h5.75m-36.84 0h27.04m-18.31 51.2h28.11m-36.84 0h4.96"/><rect class="h" x="219.43" y="100.61" width="36.84" height="66.21" rx="5.28" ry="5.28"/><path class="h" d="M234.3 134.96l16.22-16.22m-25.39 25.39l5.7-5.7m13.34-22.73l4.27-4.26m-23.74 23.73l15.99-15.99m-9.99.61l8.71-8.72m-14.34 14.34l2.42-2.42m20.73 8.3l2.58-2.58m-22.82 22.82l16.76-16.76m-2.5 12.75l9.09-9.09m-14.34 14.34l2.09-2.09M261 128.41a8.32 8.32 0 0 1 1 1.52 8.53 8.53 0 0 1 .47 1.12c.06.19.12.39.17.59A8.33 8.33 0 0 1 261 139m9.1 3.35a17.57 17.57 0 0 1-2.61 3.55m-.02-24.43a17.72 17.72 0 0 1 4.87 12.23 18.33 18.33 0 0 1-.14 2.24m9.8-2.24a27.31 27.31 0 0 1-7.72 19.07m0-38.1a27.41 27.41 0 0 1 6.78 12c0 .13.07.26.1.39"/><path stroke="url(#f)" stroke-width="5" fill="none" stroke-linecap="round" stroke-linejoin="round" d="M32.04 216.06l9.73 9.73 9.72-9.73"/><path stroke="url(#g)" stroke-width="5" fill="none" stroke-linecap="round" stroke-linejoin="round" d="M301.7 125.62l-9.72 9.72 9.72 9.73"/><path stroke="url(#h)" stroke-width="5" fill="none" stroke-linecap="round" stroke-linejoin="round" d="M398.62 279.18l9.72-9.72-9.72-9.73"/><path stroke="url(#i)" stroke-width="5" fill="none" stroke-linecap="round" stroke-linejoin="round" d="M462.03 323.09l-9.72-9.72-9.72 9.72"/></svg>