<svg xmlns="http://www.w3.org/2000/svg" viewBox="0 0 519.41 182.73"><defs><style>.a{fill:#d7e1ee}.b{fill:#1f3178}.c{fill:none;stroke:#1f3178;stroke-linecap:round;stroke-linejoin:round;stroke-width:1.5px}</style></defs><circle class="a" cx="56.81" cy="134.02" r="41.87"/><circle class="a" cx="193.64" cy="134.02" r="41.87"/><circle class="a" cx="331.62" cy="134.02" r="41.87"/><circle class="a" cx="468.87" cy="134.02" r="41.87"/><path class="b" d="M3.84 49.78a2.26 2.26 0 0 1 1.72.59 3 3 0 0 1 .68 2.14 2.78 2.78 0 0 1-.71 2.25 1.54 1.54 0 0 1-.35.23l-.34.12 1.66 3.45H4.61l-1.45-3.32-1.48-.17v3.49H0v-8.78zm-2.15 4h2a.81.81 0 0 0 .67-.24 1.64 1.64 0 0 0 .2-1 1.62 1.62 0 0 0-.22-1 .78.78 0 0 0-.65-.27h-2zm6.57-3.68a2.13 2.13 0 0 1 .59-.25 2 2 0 0 1 .47-.07h1.73c1 0 1.82.08 2.33.15v1.39H9.91c-.29 0-.48.07-.55.22a1.12 1.12 0 0 0-.07.45v1.41l3.55.12v1.39L9.29 55v1.37c0 .3.08.49.25.55A1.3 1.3 0 0 0 10 57h3.35v1.38c-.4.06-1.39.12-3 .17H9.08a1.63 1.63 0 0 1-.49-.13 1.62 1.62 0 0 1-.5-.28 1.73 1.73 0 0 1-.48-1.34v-5.2a1.63 1.63 0 0 1 .65-1.5zm6.43 8.46v-8.78h3.73c2 0 3 1.47 3 4.43 0 1.82-.44 3.08-1.31 3.79a2.64 2.64 0 0 1-1.74.56zm5.1-4.37c0-1.45-.23-2.35-.7-2.7a1.33 1.33 0 0 0-.8-.22h-1.92v5.79h1.92c1 0 1.5-.95 1.5-2.87zm6.46 4.43h-.16a4.08 4.08 0 0 1-1.92-.3 3.28 3.28 0 0 1-.51-.42 1.88 1.88 0 0 1-.43-.69 7.49 7.49 0 0 1-.36-2.49v-4.94h1.68v4.94a4.66 4.66 0 0 0 .23 1.69 1.06 1.06 0 0 0 .8.62 5 5 0 0 0 .76 0 1.74 1.74 0 0 0 .84-.18c.47-.25.71-1 .71-2.17v-4.9h1.69v4.94a5.28 5.28 0 0 1-.58 2.74 2.49 2.49 0 0 1-.36.48 1.37 1.37 0 0 1-.44.33 3.78 3.78 0 0 1-.46.2 2 2 0 0 1-.52.1 7.14 7.14 0 0 1-.97.05zm5.2-7.76a2.27 2.27 0 0 1 1.33-1 4.27 4.27 0 0 1 1.06-.13 10.65 10.65 0 0 1 3.06.4v1.27h-2.62a3.9 3.9 0 0 0-.69.05 1.34 1.34 0 0 0-.47.22.94.94 0 0 0-.34.49 7.21 7.21 0 0 0-.24 2.18 4.91 4.91 0 0 0 .34 2.2 1.4 1.4 0 0 0 1.36.72c.76 0 1.52 0 2.28-.08h.39v1.12a9.77 9.77 0 0 1-2.79.33h-.27a2.49 2.49 0 0 1-2.3-1.15 6.66 6.66 0 0 1-.69-3.39 6.47 6.47 0 0 1 .59-3.23zM32.6 59h1.13a2.24 2.24 0 0 1-.29 1.31 1.25 1.25 0 0 1-1 .38h-.68V60l.53-.18a.56.56 0 0 0 .3-.26 1.7 1.7 0 0 0 .01-.56zm5.25-.44l3-8.78h1.91l2.85 8.78h-1.82l-.63-1.94h-2.88l-.63 1.94zm4.63-10.64a1.81 1.81 0 0 0 1.05-.46l.29.72a2 2 0 0 1-1.34.82 1.67 1.67 0 0 1-.72-.21 1.69 1.69 0 0 0-.58-.21 1.28 1.28 0 0 0-.29 0h-.19l-.18.07-.16.08-.18.11L40 49l-.28-.66a2.08 2.08 0 0 1 1.45-.84 1.79 1.79 0 0 1 .68.21 1.62 1.62 0 0 0 .51.21zm-1.75 7.21h2l-1-3.14zm5.68 1.26a7.59 7.59 0 0 1-.14-1c0-.36-.05-.79-.05-1.3a10.91 10.91 0 0 1 .09-1.44 5.85 5.85 0 0 1 .25-1.15 2.39 2.39 0 0 1 .42-.81 2.41 2.41 0 0 1 .53-.53 2 2 0 0 1 .67-.3 4.66 4.66 0 0 1 1.31-.18h1a5.73 5.73 0 0 1 .67.1 2.28 2.28 0 0 1 .61.23 2.65 2.65 0 0 1 .51.36 1.76 1.76 0 0 1 .42.57 3.73 3.73 0 0 1 .3.78 7.24 7.24 0 0 1 .27 2.08 14.13 14.13 0 0 1-.09 1.83 6.51 6.51 0 0 1-.24 1.1 2.64 2.64 0 0 1-.9 1.32 2 2 0 0 1-.66.31 7.1 7.1 0 0 1-2.34.17 3.83 3.83 0 0 1-1.04-.12 4.45 4.45 0 0 1-.58-.31 1.56 1.56 0 0 1-.41-.4 4 4 0 0 1-.33-.56 3.67 3.67 0 0 1-.27-.75zm1.62-4a6.84 6.84 0 0 0-.09.77v1.11c0 .45 0 .83.05 1.15a4.14 4.14 0 0 0 .16.81 1 1 0 0 0 .34.5 2.25 2.25 0 0 0 1.3.3 2.09 2.09 0 0 0 1.21-.28c.39-.29.59-1.14.59-2.52a7.22 7.22 0 0 0-.15-1.86 2.8 2.8 0 0 0-.28-.65.79.79 0 0 0-.35-.3 2.35 2.35 0 0 0-.88-.15h-.7a3.83 3.83 0 0 0-.42.08.74.74 0 0 0-.35.19 1.66 1.66 0 0 0-.25.34 1.73 1.73 0 0 0-.21.54zm9.86 6.17v-8.78h3.73c2 0 3.05 1.47 3.05 4.43 0 1.82-.44 3.08-1.31 3.79a2.67 2.67 0 0 1-1.74.56zM63 54.19c0-1.45-.24-2.35-.7-2.7a1.35 1.35 0 0 0-.8-.22h-1.93v5.79h1.92c1 0 1.51-.95 1.51-2.87zm3.06 2.2a7.71 7.71 0 0 1-.13-1 12.25 12.25 0 0 1-.05-1.3 10.91 10.91 0 0 1 .12-1.4 6.76 6.76 0 0 1 .24-1.15 2.81 2.81 0 0 1 .42-.81 2.67 2.67 0 0 1 .54-.53 2 2 0 0 1 .66-.3 4.78 4.78 0 0 1 1.32-.18h1a6.06 6.06 0 0 1 .67.1 2.21 2.21 0 0 1 .6.23 2.65 2.65 0 0 1 .51.36 1.65 1.65 0 0 1 .43.57 5.31 5.31 0 0 1 .3.78 7.26 7.26 0 0 1 .26 2.08 14.13 14.13 0 0 1-.09 1.83 6.58 6.58 0 0 1-.23 1.1 2.77 2.77 0 0 1-.39.79 2.39 2.39 0 0 1-.52.53 2 2 0 0 1-.65.31 7.1 7.1 0 0 1-2.34.17 3.69 3.69 0 0 1-1.08-.18 3.88 3.88 0 0 1-.58-.31 1.6 1.6 0 0 1-.42-.4 3.19 3.19 0 0 1-.32-.56 3.66 3.66 0 0 1-.27-.73zm1.63-4c0 .22-.07.47-.1.77s0 .66 0 1.11a9.62 9.62 0 0 0 0 1.15 3.52 3.52 0 0 0 .16.81 1 1 0 0 0 .34.5 2.2 2.2 0 0 0 1.3.3 2.09 2.09 0 0 0 1.26-.31c.39-.29.58-1.14.58-2.52a7.22 7.22 0 0 0-.15-1.86 3.43 3.43 0 0 0-.27-.65.82.82 0 0 0-.36-.3 2.3 2.3 0 0 0-.87-.15h-.7a3.1 3.1 0 0 0-.42.08.69.69 0 0 0-.35.19 1.36 1.36 0 0 0-.25.34 1.5 1.5 0 0 0-.17.57zm10.22-1.53a2.29 2.29 0 0 1 1.34-1 4.19 4.19 0 0 1 1-.13 10.56 10.56 0 0 1 3.06.4v1.27h-2.62a4.07 4.07 0 0 0-.69.05 1.34 1.34 0 0 0-.47.22 1 1 0 0 0-.34.49 7.37 7.37 0 0 0-.19 2.05 5 5 0 0 0 .36 2.2 1.37 1.37 0 0 0 1.35.68c.75 0 1.51 0 2.28-.08h.38v1.29a9.74 9.74 0 0 1-2.78.33h-.29a2.49 2.49 0 0 1-2.3-1.15 6.66 6.66 0 0 1-.69-3.39 6.47 6.47 0 0 1 .6-3.23zM88 58.62h-.17a4.08 4.08 0 0 1-1.92-.3 3.83 3.83 0 0 1-.5-.42 1.78 1.78 0 0 1-.44-.69 7.49 7.49 0 0 1-.36-2.49v-4.94h1.68v4.94a4.66 4.66 0 0 0 .23 1.69 1.08 1.08 0 0 0 .81.62 4.92 4.92 0 0 0 .76 0 1.73 1.73 0 0 0 .83-.18c.47-.25.71-1 .71-2.17v-4.9h1.69v4.94a5.18 5.18 0 0 1-.55 2.74 3 3 0 0 1-.35.48 1.54 1.54 0 0 1-.45.33 3.21 3.21 0 0 1-.46.2 2 2 0 0 1-.52.1 7.07 7.07 0 0 1-.99.05zm4.71-5.89V52a2.12 2.12 0 0 1 .68-1.78 2.71 2.71 0 0 1 1.69-.48h.61c.31 0 .76 0 1.36.09a10 10 0 0 1 1.43.25v1.32c-.91-.08-1.64-.12-2.18-.12h-.87a1.6 1.6 0 0 0-.79.15c-.17.09-.25.33-.25.71v.43a.88.88 0 0 0 .2.67 1.22 1.22 0 0 0 .74.17h1.39a1.79 1.79 0 0 1 1.83 1.09 3.08 3.08 0 0 1 .24 1.24v.58a2.05 2.05 0 0 1-1.06 2.1 3.08 3.08 0 0 1-1.36.27A12.61 12.61 0 0 1 93 58.3V57a22.92 22.92 0 0 0 2.31.13h1.14a1.39 1.39 0 0 0 .33-.1.62.62 0 0 0 .36-.64v-.46c0-.42-.13-.68-.39-.77a1.16 1.16 0 0 0-.4-.06H95a2 2 0 0 1-2.29-2.37zm6.73-1.4v-1.55h6.49v1.55h-2.43v7.23h-1.68v-7.23zm7.56 5.06c-.06-.28-.1-.6-.14-1s0-.79 0-1.3a10.91 10.91 0 0 1 .09-1.44 6.76 6.76 0 0 1 .24-1.15 2.81 2.81 0 0 1 .42-.81 2.67 2.67 0 0 1 .54-.53 2 2 0 0 1 .66-.3 4.78 4.78 0 0 1 1.32-.18h1a5.88 5.88 0 0 1 .68.1 2.35 2.35 0 0 1 .6.23 2.65 2.65 0 0 1 .51.36 1.79 1.79 0 0 1 .43.57 5.31 5.31 0 0 1 .3.78 7.63 7.63 0 0 1 .26 2.08 14.13 14.13 0 0 1-.09 1.83 7.77 7.77 0 0 1-.23 1.1 2.77 2.77 0 0 1-.39.79 2.62 2.62 0 0 1-.52.53 2.06 2.06 0 0 1-.65.31 7.12 7.12 0 0 1-2.34.17 3.69 3.69 0 0 1-1.08-.18 3.44 3.44 0 0 1-.58-.31 1.46 1.46 0 0 1-.42-.4 3.19 3.19 0 0 1-.32-.56 3.14 3.14 0 0 1-.29-.69zm1.63-4c0 .22-.07.47-.1.77s0 .66 0 1.11v1.15a4.1 4.1 0 0 0 .17.81 1 1 0 0 0 .34.5 2.19 2.19 0 0 0 1.29.3 2.09 2.09 0 0 0 1.26-.31c.4-.29.59-1.14.59-2.52a7.22 7.22 0 0 0-.15-1.86 3.43 3.43 0 0 0-.27-.65.88.88 0 0 0-.36-.3 2.33 2.33 0 0 0-.87-.15h-.71a3.83 3.83 0 0 0-.42.08.71.71 0 0 0-.34.19 1.67 1.67 0 0 0-.26.34 1.73 1.73 0 0 0-.2.57zM17.05 72.51v-8.79h3.73c2 0 3 1.48 3 4.43 0 1.83-.43 3.09-1.31 3.79a2.64 2.64 0 0 1-1.74.57zm5.1-4.37q0-2.19-.69-2.7a1.36 1.36 0 0 0-.81-.23h-1.92V71h1.92c1 0 1.5-.95 1.5-2.86zm3.46-4.09a2 2 0 0 1 .59-.25 2.08 2.08 0 0 1 .47-.08l1.73.05a18.81 18.81 0 0 1 2.33.15v1.39h-3.47c-.29 0-.48.07-.55.21a1.44 1.44 0 0 0-.07.46v1.37l3.55.12v1.39l-3.55.14v1.37c0 .3.08.48.25.55a1.34 1.34 0 0 0 .49.07h3.35v1.38c-.4.06-1.39.11-3 .17H26.4a2.65 2.65 0 0 1-.5-.13 1.64 1.64 0 0 1-.5-.29 1.7 1.7 0 0 1-.4-1.34v-5.23a1.63 1.63 0 0 1 .61-1.5zm9.55 8.46v-8.79h3.78a2.31 2.31 0 0 1 1.9.74 3.08 3.08 0 0 1 .54 2 4.65 4.65 0 0 1-.17 1.32 2.44 2.44 0 0 1-.39.84 1.49 1.49 0 0 1-.6.45 2.36 2.36 0 0 1-1 .22c-.28 0-.73 0-1.36-.11s-1-.12-1-.13v3.48zm3.65-7.3h-2v2.57h2a.93.93 0 0 0 .47-.11c.27-.16.4-.57.4-1.22 0-.83-.3-1.24-.87-1.24zm7.65-1.49a2.3 2.3 0 0 1 1.72.59 3 3 0 0 1 .68 2.15 2.75 2.75 0 0 1-.7 2.24 1.79 1.79 0 0 1-.35.23l-.35.12 1.67 3.46h-1.9l-1.45-3.33L44.3 69v3.49h-1.68v-8.77zm-2.14 4h2a.81.81 0 0 0 .66-.24 1.6 1.6 0 0 0 .2-1 1.73 1.73 0 0 0-.21-1 .79.79 0 0 0-.65-.27h-2zm5.76 2.62a7.71 7.71 0 0 1-.13-1 12.46 12.46 0 0 1-.05-1.31 11.13 11.13 0 0 1 .1-1.4 7 7 0 0 1 .24-1.15 3.09 3.09 0 0 1 .42-.81 3 3 0 0 1 .54-.53 2.52 2.52 0 0 1 .66-.3 4.78 4.78 0 0 1 1.32-.18h1a4.3 4.3 0 0 1 .68.1 2.21 2.21 0 0 1 .6.22 3.27 3.27 0 0 1 .51.37 1.74 1.74 0 0 1 .43.56 5.46 5.46 0 0 1 .3.79 7.14 7.14 0 0 1 .3 2.1 13.91 13.91 0 0 1-.09 1.83 7.94 7.94 0 0 1-.23 1.11 2.77 2.77 0 0 1-.39.79 2.39 2.39 0 0 1-.52.53 2 2 0 0 1-.65.3 6.59 6.59 0 0 1-2.34.17 3.12 3.12 0 0 1-1.08-.18 3.46 3.46 0 0 1-.58-.3 1.46 1.46 0 0 1-.42-.4 3.6 3.6 0 0 1-.32-.56 3.14 3.14 0 0 1-.3-.75zm1.63-4c0 .21-.07.47-.1.76s0 .67 0 1.12v1.14a3.81 3.81 0 0 0 .17.81 1 1 0 0 0 .34.51 2.19 2.19 0 0 0 1.29.3 2.16 2.16 0 0 0 1.26-.31c.4-.3.59-1.14.59-2.52a7.22 7.22 0 0 0-.15-1.86 3.16 3.16 0 0 0-.27-.65.88.88 0 0 0-.36-.3 2.11 2.11 0 0 0-.87-.16h-.7a2.07 2.07 0 0 0-.42.08.77.77 0 0 0-.35.18 1.77 1.77 0 0 0-.26.35 1.73 1.73 0 0 0-.17.58zm6.61 6.17v-8.79h3.73q3 0 3 4.43c0 1.83-.43 3.09-1.31 3.79a2.64 2.64 0 0 1-1.74.57zm5.1-4.37c0-1.46-.23-2.36-.7-2.7a1.31 1.31 0 0 0-.8-.23H60V71h1.92c1 0 1.5-.95 1.5-2.86zm6.47 4.43h-.17a4.08 4.08 0 0 1-1.92-.3 4 4 0 0 1-.5-.43 1.78 1.78 0 0 1-.44-.69 7.43 7.43 0 0 1-.36-2.48v-5h1.68v5a4.66 4.66 0 0 0 .23 1.69 1.07 1.07 0 0 0 .81.61A4.67 4.67 0 0 0 70 71a1.73 1.73 0 0 0 .83-.18c.47-.26.71-1 .71-2.17v-5h1.69v5a5.14 5.14 0 0 1-.55 2.73 3.13 3.13 0 0 1-.35.49 1.72 1.72 0 0 1-.45.32 3.42 3.42 0 0 1-.46.21 2.52 2.52 0 0 1-.52.1 9 9 0 0 1-1.01.07zm5.19-7.77a2.31 2.31 0 0 1 1.34-1 3.77 3.77 0 0 1 1-.13 10.93 10.93 0 0 1 3.06.39v1.32h-2.62a3.24 3.24 0 0 0-.69 0 1.34 1.34 0 0 0-.47.22 1 1 0 0 0-.34.48 7.28 7.28 0 0 0-.24 2.19 5 5 0 0 0 .34 2.19 1.42 1.42 0 0 0 1.37.72c.75 0 1.51 0 2.28-.07h.38v1.3a9.36 9.36 0 0 1-2.78.34h-.28a2.51 2.51 0 0 1-2.3-1.15 6.66 6.66 0 0 1-.65-3.6 6.54 6.54 0 0 1 .6-3.2zm1.16 8.2h1.12a2.29 2.29 0 0 1-.28 1.32 1.28 1.28 0 0 1-1.06.37h-.67v-.72l.53-.18a.52.52 0 0 0 .29-.25 1.67 1.67 0 0 0 .07-.54zm5.24-.49l3-8.79h1.91l2.86 8.79h-1.83l-.63-2h-2.87l-.64 2zm4.63-10.65a1.85 1.85 0 0 0 1.06-.45l.29.72a2 2 0 0 1-1.35.81 1.67 1.67 0 0 1-.72-.21 1.63 1.63 0 0 0-.58-.21h-.48l-.18.07-.16.08-.18.11-.18.1-.29-.66a2.08 2.08 0 0 1 1.45-.84 1.75 1.75 0 0 1 .69.22 1.48 1.48 0 0 0 .5.2zm-1.75 7.22h2l-1-3.15zM90 70.34a7.59 7.59 0 0 1-.14-1c0-.36-.05-.8-.05-1.31a9.58 9.58 0 0 1 .1-1.44 6.07 6.07 0 0 1 .24-1.15 2.59 2.59 0 0 1 .42-.81 2.94 2.94 0 0 1 .53-.53 2.76 2.76 0 0 1 .67-.3 4.76 4.76 0 0 1 1.31-.18h1a4.18 4.18 0 0 1 .67.1 2.29 2.29 0 0 1 .61.22 3.27 3.27 0 0 1 .51.37 1.89 1.89 0 0 1 .43.56 5.46 5.46 0 0 1 .3.79 7.5 7.5 0 0 1 .26 2.07 13.91 13.91 0 0 1-.09 1.83 7.94 7.94 0 0 1-.23 1.11 2.77 2.77 0 0 1-.39.79 2.62 2.62 0 0 1-.52.53 2.05 2.05 0 0 1-.65.3 6.64 6.64 0 0 1-2.34.17 3.12 3.12 0 0 1-1.08-.18 4 4 0 0 1-.59-.3 1.56 1.56 0 0 1-.41-.4 3.6 3.6 0 0 1-.32-.56 3.14 3.14 0 0 1-.24-.68zm1.63-4a6.44 6.44 0 0 0-.1.76v2.26a3.81 3.81 0 0 0 .17.81.91.91 0 0 0 .34.51 2.19 2.19 0 0 0 1.29.3 2.16 2.16 0 0 0 1.26-.31c.4-.3.59-1.14.59-2.52a7.22 7.22 0 0 0-.15-1.86 2.62 2.62 0 0 0-.28-.65.79.79 0 0 0-.35-.3 2.14 2.14 0 0 0-.87-.16h-.71a2.37 2.37 0 0 0-.42.08.83.83 0 0 0-.35.18 2.29 2.29 0 0 0-.25.35 1.73 1.73 0 0 0-.13.58zM154.87 58l3-8.78h1.91L162.6 58h-1.79l-.63-1.94h-2.88l-.63 1.94zm2.88-3.43h2l-1-3.15zm8.89 3.53h-.17a4.08 4.08 0 0 1-1.92-.3 3.83 3.83 0 0 1-.5-.42 1.72 1.72 0 0 1-.43-.7 7.43 7.43 0 0 1-.36-2.48v-4.94h1.68v4.94a4.7 4.7 0 0 0 .22 1.69 1 1 0 0 0 .81.61 3.75 3.75 0 0 0 .76 0 1.73 1.73 0 0 0 .83-.18c.48-.25.71-1 .71-2.17v-4.89H170v4.94a5.18 5.18 0 0 1-.55 2.74 3 3 0 0 1-.35.48 1.54 1.54 0 0 1-.45.33 3.21 3.21 0 0 1-.46.2 2 2 0 0 1-.51.1 9.37 9.37 0 0 1-1.04.05zm4.24-.1l.76-8.78H174l1.47 6 1.45-6h2.33L180 58h-1.65l-.58-5.87L176.4 58h-1.88l-1.47-5.87-.52 5.87zm11-8.42a2.27 2.27 0 0 1 .59-.25 2 2 0 0 1 .47-.07h1.73c1 0 1.82.08 2.33.15v1.39h-3.46c-.3 0-.49.07-.56.22a1.32 1.32 0 0 0-.07.45v1.37l3.55.12v1.39l-3.55.11v1.37c0 .3.09.49.25.55a1.36 1.36 0 0 0 .5.07H187v1.38c-.4.06-1.38.12-3 .17h-1.33a2.06 2.06 0 0 1-.5-.13 1.77 1.77 0 0 1-.5-.29 1.69 1.69 0 0 1-.48-1.33v-5.17a1.63 1.63 0 0 1 .69-1.5zm6.43 8.42v-8.74H190l3.49 5.67v-5.67h1.67V58h-1.66l-3.5-5.58V58zm8.02-7.2v-1.54h6.49v1.54h-2.44V58h-1.68v-7.2zm7.53 5.07a7.59 7.59 0 0 1-.14-1c0-.36-.05-.79-.05-1.3a10.91 10.91 0 0 1 .09-1.44A6 6 0 0 1 204 51a2.43 2.43 0 0 1 .42-.8 2.21 2.21 0 0 1 .53-.53 2 2 0 0 1 .67-.3 4.66 4.66 0 0 1 1.31-.18h1a5.73 5.73 0 0 1 .67.1 2.7 2.7 0 0 1 .61.22 3.27 3.27 0 0 1 .51.37 1.83 1.83 0 0 1 .42.56 3.83 3.83 0 0 1 .3.79 7.14 7.14 0 0 1 .27 2.08 14.13 14.13 0 0 1-.09 1.83 6.74 6.74 0 0 1-.24 1.1 2.64 2.64 0 0 1-.9 1.32 2 2 0 0 1-.66.31 7.1 7.1 0 0 1-2.34.17 3.44 3.44 0 0 1-1.08-.19 3.49 3.49 0 0 1-.58-.3 1.56 1.56 0 0 1-.41-.4 4 4 0 0 1-.33-.56 3.67 3.67 0 0 1-.22-.72zm1.62-4a6.84 6.84 0 0 0-.09.77v1.11c0 .45 0 .83.05 1.15a4.14 4.14 0 0 0 .16.81 1 1 0 0 0 .34.5 2.25 2.25 0 0 0 1.3.3 2.09 2.09 0 0 0 1.26-.31c.39-.3.59-1.14.59-2.52a7.22 7.22 0 0 0-.15-1.86 2.62 2.62 0 0 0-.28-.65.79.79 0 0 0-.35-.3 2.35 2.35 0 0 0-.88-.15h-.7a3.83 3.83 0 0 0-.42.08.74.74 0 0 0-.35.19 1.43 1.43 0 0 0-.25.34 1.73 1.73 0 0 0-.23.57zm9.86 6.13v-8.74h3.73q3 0 3.05 4.42c0 1.83-.44 3.09-1.31 3.8a2.73 2.73 0 0 1-1.74.56zm5.1-4.37c0-1.45-.24-2.35-.7-2.7a1.35 1.35 0 0 0-.8-.22H217v5.79h1.92c1.02.04 1.52-.92 1.52-2.83zm3.45-4.05a2.19 2.19 0 0 1 .6-.25 1.9 1.9 0 0 1 .46-.07h1.74c1 0 1.81.08 2.32.15v1.39h-3.46c-.3 0-.48.07-.55.22a1.1 1.1 0 0 0-.08.45v1.37l3.55.12v1.39l-3.55.11v1.37c0 .3.09.49.25.55a1.36 1.36 0 0 0 .5.07H229v1.38c-.39.06-1.38.12-3 .17h-1.33a1.89 1.89 0 0 1-.49-.13 1.83 1.83 0 0 1-.51-.29 1.69 1.69 0 0 1-.48-1.33v-5.17a1.63 1.63 0 0 1 .7-1.5zM146.25 72v-8.8H150a2.3 2.3 0 0 1 1.89.73 3.08 3.08 0 0 1 .54 2 4.58 4.58 0 0 1-.16 1.32 2.5 2.5 0 0 1-.4.85 1.39 1.39 0 0 1-.59.45 2.51 2.51 0 0 1-1 .22c-.28 0-.74 0-1.36-.11s-.95-.12-1-.13V72zm3.64-7.3h-2v2.57h2a.91.91 0 0 0 .47-.11c.27-.16.41-.57.41-1.22-.01-.84-.3-1.25-.88-1.25zm7.66-1.5a2.3 2.3 0 0 1 1.72.59 3 3 0 0 1 .68 2.15 2.76 2.76 0 0 1-.71 2.24 1.54 1.54 0 0 1-.35.23l-.34.12 1.66 3.47h-1.89l-1.45-3.33-1.48-.17V72h-1.68v-8.8zm-2.15 4h2a.81.81 0 0 0 .67-.24 1.64 1.64 0 0 0 .2-1 1.62 1.62 0 0 0-.22-1 .78.78 0 0 0-.65-.27h-2zm5.77 2.61a7.59 7.59 0 0 1-.14-1c0-.36-.05-.79-.05-1.3a10.91 10.91 0 0 1 .09-1.44 6 6 0 0 1 .25-1.15 2.39 2.39 0 0 1 .42-.81 2.65 2.65 0 0 1 .53-.53 2 2 0 0 1 .67-.3 4.66 4.66 0 0 1 1.31-.18h1a4.18 4.18 0 0 1 .67.1 2 2 0 0 1 .61.22 3.27 3.27 0 0 1 .51.37 1.62 1.62 0 0 1 .42.56 3.83 3.83 0 0 1 .3.79 7.12 7.12 0 0 1 .27 2.07 14.13 14.13 0 0 1-.09 1.83 6.65 6.65 0 0 1-.24 1.11 2.43 2.43 0 0 1-.39.79 2.59 2.59 0 0 1-.51.53 2 2 0 0 1-.66.3 6.83 6.83 0 0 1-2.34.17 3.22 3.22 0 0 1-1.08-.18 4.45 4.45 0 0 1-.58-.31 1.52 1.52 0 0 1-.41-.39 4.8 4.8 0 0 1-.33-.57 3.67 3.67 0 0 1-.23-.68zm1.62-4a6.37 6.37 0 0 0-.09.76v1.12c0 .45 0 .83.05 1.14a3.86 3.86 0 0 0 .16.81 1.07 1.07 0 0 0 .34.51 2.25 2.25 0 0 0 1.3.3 2.09 2.09 0 0 0 1.26-.32c.39-.29.59-1.13.59-2.52a7.33 7.33 0 0 0-.15-1.86 2.51 2.51 0 0 0-.28-.64.79.79 0 0 0-.35-.3 2.16 2.16 0 0 0-.88-.16h-.7a2.37 2.37 0 0 0-.42.08.83.83 0 0 0-.35.18 2 2 0 0 0-.25.34 1.9 1.9 0 0 0-.23.6zm6.62 6.19v-8.8h3.73q3 0 3 4.43c0 1.82-.43 3.09-1.3 3.79a2.68 2.68 0 0 1-1.74.57zm5.09-4.37q0-2.19-.69-2.7a1.36 1.36 0 0 0-.81-.23h-1.92v5.8H173c1-.01 1.5-.97 1.5-2.88zm6.5 4.42h-.16a4.08 4.08 0 0 1-1.92-.3 3.42 3.42 0 0 1-.51-.43 1.88 1.88 0 0 1-.43-.69 7.43 7.43 0 0 1-.36-2.48v-5h1.68v5a4.7 4.7 0 0 0 .23 1.69 1 1 0 0 0 .8.61 4.77 4.77 0 0 0 .76 0 1.77 1.77 0 0 0 .84-.18c.47-.26.71-1 .71-2.17v-5h1.69v5a5.27 5.27 0 0 1-.55 2.73 3.68 3.68 0 0 1-.36.49 1.52 1.52 0 0 1-.44.32l-.46.21a3.44 3.44 0 0 1-.52.1 9.09 9.09 0 0 1-1 .1zm4.44-7.3V63.2h6.49v1.55h-2.44V72h-1.68v-7.25zm7.71 7.25v-8.8h1.68V72zm2.85-8.8h1.79l1.95 6.58 2.07-6.58h1.78l-2.88 8.8h-1.94zm8.79 8.8v-8.8h1.68V72zm3.21 0v-8.8h3.74q3 0 3 4.43c0 1.82-.43 3.09-1.3 3.79a2.68 2.68 0 0 1-1.74.57zm5.1-4.37q0-2.19-.69-2.7a1.36 1.36 0 0 0-.81-.23h-1.92v5.8h1.92c.97-.01 1.47-.97 1.47-2.88zm2.19 4.37l3-8.79h1.91L223 72h-1.79l-.6-2h-2.88l-.64 2zm2.88-3.44h2l-1-3.14zm5.99 3.44v-8.8h3.73q3 0 3.05 4.43c0 1.82-.44 3.09-1.31 3.79a2.64 2.64 0 0 1-1.74.57zm5.1-4.37c0-1.46-.23-2.36-.7-2.7a1.31 1.31 0 0 0-.8-.23h-1.92v5.8h1.92c1-.01 1.5-.97 1.5-2.88zm3.46-4.1a2.32 2.32 0 0 1 .59-.26 2.67 2.67 0 0 1 .47-.07h1.73c1 0 1.82.08 2.33.15v1.4h-3.47c-.29 0-.48.07-.55.21a1.17 1.17 0 0 0-.07.46v1.37l3.55.12v1.39l-3.55.11v1.36c0 .31.08.49.25.56a1.59 1.59 0 0 0 .49.07h3.35v1.38c-.4.05-1.39.11-3 .17h-1a2.25 2.25 0 0 1-.34 0 2 2 0 0 1-.49-.12 1.64 1.64 0 0 1-.5-.29 1.7 1.7 0 0 1-.48-1.33V65a1.63 1.63 0 0 1 .69-1.47zm24.9-6.73a6.68 6.68 0 0 1-.24-1.23c0-.41-.05-.89-.05-1.44s0-1 .06-1.45a6.15 6.15 0 0 1 .26-1.22 2.66 2.66 0 0 1 .51-1 2.48 2.48 0 0 1 2-.82 16.78 16.78 0 0 1 1.73.08 12.8 12.8 0 0 1 1.64.31v1.3h-.2l-.49-.05-.67-.06c-.58-.05-1.11-.07-1.62-.07a1.27 1.27 0 0 0-1.27.64 6.06 6.06 0 0 0-.31 2.36 6 6 0 0 0 .28 2.29 1.26 1.26 0 0 0 1.23.59 2.24 2.24 0 0 0 .74-.14 2.55 2.55 0 0 0 .57-.27l.19-.14v-1.55h-1.23v-1.07a5.89 5.89 0 0 1 2.09-.29h.82v5h-1.2L262 58a2 2 0 0 1-.9.52 3.38 3.38 0 0 1-2.2-.07 2.15 2.15 0 0 1-.84-.61 3 3 0 0 1-.44-1.04zm7.22 1.76l3-8.78h1.91l2.86 8.78h-1.79l-.62-1.94h-2.88l-.64 1.94zm2.88-3.43h2l-1-3.14zm5.99 3.43v-8.78h1.7l3.48 5.67v-5.67h1.68v8.78h-1.68L275.4 53v5.61zm8.37 0v-8.78h1.68v3.77h3v-3.77h1.68v8.78h-1.68v-3.48h-3v3.48zm7.92-2.17a7.59 7.59 0 0 1-.14-1c0-.36-.05-.79-.05-1.3a10.91 10.91 0 0 1 .09-1.44 5.85 5.85 0 0 1 .25-1.15 2.39 2.39 0 0 1 .42-.81 2.41 2.41 0 0 1 .53-.53 2 2 0 0 1 .67-.3 4.66 4.66 0 0 1 1.31-.18h1a5.73 5.73 0 0 1 .67.1 2.28 2.28 0 0 1 .61.23 2.65 2.65 0 0 1 .51.36 1.76 1.76 0 0 1 .42.57 3.73 3.73 0 0 1 .3.78 7.24 7.24 0 0 1 .27 2.08 14.13 14.13 0 0 1-.09 1.83 6.51 6.51 0 0 1-.24 1.1 2.52 2.52 0 0 1-.38.79 2.62 2.62 0 0 1-.52.53 2.06 2.06 0 0 1-.65.31 7.18 7.18 0 0 1-2.35.17 3.83 3.83 0 0 1-1.08-.18 4.45 4.45 0 0 1-.58-.31 1.56 1.56 0 0 1-.41-.4 4 4 0 0 1-.33-.56 3.67 3.67 0 0 1-.23-.69zm1.62-4a6.84 6.84 0 0 0-.09.77v1.11c0 .45 0 .83.05 1.15a4.14 4.14 0 0 0 .16.81 1 1 0 0 0 .34.5 2.25 2.25 0 0 0 1.3.3 2.09 2.09 0 0 0 1.26-.31c.39-.29.59-1.14.59-2.52a7.22 7.22 0 0 0-.15-1.86 2.8 2.8 0 0 0-.28-.65.79.79 0 0 0-.35-.3 2.35 2.35 0 0 0-.88-.15h-.7a3.83 3.83 0 0 0-.42.08.74.74 0 0 0-.35.19 1.66 1.66 0 0 0-.25.34 1.73 1.73 0 0 0-.22.57zm10.48-2.29a2.27 2.27 0 0 1 .59-.25 2 2 0 0 1 .47-.07h1.73c1 0 1.82.08 2.33.15v1.39h-3.47c-.29 0-.48.07-.55.22a1.32 1.32 0 0 0-.07.45v1.41l3.55.12v1.39l-3.55.11v1.37c0 .3.08.49.25.55a1.36 1.36 0 0 0 .5.07h3.34v1.38c-.4.06-1.39.12-3 .17h-1.33a1.68 1.68 0 0 1-.5-.13 1.74 1.74 0 0 1-.5-.28 1.73 1.73 0 0 1-.48-1.34V51.6a1.66 1.66 0 0 1 .69-1.5zm6.2 8.46l.77-8.78h2.34l1.46 6 1.46-6h2.32l.82 8.78h-1.66l-.57-5.87-1.42 5.87H312l-1.48-5.87-.52 5.87zm13.82-2.77c-.05-.54-.08-1-.08-1.52a12.23 12.23 0 0 1 .06-1.27 6.48 6.48 0 0 1 .15-1 3.64 3.64 0 0 1 .58-1.35 1.6 1.6 0 0 1 .42-.4 2.19 2.19 0 0 1 .49-.27 2.47 2.47 0 0 1 .56-.17 6.57 6.57 0 0 1 1.11-.09h.9a6.06 6.06 0 0 1 .67.1 2.28 2.28 0 0 1 .61.23 2.65 2.65 0 0 1 .51.36 1.76 1.76 0 0 1 .42.57 5.28 5.28 0 0 1 .31.78 8.82 8.82 0 0 1 .27 2.45 7 7 0 0 1-.55 3.08 2.28 2.28 0 0 1-.92.93 6.21 6.21 0 0 1-4.14 0 2 2 0 0 1-.91-.9 4.54 4.54 0 0 1-.46-1.53zm1.73-3.37a6.84 6.84 0 0 0-.09.77v2.26a4.14 4.14 0 0 0 .16.81 1.1 1.1 0 0 0 .33.5 2.11 2.11 0 0 0 1.23.3 2.55 2.55 0 0 0 1.19-.21 1.35 1.35 0 0 0 .56-.83 5.46 5.46 0 0 0 .18-1.54v-1.42a4 4 0 0 0-.15-.82 2.32 2.32 0 0 0-.24-.52.77.77 0 0 0-.36-.3 2.26 2.26 0 0 0-.87-.15h-.71a3.83 3.83 0 0 0-.42.08.66.66 0 0 0-.34.19 1.66 1.66 0 0 0-.25.34 1.73 1.73 0 0 0-.22.54zm4.1 8.23a4.73 4.73 0 0 1-.8.07 2.58 2.58 0 0 1-.73-.11 2.51 2.51 0 0 1-.66-.31 1.77 1.77 0 0 1-.5-.55A1.86 1.86 0 0 1 325 59h1a1.09 1.09 0 0 0 1 .48 3.63 3.63 0 0 0 .94-.15zm5.9-2.03h-.17a4.08 4.08 0 0 1-1.92-.3 3.83 3.83 0 0 1-.5-.42 1.76 1.76 0 0 1-.43-.69 7.49 7.49 0 0 1-.36-2.49v-4.94h1.68v4.94a4.7 4.7 0 0 0 .22 1.69 1.08 1.08 0 0 0 .81.62 4.92 4.92 0 0 0 .76 0 1.73 1.73 0 0 0 .83-.18c.48-.25.71-1 .71-2.17v-4.9h1.69v4.94a5.18 5.18 0 0 1-.55 2.74 3 3 0 0 1-.35.48 1.54 1.54 0 0 1-.45.33 3.21 3.21 0 0 1-.46.2 2 2 0 0 1-.51.1 7.31 7.31 0 0 1-1 .05zm3.96-.06l3-8.78h1.91l2.86 8.78h-1.79l-.63-1.94h-2.87l-.64 1.94zm2.88-3.43h2l-1-3.14zm5.99 1.73v-7.08h1.68v6.61c0 .3.08.49.25.55a1.3 1.3 0 0 0 .49.07h3v1.55h-3.6c-1.21 0-1.82-.56-1.82-1.7zm6.71 1.7v-8.78h1.68v8.78zm3.18 0v-8.78h3.73c2 0 3.05 1.47 3.05 4.43 0 1.82-.44 3.08-1.31 3.79a2.67 2.67 0 0 1-1.74.56zm5.1-4.37c0-1.45-.24-2.35-.7-2.7a1.35 1.35 0 0 0-.8-.22h-1.92v5.79h1.92c1 0 1.5-.95 1.5-2.87zm2.21 4.37l3-8.78h1.91l2.85 8.78h-1.79l-.62-1.94h-2.88l-.64 1.94zm2.88-3.43h2l-1-3.14zm5.99 3.43v-8.78h3.73c2 0 3 1.47 3 4.43 0 1.82-.43 3.08-1.31 3.79a2.64 2.64 0 0 1-1.74.56zm5.1-4.37q0-2.17-.69-2.7a1.36 1.36 0 0 0-.81-.22h-1.92v5.79h1.92c1 0 1.5-.95 1.5-2.87zm3.46-4.09a2.27 2.27 0 0 1 .59-.25 2 2 0 0 1 .47-.07h1.73c1 0 1.82.08 2.33.15v1.39H383c-.29 0-.48.07-.55.22a1.32 1.32 0 0 0-.07.45v1.41l3.55.12v1.39l-3.55.11v1.37c0 .3.08.49.25.55a1.34 1.34 0 0 0 .49.07h3.35v1.38c-.4.06-1.39.12-3 .17h-1.33a1.68 1.68 0 0 1-.5-.13 1.74 1.74 0 0 1-.5-.28 1.73 1.73 0 0 1-.48-1.34V51.6a1.66 1.66 0 0 1 .65-1.5zm9.69 8.46v-8.78h3.73c2 0 3.05 1.47 3.05 4.43 0 1.82-.43 3.08-1.31 3.79a2.64 2.64 0 0 1-1.74.56zm5.1-4.37c0-1.45-.23-2.35-.7-2.7a1.31 1.31 0 0 0-.8-.22h-1.92v5.79h1.92c.98 0 1.48-.95 1.48-2.87zm3.06 2.2a7.59 7.59 0 0 1-.14-1v-1.3a10.91 10.91 0 0 1 .09-1.44 6.68 6.68 0 0 1 .25-1.15 2.39 2.39 0 0 1 .42-.81 2.65 2.65 0 0 1 .53-.53 2.07 2.07 0 0 1 .67-.3 4.66 4.66 0 0 1 1.31-.18h1a5.73 5.73 0 0 1 .67.1 2.28 2.28 0 0 1 .61.23 2.65 2.65 0 0 1 .51.36 1.76 1.76 0 0 1 .42.57 3.73 3.73 0 0 1 .3.78 7.24 7.24 0 0 1 .27 2.08 14.13 14.13 0 0 1-.09 1.83 7.77 7.77 0 0 1-.23 1.1 2.77 2.77 0 0 1-.39.79 2.62 2.62 0 0 1-.52.53 2.06 2.06 0 0 1-.65.31 7.18 7.18 0 0 1-2.35.17 3.83 3.83 0 0 1-1.08-.18 4.45 4.45 0 0 1-.58-.31 1.56 1.56 0 0 1-.41-.4 3.19 3.19 0 0 1-.32-.56 3.14 3.14 0 0 1-.29-.69zm1.63-4a6.64 6.64 0 0 0-.1.77v1.11c0 .45 0 .83.05 1.15a4.14 4.14 0 0 0 .16.81 1 1 0 0 0 .35.5 2.19 2.19 0 0 0 1.29.3 2.09 2.09 0 0 0 1.26-.31c.39-.29.59-1.14.59-2.52a7.22 7.22 0 0 0-.15-1.86 2.8 2.8 0 0 0-.28-.65.79.79 0 0 0-.35-.3 2.35 2.35 0 0 0-.88-.15H402a3.83 3.83 0 0 0-.42.08.74.74 0 0 0-.35.19 1.66 1.66 0 0 0-.25.34 1.73 1.73 0 0 0-.19.57zm-133.2 20.12v-8.79h3.78a2.3 2.3 0 0 1 1.9.74 3.08 3.08 0 0 1 .54 2 5.07 5.07 0 0 1-.16 1.32 2.44 2.44 0 0 1-.4.84 1.46 1.46 0 0 1-.59.45 2.41 2.41 0 0 1-1.05.22c-.28 0-.73 0-1.35-.11s-1-.12-1-.13v3.48zm3.65-7.3h-2v2.57h2a.93.93 0 0 0 .47-.11c.27-.16.41-.57.41-1.22-.01-.83-.3-1.24-.88-1.24zm7.66-1.49a2.27 2.27 0 0 1 1.71.59 3 3 0 0 1 .69 2.15 2.74 2.74 0 0 1-.71 2.24 1.54 1.54 0 0 1-.35.23l-.35.12 1.67 3.46h-1.9l-1.45-3.33-1.47-.18v3.49h-1.68v-8.77zm-2.15 4h2a.84.84 0 0 0 .67-.24 1.7 1.7 0 0 0 .19-1 1.73 1.73 0 0 0-.21-1 .79.79 0 0 0-.65-.27h-2zm5.76 2.62a7.71 7.71 0 0 1-.13-1 12.46 12.46 0 0 1-.05-1.31 11.13 11.13 0 0 1 .09-1.44 7 7 0 0 1 .24-1.15 3.09 3.09 0 0 1 .42-.81 3 3 0 0 1 .54-.53 2.52 2.52 0 0 1 .66-.3 4.78 4.78 0 0 1 1.32-.18h1a4.35 4.35 0 0 1 .67.1 2.21 2.21 0 0 1 .6.22 3.27 3.27 0 0 1 .51.37 1.61 1.61 0 0 1 .43.56 5.46 5.46 0 0 1 .3.79 7.14 7.14 0 0 1 .26 2.07 13.91 13.91 0 0 1-.09 1.83 6.72 6.72 0 0 1-.23 1.11 2.77 2.77 0 0 1-.39.79 2.39 2.39 0 0 1-.52.53 2 2 0 0 1-.65.3 6.59 6.59 0 0 1-2.34.17 3.12 3.12 0 0 1-1.08-.18 3.89 3.89 0 0 1-.58-.3 1.6 1.6 0 0 1-.42-.4 3.6 3.6 0 0 1-.32-.56 3.66 3.66 0 0 1-.24-.68zm1.63-4c0 .21-.07.47-.1.76s0 .67 0 1.12a9.35 9.35 0 0 0 .05 1.14 3.31 3.31 0 0 0 .16.81 1 1 0 0 0 .34.51 2.2 2.2 0 0 0 1.3.3 2.16 2.16 0 0 0 1.26-.31c.39-.3.58-1.14.58-2.52a7.22 7.22 0 0 0-.15-1.86 3.16 3.16 0 0 0-.27-.65.82.82 0 0 0-.36-.3 2.11 2.11 0 0 0-.87-.16h-.7a2.07 2.07 0 0 0-.42.08.77.77 0 0 0-.35.18 1.43 1.43 0 0 0-.25.35 1.5 1.5 0 0 0-.22.58zm6.92-1.54a2.31 2.31 0 0 1 1.34-1 3.77 3.77 0 0 1 1.05-.13 10.93 10.93 0 0 1 3.06.39v1.32h-2.62a3.24 3.24 0 0 0-.69 0 1.34 1.34 0 0 0-.47.22 1 1 0 0 0-.34.48 7.47 7.47 0 0 0-.24 2.22 5 5 0 0 0 .36 2.2 1.36 1.36 0 0 0 1.35.68c.75 0 1.51 0 2.28-.07h.38v1.3a9.36 9.36 0 0 1-2.78.34h-.28a2.51 2.51 0 0 1-2.3-1.15 6.66 6.66 0 0 1-.69-3.39 6.54 6.54 0 0 1 .59-3.41zm7.34-.75a1.87 1.87 0 0 1 .59-.25 2.08 2.08 0 0 1 .47-.08l1.73.05a18.81 18.81 0 0 1 2.33.15v1.39h-3.47c-.29 0-.48.07-.55.21a1.2 1.2 0 0 0-.07.46v1.37l3.55.12v1.39l-3.55.11v1.37c0 .3.08.48.25.55a1.3 1.3 0 0 0 .49.07h3.35v1.38c-.4.06-1.39.11-3 .17h-1.34a2.58 2.58 0 0 1-.49-.13 1.64 1.64 0 0 1-.5-.29 1.7 1.7 0 0 1-.48-1.33v-5.21a1.61 1.61 0 0 1 .69-1.5zm6.3 2.63v-.76a2.11 2.11 0 0 1 .68-1.79 2.85 2.85 0 0 1 1.69-.48h.61a12.14 12.14 0 0 1 1.35.1 8.74 8.74 0 0 1 1.44.25v1.32c-.91-.08-1.64-.12-2.18-.12h-.87a1.74 1.74 0 0 0-.79.14c-.17.1-.25.34-.25.71v.43a.86.86 0 0 0 .2.68 1.21 1.21 0 0 0 .73.16h1.39a1.8 1.8 0 0 1 1.84 1.1 3 3 0 0 1 .24 1.23v.59a2.08 2.08 0 0 1-1.07 2.1 3.07 3.07 0 0 1-1.35.26 12.61 12.61 0 0 1-3.4-.36v-1.32c.88.09 1.65.14 2.3.14a11.21 11.21 0 0 0 1.15 0 1.35 1.35 0 0 0 .33-.09.63.63 0 0 0 .36-.64v-.47c0-.41-.13-.67-.4-.77a1.07 1.07 0 0 0-.39-.06H307a2 2 0 0 1-2.3-2.35zm7.3 0v-.76a2.11 2.11 0 0 1 .68-1.79 2.85 2.85 0 0 1 1.69-.48h.63a12.14 12.14 0 0 1 1.35.1 8.74 8.74 0 0 1 1.44.25v1.32c-.91-.08-1.64-.12-2.18-.12h-.87a1.74 1.74 0 0 0-.79.14c-.17.1-.25.34-.25.71v.43a.86.86 0 0 0 .2.68 1.21 1.21 0 0 0 .73.16H316a1.8 1.8 0 0 1 1.84 1.1 3 3 0 0 1 .24 1.23v.59a2.08 2.08 0 0 1-1.07 2.1 3.07 3.07 0 0 1-1.35.26 12.61 12.61 0 0 1-3.4-.36v-1.32c.88.09 1.65.14 2.3.14a11.21 11.21 0 0 0 1.15 0 1.35 1.35 0 0 0 .33-.09.63.63 0 0 0 .36-.64v-.47c0-.41-.13-.67-.4-.77a1.07 1.07 0 0 0-.39-.06h-1.35a2 2 0 0 1-2.26-2.35zm7.52 3.66c-.06-.28-.1-.6-.14-1s-.05-.8-.05-1.31a11.1 11.1 0 0 1 .1-1.44 7 7 0 0 1 .24-1.15 3.09 3.09 0 0 1 .42-.81 3.3 3.3 0 0 1 .53-.53 2.76 2.76 0 0 1 .67-.3 4.78 4.78 0 0 1 1.32-.18h1a4.3 4.3 0 0 1 .68.1 2.34 2.34 0 0 1 .6.22 3.27 3.27 0 0 1 .51.37 1.89 1.89 0 0 1 .43.56 5.46 5.46 0 0 1 .3.79 7.5 7.5 0 0 1 .26 2.07 13.91 13.91 0 0 1-.09 1.83 7.94 7.94 0 0 1-.23 1.11 2.77 2.77 0 0 1-.39.79 2.62 2.62 0 0 1-.52.53 2.05 2.05 0 0 1-.65.3 6.61 6.61 0 0 1-2.34.17 3.12 3.12 0 0 1-1.08-.18 4 4 0 0 1-.59-.3 1.56 1.56 0 0 1-.41-.4 3.6 3.6 0 0 1-.32-.56 3.14 3.14 0 0 1-.25-.68zm1.63-4c0 .21-.07.47-.1.76s0 .67 0 1.12v1.14a3.81 3.81 0 0 0 .17.81 1 1 0 0 0 .34.51 2.19 2.19 0 0 0 1.29.3 2.16 2.16 0 0 0 1.26-.31c.4-.3.59-1.14.59-2.52a7.22 7.22 0 0 0-.15-1.86 3.16 3.16 0 0 0-.27-.65.88.88 0 0 0-.36-.3 2.14 2.14 0 0 0-.87-.16h-.71a2.37 2.37 0 0 0-.42.08.89.89 0 0 0-.35.18 2.29 2.29 0 0 0-.25.35 1.73 1.73 0 0 0-.17.58zm9.73 6.17v-8.79h3.78a2.31 2.31 0 0 1 1.9.74 3.08 3.08 0 0 1 .54 2 4.65 4.65 0 0 1-.17 1.32 2.44 2.44 0 0 1-.39.84 1.49 1.49 0 0 1-.6.45 2.36 2.36 0 0 1-1 .22c-.28 0-.73 0-1.36-.11s-1-.12-1-.13v3.48zm3.65-7.3h-2v2.57h2a.93.93 0 0 0 .47-.11c.27-.16.4-.57.4-1.22 0-.83-.3-1.24-.87-1.24zm7.65-1.49a2.3 2.3 0 0 1 1.72.59 3 3 0 0 1 .68 2.15 2.75 2.75 0 0 1-.7 2.24 1.79 1.79 0 0 1-.35.23l-.35.12 1.67 3.46H343l-1.45-3.33L340 69v3.49h-1.68v-8.77zm-2.14 4h2a.81.81 0 0 0 .66-.24 1.6 1.6 0 0 0 .2-1 1.73 1.73 0 0 0-.21-1 .79.79 0 0 0-.65-.27h-2zm5.76 2.62a7.59 7.59 0 0 1-.14-1c0-.36-.05-.8-.05-1.31a9.58 9.58 0 0 1 .1-1.44 6.07 6.07 0 0 1 .24-1.15 2.59 2.59 0 0 1 .42-.81 2.94 2.94 0 0 1 .53-.53 2.6 2.6 0 0 1 .67-.3 4.71 4.71 0 0 1 1.31-.18h1a4.18 4.18 0 0 1 .67.1 2.29 2.29 0 0 1 .61.22 3.27 3.27 0 0 1 .51.37 1.89 1.89 0 0 1 .43.56 5.46 5.46 0 0 1 .3.79 7.5 7.5 0 0 1 .26 2.07 13.91 13.91 0 0 1-.09 1.83 7.94 7.94 0 0 1-.23 1.11 2.77 2.77 0 0 1-.39.79 2.62 2.62 0 0 1-.52.53 2.05 2.05 0 0 1-.65.3 6.64 6.64 0 0 1-2.34.17 3.12 3.12 0 0 1-1.08-.18 4 4 0 0 1-.59-.3 1.56 1.56 0 0 1-.41-.4 3.6 3.6 0 0 1-.32-.56 3.14 3.14 0 0 1-.24-.68zm1.63-4a6.44 6.44 0 0 0-.1.76v2.26a4.63 4.63 0 0 0 .16.81 1 1 0 0 0 .35.51 2.19 2.19 0 0 0 1.29.3 2.16 2.16 0 0 0 1.26-.31c.39-.3.59-1.14.59-2.52a7.22 7.22 0 0 0-.15-1.86 2.62 2.62 0 0 0-.28-.65.79.79 0 0 0-.35-.3 2.16 2.16 0 0 0-.88-.16h-.7a2.37 2.37 0 0 0-.42.08.83.83 0 0 0-.35.18 2.29 2.29 0 0 0-.25.35 1.73 1.73 0 0 0-.17.58zm6.57 6.17v-8.79h3.73q3 0 3.05 4.43c0 1.83-.44 3.09-1.31 3.79a2.64 2.64 0 0 1-1.74.57zm5.1-4.37c0-1.46-.23-2.36-.7-2.7a1.33 1.33 0 0 0-.8-.23h-1.92V71h1.92c1.04 0 1.54-.95 1.54-2.86zm6.51 4.43h-.17a4.08 4.08 0 0 1-1.92-.3 4 4 0 0 1-.51-.43 1.88 1.88 0 0 1-.43-.69 7.43 7.43 0 0 1-.36-2.48v-5h1.68v5a4.66 4.66 0 0 0 .23 1.69 1.05 1.05 0 0 0 .8.61 4.82 4.82 0 0 0 .77 0 1.73 1.73 0 0 0 .83-.18c.47-.26.71-1 .71-2.17v-5h1.69v5a5.14 5.14 0 0 1-.55 2.73 2.59 2.59 0 0 1-.36.49 1.52 1.52 0 0 1-.44.32 3.42 3.42 0 0 1-.46.21 2.52 2.52 0 0 1-.52.1 9 9 0 0 1-.99.1zm4.46-7.3v-1.55h6.49v1.55h-2.43v7.24h-1.68v-7.24zm7.72 7.24v-8.79h1.68v8.79zm2.85-8.79h1.79l2 6.58 2.06-6.58h1.79l-2.89 8.79h-2zm8.36 6.62a7.59 7.59 0 0 1-.14-1c0-.36-.05-.8-.05-1.31a11.13 11.13 0 0 1 .09-1.44 6.89 6.89 0 0 1 .25-1.15 2.59 2.59 0 0 1 .42-.81 2.94 2.94 0 0 1 .53-.53 2.6 2.6 0 0 1 .67-.3 4.71 4.71 0 0 1 1.31-.18h1a4.18 4.18 0 0 1 .67.1 2.29 2.29 0 0 1 .61.22 3.27 3.27 0 0 1 .51.37 1.89 1.89 0 0 1 .43.56 5.46 5.46 0 0 1 .3.79 7.5 7.5 0 0 1 .26 2.07 13.91 13.91 0 0 1-.09 1.83 7.94 7.94 0 0 1-.23 1.11 2.77 2.77 0 0 1-.39.79 2.62 2.62 0 0 1-.52.53 2.05 2.05 0 0 1-.65.3 6.64 6.64 0 0 1-2.34.17 3.12 3.12 0 0 1-1.08-.18 4 4 0 0 1-.59-.3 1.56 1.56 0 0 1-.41-.4 3.6 3.6 0 0 1-.32-.56 3.14 3.14 0 0 1-.24-.68zm1.63-4a6.44 6.44 0 0 0-.1.76v1.12c0 .45 0 .83.05 1.14a3.86 3.86 0 0 0 .16.81 1 1 0 0 0 .35.51 2.19 2.19 0 0 0 1.29.3 2.16 2.16 0 0 0 1.26-.31c.39-.3.59-1.14.59-2.52a7.22 7.22 0 0 0-.15-1.86 2.62 2.62 0 0 0-.28-.65.79.79 0 0 0-.35-.3 2.16 2.16 0 0 0-.88-.16h-.7a2.37 2.37 0 0 0-.42.08.83.83 0 0 0-.35.18 2.29 2.29 0 0 0-.25.35 1.73 1.73 0 0 0-.22.58zm55.73-16.56a2.23 2.23 0 0 1 1.71.59 2.93 2.93 0 0 1 .69 2.14 2.78 2.78 0 0 1-.71 2.25 1.54 1.54 0 0 1-.35.23l-.35.12 1.65 3.45h-1.9l-1.45-3.32-1.47-.17v3.49h-1.68v-8.78zm-2.15 4h2a.83.83 0 0 0 .67-.24 1.64 1.64 0 0 0 .2-1 1.69 1.69 0 0 0-.22-1 .78.78 0 0 0-.65-.27h-2zm6.56-3.68a2.19 2.19 0 0 1 .6-.25 1.9 1.9 0 0 1 .47-.07h1.73c1 0 1.82.08 2.33.15v1.39h-3.47c-.3 0-.48.07-.55.22a1.12 1.12 0 0 0-.07.45v1.41l3.55.12v1.39l-3.55.11v1.37c0 .3.08.49.25.55a1.3 1.3 0 0 0 .49.07h3.35v1.38c-.4.06-1.39.12-3 .17h-1.33a2.16 2.16 0 0 1-1-.41 1.73 1.73 0 0 1-.48-1.34V51.6a1.65 1.65 0 0 1 .68-1.5zm6.08 1.23v-1.55h6.49v1.55h-2.44v7.23h-1.68v-7.23zm7.53 5.06a6.13 6.13 0 0 1-.14-1c0-.36-.05-.79-.05-1.3a10.91 10.91 0 0 1 .09-1.44 6.76 6.76 0 0 1 .24-1.15 2.59 2.59 0 0 1 .43-.81 2.41 2.41 0 0 1 .53-.53 2 2 0 0 1 .66-.3 4.78 4.78 0 0 1 1.32-.18h1a6.06 6.06 0 0 1 .67.1 2.28 2.28 0 0 1 .61.23 3 3 0 0 1 .5.36 1.65 1.65 0 0 1 .43.57 5.31 5.31 0 0 1 .3.78 7.24 7.24 0 0 1 .27 2.08 16.21 16.21 0 0 1-.09 1.83 7.67 7.67 0 0 1-.24 1.1 2.54 2.54 0 0 1-.39.79 2.19 2.19 0 0 1-.52.53 2 2 0 0 1-.65.31 7.1 7.1 0 0 1-2.34.17 3.76 3.76 0 0 1-1.08-.18 3.88 3.88 0 0 1-.58-.31 1.42 1.42 0 0 1-.41-.4 2.67 2.67 0 0 1-.33-.56 3.14 3.14 0 0 1-.23-.69zm1.62-4a6.84 6.84 0 0 0-.09.77v1.11a9.62 9.62 0 0 0 .05 1.15 3.52 3.52 0 0 0 .16.81 1 1 0 0 0 .34.5 2.2 2.2 0 0 0 1.3.3 2.09 2.09 0 0 0 1.26-.31c.39-.29.58-1.14.58-2.52a7.9 7.9 0 0 0-.14-1.86 4.08 4.08 0 0 0-.28-.65.85.85 0 0 0-.35-.3 2.35 2.35 0 0 0-.88-.15h-.7a3.43 3.43 0 0 0-.42.08.69.69 0 0 0-.35.19 1.36 1.36 0 0 0-.25.34 1.5 1.5 0 0 0-.23.57zm10.33-2.61a2.26 2.26 0 0 1 1.72.59 3 3 0 0 1 .68 2.14 2.75 2.75 0 0 1-.71 2.25 1.53 1.53 0 0 1-.34.23l-.35.12 1.67 3.45h-1.9l-1.45-3.32-1.48-.17v3.49h-1.68v-8.78zm-2.15 4h2a.81.81 0 0 0 .66-.24 1.64 1.64 0 0 0 .2-1 1.7 1.7 0 0 0-.21-1 .8.8 0 0 0-.65-.27h-2zm5.96 4.78v-8.78h1.7l3.48 5.67v-5.67H487v8.78h-1.68L481.83 53v5.61zm8.43-2.17a7.59 7.59 0 0 1-.14-1c0-.36-.05-.79-.05-1.3a10.91 10.91 0 0 1 .09-1.44 5.85 5.85 0 0 1 .25-1.15 2.39 2.39 0 0 1 .42-.81 2.41 2.41 0 0 1 .53-.53 2 2 0 0 1 .67-.3 4.66 4.66 0 0 1 1.31-.18h1a6.06 6.06 0 0 1 .67.1 2.28 2.28 0 0 1 .61.23 2.65 2.65 0 0 1 .51.36 1.76 1.76 0 0 1 .42.57 4.38 4.38 0 0 1 .3.78 7.24 7.24 0 0 1 .27 2.08 14.13 14.13 0 0 1-.09 1.83 6.51 6.51 0 0 1-.24 1.1 2.64 2.64 0 0 1-.9 1.32 2 2 0 0 1-.66.31 7.1 7.1 0 0 1-2.34.17 3.83 3.83 0 0 1-1.08-.18 3.88 3.88 0 0 1-.58-.31 1.56 1.56 0 0 1-.41-.4 4 4 0 0 1-.33-.56 3.67 3.67 0 0 1-.23-.69zm1.62-4a6.84 6.84 0 0 0-.09.77v1.11c0 .45 0 .83.05 1.15a4.14 4.14 0 0 0 .16.81 1 1 0 0 0 .34.5 2.23 2.23 0 0 0 1.3.3 2.09 2.09 0 0 0 1.26-.31c.39-.29.59-1.14.59-2.52a7.22 7.22 0 0 0-.15-1.86 2.8 2.8 0 0 0-.28-.65.79.79 0 0 0-.35-.3 2.35 2.35 0 0 0-.88-.15h-.7a3.83 3.83 0 0 0-.42.08.69.69 0 0 0-.35.19 1.66 1.66 0 0 0-.25.34 1.5 1.5 0 0 0-.23.57zm-54.71 20.12v-6.94a1.61 1.61 0 0 1 1.21-1.76 1.77 1.77 0 0 1 .48-.09l1.75.05a18.81 18.81 0 0 1 2.33.15v1.39h-3.47c-.29 0-.48.07-.55.21a1.2 1.2 0 0 0-.07.46v1.37l3.55.12v1.39l-3.55.11v3.54zm7.08 0v-8.79h1.68v8.79zm3.18 0v-8.79h1.7l3.48 5.68v-5.68h1.68v8.79h-1.68l-3.49-5.62v5.62zm8.05 0l3-8.79h1.91l2.86 8.79h-1.79l-.62-2h-2.88l-.64 2zm2.88-3.43h2l-1-3.15zm5.99 3.43v-8.79h1.7l3.48 5.68v-5.68h1.68v8.79h-1.68l-3.49-5.62v5.62zm8.75-7.71a2.29 2.29 0 0 1 1.33-1 3.77 3.77 0 0 1 1.05-.13 10.93 10.93 0 0 1 3.06.39v1.32h-2.62a3.13 3.13 0 0 0-.69 0 1.3 1.3 0 0 0-.48.22.9.9 0 0 0-.33.48 7.47 7.47 0 0 0-.24 2.22 5 5 0 0 0 .35 2.2 1.37 1.37 0 0 0 1.35.68c.75 0 1.51 0 2.28-.07h.38v1.3a9.31 9.31 0 0 1-2.78.34h-.28a2.49 2.49 0 0 1-2.29-1.15 6.66 6.66 0 0 1-.69-3.39 6.54 6.54 0 0 1 .6-3.41zm7.33-.75a2 2 0 0 1 .59-.25 2.08 2.08 0 0 1 .47-.08l1.73.05a18.81 18.81 0 0 1 2.33.15v1.39h-3.47c-.29 0-.48.07-.55.21a1.2 1.2 0 0 0-.07.46v1.37l3.55.12v1.39l-3.55.11v1.37c0 .3.08.48.25.55a1.34 1.34 0 0 0 .49.07h3.35v1.38c-.4.06-1.39.11-3 .17h-1.33a2.65 2.65 0 0 1-.5-.13 1.64 1.64 0 0 1-.5-.29 1.7 1.7 0 0 1-.48-1.33v-5.21a1.63 1.63 0 0 1 .69-1.5zm6.43 8.46v-8.79h1.68v8.79zm6.9-8.79a2.3 2.3 0 0 1 1.72.59 3 3 0 0 1 .68 2.15 2.74 2.74 0 0 1-.71 2.24 1.54 1.54 0 0 1-.35.23l-.34.12 1.66 3.46h-1.89l-1.46-3.33-1.47-.18v3.49h-1.68v-8.77zm-2.15 4h2a.81.81 0 0 0 .67-.24 1.68 1.68 0 0 0 .2-1 1.64 1.64 0 0 0-.22-1 .78.78 0 0 0-.65-.27h-2zm5.77 2.62a7.59 7.59 0 0 1-.14-1c0-.36-.05-.8-.05-1.31a11.13 11.13 0 0 1 .09-1.44 6 6 0 0 1 .25-1.15 2.59 2.59 0 0 1 .42-.81 2.65 2.65 0 0 1 .53-.53 2.45 2.45 0 0 1 .67-.3 4.66 4.66 0 0 1 1.31-.18h1a4.35 4.35 0 0 1 .67.1 2.29 2.29 0 0 1 .61.22 3.27 3.27 0 0 1 .51.37 1.72 1.72 0 0 1 .42.56 3.83 3.83 0 0 1 .3.79 7.12 7.12 0 0 1 .27 2.07 13.91 13.91 0 0 1-.09 1.83 6.65 6.65 0 0 1-.24 1.11 2.64 2.64 0 0 1-.9 1.32 2 2 0 0 1-.66.3 6.59 6.59 0 0 1-2.34.17 3.22 3.22 0 0 1-1.08-.18 3.89 3.89 0 0 1-.58-.3 1.56 1.56 0 0 1-.41-.4 4.61 4.61 0 0 1-.33-.56 3.67 3.67 0 0 1-.23-.68zm1.62-4a6.64 6.64 0 0 0-.09.76v1.12c0 .45 0 .83.05 1.14a3.86 3.86 0 0 0 .16.81 1 1 0 0 0 .34.51 2.23 2.23 0 0 0 1.3.3 2.16 2.16 0 0 0 1.26-.31c.39-.3.59-1.14.59-2.52a7.22 7.22 0 0 0-.15-1.86 2.62 2.62 0 0 0-.28-.65.79.79 0 0 0-.35-.3 2.16 2.16 0 0 0-.88-.16h-.7a2.37 2.37 0 0 0-.42.08.77.77 0 0 0-.35.18 1.76 1.76 0 0 0-.25.35 1.73 1.73 0 0 0-.23.58z"/><path class="c" d="M36.18 164.9h7.59a7.26 7.26 0 0 1 7.23 7.27H28.92a7.26 7.26 0 0 1 7.26-7.27zm21.78 7.27h-6.93"/><circle class="c" cx="39.98" cy="145.37" r="7.35"/><path class="c" d="M35.17 150.92v13.98m9.84-13.98v13.98"/><circle class="c" cx="39.98" cy="145.37" r="2.33"/><circle class="c" cx="54.5" cy="112.53" r=".52"/><circle class="c" cx="54.5" cy="112.53" r="5.48"/><path class="c" d="M35.17 139.82l13.85-27.29m-1.81 31.56l10.4-27.05m-2.59-9.99l14.75 1.87v7.22l-14.75 1.87m14.75-5.48h6.08m0-1.96v3.92m0-4.32l4.18-3.64 5.97 3.64m-10.15 4.72l4.18 3.64 5.97-3.64"/><ellipse class="c" cx="77.03" cy="137.03" rx="12.54" ry="4.42"/><path class="c" d="M89.57 152.94c0 2.44-5.61 4.43-12.54 4.43s-12.54-2-12.54-4.43m0-15.91v31.83m15.18 4.31c-.85.07-1.74.09-2.64.09-6.93 0-12.54-2-12.54-4.42M79 167.81q-1 .06-2 .06c-6.93 0-12.54-2-12.54-4.42m25.11-7.17v-14.07m0 0v-5.18m-3.77 13.55l.22-.09m-3.56.85a31.22 31.22 0 0 1-5.43.43c-6.93 0-12.54-2-12.54-4.42m8.03 14.85a32.26 32.26 0 0 0 4.51.29 31.55 31.55 0 0 0 3.85-.22m-11.95-.83l.2.06m-.36-16.15l.32.09m3.31.76a21.07 21.07 0 0 0 5.17.43c6.63 0 12-2 12-4.42M79 167.81a12.89 12.89 0 0 1 1.82-5.52M79 167.81a12.1 12.1 0 0 0 0 1.19 13.12 13.12 0 0 0 .69 4.17m9.88-16.89a13.14 13.14 0 0 1 2.37-.21 13 13 0 1 1-12.25 17.12m9.88-16.91a12.92 12.92 0 0 0-8.69 6"/><path class="c" d="M95.51 163.39c-1.17-1.1-5.7-1.93-7.09.06-1.86 2.61.47 4.36 2 4.89s4.83.54 5.14 3.91-3.72 3.25-3.72 3.25a5.65 5.65 0 0 1-4.11-1.62m3.88-13.16v1.52m0 13.24v2"/><circle class="c" cx="177.48" cy="133.78" r="2.95"/><circle class="c" cx="196.6" cy="123.11" r="2.95"/><path class="c" d="M213.78 107.57l7.12 1.99-1.98 7.12m-52.09 43.13h36.66m-26.01-17.94a4.94 4.94 0 0 1 4.94 4.94v13h-9.87v-13a4.94 4.94 0 0 1 4.93-4.94zm19.12-11.02a4.94 4.94 0 0 1 4.94 4.94v24h-9.87v-24a4.94 4.94 0 0 1 4.94-4.94zm14.17 18.26v-24.79a3.3 3.3 0 0 1 3.3-3.3h3.28a3.3 3.3 0 0 1 3.3 3.3v21m-40.59-12.98l13.96-7.79m26.6-14.84l-21.44 11.96"/><circle class="c" cx="222.5" cy="165.06" r="13.37"/><path class="c" d="M237.06 156.42a16.92 16.92 0 1 1-3.43-4.12m1.72 1.7l.31.37"/><circle class="c" cx="222.5" cy="165.06" r="1.72"/><path class="c" d="M222.5 167.25v2.72m-6.58-11.91l4.96 5.27m1.62-7.99v1.2m-9.61 8.2h1.21m8.2 9.93v-1.21m9.76-8.51h-1.2M219.89 174c-.29-.09-.57-.18-.85-.29a9.63 9.63 0 0 1-2-1.1 9.34 9.34 0 0 1-1-.81 8.07 8.07 0 0 1-.75-.8"/><circle class="c" cx="311.93" cy="158.06" r="4.97"/><circle class="c" cx="372.57" cy="158.06" r="4.97"/><path class="c" d="M311.93 163.01h50.45m10.19 0h-6.3m-52.92-.21l2.65 12.88h54l2.33-12.04m-60.4-10.56h60.64m-60.45 4.91h2.02m56.19 0h2m-54.87.07h1.8m3.99 0h4.33m3.97 0h4.33m3.99 0h4.32m3.99 0h4.33m3.97 0h4.35m3.98 0h2.79m-35.34-5.24h-9.66a1.33 1.33 0 0 1-1.32-1.32v-4.77a1.33 1.33 0 0 1 1.32-1.32h9.66a1.33 1.33 0 0 1 1.33 1.32v4.77a1.33 1.33 0 0 1-1.33 1.32zm29.63 0h-9.66a1.33 1.33 0 0 1-1.32-1.32v-4.77a1.33 1.33 0 0 1 1.32-1.32h9.66a1.33 1.33 0 0 1 1.33 1.32v4.77a1.33 1.33 0 0 1-1.33 1.32zm-6.97-41.97v-2.08a2 2 0 0 0-1.49-2.24H333a2 2 0 0 0-1.49 2.24v18.84a2 2 0 0 0 1.49 2.25h20.44a2 2 0 0 0 1.49-2.25v-16.83"/><path class="c" d="M337.61 117.08l5.29 4.87 5.72-7.6m-26.52 8.07l.32-.32m-7.31 27.11a28.14 28.14 0 0 1 5.17-24.72M370 146.55a25.56 25.56 0 0 1-.53 2.52m-8.76-28.25a28 28 0 0 1 9.62 21.18v1.37m-21.84-9.55h2a2.1 2.1 0 0 0 1.3-1m-7.02 1h.46m-17.65-13.57v11.22a2.09 2.09 0 0 0 1.57 2.35h12.42m-13.98-18.17v1.58m.78-7.48a2.11 2.11 0 0 0-.78 2v.83m147.28 28.4h-10.61m0-22.7h21.37a4.56 4.56 0 0 0 4.42 4.7v6.62m-23.35-3.43c-.73-.69-3.57-1.21-4.44 0-1.17 1.64.29 2.74 1.22 3.06s3 .34 3.22 2.46-2.33 2-2.33 2a3.52 3.52 0 0 1-2.58-1m16.64-3.09h-2.34m6.44 0h-.94m-7.13 16.78h-10.2"/><path class="c" d="M464.45 113.11h29.46a1.46 1.46 0 0 1 1.47 1.46v15.18m-30.93-16.64H434.8a1.46 1.46 0 0 0-1.46 1.46v30.35a1.46 1.46 0 0 0 1.46 1.46h29.46m.19-11.38v-.95m0-8.6v-1.26m-14.17 5.41h2.34m-6.43 0h.93"/><path class="c" d="M464.26 118.28h-21.18a4.56 4.56 0 0 1-4.42 4.7v13.3a4.56 4.56 0 0 1 4.42 4.7h21.18"/><circle class="c" cx="464.36" cy="129.74" r="8.38"/><ellipse class="c" cx="490.93" cy="137.25" rx="12.48" ry="4.4"/><path class="c" d="M503.41 153.09c0 2.42-5.58 4.39-12.48 4.39s-12.48-2-12.48-4.39m0-15.84v31.67m15.1 4.29c-.84.08-1.72.09-2.62.09-6.89 0-12.48-2-12.48-4.39m14.48-1.03c-.65 0-1.32.06-2 .06-6.89 0-12.48-2-12.48-4.4m24.96-7.13V142.4m0 0v-5.15m-3.75 13.48l.21-.09m-3.53.85a32.07 32.07 0 0 1-5.41.43c-6.89 0-12.48-2-12.48-4.4m7.99 14.78a35.62 35.62 0 0 0 8.32.07m-11.89-.83l.2.06m-.36-16.07l.32.09m3.29.75a20.9 20.9 0 0 0 5.15.43c6.59 0 11.94-2 11.94-4.4m-10.48 25.48a12.7 12.7 0 0 1 1.81-5.49"/><path class="c" d="M492.93 167.88a11.9 11.9 0 0 0-.06 1.2 13.22 13.22 0 0 0 .68 4.15m9.86-16.82a12.16 12.16 0 0 1 2.35-.22 12.9 12.9 0 1 1-12.19 17m9.84-16.78a12.83 12.83 0 0 0-8.65 6"/><path class="c" d="M509.32 163.48c-1.17-1.09-5.67-1.92-7.06.06-1.85 2.6.47 4.34 1.94 4.86s4.81.54 5.12 3.9-3.7 3.23-3.7 3.23a5.61 5.61 0 0 1-4.09-1.61m3.91-13.1v1.51m0 13.18v2"/><path class="b" d="M68.66 19.21V.18h8a5.61 5.61 0 0 1 4.17 1.39 5.21 5.21 0 0 1 1.34 3.76 5.15 5.15 0 0 1-.69 2.61 2.6 2.6 0 0 1-2 1.39 3.4 3.4 0 0 1 2.65 2.19 4.68 4.68 0 0 1 .42 2 5.8 5.8 0 0 1-1.41 4.3 6.05 6.05 0 0 1-4.42 1.39zm4.26-11.7h3.49A1.47 1.47 0 0 0 77.6 7a2.07 2.07 0 0 0 .4-1.37 1.68 1.68 0 0 0-.47-1.34 1.64 1.64 0 0 0-1.14-.42h-3.47zm0 8h3.67c1.16 0 1.74-.73 1.74-2.21a3.09 3.09 0 0 0-.41-1.66 1.45 1.45 0 0 0-1.33-.64h-3.67zm12.67 3.7V.18H94a5.61 5.61 0 0 1 4 1.38c1 .92 1.46 2.46 1.46 4.63a7.9 7.9 0 0 1-.8 4.05 3.46 3.46 0 0 1-1 1.07 7.88 7.88 0 0 1-1.17.55l3.51 7.35h-4.84l-2.84-7-2.47-.36v7.35zm4.29-10.63h3.61a1.52 1.52 0 0 0 1.33-.49 3.52 3.52 0 0 0 .34-1.82 3.24 3.24 0 0 0-.4-1.86 1.46 1.46 0 0 0-1.27-.54h-3.61zm12.45 10.63l6.21-19h4.94l6 19H115l-1.24-3.82h-5.75l-1.25 3.82zm6.76-7.51h3.77l-1.79-6.06zm12.33-5.04V5q0-4.9 5.14-5h1.1a21.27 21.27 0 0 1 6.57.83v3.33c-1.76-.16-3.23-.26-4.51-.26h-1.93a3.71 3.71 0 0 0-1.64.26c-.31.17-.47.6-.47 1.27v.65a1.58 1.58 0 0 0 .32 1.15 2.32 2.32 0 0 0 1.53.41h2.76a4.41 4.41 0 0 1 2.93.91 5.41 5.41 0 0 1 1.75 4.35V14c0 2.44-.78 4-2.32 4.83a6.65 6.65 0 0 1-3 .6c-2 0-3.56-.05-4.54-.15a16.19 16.19 0 0 1-3.11-.68v-3.34q2.86.28 6.69.29a3.05 3.05 0 0 0 1.45-.29 1.12 1.12 0 0 0 .52-1.09v-.75a1.63 1.63 0 0 0-.34-1.15 1.63 1.63 0 0 0-1.22-.36h-2.68a5.25 5.25 0 0 1-2.78-.63 3.78 3.78 0 0 1-1.51-1.45 5.79 5.79 0 0 1-.59-1.59 11.22 11.22 0 0 1-.12-1.58zm16.97 12.55V.18h4.27v19zm7.99-3.84V.18h4.26V14c0 .66.18 1 .54 1.19a2.84 2.84 0 0 0 1.07.16h6v3.87h-7.78a4.61 4.61 0 0 1-3-.89 3.53 3.53 0 0 1-1.09-2.96zm22.51 3.84l1.85-19h5.92l2.47 12 2.53-12h5.9l1.9 19h-4.19L184 7.54l-2.42 11.67h-4.81l-2.52-11.67-1.15 11.67zm23.58 0l6.22-19h4.94l6 19h-4.44l-1.25-3.82h-5.75l-1.25 3.82zm6.76-7.51H203l-1.79-6.06zm13.37 7.51V.18h4.26v19zm7.72-12.55V5c0-3.27 1.71-4.94 5.15-5h1.09a21.34 21.34 0 0 1 6.58.83v3.33c-1.77-.17-3.28-.26-4.52-.26h-1.93a3.71 3.71 0 0 0-1.64.26c-.31.17-.47.6-.47 1.27v.65a1.63 1.63 0 0 0 .29 1.15 2.32 2.32 0 0 0 1.53.41h2.76a4.44 4.44 0 0 1 2.94.91 5.4 5.4 0 0 1 1.74 4.35V14q0 3.66-2.32 4.83a6.65 6.65 0 0 1-3 .6c-2.05 0-3.56-.05-4.54-.15a15.94 15.94 0 0 1-3.1-.68v-3.34q2.85.28 6.68.29a3 3 0 0 0 1.45-.29 1.12 1.12 0 0 0 .52-1.09v-.75a1.68 1.68 0 0 0-.33-1.15 1.67 1.67 0 0 0-1.23-.36h-2.67a5.29 5.29 0 0 1-2.79-.63 3.75 3.75 0 0 1-1.5-1.45 6.25 6.25 0 0 1-.6-1.59 11.22 11.22 0 0 1-.09-1.58zm24.62 12.55V.18h8.32a5.34 5.34 0 0 1 4.32 1.59 6.78 6.78 0 0 1 1.22 4.42 10.09 10.09 0 0 1-.38 2.92 5.45 5.45 0 0 1-.91 1.89 3.58 3.58 0 0 1-1.34 1 5.67 5.67 0 0 1-2.29.44 22.75 22.75 0 0 1-2.74-.23c-1.22-.16-1.87-.25-1.94-.29v7.28zm4.26-10.45h3.67a1.38 1.38 0 0 0 1.23-.58 3.52 3.52 0 0 0 .41-1.94c0-1.58-.57-2.37-1.64-2.37h-3.67zm12.9 10.45V.18h8.4a5.63 5.63 0 0 1 4 1.38q1.5 1.38 1.5 4.63a7.9 7.9 0 0 1-.8 4.05 3.33 3.33 0 0 1-1 1.07 9 9 0 0 1-1.17.55l3.45 7.35h-4.83l-2.84-7-2.47-.36v7.35zm4.29-10.63H270a1.52 1.52 0 0 0 1.33-.49 3.52 3.52 0 0 0 .34-1.82 3.25 3.25 0 0 0-.39-1.86 1.48 1.48 0 0 0-1.28-.54h-3.61zm12.48 4.63a34.67 34.67 0 0 1-.18-3.51 22.77 22.77 0 0 1 .21-3.21 12.77 12.77 0 0 1 .56-2.5 5.8 5.8 0 0 1 .92-1.75 5.49 5.49 0 0 1 1.17-1.15A4.72 4.72 0 0 1 283 .44a10.86 10.86 0 0 1 3-.39c1 0 1.82 0 2.33.08a10.66 10.66 0 0 1 1.64.31 4.57 4.57 0 0 1 1.46.65 6 6 0 0 1 1.16 1.15 5.73 5.73 0 0 1 .87 1.76 19.73 19.73 0 0 1 .72 5.85 14.66 14.66 0 0 1-1.18 6.66 4.76 4.76 0 0 1-2 2 9.79 9.79 0 0 1-4.52.78 9.93 9.93 0 0 1-4.5-.73 4.47 4.47 0 0 1-2-1.95 9.58 9.58 0 0 1-1.11-3.4zm4.56-7.8a9.56 9.56 0 0 0-.35 1.71 21.63 21.63 0 0 0-.08 2.41v2.08c0 .49.07 1 .13 1.36a3.92 3.92 0 0 0 .27 1 3.19 3.19 0 0 0 .43.7 1.67 1.67 0 0 0 .64.46 5.4 5.4 0 0 0 1.9.28 5.5 5.5 0 0 0 1.77-.22 2.13 2.13 0 0 0 1.05-.85 4.19 4.19 0 0 0 .58-1.71 18.73 18.73 0 0 0 .16-2.75 24.42 24.42 0 0 0-.12-2.72 8.6 8.6 0 0 0-.34-1.7 1.84 1.84 0 0 0-.66-1 2.49 2.49 0 0 0-1-.45 6.54 6.54 0 0 0-1.39-.11 8.11 8.11 0 0 0-1.37.09 2.52 2.52 0 0 0-1 .41 1.9 1.9 0 0 0-.62 1.01zm14.21 13.8V.18h8.45a6.61 6.61 0 0 1 2.73.53 5.25 5.25 0 0 1 1.89 1.4 6.74 6.74 0 0 1 1.15 2.13 16.82 16.82 0 0 1 .78 5.54q0 9.44-6.55 9.43zm4.27-3.69h3.79a2.12 2.12 0 0 0 2.05-1.43 10.43 10.43 0 0 0 .63-4.08A17.1 17.1 0 0 0 308 6a3.18 3.18 0 0 0-.88-1.74 2.34 2.34 0 0 0-1.46-.42h-3.79zm21.73 3.82h-.39a12 12 0 0 1-3-.22 10.77 10.77 0 0 1-1.22-.5 2.68 2.68 0 0 1-.94-.71 10.93 10.93 0 0 1-.74-1.06 5.17 5.17 0 0 1-.61-1.48 18.51 18.51 0 0 1-.49-4.48V.18h4.26v10.71a16.11 16.11 0 0 0 .12 2.21 3.23 3.23 0 0 0 .48 1.4 1.84 1.84 0 0 0 1 .76 5 5 0 0 0 1.61.21 2.6 2.6 0 0 0 2.38-1 7.2 7.2 0 0 0 .64-3.58V.18H331v10.71c0 3.38-.64 5.66-1.9 6.84a7 7 0 0 1-1.21.94 4.43 4.43 0 0 1-1.39.47 17 17 0 0 1-2.86.2zm10.3-15.28V.18h14.37v3.88h-5.12v15.15h-4.26V4.06zm17.6 15.15V.18h4.26v19zM358.9.18h4.5l3.77 13.63 4-13.63h4.5l-6 19h-5zm18.77 13.03a34.67 34.67 0 0 1-.18-3.51 24.45 24.45 0 0 1 .2-3.21 14.41 14.41 0 0 1 .56-2.5 5.82 5.82 0 0 1 .93-1.75 5.49 5.49 0 0 1 1.17-1.15 4.72 4.72 0 0 1 1.45-.65 10.84 10.84 0 0 1 2.95-.39c1.05 0 1.83 0 2.34.08a10.89 10.89 0 0 1 1.64.31 4.57 4.57 0 0 1 1.46.65 5.67 5.67 0 0 1 1.15 1.15 5.32 5.32 0 0 1 .91 1.76 19.37 19.37 0 0 1 .75 5.83 14.66 14.66 0 0 1-1.22 6.68 4.82 4.82 0 0 1-2 2 13.85 13.85 0 0 1-9 .05 4.47 4.47 0 0 1-2-1.95 9.58 9.58 0 0 1-1.11-3.4zm4.56-7.8a8.75 8.75 0 0 0-.35 1.71 19.46 19.46 0 0 0-.13 2.41v2.08c0 .49.07 1 .13 1.36a3.92 3.92 0 0 0 .27 1 3.19 3.19 0 0 0 .43.7 1.67 1.67 0 0 0 .64.46 6.85 6.85 0 0 0 3.66.06 2.11 2.11 0 0 0 1.06-.85 4.19 4.19 0 0 0 .58-1.71 18.73 18.73 0 0 0 .16-2.75 24.42 24.42 0 0 0-.12-2.72 8.6 8.6 0 0 0-.34-1.7 1.84 1.84 0 0 0-.66-1 2.49 2.49 0 0 0-1-.45 6.54 6.54 0 0 0-1.39-.11 8.11 8.11 0 0 0-1.37.09 2.52 2.52 0 0 0-1 .41 1.9 1.9 0 0 0-.57 1.01zm30.54 5.95v-4l.78-2H417v6h1.77v3.28l-1.77.67v3.85h-4.26v-3.85h-8.71l-.89-1.92L409.39.18H414l-5 11.18zm9.15 7.26V16c0-.43.21-.65.62-.65h2.55a.57.57 0 0 1 .65.65v2.66c0 .39-.21.59-.65.59h-2.55a.6.6 0 0 1-.44-.17.54.54 0 0 1-.18-.46zm7.8-4.19V5.17A5 5 0 0 1 431 1.48a4.87 4.87 0 0 1 3.6-1.3h4.26q4.71 0 4.71 4.79v9.46a4.8 4.8 0 0 1-1.23 3.57 4.7 4.7 0 0 1-3.49 1.24h-4.27A4.94 4.94 0 0 1 431 18a4.75 4.75 0 0 1-1.28-3.57zm4.26-.81a1.53 1.53 0 0 0 1.75 1.72h1.87a2 2 0 0 0 1.3-.35 1.74 1.74 0 0 0 .41-1.34v-7.9c0-1.13-.52-1.69-1.56-1.69h-2.15c-1.08 0-1.62.56-1.62 1.69z"/></svg>