<svg xmlns="http://www.w3.org/2000/svg" xmlns:xlink="http://www.w3.org/1999/xlink" viewBox="0 0 416.05 406.22"><defs><style>.a{fill:#1f3178}.c{fill:#58595b}.f{fill:none;stroke-linecap:round;stroke-linejoin:round;stroke:#1f3178;stroke-width:1.5px}</style><linearGradient id="a" x1="12.22" y1="44.85" x2="12.22" y2="59.57" gradientUnits="userSpaceOnUse"><stop offset="0" stop-color="#83c456"/><stop offset=".22" stop-color="#7dc256"/><stop offset=".53" stop-color="#6bbb56"/><stop offset=".88" stop-color="#4eb056"/><stop offset="1" stop-color="#43ac56"/></linearGradient><linearGradient id="b" x1="12.22" y1="47.08" x2="12.22" y2="406.22" xlink:href="#a"/></defs><path class="a" d="M64.51 15.44a14.16 14.16 0 0 1-.51-2.69c-.08-.89-.12-1.94-.12-3.14a26.76 26.76 0 0 1 .16-3.17 13.36 13.36 0 0 1 .56-2.63 5.66 5.66 0 0 1 1.1-2.07A5.38 5.38 0 0 1 70 0a37.25 37.25 0 0 1 4.12.16 28.17 28.17 0 0 1 3.6.72v3.31h-.23l-.56-.08-.81-.1-1-.11-1.17-.1c-.89 0-1.75-.08-2.6-.08a2.56 2.56 0 0 0-2.56 1.25 12.13 12.13 0 0 0-.62 4.73 13.14 13.14 0 0 0 .5 4.63 1.79 1.79 0 0 0 1.33 1 5 5 0 0 0 1.14.11 3.24 3.24 0 0 0 1.36-.3 3 3 0 0 0 .95-.59l.26-.31v-2.75h-2V8.81a11.57 11.57 0 0 1 4.52-.63q.82 0 1.77.06v11h-3L73.74 18a3.84 3.84 0 0 1-.84.72 6 6 0 0 1-3.25.68 4.89 4.89 0 0 1-4.08-1.74 6 6 0 0 1-1.06-2.22zm16.92 3.8v-19h8.4a5.61 5.61 0 0 1 4 1.38c1 .91 1.45 2.46 1.45 4.62a7.81 7.81 0 0 1-.8 4.06 3.33 3.33 0 0 1-1 1.07 8.92 8.92 0 0 1-1.17.54l3.46 7.36H91l-2.83-7-2.48-.37v7.36zm4.29-10.63h3.62a1.5 1.5 0 0 0 1.32-.5A3.39 3.39 0 0 0 91 6.29a3.3 3.3 0 0 0-.39-1.86 1.49 1.49 0 0 0-1.27-.53h-3.62zm12.46 10.63l6.21-19h4.94l6 19h-4.45l-1.25-3.82h-5.75l-1.24 3.82zm6.75-7.51h3.77l-1.79-6.06zm19.77 7.64h-.39a12.15 12.15 0 0 1-3.05-.22c-.41-.15-.82-.32-1.22-.51a2.53 2.53 0 0 1-.93-.7 9.57 9.57 0 0 1-.75-1.07 5.35 5.35 0 0 1-.61-1.48 18.43 18.43 0 0 1-.49-4.47V.21h4.26v10.71a16.11 16.11 0 0 0 .12 2.21 3.41 3.41 0 0 0 .48 1.39 1.86 1.86 0 0 0 1 .77 5 5 0 0 0 1.62.21 2.6 2.6 0 0 0 2.37-1 7.09 7.09 0 0 0 .64-3.58V.21H132v10.71q0 5.07-1.9 6.84a6.91 6.91 0 0 1-1.21.93 4 4 0 0 1-1.39.47 15.83 15.83 0 0 1-2.8.21zm18.82-.13v-19H152a6.61 6.61 0 0 1 2.73.53 5.22 5.22 0 0 1 1.88 1.39 6.67 6.67 0 0 1 1.16 2.13 16.87 16.87 0 0 1 .78 5.54q0 9.44-6.55 9.44zm4.26-3.69h3.8a2.12 2.12 0 0 0 2-1.43 10.46 10.46 0 0 0 .63-4.08 17.61 17.61 0 0 0-.34-4 3.17 3.17 0 0 0-.88-1.74 2.34 2.34 0 0 0-1.46-.42h-3.8zm13.68-.26V4.37a3.69 3.69 0 0 1 2.11-3.75 6.08 6.08 0 0 1 2.34-.41q6.15.11 8.42.41v3.57h-7.25c-.65 0-1 .15-1.2.46a2.69 2.69 0 0 0-.16 1v2.16l7.39.26v3.54l-7.39.23V14c0 .66.19 1.06.55 1.19a2.8 2.8 0 0 0 1.07.16h7v3.54q-1.87.25-7.51.41h-1.89a5.66 5.66 0 0 1-1.14-.27 3.66 3.66 0 0 1-1.17-.65 3.22 3.22 0 0 1-.82-1.21 4.64 4.64 0 0 1-.35-1.88zM185 19.24l1.85-19h5.93l2.47 12 2.52-12h5.9l1.9 19h-4.19l-1.27-11.67-2.42 11.67h-4.81l-2.52-11.67-1.14 11.67zm23.55 0l6.21-19h4.94l6 19h-4.45L220 15.42h-5.75L213 19.24zm6.75-7.51h3.77l-1.79-6.06zm10.17-7.65V.21h14.38v3.87h-5.12v15.16h-4.27V4.08zm25.04 15.29h-.39a12 12 0 0 1-3-.22 13.26 13.26 0 0 1-1.23-.51 2.62 2.62 0 0 1-.93-.7 9.64 9.64 0 0 1-.74-1.07 5.06 5.06 0 0 1-.61-1.48 18.4 18.4 0 0 1-.5-4.47V.21h4.27v10.71a18.21 18.21 0 0 0 .11 2.21 3.41 3.41 0 0 0 .48 1.39 1.92 1.92 0 0 0 1 .77 5 5 0 0 0 1.61.21 2.63 2.63 0 0 0 2.38-1 7.2 7.2 0 0 0 .64-3.58V.21h4.29v10.71c0 3.38-.64 5.66-1.9 6.84a7.3 7.3 0 0 1-1.21.93 4.19 4.19 0 0 1-1.39.47 16 16 0 0 1-2.88.21zm10.87-.13v-19h8.4a5.61 5.61 0 0 1 4 1.38c1 .91 1.46 2.46 1.46 4.62a7.91 7.91 0 0 1-.8 4.06 3.34 3.34 0 0 1-1 1.07 7.86 7.86 0 0 1-1.17.54l3.46 7.36H271l-2.84-7-2.47-.37v7.36zm4.29-10.63h3.61a1.52 1.52 0 0 0 1.33-.5 3.49 3.49 0 0 0 .39-1.82 3.29 3.29 0 0 0-.4-1.86 1.46 1.46 0 0 0-1.27-.53h-3.61zm13.08 10.63v-19H283v19zm7.98 0v-19h8.45a6.61 6.61 0 0 1 2.73.53 5.22 5.22 0 0 1 1.88 1.39 6.87 6.87 0 0 1 1.21 2.1 16.87 16.87 0 0 1 .78 5.54q0 9.44-6.55 9.44zm4.27-3.69h3.8a2.12 2.12 0 0 0 2.05-1.43 10.46 10.46 0 0 0 .62-4.12 17.61 17.61 0 0 0-.34-4 3.1 3.1 0 0 0-.89-1.74 2.31 2.31 0 0 0-1.45-.42H291zm12.5 3.69l6.21-19h4.94l6 19h-4.44L315 15.42h-5.74L308 19.24zm6.76-7.51H314l-1.8-6.06zm13.36 7.51v-19h8.45a6.61 6.61 0 0 1 2.73.53 5.35 5.35 0 0 1 1.89 1.39 6.85 6.85 0 0 1 1.15 2.13 16.87 16.87 0 0 1 .78 5.54q0 9.44-6.55 9.44zm4.26-3.69h3.8a2.12 2.12 0 0 0 2.05-1.43 10.46 10.46 0 0 0 .63-4.12 17 17 0 0 0-.34-4 3.1 3.1 0 0 0-.88-1.74 2.34 2.34 0 0 0-1.46-.42h-3.8zm13.68-.26V4.37a3.69 3.69 0 0 1 2.11-3.75A6.16 6.16 0 0 1 346 .21q6.15.11 8.42.41v3.57h-7.24c-.64 0-1 .15-1.2.46a2.71 2.71 0 0 0-.15 1v2.16l7.38.26v3.54l-7.38.23V14c0 .66.18 1.06.54 1.19a2.84 2.84 0 0 0 1.07.16h7v3.54q-1.87.25-7.51.41h-1.89a5.66 5.66 0 0 1-1.15-.3 3.66 3.66 0 0 1-1.17-.65 3.22 3.22 0 0 1-.82-1.21 4.64 4.64 0 0 1-.34-1.85z"/><path d="M147.76 137.63H14.85c-2.29 0-3.48-2.4-1.92-3.87l71.49-67.54a10.12 10.12 0 0 1 6.93-2.65h132.91c2.29 0 3.48 2.39 1.92 3.87L154.69 135a10.12 10.12 0 0 1-6.93 2.63zm0 88.9H14.85c-2.29 0-3.48-2.4-1.92-3.87l71.49-67.53a10.07 10.07 0 0 1 6.93-2.65h132.91c2.29 0 3.48 2.4 1.92 3.87l-71.49 67.53a10.12 10.12 0 0 1-6.93 2.65zm0 88.91H14.85c-2.29 0-3.48-2.4-1.92-3.87L84.42 244a10.12 10.12 0 0 1 6.93-2.65h132.91c2.29 0 3.48 2.39 1.92 3.86l-71.49 67.54a10.12 10.12 0 0 1-6.93 2.69zm0 88.96H14.85c-2.29 0-3.48-2.4-1.92-3.87L84.42 333a10.13 10.13 0 0 1 6.93-2.66h132.91c2.29 0 3.48 2.4 1.92 3.87l-71.49 67.53a10.12 10.12 0 0 1-6.93 2.66z" fill="#d7e1ee"/><path class="a" d="M238.09 347.4v-.76a2.15 2.15 0 0 1 .68-1.79 2.86 2.86 0 0 1 1.7-.48h.6c.31 0 .76 0 1.36.1a8.79 8.79 0 0 1 1.43.25V346c-.91-.08-1.64-.12-2.18-.12h-.87a1.6 1.6 0 0 0-.79.15c-.17.09-.25.33-.25.7v.44a.88.88 0 0 0 .2.67 1.22 1.22 0 0 0 .74.17h1.39a1.79 1.79 0 0 1 1.83 1.09 3.07 3.07 0 0 1 .24 1.23v.67a2.07 2.07 0 0 1-1.06 2.1 3.08 3.08 0 0 1-1.36.27 12.61 12.61 0 0 1-3.4-.36v-1.32c.88.08 1.65.13 2.31.13a11 11 0 0 0 1.14 0 1 1 0 0 0 .33-.09.63.63 0 0 0 .36-.64v-.47c0-.41-.13-.67-.39-.76a1.16 1.16 0 0 0-.4-.06h-1.34a2 2 0 0 1-2.27-2.4zm6.73-1.4v-1.54h6.49V346h-2.43v7.24h-1.68V346zm8.09-1.23a2.19 2.19 0 0 1 .6-.25 1.9 1.9 0 0 1 .46-.07h1.74c1 0 1.81.08 2.32.15v1.4h-3.46c-.3 0-.48.07-.56.22a1.32 1.32 0 0 0-.07.45v1.37l3.55.12v1.39l-3.55.11v1.37c0 .3.09.49.25.55a1.36 1.36 0 0 0 .5.07H258v1.38c-.4.06-1.38.11-3 .17h-1.33a1.89 1.89 0 0 1-.49-.13 1.69 1.69 0 0 1-.51-.29 1.69 1.69 0 0 1-.48-1.33v-5.23a1.63 1.63 0 0 1 .72-1.45zm6.31 8.46v-8.78H263a2.29 2.29 0 0 1 1.9.73 3.08 3.08 0 0 1 .54 2 5.07 5.07 0 0 1-.16 1.32 2.35 2.35 0 0 1-.4.84 1.46 1.46 0 0 1-.59.45 2.41 2.41 0 0 1-1 .22c-.28 0-.73 0-1.35-.11a9.28 9.28 0 0 1-1-.13v3.48zm3.65-7.3h-2v2.57h2a.84.84 0 0 0 .47-.11c.27-.16.41-.56.41-1.22-.01-.82-.3-1.24-.88-1.24zm7.13 5.16v-4.44a2.17 2.17 0 0 1 .59-1.63 2.26 2.26 0 0 1 1.62-.57h2a1.84 1.84 0 0 1 2 1.32 2.94 2.94 0 0 1 .11.81v4.51a2.12 2.12 0 0 1-.56 1.59 2.14 2.14 0 0 1-1.58.55h-2a2.3 2.3 0 0 1-1.62-.54 2.06 2.06 0 0 1-.56-1.6zm1.68-.27c0 .57.3.86.9.86h1.16a1 1 0 0 0 .66-.19.83.83 0 0 0 .22-.66v-4c0-.57-.27-.86-.82-.86h-1.26a.78.78 0 0 0-.67.26 1 1 0 0 0-.19.6zm9.17-6.37v8.78h-1.68v-7.12l-1.7.42v-1.09l1.71-1z"/><path class="c" d="M238.29 371.19v-8.79h3.52a1.9 1.9 0 0 1 1.63.69 2.94 2.94 0 0 1 .47 1.81c0 1.47-.44 2.31-1.31 2.53a2.85 2.85 0 0 1-.74.08q-.4 0-1.62-.09c-.81-.06-1.23-.09-1.26-.11v3.88zm.69-4.37h2.83a1.5 1.5 0 0 0 1-.31 2.12 2.12 0 0 0 .43-1.58c0-.88-.22-1.44-.67-1.68a1.61 1.61 0 0 0-.73-.15H239zm6.3 4.37v-6.38h.47l.21.81.22-.12.23-.13.21-.12a1 1 0 0 1 .23-.12l.23-.11.26-.1.23-.07.27-.06a6.35 6.35 0 0 1 .8-.05 1.68 1.68 0 0 1 .67.1v.67a3.08 3.08 0 0 0-.68-.07h-.75a1 1 0 0 0-.26 0h-.22a1.08 1.08 0 0 0-.24.08l-.22.08-.23.1-.23.1-.26.13-.26.12v5zm5.29-.67a2.23 2.23 0 0 1-.44-1 8.56 8.56 0 0 1-.13-1.67 5.25 5.25 0 0 1 .27-1.82 1.75 1.75 0 0 1 .86-1 3.57 3.57 0 0 1 1.62-.3 2.67 2.67 0 0 1 2.16.74 4.22 4.22 0 0 1 .59 2.56 4 4 0 0 1-.59 2.51 2.77 2.77 0 0 1-2.16.69 4.55 4.55 0 0 1-1.34-.17 1.81 1.81 0 0 1-.84-.54zm.35-4.21a3 3 0 0 0-.18.73 9.25 9.25 0 0 0 0 .95v.86a2.9 2.9 0 0 0 .1.58 2.75 2.75 0 0 0 .16.44.89.89 0 0 0 .24.3 1.7 1.7 0 0 0 .28.21 1.17 1.17 0 0 0 .36.11 4 4 0 0 0 .81.07 6.49 6.49 0 0 0 .71 0 2.36 2.36 0 0 0 .51-.12.91.91 0 0 0 .41-.26 1.67 1.67 0 0 0 .28-.44 3.22 3.22 0 0 0 .24-1.36 10.23 10.23 0 0 0-.06-1.29 2.72 2.72 0 0 0-.17-.72 1.88 1.88 0 0 0-.27-.47 1 1 0 0 0-.41-.28 2.31 2.31 0 0 0-.52-.12 5.6 5.6 0 0 0-.64 0h-.64a2.42 2.42 0 0 0-.5.12.86.86 0 0 0-.41.26 2 2 0 0 0-.3.43zm5.79 1.69a8 8 0 0 1 .11-1.4 3.79 3.79 0 0 1 .28-.94 1.4 1.4 0 0 1 .45-.56 1.48 1.48 0 0 1 .57-.27 3.34 3.34 0 0 1 .69-.07 14.05 14.05 0 0 1 2.62.32v.48c-1-.08-1.76-.11-2.18-.11a6.32 6.32 0 0 0-.78 0 1.11 1.11 0 0 0-.3.08.73.73 0 0 0-.27.17 1.94 1.94 0 0 0-.21.3 1.85 1.85 0 0 0-.16.47 7.52 7.52 0 0 0-.13 1.58 5.28 5.28 0 0 0 .17 1.54 1.29 1.29 0 0 0 .46.76 1.31 1.31 0 0 0 .78.2 21.89 21.89 0 0 0 2.27-.13h.43v.51a11.13 11.13 0 0 1-2.7.35 1.71 1.71 0 0 1-1.7-.9 5.33 5.33 0 0 1-.4-2.38zm6.59 2.93a1.71 1.71 0 0 1-.64-1 6.24 6.24 0 0 1-.19-1.67 13.89 13.89 0 0 1 .06-1.5 3.26 3.26 0 0 1 .21-.87 1.92 1.92 0 0 1 .35-.57 1.12 1.12 0 0 1 .51-.34 4.44 4.44 0 0 1 1.54-.2 3.78 3.78 0 0 1 1.58.22 1.28 1.28 0 0 1 .62.66 2.87 2.87 0 0 1 .23 1.19 1.92 1.92 0 0 1-.18 1 1.58 1.58 0 0 1-1.46.59h-2.77c0 1.12.2 1.79.61 2a1.47 1.47 0 0 0 .8.17 22.11 22.11 0 0 0 2.88-.15v.5a10.57 10.57 0 0 1-2.82.34 2.33 2.33 0 0 1-1.33-.37zm-.14-3.22h2.77a1.36 1.36 0 0 0 .71-.15.66.66 0 0 0 .25-.62 3.4 3.4 0 0 0-.08-.78.75.75 0 0 0-.3-.46 1.24 1.24 0 0 0-.52-.21 5.32 5.32 0 0 0-.77 0h-.74a2.29 2.29 0 0 0-.5.09.94.94 0 0 0-.38.23 1.38 1.38 0 0 0-.25.39 4.18 4.18 0 0 0-.19 1.51zm5.48-.84v-.56a1.62 1.62 0 0 1 .38-1.16 1.73 1.73 0 0 1 1.28-.4q.44 0 1.47.06l1.54.11v.51h-3a1.07 1.07 0 0 0-.79.21 1 1 0 0 0-.19.67v.56c0 .38.09.62.27.7a1.81 1.81 0 0 0 .71.1h1.77a1.58 1.58 0 0 1 1.15.4 1.47 1.47 0 0 1 .41 1.09v.59a1.32 1.32 0 0 1-.5 1.24 1.8 1.8 0 0 1-.94.26c-.35 0-.92 0-1.71-.08s-1.31-.08-1.58-.12v-.49h3.17a.9.9 0 0 0 .58-.12.86.86 0 0 0 .3-.69v-.59c0-.54-.29-.81-.88-.81h-1.78a2.09 2.09 0 0 1-1.28-.3 1.46 1.46 0 0 1-.38-1.18zm5.94 0v-.56a1.62 1.62 0 0 1 .38-1.16 1.73 1.73 0 0 1 1.28-.4q.43 0 1.47.06l1.54.11v.51h-3a1.07 1.07 0 0 0-.79.21 1 1 0 0 0-.19.67v.56c0 .38.09.62.27.7a1.81 1.81 0 0 0 .71.1H278a1.58 1.58 0 0 1 1.15.4 1.47 1.47 0 0 1 .41 1.09v.59a1.34 1.34 0 0 1-.5 1.24 1.8 1.8 0 0 1-.94.26c-.35 0-.92 0-1.71-.08s-1.31-.08-1.58-.12v-.49H278a.9.9 0 0 0 .58-.12.86.86 0 0 0 .3-.69v-.59c0-.54-.29-.81-.88-.81h-1.77a2.09 2.09 0 0 1-1.28-.3 1.46 1.46 0 0 1-.37-1.18zm6.76 3.65a2.23 2.23 0 0 1-.44-1 7.84 7.84 0 0 1-.13-1.67 5.25 5.25 0 0 1 .27-1.82 1.77 1.77 0 0 1 .85-1 3.62 3.62 0 0 1 1.63-.3 2.63 2.63 0 0 1 2.15.74 4.15 4.15 0 0 1 .6 2.56 3.92 3.92 0 0 1-.6 2.51 2.73 2.73 0 0 1-2.15.69 4.55 4.55 0 0 1-1.34-.17 1.71 1.71 0 0 1-.84-.54zm.35-4.21a3 3 0 0 0-.18.73 7.08 7.08 0 0 0 0 .95v.86a2.9 2.9 0 0 0 .1.58 2.75 2.75 0 0 0 .16.44 1 1 0 0 0 .23.3 2.32 2.32 0 0 0 .29.21 1.17 1.17 0 0 0 .36.11 4 4 0 0 0 .81.07 6.49 6.49 0 0 0 .71 0 2.36 2.36 0 0 0 .51-.12 1 1 0 0 0 .41-.26 1.66 1.66 0 0 0 .27-.44 3.22 3.22 0 0 0 .24-1.36 10.66 10.66 0 0 0 0-1.29 3.18 3.18 0 0 0-.17-.72 1.88 1.88 0 0 0-.27-.47 1 1 0 0 0-.41-.28 2.44 2.44 0 0 0-.52-.12 5.79 5.79 0 0 0-.65 0h-.63a2.5 2.5 0 0 0-.51.12.87.87 0 0 0-.4.26 1.72 1.72 0 0 0-.35.43zm5.6.56v-.56a1.58 1.58 0 0 1 .38-1.16 1.71 1.71 0 0 1 1.27-.4c.3 0 .79 0 1.48.06l1.54.11v.51h-3a1 1 0 0 0-.78.21 1 1 0 0 0-.19.67v.56c0 .38.09.62.27.7a1.75 1.75 0 0 0 .7.1h1.78a1.58 1.58 0 0 1 1.15.4 1.47 1.47 0 0 1 .41 1.09v.59a1.34 1.34 0 0 1-.5 1.24 1.81 1.81 0 0 1-1 .26c-.34 0-.91 0-1.7-.08s-1.31-.08-1.58-.12v-.49h3.17a.92.92 0 0 0 .58-.12.86.86 0 0 0 .3-.69v-.59c0-.54-.3-.81-.88-.81h-1.78a2.06 2.06 0 0 1-1.27-.3 1.43 1.43 0 0 1-.35-1.18zm10.87-1.72a3.86 3.86 0 0 1 .73-.28 3.46 3.46 0 0 1 1-.14 2 2 0 0 1 1 .26 1.56 1.56 0 0 1 .68.69 4.6 4.6 0 0 1 1.22-.68 4.25 4.25 0 0 1 1.51-.27 1.77 1.77 0 0 1 1.34.58 2 2 0 0 1 .55 1.47v4.41h-.68v-4.41a1.4 1.4 0 0 0-.35-1 1.15 1.15 0 0 0-.89-.39 4.48 4.48 0 0 0-.94.09 4.5 4.5 0 0 0-1.59.65 2 2 0 0 1 .06.61v4.43h-.68v-4.41a1.36 1.36 0 0 0-.36-1 1.16 1.16 0 0 0-.88-.39 4.15 4.15 0 0 0-.92.09 4.38 4.38 0 0 0-.69.21c-.19.08-.46.22-.82.4v5.08h-.69v-6.38h.47l.22.76zm9.42-.1a11.66 11.66 0 0 1 3-.36 1.89 1.89 0 0 1 1.3.46 1.77 1.77 0 0 1 .51 1.39v4.65h-.5l-.18-.77-.19.08-.48.21a6.59 6.59 0 0 1-.64.25 4.28 4.28 0 0 1-1.47.3 1.6 1.6 0 0 1-1.11-.42 1.52 1.52 0 0 1-.45-1.17v-.73a1.43 1.43 0 0 1 .74-1.4 1.75 1.75 0 0 1 .85-.19h2.75v-.81c0-.79-.41-1.19-1.24-1.19-.66 0-1.63.07-2.9.2zm.48 4.56a1 1 0 0 0 .25.74.91.91 0 0 0 .6.22 4.66 4.66 0 0 0 .72-.06l.72-.16c.49-.13.88-.25 1.18-.35l.19-.07v-2.07L309 368a.86.86 0 0 0-.91 1zm7.25-4.48a5.58 5.58 0 0 1 .76-.29 3.56 3.56 0 0 1 1-.13 1.86 1.86 0 0 1 1 .28 2 2 0 0 1 .9 1.76v4.44h-.69v-4.44a1.37 1.37 0 0 0-.35-1 1.16 1.16 0 0 0-.88-.37 4.35 4.35 0 0 0-.94.09 3.73 3.73 0 0 0-.71.22q-.3.12-.84.39v5.1h-.68v-6.38h.47l.21.75c.3-.18.55-.32.75-.42zm5.69-.32v4.44a1.34 1.34 0 0 0 .36 1 1.2 1.2 0 0 0 .93.37 3.83 3.83 0 0 0 1.14-.14 12.93 12.93 0 0 0 1.29-.57v-5.09h.69v6.38h-.5l-.22-.75c-.3.18-.56.32-.75.42a3.67 3.67 0 0 1-1.71.43 1.78 1.78 0 0 1-1.41-.6 2.07 2.07 0 0 1-.53-1.44v-4.44zm5.91.24a11.66 11.66 0 0 1 3-.36 1.89 1.89 0 0 1 1.3.46 1.77 1.77 0 0 1 .52 1.39v4.65h-.51l-.18-.77-.19.08-.48.21a6.59 6.59 0 0 1-.64.25 4.28 4.28 0 0 1-1.47.3 1.6 1.6 0 0 1-1.11-.42 1.52 1.52 0 0 1-.45-1.17v-.73a1.45 1.45 0 0 1 .74-1.4 1.75 1.75 0 0 1 .85-.19h2.75v-.81a1.07 1.07 0 0 0-1.23-1.19c-.67 0-1.64.07-2.91.2zm.48 4.56a1 1 0 0 0 .25.74.91.91 0 0 0 .6.22 4.56 4.56 0 0 0 .72-.06l.72-.16c.49-.13.88-.25 1.18-.35l.19-.07v-2.07l-2.75.14a.86.86 0 0 0-.91 1zm5.68-5.85v-.67c0-.17.08-.26.24-.26h.44c.15 0 .23.09.23.26v.67a.21.21 0 0 1-.23.24h-.44a.22.22 0 0 1-.2-.09.28.28 0 0 1-.04-.15zm.09 7.43v-6.38h.69v6.38zm2.02-4.32v-.56a1.58 1.58 0 0 1 .38-1.16 1.72 1.72 0 0 1 1.28-.4q.43 0 1.47.06l1.54.11v.51h-3a1.05 1.05 0 0 0-.79.21 1 1 0 0 0-.19.67v.56c0 .38.09.62.27.7a1.78 1.78 0 0 0 .71.1h1.77a1.58 1.58 0 0 1 1.15.4 1.47 1.47 0 0 1 .41 1.09v.59a1.34 1.34 0 0 1-.5 1.24 1.81 1.81 0 0 1-1 .26c-.34 0-.91 0-1.7-.08s-1.31-.08-1.58-.12v-.49h3.17a.9.9 0 0 0 .58-.12.86.86 0 0 0 .3-.69v-.59c0-.54-.3-.81-.88-.81h-1.73a2.07 2.07 0 0 1-1.28-.3 1.43 1.43 0 0 1-.38-1.18zm6.73 5.22l-.23.07a.53.53 0 0 1-.16 0h-.17v-.28c.19 0 .29-.1.29-.31v-.38h-.11c-.16 0-.24-.09-.24-.26v-.68c0-.18.08-.26.24-.26h.47c.16 0 .24.08.24.26v1.18c-.02.34-.12.57-.33.66zm-103.68 9.96a11.69 11.69 0 0 1 3-.36 1.91 1.91 0 0 1 1.3.46 1.77 1.77 0 0 1 .51 1.39v4.65h-.51l-.18-.77-.19.08-.47.21c-.2.09-.41.17-.64.25a4.37 4.37 0 0 1-1.47.3 1.57 1.57 0 0 1-1.11-.42 1.49 1.49 0 0 1-.46-1.17v-.73a1.45 1.45 0 0 1 .74-1.4 1.79 1.79 0 0 1 .86-.19h2.74v-.81a1.07 1.07 0 0 0-1.23-1.19c-.67 0-1.63.07-2.91.2zm.48 4.56a1 1 0 0 0 .26.74.87.87 0 0 0 .6.22 4.53 4.53 0 0 0 .71-.06l.73-.16c.48-.13.87-.25 1.17-.35l.19-.07v-2.07l-2.74.17a.87.87 0 0 0-.92 1zm6.36-4.8v4.44a1.34 1.34 0 0 0 .36 1 1.2 1.2 0 0 0 .93.37 3.83 3.83 0 0 0 1.14-.14 12.93 12.93 0 0 0 1.29-.57v-5.09h.69v6.38H249l-.22-.75q-.45.27-.75.42a3.64 3.64 0 0 1-1.71.43 1.78 1.78 0 0 1-1.41-.6 2.07 2.07 0 0 1-.53-1.44v-4.44zm5.74 2.06v-.56a1.58 1.58 0 0 1 .38-1.16 1.72 1.72 0 0 1 1.28-.4q.44 0 1.47.06l1.54.11v.51h-3a1.05 1.05 0 0 0-.79.21 1 1 0 0 0-.19.67v.56c0 .38.09.62.27.7a1.78 1.78 0 0 0 .71.1h1.77a1.58 1.58 0 0 1 1.15.4 1.47 1.47 0 0 1 .41 1.09v.59a1.34 1.34 0 0 1-.5 1.24 1.81 1.81 0 0 1-1 .26c-.34 0-.91 0-1.7-.08s-1.31-.08-1.58-.12v-.49h3.17a.9.9 0 0 0 .58-.12.86.86 0 0 0 .3-.69v-.59c0-.54-.3-.81-.88-.81h-1.77a2.07 2.07 0 0 1-1.28-.3 1.43 1.43 0 0 1-.34-1.18zm7.02 4.06a1.67 1.67 0 0 1-.64-1 6.24 6.24 0 0 1-.19-1.67 13.89 13.89 0 0 1 .06-1.5 3.26 3.26 0 0 1 .21-.87 1.91 1.91 0 0 1 .34-.57 1.21 1.21 0 0 1 .52-.34 4.42 4.42 0 0 1 1.53-.2 3.81 3.81 0 0 1 1.59.22 1.28 1.28 0 0 1 .62.66 3.36 3.36 0 0 1 .23 1.3 1.34 1.34 0 0 1-.4 1.1 1.93 1.93 0 0 1-1.24.33h-2.78c0 1.12.21 1.79.62 2a1.47 1.47 0 0 0 .8.17 22.32 22.32 0 0 0 2.88-.15v.5a10.57 10.57 0 0 1-2.82.34 2.33 2.33 0 0 1-1.33-.32zm-.15-3.22h2.78a1.36 1.36 0 0 0 .71-.15.69.69 0 0 0 .25-.62 3.4 3.4 0 0 0-.08-.78.76.76 0 0 0-.31-.46 1.15 1.15 0 0 0-.51-.21 5.48 5.48 0 0 0-.78 0h-.73a2.29 2.29 0 0 0-.5.09.88.88 0 0 0-.38.23 1.38 1.38 0 0 0-.25.39 4.13 4.13 0 0 0-.2 1.51zm.21-3.65l1.46-1.56h.65l1.32 1.56h-.64l-1-1-1.12 1zm6.98 1.07a6.15 6.15 0 0 1 .76-.29 3.56 3.56 0 0 1 1-.13 1.81 1.81 0 0 1 1 .28 2 2 0 0 1 .9 1.76v4.44h-.68v-4.44a1.34 1.34 0 0 0-.36-1 1.15 1.15 0 0 0-.88-.37 4.48 4.48 0 0 0-.94.09 3.61 3.61 0 0 0-.7.22q-.3.12-.84.39v5.1h-.69v-6.38h.47l.22.75c.29-.18.54-.32.74-.42zm4.86 2.87a8 8 0 0 1 .11-1.4 3.41 3.41 0 0 1 .28-.94 1.4 1.4 0 0 1 .45-.56 1.36 1.36 0 0 1 .57-.27 3.34 3.34 0 0 1 .69-.07 14.05 14.05 0 0 1 2.62.32v.48c-1-.08-1.76-.11-2.19-.11a6.53 6.53 0 0 0-.78 0 1.35 1.35 0 0 0-.3.08.78.78 0 0 0-.26.17 1.94 1.94 0 0 0-.21.3 1.85 1.85 0 0 0-.16.47 7.52 7.52 0 0 0-.13 1.58 5.71 5.71 0 0 0 .16 1.54 1.35 1.35 0 0 0 .47.76 1.29 1.29 0 0 0 .78.2 21.89 21.89 0 0 0 2.27-.13h.43v.51a11.13 11.13 0 0 1-2.7.35 1.71 1.71 0 0 1-1.7-.9 5.33 5.33 0 0 1-.4-2.38zm6-4.24v-.67c0-.17.08-.26.24-.26h.45c.15 0 .22.09.22.26v.67c0 .16-.07.24-.22.24H276a.2.2 0 0 1-.19-.09.3.3 0 0 1-.08-.15zm.1 7.43v-6.38h.68v6.38zm2.22-6.14a11.61 11.61 0 0 1 3-.36 1.89 1.89 0 0 1 1.3.46 1.77 1.77 0 0 1 .51 1.39v4.65h-.5l-.18-.77-.19.08-.48.21a6.59 6.59 0 0 1-.64.25 4.28 4.28 0 0 1-1.47.3 1.57 1.57 0 0 1-1.11-.42 1.53 1.53 0 0 1-.46-1.17v-.73a1.44 1.44 0 0 1 .75-1.4 1.75 1.75 0 0 1 .85-.19h2.75v-.81c0-.79-.41-1.19-1.24-1.19-.66 0-1.63.07-2.9.2zm.48 4.56a1 1 0 0 0 .25.74.91.91 0 0 0 .6.22 4.53 4.53 0 0 0 .71-.06l.73-.16c.49-.13.88-.25 1.18-.35l.19-.07v-2.07l-2.75.17a.86.86 0 0 0-.91 1zm9.05.19a4 4 0 0 1-.2-.86 6.86 6.86 0 0 1-.06-.94 9.25 9.25 0 0 1 0-.95 4.89 4.89 0 0 1 .19-.89 2.38 2.38 0 0 1 .36-.75 1.81 1.81 0 0 1 1.54-.69 6 6 0 0 1 1.13.13 6.41 6.41 0 0 1 1.23.35v-3.43h.66v9.42H292l-.21-.71a3.7 3.7 0 0 1-1 .5 3.72 3.72 0 0 1-1.29.28 2 2 0 0 1-.91-.2 1.83 1.83 0 0 1-.62-.51 2.63 2.63 0 0 1-.39-.75zm.43-1.74a3.61 3.61 0 0 0 .39 1.88 1.19 1.19 0 0 0 1.06.63 6 6 0 0 0 2.35-.58v-4.26a9.29 9.29 0 0 0-2.35-.33 1.19 1.19 0 0 0-1.19.78 5.23 5.23 0 0 0-.27 1.88zm6.78 2.87a1.67 1.67 0 0 1-.64-1 6.24 6.24 0 0 1-.19-1.67 13.89 13.89 0 0 1 .06-1.5 3.26 3.26 0 0 1 .21-.87 1.91 1.91 0 0 1 .34-.57 1.21 1.21 0 0 1 .52-.34 4.42 4.42 0 0 1 1.53-.2 3.81 3.81 0 0 1 1.59.22 1.28 1.28 0 0 1 .62.66 3 3 0 0 1 .23 1.19 1.92 1.92 0 0 1-.18 1 1.59 1.59 0 0 1-1.46.59h-2.78c0 1.12.21 1.79.62 2a1.47 1.47 0 0 0 .8.17 22.32 22.32 0 0 0 2.88-.15v.5a10.57 10.57 0 0 1-2.82.34 2.33 2.33 0 0 1-1.33-.37zm-.15-3.22h2.78a1.36 1.36 0 0 0 .71-.15.69.69 0 0 0 .25-.62 3.4 3.4 0 0 0-.08-.78.76.76 0 0 0-.31-.46 1.15 1.15 0 0 0-.51-.21 5.48 5.48 0 0 0-.78 0h-.73a2.19 2.19 0 0 0-.5.09.88.88 0 0 0-.38.23 1.38 1.38 0 0 0-.25.39 4.13 4.13 0 0 0-.2 1.51zm8.61-.84v-.56a1.58 1.58 0 0 1 .38-1.16 1.71 1.71 0 0 1 1.27-.4c.3 0 .79 0 1.48.06l1.54.11v.51h-3a1 1 0 0 0-.78.21 1 1 0 0 0-.19.67v.56c0 .38.09.62.27.7a1.75 1.75 0 0 0 .7.1h1.78a1.58 1.58 0 0 1 1.15.4 1.47 1.47 0 0 1 .41 1.09v.59a1.34 1.34 0 0 1-.5 1.24 1.81 1.81 0 0 1-1 .26c-.34 0-.91 0-1.7-.08s-1.31-.08-1.58-.12v-.49h3.17a.92.92 0 0 0 .58-.12.85.85 0 0 0 .29-.69v-.59q0-.81-.87-.81h-1.75a2.06 2.06 0 0 1-1.27-.3 1.43 1.43 0 0 1-.38-1.18zm6.19-3.11v-.67c0-.17.08-.26.24-.26h.44c.15 0 .23.09.23.26v.67a.21.21 0 0 1-.23.24h-.44a.19.19 0 0 1-.19-.09.23.23 0 0 1-.05-.15zm.09 7.43v-6.38h.69v6.38zm2.02-4.32v-.56a1.62 1.62 0 0 1 .38-1.16 1.73 1.73 0 0 1 1.28-.4q.43 0 1.47.06l1.54.11v.51h-3a1.08 1.08 0 0 0-.79.21 1 1 0 0 0-.19.67v.56c0 .38.09.62.27.7a1.81 1.81 0 0 0 .71.1H315a1.58 1.58 0 0 1 1.15.4 1.47 1.47 0 0 1 .41 1.09v.59A1.32 1.32 0 0 1 316 388a1.8 1.8 0 0 1-.94.26c-.35 0-.92 0-1.71-.08s-1.31-.08-1.58-.12v-.49H315a.9.9 0 0 0 .58-.12.86.86 0 0 0 .3-.69v-.59c0-.54-.29-.81-.88-.81h-1.79a2.09 2.09 0 0 1-1.28-.3 1.46 1.46 0 0 1-.38-1.19zm5.54-1.38V382l1.13-.18.18-1.82h.51v1.77h1.94v.69h-1.94v3.43a2.05 2.05 0 0 0 .27 1.26 1 1 0 0 0 .56.32c.61.14 1 .21 1 .21v.48h-1c-1 0-1.55-.76-1.55-2.27v-3.43zm5.66 5.44a1.67 1.67 0 0 1-.64-1 6.24 6.24 0 0 1-.19-1.67 13.89 13.89 0 0 1 .06-1.5 3.26 3.26 0 0 1 .21-.87 1.91 1.91 0 0 1 .34-.57 1.21 1.21 0 0 1 .52-.34 4.42 4.42 0 0 1 1.53-.2 3.81 3.81 0 0 1 1.59.22 1.28 1.28 0 0 1 .62.66 3 3 0 0 1 .21 1.18 1.92 1.92 0 0 1-.18 1 1.59 1.59 0 0 1-1.46.59h-2.76c0 1.12.21 1.79.62 2a1.47 1.47 0 0 0 .8.17 22.32 22.32 0 0 0 2.88-.15v.5a10.57 10.57 0 0 1-2.82.34 2.33 2.33 0 0 1-1.33-.36zm-.15-3.22h2.78a1.36 1.36 0 0 0 .71-.15.69.69 0 0 0 .25-.62 3.4 3.4 0 0 0-.08-.78.76.76 0 0 0-.26-.46 1.15 1.15 0 0 0-.51-.21 5.48 5.48 0 0 0-.78 0h-.73a2.19 2.19 0 0 0-.5.09.82.82 0 0 0-.38.23 1.38 1.38 0 0 0-.25.39 4.13 4.13 0 0 0-.25 1.51zm7.18-2.56a3.86 3.86 0 0 1 .73-.28 3.41 3.41 0 0 1 1-.14 2 2 0 0 1 1 .26 1.56 1.56 0 0 1 .68.69 4.6 4.6 0 0 1 1.22-.68 4.25 4.25 0 0 1 1.51-.27 1.77 1.77 0 0 1 1.34.58 2 2 0 0 1 .55 1.47v4.41h-.71v-4.41a1.4 1.4 0 0 0-.35-1 1.15 1.15 0 0 0-.89-.39 4.41 4.41 0 0 0-.94.09 4.5 4.5 0 0 0-1.59.65 2 2 0 0 1 .06.61v4.43h-.68v-4.41a1.36 1.36 0 0 0-.36-1 1.16 1.16 0 0 0-.88-.39 4.15 4.15 0 0 0-.92.09 4.07 4.07 0 0 0-.69.21c-.19.08-.47.22-.82.4v5.08h-.69v-6.38h.47l.22.76zm9.42-.1a11.61 11.61 0 0 1 3-.36 1.89 1.89 0 0 1 1.3.46 1.77 1.77 0 0 1 .51 1.39v4.65h-.5l-.18-.77-.19.08-.48.21a6.59 6.59 0 0 1-.66.29 4.28 4.28 0 0 1-1.47.3 1.6 1.6 0 0 1-1.11-.42 1.52 1.52 0 0 1-.45-1.17v-.73a1.43 1.43 0 0 1 .74-1.4 1.75 1.75 0 0 1 .85-.19h2.75v-.81c0-.79-.41-1.19-1.24-1.19-.66 0-1.63.07-2.9.2zm.48 4.56a1 1 0 0 0 .25.74.91.91 0 0 0 .6.22 4.66 4.66 0 0 0 .72-.06l.72-.16c.49-.13.88-.25 1.18-.35l.19-.07v-2.07l-2.75.17a.86.86 0 0 0-.91 1zm5.54-2.74v-.56a1.62 1.62 0 0 1 .38-1.16 1.73 1.73 0 0 1 1.28-.4q.45 0 1.47.06l1.54.11v.51h-3a1.08 1.08 0 0 0-.79.21 1 1 0 0 0-.18.67v.56c0 .38.08.62.26.7a1.81 1.81 0 0 0 .71.1h1.77a1.58 1.58 0 0 1 1.15.4 1.44 1.44 0 0 1 .42 1.09v.59a1.32 1.32 0 0 1-.51 1.24 1.77 1.77 0 0 1-.94.26c-.35 0-.92 0-1.71-.08s-1.31-.08-1.57-.12v-.49h3.16a.9.9 0 0 0 .58-.12.86.86 0 0 0 .3-.69v-.59c0-.54-.29-.81-.88-.81h-1.78a2.09 2.09 0 0 1-1.28-.3 1.46 1.46 0 0 1-.38-1.18z"/><path class="a" d="M238.09 259.47v-.76a2.15 2.15 0 0 1 .68-1.79 2.86 2.86 0 0 1 1.7-.48h.6a12.44 12.44 0 0 1 1.36.1 8.79 8.79 0 0 1 1.43.25v1.32c-.91-.08-1.64-.12-2.18-.12h-.87a1.74 1.74 0 0 0-.79.14c-.17.1-.25.34-.25.71v.43a.9.9 0 0 0 .2.68 1.22 1.22 0 0 0 .74.17h1.39a1.79 1.79 0 0 1 1.83 1.09 3.07 3.07 0 0 1 .24 1.23v.56a2.07 2.07 0 0 1-1.06 2.1 3.09 3.09 0 0 1-1.36.26 13.1 13.1 0 0 1-3.4-.35v-1.33c.88.09 1.65.14 2.31.14a11 11 0 0 0 1.14 0 1.35 1.35 0 0 0 .33-.09.63.63 0 0 0 .36-.64v-.47c0-.41-.13-.67-.39-.77a1.16 1.16 0 0 0-.4-.06h-1.34a2 2 0 0 1-2.27-2.32zm6.73-1.41v-1.55h6.49v1.55h-2.43v7.24h-1.68v-7.24zm8.09-1.22a1.92 1.92 0 0 1 .6-.25 2 2 0 0 1 .46-.08l1.74.05a18.62 18.62 0 0 1 2.32.15v1.39h-3.46c-.3 0-.48.07-.56.21a1.44 1.44 0 0 0-.07.46v1.37l3.55.12v1.39l-3.55.11v1.37c0 .3.09.49.25.55a1.36 1.36 0 0 0 .5.07H258v1.38c-.4.06-1.38.11-3 .17h-1.33a2.4 2.4 0 0 1-.49-.13 1.69 1.69 0 0 1-.51-.29 1.69 1.69 0 0 1-.48-1.33v-5.23a1.63 1.63 0 0 1 .72-1.48zm6.31 8.46v-8.79H263a2.3 2.3 0 0 1 1.9.74 3.08 3.08 0 0 1 .54 2 5.07 5.07 0 0 1-.16 1.32 2.35 2.35 0 0 1-.4.84 1.46 1.46 0 0 1-.59.45 2.41 2.41 0 0 1-1 .22c-.28 0-.73 0-1.35-.11s-1-.12-1-.13v3.48zm3.65-7.3h-2v2.57h2a.84.84 0 0 0 .47-.11c.27-.16.41-.57.41-1.22-.01-.82-.3-1.24-.88-1.24zm7.13 5.16v-4.44a2.19 2.19 0 0 1 .59-1.64 2.3 2.3 0 0 1 1.62-.57h2a1.85 1.85 0 0 1 2 1.32 3 3 0 0 1 .11.82v4.51a2.12 2.12 0 0 1-.56 1.59 2.14 2.14 0 0 1-1.58.55h-2a2.3 2.3 0 0 1-1.62-.54 2.06 2.06 0 0 1-.56-1.6zm1.68-.27c0 .57.3.86.9.86h1.16a1 1 0 0 0 .66-.19.83.83 0 0 0 .22-.66v-4c0-.57-.27-.86-.82-.86h-1.26a.78.78 0 0 0-.67.26 1 1 0 0 0-.19.6zm5.79-4.89v-1.25a20.82 20.82 0 0 1 3.65-.32 2.38 2.38 0 0 1 2 .81 2.92 2.92 0 0 1 .63 1.92q0 2-3.32 4.63h3.32v1.55h-6.16v-1.48a19.14 19.14 0 0 0 1.83-1.39c.58-.5 1-.92 1.39-1.27a6.28 6.28 0 0 0 .88-1.09 1.86 1.86 0 0 0 .36-.95 1.29 1.29 0 0 0-.14-.66c-.19-.34-.62-.5-1.3-.5z"/><path class="c" d="M238.22 278.09c0-1.84.29-3.08.86-3.71a2.71 2.71 0 0 1 2.07-.76q.46 0 1.32.09c.58.06 1.07.13 1.49.21v.52h-2.77a2.32 2.32 0 0 0-1.3.31c-.63.42-.95 1.58-.95 3.49q0 3.78 2.25 3.78c.79 0 1.67 0 2.64-.1h.17v.53c-.4.07-.89.14-1.46.19s-1 .08-1.35.08q-2.97-.14-2.97-4.63zm6.78 3.75a2.28 2.28 0 0 1-.44-1 7.84 7.84 0 0 1-.13-1.67 5.21 5.21 0 0 1 .27-1.82 1.77 1.77 0 0 1 .85-1 3.62 3.62 0 0 1 1.63-.3 2.63 2.63 0 0 1 2.15.74 4.13 4.13 0 0 1 .6 2.56 3.89 3.89 0 0 1-.6 2.5 2.73 2.73 0 0 1-2.15.69 4.24 4.24 0 0 1-1.34-.17 1.7 1.7 0 0 1-.84-.53zm.35-4.22a3.21 3.21 0 0 0-.18.74 7.08 7.08 0 0 0 0 .95v.85a3 3 0 0 0 .1.59 2.61 2.61 0 0 0 .16.43 1 1 0 0 0 .23.31 2.17 2.17 0 0 0 .29.2 1.17 1.17 0 0 0 .36.12 4.89 4.89 0 0 0 .81.07 6.49 6.49 0 0 0 .71 0 2.36 2.36 0 0 0 .51-.12 1.07 1.07 0 0 0 .41-.26 1.66 1.66 0 0 0 .25-.5 3.22 3.22 0 0 0 .24-1.36 10.56 10.56 0 0 0 0-1.29 3.18 3.18 0 0 0-.17-.72 1.71 1.71 0 0 0-.27-.47.94.94 0 0 0-.41-.28 2 2 0 0 0-.52-.12 4 4 0 0 0-.65 0 5.29 5.29 0 0 0-.63 0 2 2 0 0 0-.51.11.89.89 0 0 0-.4.27 1.44 1.44 0 0 0-.3.48zm7.51-1.17a4.88 4.88 0 0 1 .76-.29 3.55 3.55 0 0 1 1-.14 1.87 1.87 0 0 1 1 .29 2 2 0 0 1 .9 1.75v4.44h-.68v-4.44a1.37 1.37 0 0 0-.36-1 1.18 1.18 0 0 0-.88-.36 4.48 4.48 0 0 0-.94.09 4.52 4.52 0 0 0-.7.21l-.84.39v5.1h-.69v-6.37h.47l.22.75c.29-.18.54-.32.74-.42zm4.45.35v-.5l1.13-.18.18-1.78h.51v1.78h1.94v.68h-1.94v3.44a2.05 2.05 0 0 0 .27 1.26 1.06 1.06 0 0 0 .55.32 10.2 10.2 0 0 0 1 .2v.48h-1c-1 0-1.55-.75-1.55-2.26v-3.44zm4.96 5.7v-6.37h.47l.21.8a1 1 0 0 0 .22-.12l.23-.13.21-.12.24-.12.23-.1a1.07 1.07 0 0 1 .25-.1l.24-.07a1 1 0 0 1 .27-.06 6.06 6.06 0 0 1 .79-.05 1.65 1.65 0 0 1 .67.1v.67a3.08 3.08 0 0 0-.68-.08h-.75a.85.85 0 0 0-.25 0 1.07 1.07 0 0 1-.23 0 .93.93 0 0 0-.24.07l-.21.09-.24.1-.23.1-.25.13-.27.12v5zm5.3-.66a2.29 2.29 0 0 1-.45-1 8.72 8.72 0 0 1-.12-1.64 5.21 5.21 0 0 1 .27-1.82 1.73 1.73 0 0 1 .85-1 3.6 3.6 0 0 1 1.62-.3 2.67 2.67 0 0 1 2.16.74 4.2 4.2 0 0 1 .59 2.56 4 4 0 0 1-.59 2.5 2.77 2.77 0 0 1-2.16.69 4.13 4.13 0 0 1-1.33-.17 1.7 1.7 0 0 1-.84-.56zm.34-4.22a3.21 3.21 0 0 0-.18.74 9.25 9.25 0 0 0 0 .95v.85a3 3 0 0 0 .1.59 2.61 2.61 0 0 0 .16.43.92.92 0 0 0 .24.31 1.37 1.37 0 0 0 .29.2 1 1 0 0 0 .36.12 4.89 4.89 0 0 0 .81.07 6.29 6.29 0 0 0 .7 0 2.11 2.11 0 0 0 .51-.12 1 1 0 0 0 .41-.26 1.45 1.45 0 0 0 .28-.44 3.22 3.22 0 0 0 .24-1.36 10.12 10.12 0 0 0-.06-1.29 2.72 2.72 0 0 0-.17-.72 1.71 1.71 0 0 0-.27-.47.94.94 0 0 0-.41-.28 1.89 1.89 0 0 0-.51-.12 4 4 0 0 0-.65 0 5.6 5.6 0 0 0-.64 0 1.88 1.88 0 0 0-.5.11.92.92 0 0 0-.41.27 1.92 1.92 0 0 0-.3.42zm6.09 2.62v-7.13h.68v7.13a2 2 0 0 0 .28 1.26 1 1 0 0 0 .55.32c.61.14 1 .22 1 .22v.46h-1c-1.04 0-1.51-.75-1.51-2.26zm3.76 2.01a1.74 1.74 0 0 1-.64-1 6.27 6.27 0 0 1-.19-1.68 13.81 13.81 0 0 1 .06-1.49 3.26 3.26 0 0 1 .21-.87 2.12 2.12 0 0 1 .35-.58 1.19 1.19 0 0 1 .51-.33 4.41 4.41 0 0 1 1.54-.21 3.74 3.74 0 0 1 1.58.23 1.28 1.28 0 0 1 .62.66 2.83 2.83 0 0 1 .23 1.18 1.94 1.94 0 0 1-.18 1 1.58 1.58 0 0 1-1.46.59h-2.77c0 1.12.2 1.79.61 2a1.56 1.56 0 0 0 .8.17 20.23 20.23 0 0 0 2.88-.16v.51a10.6 10.6 0 0 1-2.82.33 2.34 2.34 0 0 1-1.33-.35zm-.14-3.23h2.77a1.36 1.36 0 0 0 .71-.15c.17-.1.25-.3.25-.62a3.25 3.25 0 0 0-.08-.77.81.81 0 0 0-.27-.48 1.37 1.37 0 0 0-.52-.2 5.32 5.32 0 0 0-.77 0 7.32 7.32 0 0 0-.74 0 2.29 2.29 0 0 0-.5.09.93.93 0 0 0-.38.22 1.62 1.62 0 0 0-.25.4 4.12 4.12 0 0 0-.22 1.49zm10.74-2.74a4.64 4.64 0 0 1 1.21-.22 1.7 1.7 0 0 1 .83.2 1.7 1.7 0 0 1 .61.51 2.3 2.3 0 0 1 .38.75 4.57 4.57 0 0 1 .27 1.53c0 .52 0 .92-.05 1.21a4.72 4.72 0 0 1-.19.89 2.62 2.62 0 0 1-.37.75 1.79 1.79 0 0 1-1.54.7 5.69 5.69 0 0 1-1.32-.17 10.48 10.48 0 0 1-1.05-.31v3.61h-.66v-9.6h.52l.19.71a3.27 3.27 0 0 1 1.17-.56zm1.15 5.64a1.22 1.22 0 0 0 1-.52 3.43 3.43 0 0 0 .42-2 4.12 4.12 0 0 0-.39-2.05 1.23 1.23 0 0 0-1.07-.64 6 6 0 0 0-2.35.59v4.26a9.29 9.29 0 0 0 2.39.36zm3.93-.08a2.42 2.42 0 0 1-.45-1 8.72 8.72 0 0 1-.12-1.67 5.21 5.21 0 0 1 .27-1.82 1.73 1.73 0 0 1 .85-1 3.62 3.62 0 0 1 1.63-.3 2.64 2.64 0 0 1 2.15.74 4.13 4.13 0 0 1 .59 2.56 3.89 3.89 0 0 1-.59 2.5 2.74 2.74 0 0 1-2.15.69 4.2 4.2 0 0 1-1.34-.17 1.7 1.7 0 0 1-.84-.53zm.35-4.22a2.43 2.43 0 0 0-.18.74 7 7 0 0 0-.06.95v.85a4 4 0 0 0 .1.59 2.57 2.57 0 0 0 .17.43.9.9 0 0 0 .23.31 1.68 1.68 0 0 0 .29.2 1 1 0 0 0 .36.12 4.89 4.89 0 0 0 .81.07 6.62 6.62 0 0 0 .71 0 2.36 2.36 0 0 0 .51-.12 1 1 0 0 0 .4-.26 1.45 1.45 0 0 0 .28-.44 3.22 3.22 0 0 0 .24-1.36c0-.58 0-1-.05-1.29a3.15 3.15 0 0 0-.18-.72 1.71 1.71 0 0 0-.27-.47.88.88 0 0 0-.41-.28 1.89 1.89 0 0 0-.51-.12 4 4 0 0 0-.65 0 5.6 5.6 0 0 0-.64 0 1.88 1.88 0 0 0-.5.11.92.92 0 0 0-.41.27 1.64 1.64 0 0 0-.24.42zm6.04 4.88v-6.37h.47l.21.8a1 1 0 0 0 .22-.12l.23-.13.21-.12.24-.12.22-.1a1.3 1.3 0 0 1 .26-.1l.24-.07a1 1 0 0 1 .27-.06 6.06 6.06 0 0 1 .79-.05 1.68 1.68 0 0 1 .67.1v.67a3.08 3.08 0 0 0-.68-.08h-.75a.81.81 0 0 0-.25 0 1.07 1.07 0 0 1-.23 0 .93.93 0 0 0-.24.07l-.21.09-.24.1-.23.1-.25.13-.27.12v5zm8.09-3.19a8.12 8.12 0 0 1 .1-1.4 4.38 4.38 0 0 1 .28-.95 1.37 1.37 0 0 1 .45-.55 1.48 1.48 0 0 1 .57-.27 2.8 2.8 0 0 1 .7-.07 13.82 13.82 0 0 1 2.61.31v.48c-1-.07-1.76-.11-2.18-.11h-.78a1.14 1.14 0 0 0-.3.09.83.83 0 0 0-.27.17 1.29 1.29 0 0 0-.21.3 2.34 2.34 0 0 0-.16.47 7.46 7.46 0 0 0-.13 1.58 5.7 5.7 0 0 0 .17 1.54 1.32 1.32 0 0 0 .46.76 1.42 1.42 0 0 0 .79.2c.65 0 1.41 0 2.26-.13h.44v.5a10.34 10.34 0 0 1-2.7.35 1.73 1.73 0 0 1-1.71-.9 5.45 5.45 0 0 1-.39-2.37zm5.76.1a8 8 0 0 1 .13-1.62 2.21 2.21 0 0 1 .48-1 1.7 1.7 0 0 1 .84-.54 4.23 4.23 0 0 1 1.29-.16 2.67 2.67 0 0 1 2.16.74 4.2 4.2 0 0 1 .59 2.56 4 4 0 0 1-.59 2.5 2.77 2.77 0 0 1-2.16.69 2.72 2.72 0 0 1-2.16-.7 3.89 3.89 0 0 1-.58-2.47zm.91-1.79a3.21 3.21 0 0 0-.18.74 9.25 9.25 0 0 0 0 .95v.85a3 3 0 0 0 .1.59 2.61 2.61 0 0 0 .16.43.92.92 0 0 0 .24.31 1.37 1.37 0 0 0 .29.2 1 1 0 0 0 .36.12 5.11 5.11 0 0 0 .85.07 5.39 5.39 0 0 0 .78 0 1.67 1.67 0 0 0 .57-.19 1 1 0 0 0 .42-.42 3.85 3.85 0 0 0 .33-1.82 4.85 4.85 0 0 0-.23-1.75 1.71 1.71 0 0 0-.27-.47.94.94 0 0 0-.41-.28 1.89 1.89 0 0 0-.51-.12 4 4 0 0 0-.65 0 5.6 5.6 0 0 0-.64 0 1.88 1.88 0 0 0-.5.11.92.92 0 0 0-.41.27 1.92 1.92 0 0 0-.3.41zm1.53-2.27l1.34-1.6h.86l-1.6 1.6zm4.52 5.77a3.91 3.91 0 0 1-.2-.87 6.61 6.61 0 0 1-.06-.93 9.25 9.25 0 0 1 0-.95 5.9 5.9 0 0 1 .19-.89 2.19 2.19 0 0 1 .37-.75 1.78 1.78 0 0 1 1.58-.73 6.18 6.18 0 0 1 1.14.13 6.32 6.32 0 0 1 1.22.34v-3.43h.67v9.42h-.47l-.21-.71a3.44 3.44 0 0 1-1 .51 4.07 4.07 0 0 1-1.29.28 2 2 0 0 1-.92-.2 1.83 1.83 0 0 1-.62-.51 2.63 2.63 0 0 1-.4-.71zm.43-1.74a3.64 3.64 0 0 0 .39 1.88 1.19 1.19 0 0 0 1.06.63 5.79 5.79 0 0 0 2.35-.59V277a9.72 9.72 0 0 0-2.35-.32 1.19 1.19 0 0 0-1.19.78 5.23 5.23 0 0 0-.26 1.92zm5.93-4.3v-.68a.22.22 0 0 1 .24-.25h.45c.15 0 .22.09.22.25v.68c0 .16-.07.23-.22.23h-.43c-.09 0-.16 0-.19-.08a.37.37 0 0 1-.07-.15zm.1 7.42v-6.37h.7v6.37zm2.13-1.4a.94.94 0 0 1 .82-.94 1.81 1.81 0 0 1-.82-1.78c0-1.52.69-2.27 2.07-2.27h3.75v.5l-1.09.18.07.1.1.14.09.14a1.65 1.65 0 0 1 .09.21c0 .07 0 .16.07.26a2.38 2.38 0 0 1 .07.63 5 5 0 0 1 0 .61 3.39 3.39 0 0 1-.17.59 2.3 2.3 0 0 1-.33.57 1.62 1.62 0 0 1-.58.41 2.06 2.06 0 0 1-.86.17h-1.91a.8.8 0 0 0-.51.14.43.43 0 0 0-.18.36.39.39 0 0 0 .2.34.77.77 0 0 0 .45.13h2.53a1.58 1.58 0 0 1 1.19.44 1.65 1.65 0 0 1 .42 1.19v.71a1.93 1.93 0 0 1-.31 1.18 1.33 1.33 0 0 1-.71.52 2.63 2.63 0 0 1-.78.11h-1.8a1.75 1.75 0 0 1-1.66-.82 2.09 2.09 0 0 1-.25-1v-1l.37-1a.93.93 0 0 1-.33-.82zm1.34 1.16a1.21 1.21 0 0 1-.68-.18v1.81a1 1 0 0 0 .44 1 1.6 1.6 0 0 0 .77.19h1.8a1 1 0 0 0 1.1-1.15v-.67a1.16 1.16 0 0 0-.22-.75 1.1 1.1 0 0 0-.82-.25zm-.36-5a2 2 0 0 0-.3 1.14 1.9 1.9 0 0 0 .32 1.14 1.14 1.14 0 0 0 1 .43h1.19a1.22 1.22 0 0 0 1.3-1 1.86 1.86 0 0 0 0-.48c0-1.09-.39-1.63-1.18-1.63h-1.27a1.19 1.19 0 0 0-1.06.36zm6.05 4.58a2.18 2.18 0 0 1-.45-1 8.56 8.56 0 0 1-.13-1.67 5 5 0 0 1 .28-1.82 1.7 1.7 0 0 1 .85-1 3.57 3.57 0 0 1 1.62-.3 2.67 2.67 0 0 1 2.16.74 4.2 4.2 0 0 1 .59 2.56 4 4 0 0 1-.59 2.5 2.77 2.77 0 0 1-2.16.69 4.24 4.24 0 0 1-1.34-.17 1.72 1.72 0 0 1-.83-.53zm.34-4.22a3.21 3.21 0 0 0-.18.74 9.25 9.25 0 0 0-.05.95v.85a3 3 0 0 0 .1.59 2.61 2.61 0 0 0 .16.43.92.92 0 0 0 .24.31 1.62 1.62 0 0 0 .28.2 1.15 1.15 0 0 0 .37.12 4.76 4.76 0 0 0 .8.07 6.49 6.49 0 0 0 .71 0 2.36 2.36 0 0 0 .51-.12 1 1 0 0 0 .41-.26 1.45 1.45 0 0 0 .28-.44 3.22 3.22 0 0 0 .24-1.36 10.12 10.12 0 0 0-.06-1.29 2.72 2.72 0 0 0-.17-.72 1.71 1.71 0 0 0-.27-.47.94.94 0 0 0-.41-.28 1.87 1.87 0 0 0-.52-.12 3.82 3.82 0 0 0-.64 0 5.48 5.48 0 0 0-.64 0 1.88 1.88 0 0 0-.5.11.87.87 0 0 0-.41.27 1.92 1.92 0 0 0-.25.42zm9.28 3.5a4.52 4.52 0 0 1-.19-.87 6.61 6.61 0 0 1-.06-.93 9.25 9.25 0 0 1 .05-.95 4.17 4.17 0 0 1 .19-.89 2.38 2.38 0 0 1 .36-.75 1.81 1.81 0 0 1 1.54-.69 6.09 6.09 0 0 1 1.13.13 6.43 6.43 0 0 1 1.23.34v-3.43h.66v9.42h-.47l-.2-.71a3.4 3.4 0 0 1-1 .51 4.07 4.07 0 0 1-1.29.28 2 2 0 0 1-.91-.2 1.74 1.74 0 0 1-.62-.51 2.93 2.93 0 0 1-.42-.75zm.44-1.74a3.64 3.64 0 0 0 .39 1.88 1.19 1.19 0 0 0 1.06.63 5.82 5.82 0 0 0 2.35-.59V277a9.72 9.72 0 0 0-2.35-.32 1.19 1.19 0 0 0-1.19.78 5 5 0 0 0-.26 1.92zm6.78 2.87a1.7 1.7 0 0 1-.64-1 6.27 6.27 0 0 1-.19-1.68 13.81 13.81 0 0 1 .06-1.49 3.26 3.26 0 0 1 .21-.87 2.11 2.11 0 0 1 .34-.58 1.29 1.29 0 0 1 .52-.33 4.38 4.38 0 0 1 1.53-.21 3.76 3.76 0 0 1 1.59.23 1.28 1.28 0 0 1 .62.66 3 3 0 0 1 .23 1.18 1.94 1.94 0 0 1-.18 1 1.6 1.6 0 0 1-1.47.59H353c0 1.12.21 1.79.61 2a1.63 1.63 0 0 0 .81.17 20.42 20.42 0 0 0 2.88-.16v.51a10.6 10.6 0 0 1-2.82.33 2.31 2.31 0 0 1-1.38-.35zM353 279h2.77a1.4 1.4 0 0 0 .72-.15.67.67 0 0 0 .24-.62 3.31 3.31 0 0 0-.07-.77.87.87 0 0 0-.31-.47 1.27 1.27 0 0 0-.51-.2 5.48 5.48 0 0 0-.78 0 7.1 7.1 0 0 0-.73 0 2.19 2.19 0 0 0-.5.09.81.81 0 0 0-.38.22 1.63 1.63 0 0 0-.26.4 4.35 4.35 0 0 0-.19 1.5zm8.82 3.5v-9.42h.66v3.43a6.43 6.43 0 0 1 1.23-.34 6.09 6.09 0 0 1 1.13-.13 2.49 2.49 0 0 1 .8.12 1.52 1.52 0 0 1 .57.37 3 3 0 0 1 .39.55 3.19 3.19 0 0 1 .24.68 6.88 6.88 0 0 1 .15 1.4 10.52 10.52 0 0 1-.05 1.09 3.94 3.94 0 0 1-.21.87 2.64 2.64 0 0 1-.38.75 1.74 1.74 0 0 1-.62.51 2 2 0 0 1-.91.2 4 4 0 0 1-1.28-.28 3.62 3.62 0 0 1-1-.51l-.19.71zm3-.61a1.2 1.2 0 0 0 1.07-.64 3.61 3.61 0 0 0 .4-1.9 3.72 3.72 0 0 0-.42-2.11 1.21 1.21 0 0 0-1-.52 9.79 9.79 0 0 0-2.35.32v4.26a5.82 5.82 0 0 0 2.32.59zm3.58-5.52a11.61 11.61 0 0 1 3-.36 1.85 1.85 0 0 1 1.3.46 1.77 1.77 0 0 1 .51 1.39v4.64h-.5l-.18-.76a.85.85 0 0 0-.2.08l-.47.21-.64.25a4.63 4.63 0 0 1-1.47.3 1.61 1.61 0 0 1-1.11-.42 1.49 1.49 0 0 1-.46-1.17v-.73a1.47 1.47 0 0 1 .75-1.41 1.87 1.87 0 0 1 .85-.19h2.75v-.8a1.08 1.08 0 0 0-1.24-1.19c-.67 0-1.63.07-2.9.19zm.48 4.56a.92.92 0 0 0 .25.73.84.84 0 0 0 .6.23 4.53 4.53 0 0 0 .71-.06c.25-.05.5-.1.73-.17a10.27 10.27 0 0 0 1.17-.35l.2-.07v-2.06l-2.75.17a.86.86 0 0 0-.91 1zm5.8 1.57v-6.37h.47l.22.8a1.08 1.08 0 0 0 .21-.12l.24-.13.21-.12.23-.12a1.57 1.57 0 0 0 .23-.1 1.27 1.27 0 0 1 .25-.1l.24-.07a1 1 0 0 1 .27-.06 6.18 6.18 0 0 1 .79-.05 1.74 1.74 0 0 1 .68.1v.67a3.25 3.25 0 0 0-.69-.08h-.74a.92.92 0 0 0-.26 0 .91.91 0 0 1-.22 0 .93.93 0 0 0-.24.07l-.22.09-.24.1-.22.1-.26.13-.26.12v5zm5.1 0v-6.37h.47l.22.8a1.08 1.08 0 0 0 .21-.12l.24-.13.21-.12.23-.12a1.57 1.57 0 0 0 .23-.1 1.27 1.27 0 0 1 .25-.1l.24-.07a1 1 0 0 1 .27-.06 6.18 6.18 0 0 1 .79-.05 1.74 1.74 0 0 1 .68.1v.67a3.25 3.25 0 0 0-.69-.08h-.74a.92.92 0 0 0-.26 0 .91.91 0 0 1-.22 0 .93.93 0 0 0-.24.07l-.22.09-.24.1-.22.1-.26.13-.26.12v5zm5.04-6.13a11.69 11.69 0 0 1 3-.36 1.86 1.86 0 0 1 1.3.46 1.77 1.77 0 0 1 .51 1.39v4.64h-.51l-.18-.76-.19.08-.47.21-.64.25a4.63 4.63 0 0 1-1.47.3 1.61 1.61 0 0 1-1.11-.42 1.49 1.49 0 0 1-.46-1.17v-.73a1.48 1.48 0 0 1 .74-1.41 1.91 1.91 0 0 1 .86-.19h2.8v-.8a1.07 1.07 0 0 0-1.23-1.19c-.67 0-1.64.07-2.91.19zm.48 4.56a1 1 0 0 0 .25.73.88.88 0 0 0 .61.23 4.53 4.53 0 0 0 .71-.06c.25-.05.49-.1.72-.17a11.23 11.23 0 0 0 1.18-.35l.19-.07v-2.06l-2.74.17a.87.87 0 0 0-.92 1zm5.55-2.75v-.55a1.62 1.62 0 0 1 .37-1.16 1.71 1.71 0 0 1 1.28-.4c.3 0 .79 0 1.48.06l1.53.11v.5h-3a1 1 0 0 0-.78.21 1 1 0 0 0-.19.68v.55c0 .39.09.62.26.71a1.84 1.84 0 0 0 .71.1h1.78a1.54 1.54 0 0 1 1.14.4 1.43 1.43 0 0 1 .42 1.08v.59a1.33 1.33 0 0 1-.51 1.25 1.76 1.76 0 0 1-.94.25c-.35 0-.91 0-1.7-.07s-1.32-.09-1.58-.12v-.49h3.17a.88.88 0 0 0 .57-.12.87.87 0 0 0 .3-.7v-.59c0-.53-.29-.8-.87-.8h-1.79a2.11 2.11 0 0 1-1.28-.3 1.47 1.47 0 0 1-.37-1.19zm6.73 5.22a1 1 0 0 1-.24.08h-.33v-.27c.19 0 .28-.11.28-.31v-.39h-.1c-.16 0-.24-.08-.24-.25v-.68q0-.27.24-.27h.44q.24 0 .24.27v1.17c.02.34-.08.56-.29.65zm-157.85 10.05a4.88 4.88 0 0 1 .76-.29 3.55 3.55 0 0 1 1-.14 1.82 1.82 0 0 1 1 .29 2 2 0 0 1 .9 1.75v4.44h-.68v-4.44a1.37 1.37 0 0 0-.36-1 1.18 1.18 0 0 0-.88-.36 4.48 4.48 0 0 0-.94.09 4.52 4.52 0 0 0-.7.21l-.84.39v5.1h-.69v-6.37h.47l.22.75c.29-.18.54-.32.74-.42zm5.69 5.8a1.74 1.74 0 0 1-.64-1 6.27 6.27 0 0 1-.19-1.68 13.81 13.81 0 0 1 .06-1.49 3.26 3.26 0 0 1 .21-.87 2.4 2.4 0 0 1 .34-.58 1.29 1.29 0 0 1 .52-.33 4.41 4.41 0 0 1 1.54-.21 3.74 3.74 0 0 1 1.58.23 1.28 1.28 0 0 1 .62.66 2.83 2.83 0 0 1 .23 1.18 1.94 1.94 0 0 1-.18 1 1.59 1.59 0 0 1-1.46.59h-2.77c0 1.12.2 1.79.61 2a1.56 1.56 0 0 0 .8.17 20.23 20.23 0 0 0 2.88-.16v.51a10.6 10.6 0 0 1-2.82.33 2.34 2.34 0 0 1-1.33-.35zm-.14-3.23h2.77a1.36 1.36 0 0 0 .71-.15c.17-.1.25-.3.25-.62a3.25 3.25 0 0 0-.08-.77.77.77 0 0 0-.31-.47 1.27 1.27 0 0 0-.51-.2 5.39 5.39 0 0 0-.78 0 7.21 7.21 0 0 0-.73 0 2.29 2.29 0 0 0-.5.09.93.93 0 0 0-.38.22 1.62 1.62 0 0 0-.25.4 4.12 4.12 0 0 0-.19 1.48zm5.61.29a8 8 0 0 1 .11-1.4 3.49 3.49 0 0 1 .28-.95 1.37 1.37 0 0 1 .45-.55 1.36 1.36 0 0 1 .57-.27 2.77 2.77 0 0 1 .69-.07 13.91 13.91 0 0 1 2.62.31v.48c-1-.07-1.76-.11-2.19-.11h-.78a1.42 1.42 0 0 0-.3.09.78.78 0 0 0-.26.17 1.29 1.29 0 0 0-.21.3 1.85 1.85 0 0 0-.16.47 7.46 7.46 0 0 0-.13 1.58 5.76 5.76 0 0 0 .16 1.54 1.38 1.38 0 0 0 .47.76 1.36 1.36 0 0 0 .78.2c.66 0 1.41 0 2.27-.13h.43v.5a10.23 10.23 0 0 1-2.7.35 1.71 1.71 0 0 1-1.7-.9 5.28 5.28 0 0 1-.4-2.37zm6.59 2.94a1.74 1.74 0 0 1-.64-1 6.27 6.27 0 0 1-.19-1.68 13.81 13.81 0 0 1 .06-1.49 3.26 3.26 0 0 1 .21-.87 2.4 2.4 0 0 1 .34-.58 1.29 1.29 0 0 1 .52-.33 4.41 4.41 0 0 1 1.54-.21 3.74 3.74 0 0 1 1.58.23 1.28 1.28 0 0 1 .62.66 2.83 2.83 0 0 1 .23 1.18 1.94 1.94 0 0 1-.18 1 1.59 1.59 0 0 1-1.46.59h-2.77c0 1.12.2 1.79.61 2a1.56 1.56 0 0 0 .8.17 20.23 20.23 0 0 0 2.88-.16v.51a10.6 10.6 0 0 1-2.82.33 2.34 2.34 0 0 1-1.33-.35zm-.14-3.23h2.77a1.36 1.36 0 0 0 .71-.15c.17-.1.25-.3.25-.62a3.25 3.25 0 0 0-.08-.77.77.77 0 0 0-.31-.47 1.27 1.27 0 0 0-.51-.2 5.39 5.39 0 0 0-.78 0 7.21 7.21 0 0 0-.73 0 2.29 2.29 0 0 0-.5.09.93.93 0 0 0-.38.22 1.62 1.62 0 0 0-.25.4 4.12 4.12 0 0 0-.19 1.48zm5.48-.84v-.55a1.62 1.62 0 0 1 .38-1.16 1.69 1.69 0 0 1 1.28-.4q.44 0 1.47.06l1.54.11v.5h-3a1.07 1.07 0 0 0-.79.21 1 1 0 0 0-.19.68v.55c0 .39.09.62.27.71a1.81 1.81 0 0 0 .71.1h1.77a1.58 1.58 0 0 1 1.15.4 1.46 1.46 0 0 1 .41 1.08v.59a1.35 1.35 0 0 1-.5 1.25 1.79 1.79 0 0 1-.94.25c-.35 0-.92 0-1.71-.07l-1.58-.12v-.49h3.17a.9.9 0 0 0 .58-.12.87.87 0 0 0 .3-.7v-.59c0-.53-.29-.8-.88-.8h-1.77a2.09 2.09 0 0 1-1.28-.3 1.47 1.47 0 0 1-.39-1.19zm5.94 0v-.55a1.62 1.62 0 0 1 .38-1.16 1.69 1.69 0 0 1 1.28-.4q.44 0 1.47.06l1.54.11v.5h-3a1.07 1.07 0 0 0-.79.21 1 1 0 0 0-.19.68v.55c0 .39.09.62.27.71a1.81 1.81 0 0 0 .71.1h1.77a1.58 1.58 0 0 1 1.15.4 1.46 1.46 0 0 1 .41 1.08v.59a1.35 1.35 0 0 1-.5 1.25 1.79 1.79 0 0 1-.94.25c-.35 0-.92 0-1.71-.07l-1.58-.12v-.49h3.17a.9.9 0 0 0 .58-.12.87.87 0 0 0 .3-.7v-.59c0-.53-.29-.8-.88-.8h-1.77a2.09 2.09 0 0 1-1.28-.3 1.47 1.47 0 0 1-.39-1.19zm6.24-3.1v-.68a.22.22 0 0 1 .24-.25h.45c.15 0 .22.09.22.25v.68c0 .16-.07.23-.22.23h-.45c-.09 0-.16 0-.19-.08a.37.37 0 0 1-.05-.15zm.1 7.42v-6.37h.68v6.37zm1.69-5.7v-.5l1.13-.18.18-1.78h.5v1.78h1.94v.68h-1.94v3.44a2 2 0 0 0 .28 1.26 1 1 0 0 0 .55.32 9.62 9.62 0 0 0 1 .2v.48h-1c-1 0-1.54-.75-1.54-2.26v-3.44zm4.89-.43a11.69 11.69 0 0 1 3-.36 1.86 1.86 0 0 1 1.3.46 1.77 1.77 0 0 1 .51 1.39v4.64H286l-.18-.76-.19.08-.47.21-.64.25a4.63 4.63 0 0 1-1.47.3 1.61 1.61 0 0 1-1.11-.42 1.49 1.49 0 0 1-.46-1.17v-.73a1.48 1.48 0 0 1 .74-1.41 1.91 1.91 0 0 1 .86-.19h2.74v-.8a1.07 1.07 0 0 0-1.23-1.19c-.67 0-1.63.07-2.91.19zm.48 4.56a.92.92 0 0 0 .26.73.84.84 0 0 0 .6.23 4.53 4.53 0 0 0 .71-.06c.25-.05.49-.1.73-.17a10.94 10.94 0 0 0 1.17-.35l.19-.07v-2.06l-2.74.17a.87.87 0 0 0-.92 1zm9.05.19a5.46 5.46 0 0 1-.2-.87 8.7 8.7 0 0 1-.05-.93 7.08 7.08 0 0 1 .05-.95 4.85 4.85 0 0 1 .18-.89 2.62 2.62 0 0 1 .37-.75 1.79 1.79 0 0 1 1.53-.69 6.09 6.09 0 0 1 1.14.13 6.43 6.43 0 0 1 1.23.34v-3.43h.66v9.42h-.47l-.2-.71a3.53 3.53 0 0 1-1 .51 4.07 4.07 0 0 1-1.29.28 2 2 0 0 1-.91-.2 1.74 1.74 0 0 1-.62-.51 2.64 2.64 0 0 1-.42-.75zm.43-1.74a3.64 3.64 0 0 0 .39 1.88 1.2 1.2 0 0 0 1.06.63 5.83 5.83 0 0 0 2.36-.59V294a9.8 9.8 0 0 0-2.36-.32 1.17 1.17 0 0 0-1.18.78 5 5 0 0 0-.27 1.92zm6.78 2.87a1.79 1.79 0 0 1-.64-1 6.71 6.71 0 0 1-.19-1.68 11.24 11.24 0 0 1 .07-1.49 2.65 2.65 0 0 1 .21-.87 2.11 2.11 0 0 1 .34-.58 1.33 1.33 0 0 1 .51-.33 4.41 4.41 0 0 1 1.54-.21 3.71 3.71 0 0 1 1.58.23 1.3 1.3 0 0 1 .63.66 3 3 0 0 1 .23 1.18 1.92 1.92 0 0 1-.19 1 1.58 1.58 0 0 1-1.46.59h-2.77c0 1.12.2 1.79.61 2a1.6 1.6 0 0 0 .81.17 20.42 20.42 0 0 0 2.88-.16v.51a10.7 10.7 0 0 1-2.82.33 2.37 2.37 0 0 1-1.34-.35zm-.14-3.23h2.77a1.36 1.36 0 0 0 .71-.15c.17-.1.25-.3.25-.62a3.25 3.25 0 0 0-.08-.77.81.81 0 0 0-.3-.47 1.37 1.37 0 0 0-.52-.2 5.32 5.32 0 0 0-.77 0 7.32 7.32 0 0 0-.74 0 2.11 2.11 0 0 0-.49.09.91.91 0 0 0-.39.22 1.62 1.62 0 0 0-.25.4 4.12 4.12 0 0 0-.19 1.48zm9.31 2.82a2.18 2.18 0 0 1-.45-1 8.56 8.56 0 0 1-.14-1.64 5 5 0 0 1 .28-1.82 1.73 1.73 0 0 1 .85-1 3.57 3.57 0 0 1 1.62-.3 2.67 2.67 0 0 1 2.16.74 4.2 4.2 0 0 1 .59 2.56 4 4 0 0 1-.59 2.5 2.77 2.77 0 0 1-2.16.69 4.13 4.13 0 0 1-1.33-.17 1.7 1.7 0 0 1-.83-.56zm.34-4.22a3.21 3.21 0 0 0-.18.74 9.25 9.25 0 0 0-.05.95v.85a3 3 0 0 0 .1.59 2.61 2.61 0 0 0 .16.43.92.92 0 0 0 .24.31 1.62 1.62 0 0 0 .28.2 1.15 1.15 0 0 0 .37.12 4.76 4.76 0 0 0 .8.07 6.49 6.49 0 0 0 .71 0 2.36 2.36 0 0 0 .51-.12 1 1 0 0 0 .41-.26 1.45 1.45 0 0 0 .28-.44 3.22 3.22 0 0 0 .24-1.36 10.12 10.12 0 0 0-.06-1.29 2.72 2.72 0 0 0-.17-.72 1.71 1.71 0 0 0-.27-.47.94.94 0 0 0-.41-.28 1.87 1.87 0 0 0-.52-.12 3.82 3.82 0 0 0-.64 0 5.48 5.48 0 0 0-.64 0 1.88 1.88 0 0 0-.5.11.87.87 0 0 0-.41.27 1.92 1.92 0 0 0-.25.42zm5.26-.82v-.5l1.13-.18.18-1.78h.5v1.78h2v.68h-2v3.44a2.05 2.05 0 0 0 .27 1.26 1.05 1.05 0 0 0 .56.32c.61.14 1 .2 1 .2v.48h-1c-1 0-1.55-.75-1.55-2.26v-3.44zm4.81-1.72v-.68a.22.22 0 0 1 .24-.25h.44c.15 0 .23.09.23.25v.68a.2.2 0 0 1-.23.23h-.44c-.1 0-.16 0-.19-.08a.26.26 0 0 1-.05-.15zm.09 7.42v-6.37h.69v6.37zm3.73-6.03a5 5 0 0 1 .73-.29 3.46 3.46 0 0 1 1-.13 2 2 0 0 1 1 .25 1.66 1.66 0 0 1 .69.7 4.08 4.08 0 0 1 1.22-.68 4.16 4.16 0 0 1 1.5-.27 1.75 1.75 0 0 1 1.34.58 2.06 2.06 0 0 1 .56 1.47v4.4h-.72v-4.4a1.4 1.4 0 0 0-.35-1 1.15 1.15 0 0 0-.88-.39 5.35 5.35 0 0 0-1 .08 4.86 4.86 0 0 0-1.58.65 2.19 2.19 0 0 1 0 .62v4.42h-.58v-4.4a1.36 1.36 0 0 0-.36-1 1.15 1.15 0 0 0-.88-.39 4.15 4.15 0 0 0-.92.09 4.24 4.24 0 0 0-.68.21c-.19.08-.47.21-.83.4v5.07h-.69v-6.37h.47l.22.76c.31-.15.56-.29.74-.38zm9.35-1.39v-.68a.22.22 0 0 1 .24-.25h.45c.15 0 .22.09.22.25v.68c0 .16-.07.23-.22.23h-.45c-.09 0-.16 0-.19-.08a.37.37 0 0 1-.05-.15zm.1 7.42v-6.37h.73v6.37zm6.62-6.37v.68l-3.67 5h3.67v.68h-4.56v-.68l3.71-5h-3.9v-.68zm1.11.24a11.66 11.66 0 0 1 3-.36 1.83 1.83 0 0 1 1.3.46 1.77 1.77 0 0 1 .52 1.39v4.64h-.51l-.18-.76-.19.08-.47.21-.65.25a4.53 4.53 0 0 1-1.47.3 1.65 1.65 0 0 1-1.11-.42 1.52 1.52 0 0 1-.45-1.17v-.73a1.48 1.48 0 0 1 .74-1.41 1.87 1.87 0 0 1 .85-.19h2.75v-.8a1.07 1.07 0 0 0-1.23-1.19c-.67 0-1.64.07-2.91.19zm.48 4.56a.92.92 0 0 0 .25.73.87.87 0 0 0 .6.23 4.56 4.56 0 0 0 .72-.06c.25-.05.49-.1.72-.17a11.23 11.23 0 0 0 1.18-.35l.19-.07v-2.06l-2.75.17a.86.86 0 0 0-.91 1zm5.71-1.62a8.12 8.12 0 0 1 .1-1.4 3.92 3.92 0 0 1 .27-.95 1.75 1.75 0 0 1 .47-.57 2.25 2.25 0 0 1 1.33-.33 14.77 14.77 0 0 1 2.54.32v.48q-1.54-.12-2.22-.12a4.7 4.7 0 0 0-.87 0 .88.88 0 0 0-.39.19 1 1 0 0 0-.3.42 5.31 5.31 0 0 0-.25 1.8 6.62 6.62 0 0 0 .17 1.73 1.29 1.29 0 0 0 .46.76 1.34 1.34 0 0 0 .79.2c.65 0 1.41 0 2.26-.12l.44-.05v.51a10.34 10.34 0 0 1-2.7.35 1.73 1.73 0 0 1-1.71-.91 5.5 5.5 0 0 1-.39-2.31zm3.11 3.62a2.3 2.3 0 0 1-.26 1.29 1.12 1.12 0 0 1-1 .35h-.53v-.32l.56-.14a.69.69 0 0 0 .45-.36 1.88 1.88 0 0 0 .13-.82zm2.96-6.56a11.61 11.61 0 0 1 3-.36 1.85 1.85 0 0 1 1.3.46 1.77 1.77 0 0 1 .51 1.39v4.64h-.5l-.18-.76-.19.08-.48.21-.64.25a4.53 4.53 0 0 1-1.47.3 1.61 1.61 0 0 1-1.11-.42 1.53 1.53 0 0 1-.46-1.17v-.73a1.47 1.47 0 0 1 .75-1.41 1.87 1.87 0 0 1 .85-.19h2.76v-.8c0-.79-.41-1.19-1.24-1.19-.66 0-1.63.07-2.9.19zm3.48-1.21a1.17 1.17 0 0 1-1.17-.2 1.25 1.25 0 0 0-.62-.28 1.16 1.16 0 0 0-.38.06 2 2 0 0 0-.42.21l-.36.21-.18-.36.46-.37a1.46 1.46 0 0 1 .85-.37 1.7 1.7 0 0 1 .81.29 1.64 1.64 0 0 0 .57.28h.18l.17-.05.17-.07.17-.08a1 1 0 0 1 .16-.09l.16-.11.15-.09.2.36-.16.15-.19.15-.18.14a2.11 2.11 0 0 1-.39.22zm-3 5.77a.92.92 0 0 0 .25.73.87.87 0 0 0 .6.23 4.53 4.53 0 0 0 .71-.06 7.13 7.13 0 0 0 .73-.17 11.23 11.23 0 0 0 1.18-.35l.19-.07v-2.06l-2.75.17a.86.86 0 0 0-.91 1zm6.26.91a2.28 2.28 0 0 1-.44-1 8.56 8.56 0 0 1-.13-1.67 5.21 5.21 0 0 1 .27-1.82 1.75 1.75 0 0 1 .86-1 3.57 3.57 0 0 1 1.62-.3 2.67 2.67 0 0 1 2.16.74 4.2 4.2 0 0 1 .59 2.56 4 4 0 0 1-.59 2.5 2.77 2.77 0 0 1-2.16.69 4.24 4.24 0 0 1-1.34-.17 1.79 1.79 0 0 1-.84-.53zm.35-4.22a3.21 3.21 0 0 0-.18.74 9.25 9.25 0 0 0 0 .95v.85a3 3 0 0 0 .1.59 2.61 2.61 0 0 0 .16.43.92.92 0 0 0 .24.31 1.62 1.62 0 0 0 .28.2 1.17 1.17 0 0 0 .36.12 4.89 4.89 0 0 0 .81.07 6.49 6.49 0 0 0 .71 0 2.36 2.36 0 0 0 .51-.12 1 1 0 0 0 .41-.26 1.67 1.67 0 0 0 .25-.5 3.22 3.22 0 0 0 .24-1.36 10.12 10.12 0 0 0-.06-1.29 2.72 2.72 0 0 0-.17-.72 1.71 1.71 0 0 0-.27-.47.94.94 0 0 0-.41-.28 1.87 1.87 0 0 0-.52-.12 3.82 3.82 0 0 0-.64 0 5.48 5.48 0 0 0-.64 0 1.88 1.88 0 0 0-.5.11.87.87 0 0 0-.41.27 1.92 1.92 0 0 0-.29.48zm9.26 3.5a4.52 4.52 0 0 1-.19-.87 6.61 6.61 0 0 1-.06-.93 9.25 9.25 0 0 1 0-.95 4.17 4.17 0 0 1 .19-.89 2.38 2.38 0 0 1 .36-.75 1.81 1.81 0 0 1 1.59-.73 6.09 6.09 0 0 1 1.13.13 6.43 6.43 0 0 1 1.23.34v-3.43h.66v9.42h-.47l-.2-.71a3.4 3.4 0 0 1-1 .51 4.07 4.07 0 0 1-1.29.28 2 2 0 0 1-.91-.2 1.74 1.74 0 0 1-.62-.51 2.93 2.93 0 0 1-.42-.71zm.44-1.74a3.64 3.64 0 0 0 .39 1.88 1.19 1.19 0 0 0 1.06.63 5.82 5.82 0 0 0 2.35-.59V294a9.72 9.72 0 0 0-2.35-.32 1.19 1.19 0 0 0-1.19.78 5 5 0 0 0-.26 1.92zm6.78 2.87a1.76 1.76 0 0 1-.65-1 6.75 6.75 0 0 1-.18-1.68 13.81 13.81 0 0 1 .06-1.49 3.26 3.26 0 0 1 .21-.87 2.11 2.11 0 0 1 .34-.58 1.29 1.29 0 0 1 .52-.33 4.38 4.38 0 0 1 1.53-.21 3.76 3.76 0 0 1 1.59.23 1.28 1.28 0 0 1 .62.66 3 3 0 0 1 .23 1.18 1.94 1.94 0 0 1-.18 1 1.6 1.6 0 0 1-1.47.59h-2.77c0 1.12.21 1.79.61 2a1.63 1.63 0 0 0 .81.17 20.42 20.42 0 0 0 2.88-.16v.51a10.6 10.6 0 0 1-2.82.33 2.31 2.31 0 0 1-1.33-.35zm-.15-3.25h2.77a1.4 1.4 0 0 0 .72-.15.67.67 0 0 0 .24-.62 3.31 3.31 0 0 0-.07-.77.87.87 0 0 0-.34-.46 1.26 1.26 0 0 0-.52-.2 5.32 5.32 0 0 0-.77 0 7.1 7.1 0 0 0-.73 0 2.19 2.19 0 0 0-.5.09.81.81 0 0 0-.38.22 1.63 1.63 0 0 0-.26.4 4.35 4.35 0 0 0-.16 1.49zm8.87 1.24v-7.13h.68v7.13a2 2 0 0 0 .28 1.26 1 1 0 0 0 .55.32c.62.14 1 .22 1 .22v.46h-1c-.99 0-1.51-.75-1.51-2.26zm3.53-3.87a11.61 11.61 0 0 1 3-.36 1.85 1.85 0 0 1 1.3.46 1.77 1.77 0 0 1 .51 1.39v4.64h-.5l-.18-.76-.19.08-.48.21-.64.25a4.53 4.53 0 0 1-1.47.3 1.61 1.61 0 0 1-1.11-.42 1.53 1.53 0 0 1-.46-1.17v-.73a1.47 1.47 0 0 1 .75-1.41 1.87 1.87 0 0 1 .85-.19h2.75v-.8c0-.79-.41-1.19-1.24-1.19-.66 0-1.63.07-2.9.19zm.48 4.56a.92.92 0 0 0 .25.73.87.87 0 0 0 .6.23 4.53 4.53 0 0 0 .71-.06 7.13 7.13 0 0 0 .73-.17 11.23 11.23 0 0 0 1.18-.35l.19-.07v-2.06l-2.75.17a.86.86 0 0 0-.91 1zm8.22.88h.15l1.91-5.66h.76l-2.81 8.39-.79 1.2h-.4l1.09-3.24c-.68 0-1.16-.45-1.42-1.32l-1.65-5.05h.76l1.62 5c.16.45.42.68.78.68zm4.11.03a2.42 2.42 0 0 1-.45-1 8.72 8.72 0 0 1-.12-1.67 5.21 5.21 0 0 1 .27-1.82 1.73 1.73 0 0 1 .85-1 3.62 3.62 0 0 1 1.63-.3 2.64 2.64 0 0 1 2.15.74 4.13 4.13 0 0 1 .59 2.56 3.89 3.89 0 0 1-.59 2.5 2.74 2.74 0 0 1-2.15.69 4.2 4.2 0 0 1-1.34-.17 1.7 1.7 0 0 1-.84-.53zm.35-4.22a2.43 2.43 0 0 0-.18.74 7 7 0 0 0-.06.95v.85a4 4 0 0 0 .1.59 2.57 2.57 0 0 0 .17.43.9.9 0 0 0 .23.31 1.68 1.68 0 0 0 .29.2 1 1 0 0 0 .36.12 4.89 4.89 0 0 0 .81.07 6.62 6.62 0 0 0 .71 0 2.36 2.36 0 0 0 .51-.12 1 1 0 0 0 .4-.26 1.45 1.45 0 0 0 .28-.44 3.22 3.22 0 0 0 .24-1.36v-1.29a3.15 3.15 0 0 0-.18-.72 1.71 1.71 0 0 0-.27-.47.88.88 0 0 0-.41-.28 1.89 1.89 0 0 0-.51-.12 4 4 0 0 0-.65 0 5.6 5.6 0 0 0-.64 0 1.88 1.88 0 0 0-.5.11.92.92 0 0 0-.41.27 1.64 1.64 0 0 0-.29.42zm6.59-1.49v4.44a1.37 1.37 0 0 0 .35 1 1.27 1.27 0 0 0 .93.37 3.49 3.49 0 0 0 1.14-.15 10.18 10.18 0 0 0 1.3-.56v-5.09h.68v6.37h-.46l-.22-.74c-.3.17-.56.32-.76.42a3.62 3.62 0 0 1-1.71.43 1.81 1.81 0 0 1-1.41-.6 2.11 2.11 0 0 1-.52-1.44v-4.44zm5.46.67v-.5l1.13-.18.18-1.78h.5v1.78h2v.68h-2v3.44a2 2 0 0 0 .28 1.26 1 1 0 0 0 .55.32 10.2 10.2 0 0 0 1 .2v.48H415c-1 0-1.55-.75-1.55-2.26v-3.44z"/><path class="a" d="M238.09 170.91v-.75a2.14 2.14 0 0 1 .68-1.79 2.86 2.86 0 0 1 1.7-.48h.6a12.44 12.44 0 0 1 1.36.1 7.82 7.82 0 0 1 1.43.25v1.32c-.91-.08-1.64-.12-2.18-.12h-.87a1.74 1.74 0 0 0-.79.14c-.17.1-.25.33-.25.71v.43a.86.86 0 0 0 .2.67 1.22 1.22 0 0 0 .74.17h1.39a1.79 1.79 0 0 1 1.83 1.09 3.08 3.08 0 0 1 .24 1.24v.59a2.07 2.07 0 0 1-1.06 2.1 3.23 3.23 0 0 1-1.36.26 12.61 12.61 0 0 1-3.4-.36v-1.32a22.92 22.92 0 0 0 2.31.13h1.14a1.39 1.39 0 0 0 .33-.1.61.61 0 0 0 .36-.63v-.47c0-.42-.13-.67-.39-.77a1.16 1.16 0 0 0-.4-.06h-1.34a2 2 0 0 1-2.27-2.35zm6.73-1.4V168h6.49v1.55h-2.43v7.24h-1.68v-7.28zm8.09-1.22a2.23 2.23 0 0 1 .6-.26 2.58 2.58 0 0 1 .49-.03h1.74c1 0 1.81.08 2.32.15v1.39h-3.46c-.3 0-.48.08-.56.22a1.39 1.39 0 0 0-.07.46v1.36l3.55.13v1.39l-3.55.11v1.36c0 .31.09.49.25.55a1.34 1.34 0 0 0 .5.08H258v1.38c-.4 0-1.38.11-3 .17h-1a2.06 2.06 0 0 1-.33 0 1.82 1.82 0 0 1-.49-.12 1.69 1.69 0 0 1-.51-.29 1.7 1.7 0 0 1-.41-1.34v-5.21a1.63 1.63 0 0 1 .65-1.5zm6.31 8.46V168H263a2.32 2.32 0 0 1 1.9.73 3.08 3.08 0 0 1 .54 2 5 5 0 0 1-.16 1.27 2.5 2.5 0 0 1-.4.85 1.46 1.46 0 0 1-.59.45 2.56 2.56 0 0 1-1 .21 13.18 13.18 0 0 1-1.35-.1 7.7 7.7 0 0 1-1-.14v3.49zm3.65-7.3h-2V172h2a.93.93 0 0 0 .47-.11c.27-.16.41-.57.41-1.22-.01-.81-.3-1.22-.88-1.22zm7.13 5.16v-4.44a2.19 2.19 0 0 1 .59-1.64 2.26 2.26 0 0 1 1.57-.53h2a1.84 1.84 0 0 1 2 1.32 3 3 0 0 1 .11.82v4.51a2.15 2.15 0 0 1-.56 1.59 2.18 2.18 0 0 1-1.58.55h-2a2.3 2.3 0 0 1-1.62-.54 2.09 2.09 0 0 1-.51-1.64zm1.68-.28a.78.78 0 0 0 .9.87h1.16a1 1 0 0 0 .66-.2.81.81 0 0 0 .22-.66v-4c0-.57-.27-.85-.82-.85h-1.26a.75.75 0 0 0-.67.26 1 1 0 0 0-.19.59zm9.5 2.5h-2.6l-.37-.06a4.66 4.66 0 0 1-.75-.2v-1.3h3.05a2.15 2.15 0 0 0 1-.15c.18-.09.27-.31.27-.67v-.38a.76.76 0 0 0-.29-.69 1.67 1.67 0 0 0-.87-.21l-2.38-.1v-1.34l2.38-.12a2 2 0 0 0 .91-.22.73.73 0 0 0 .27-.64v-.44a.75.75 0 0 0-.17-.51.85.85 0 0 0-.42-.26 2.49 2.49 0 0 0-.59-.05h-3.2v-1.22a10.16 10.16 0 0 1 3.11-.35h.77a2.23 2.23 0 0 1 1.58.59 2 2 0 0 1 .59 1.52v.62c0 .91-.31 1.48-.91 1.71.6.25.91.85.91 1.8v.5a2.09 2.09 0 0 1-.58 1.6 2.31 2.31 0 0 1-1.71.57z"/><path class="c" d="M238.09 193.89l3.25-8.79h.73l3.1 8.79h-.81l-.86-2.65h-3.67l-.91 2.65zm2-3.34h3.18l-1.56-4.45zm6.07 1.95a4.59 4.59 0 0 1-.19-.86 6.86 6.86 0 0 1-.06-.94 9.41 9.41 0 0 1 0-1 4.08 4.08 0 0 1 .19-.88 2.38 2.38 0 0 1 .36-.75 1.79 1.79 0 0 1 1.54-.7 6.09 6.09 0 0 1 1.13.13 7.22 7.22 0 0 1 1.23.35v-3.43h.66v9.42h-.47l-.2-.71a3.7 3.7 0 0 1-1 .5 3.81 3.81 0 0 1-1.29.28 2 2 0 0 1-.91-.2 1.74 1.74 0 0 1-.62-.51 2.93 2.93 0 0 1-.37-.7zm.44-1.74a3.65 3.65 0 0 0 .39 1.89 1.19 1.19 0 0 0 1.06.63 6 6 0 0 0 2.35-.59v-4.26a9.29 9.29 0 0 0-2.35-.33 1.19 1.19 0 0 0-1.19.78 5.05 5.05 0 0 0-.26 1.88zm6.52 2.46a2.37 2.37 0 0 1-.45-1 8.91 8.91 0 0 1-.12-1.68 5.25 5.25 0 0 1 .27-1.82 1.76 1.76 0 0 1 .85-1 3.63 3.63 0 0 1 1.63-.29 2.64 2.64 0 0 1 2.15.73 4.17 4.17 0 0 1 .59 2.56 3.93 3.93 0 0 1-.59 2.51 2.74 2.74 0 0 1-2.15.69 4.51 4.51 0 0 1-1.34-.17 1.71 1.71 0 0 1-.84-.53zm.35-4.21a2.36 2.36 0 0 0-.18.73 7.06 7.06 0 0 0-.06 1v.85a4.24 4.24 0 0 0 .1.59 3 3 0 0 0 .17.43.86.86 0 0 0 .23.3 1.32 1.32 0 0 0 .29.21 1 1 0 0 0 .36.11 4 4 0 0 0 .81.07 6.62 6.62 0 0 0 .71 0 2.36 2.36 0 0 0 .51-.12 1 1 0 0 0 .4-.25 1.51 1.51 0 0 0 .28-.45 3.19 3.19 0 0 0 .24-1.36v-1.28a2.9 2.9 0 0 0-.18-.72 1.78 1.78 0 0 0-.27-.48.87.87 0 0 0-.41-.27 1.91 1.91 0 0 0-.51-.13 5.79 5.79 0 0 0-.65 0h-.64a2.42 2.42 0 0 0-.5.12 1 1 0 0 0-.41.26 1.71 1.71 0 0 0-.29.38zm5.79 1.69a8.17 8.17 0 0 1 .1-1.41 4 4 0 0 1 .27-.94 1.57 1.57 0 0 1 .47-.57 2.25 2.25 0 0 1 1.33-.34 14 14 0 0 1 2.54.33v.48q-1.55-.12-2.22-.12a5.25 5.25 0 0 0-.87 0 1 1 0 0 0-.39.19 1 1 0 0 0-.3.43 5.23 5.23 0 0 0-.25 1.8 6.67 6.67 0 0 0 .17 1.73 1.38 1.38 0 0 0 .46.76 1.42 1.42 0 0 0 .79.2c.65 0 1.41 0 2.27-.12h.43v.5a9.94 9.94 0 0 1-2.7.35 1.74 1.74 0 0 1-1.71-.9 5.56 5.56 0 0 1-.39-2.37zm3.11 3.62a2.28 2.28 0 0 1-.26 1.28 1.08 1.08 0 0 1-1 .35h-.52v-.31l.55-.14a.72.72 0 0 0 .45-.36 1.91 1.91 0 0 0 .13-.82zm2.96-6.56a11.61 11.61 0 0 1 3-.36 1.89 1.89 0 0 1 1.3.45 1.78 1.78 0 0 1 .51 1.39v4.65h-.5l-.18-.77-.19.08-.48.21a6.59 6.59 0 0 1-.64.25 4.28 4.28 0 0 1-1.47.3 1.58 1.58 0 0 1-1.11-.42 1.51 1.51 0 0 1-.45-1.16v-.74a1.43 1.43 0 0 1 .74-1.4 1.75 1.75 0 0 1 .85-.19h2.75v-.81c0-.79-.41-1.18-1.24-1.18-.66 0-1.63.06-2.9.19zm3.48-1.22a1.15 1.15 0 0 1-1.17-.2 1.36 1.36 0 0 0-.62-.28 1.16 1.16 0 0 0-.38.06 2 2 0 0 0-.42.21l-.36.21-.18-.36.46-.37a1.4 1.4 0 0 1 .85-.36 1.67 1.67 0 0 1 .81.28 1.76 1.76 0 0 0 .57.29h.18a.59.59 0 0 0 .17 0l.17-.07.17-.09.16-.09.16-.1.15-.1.2.36a1.27 1.27 0 0 1-.16.15l-.19.16-.17.14a2.75 2.75 0 0 1-.4.16zm-3 5.78a.94.94 0 0 0 .25.73.92.92 0 0 0 .6.23 4.85 4.85 0 0 0 .72-.07c.25 0 .49-.1.72-.16.49-.13.88-.25 1.18-.35l.19-.07v-2.07l-2.75.17a.86.86 0 0 0-.91 1zm6.24.9a2.24 2.24 0 0 1-.44-1 8.75 8.75 0 0 1-.13-1.68 5 5 0 0 1 .28-1.82 1.73 1.73 0 0 1 .85-1 3.58 3.58 0 0 1 1.62-.29 2.66 2.66 0 0 1 2.16.73 4.24 4.24 0 0 1 .59 2.56 4 4 0 0 1-.59 2.51 2.77 2.77 0 0 1-2.16.69 4.55 4.55 0 0 1-1.34-.17 1.81 1.81 0 0 1-.84-.53zm.35-4.21a3.11 3.11 0 0 0-.18.73 9.3 9.3 0 0 0 0 1v.85a3.14 3.14 0 0 0 .1.59 3 3 0 0 0 .16.43.89.89 0 0 0 .24.3 1.28 1.28 0 0 0 .28.21 1.17 1.17 0 0 0 .36.11 4.07 4.07 0 0 0 .81.07 6.49 6.49 0 0 0 .71 0 2.36 2.36 0 0 0 .51-.12 1 1 0 0 0 .41-.25 1.74 1.74 0 0 0 .28-.45 3.19 3.19 0 0 0 .24-1.36 9.94 9.94 0 0 0-.06-1.28 2.54 2.54 0 0 0-.17-.72 1.78 1.78 0 0 0-.27-.48.92.92 0 0 0-.41-.27 1.89 1.89 0 0 0-.52-.13 5.6 5.6 0 0 0-.64 0h-.64a2.42 2.42 0 0 0-.5.12.94.94 0 0 0-.41.26 2 2 0 0 0-.3.38zm9.28 3.49a4.59 4.59 0 0 1-.19-.86 6.86 6.86 0 0 1-.06-.94 9.41 9.41 0 0 1 0-1 4.08 4.08 0 0 1 .19-.88 2.38 2.38 0 0 1 .36-.75 1.79 1.79 0 0 1 1.54-.7 6.09 6.09 0 0 1 1.13.13 7.22 7.22 0 0 1 1.23.35v-3.43h.66v9.42h-.46l-.21-.71a3.7 3.7 0 0 1-1 .5 3.76 3.76 0 0 1-1.29.28 2 2 0 0 1-.91-.2 1.83 1.83 0 0 1-.62-.51 2.93 2.93 0 0 1-.37-.7zm.44-1.74a3.65 3.65 0 0 0 .39 1.89 1.19 1.19 0 0 0 1.06.63 6 6 0 0 0 2.35-.59v-4.26a9.29 9.29 0 0 0-2.35-.33 1.19 1.19 0 0 0-1.19.78 5.27 5.27 0 0 0-.26 1.88zm6.78 2.87a1.67 1.67 0 0 1-.64-1 6.24 6.24 0 0 1-.19-1.67 13.89 13.89 0 0 1 .06-1.5 3.26 3.26 0 0 1 .21-.87 1.91 1.91 0 0 1 .34-.57 1.21 1.21 0 0 1 .52-.34 4.67 4.67 0 0 1 1.53-.2 3.61 3.61 0 0 1 1.59.23 1.28 1.28 0 0 1 .62.66 3 3 0 0 1 .23 1.18 1.92 1.92 0 0 1-.18.95 1.6 1.6 0 0 1-1.47.59h-2.77c0 1.12.21 1.79.61 2a1.64 1.64 0 0 0 .81.16 22.32 22.32 0 0 0 2.88-.15v.5a10.18 10.18 0 0 1-2.82.34 2.31 2.31 0 0 1-1.33-.31zm-.15-3.22h2.77a1.4 1.4 0 0 0 .72-.15.68.68 0 0 0 .24-.62 3.31 3.31 0 0 0-.07-.77.83.83 0 0 0-.31-.47 1.15 1.15 0 0 0-.51-.21 7.69 7.69 0 0 0-.78 0h-.73a1.78 1.78 0 0 0-.5.1.74.74 0 0 0-.38.22 1.55 1.55 0 0 0-.26.39 4.41 4.41 0 0 0-.19 1.51zm8.8-.94c0-1.84.29-3.07.86-3.71a2.69 2.69 0 0 1 2.07-.75q.46 0 1.32.09c.57.06 1.07.13 1.48.21v.51h-2.76a2.4 2.4 0 0 0-1.3.31c-.63.42-.95 1.58-.95 3.5q0 3.78 2.25 3.78c.79 0 1.67 0 2.64-.1h.16v.53c-.4.07-.88.13-1.45.18s-1 .08-1.35.08c-2-.1-2.97-1.64-2.97-4.63zm6.77 4.42l3.25-8.79h.73l3.1 8.79h-.81l-.86-2.65h-3.67l-.92 2.65zm2-3.34h3.18l-1.56-4.45zm6.47 3.34v-8.79H316a2.75 2.75 0 0 1 1.63.45 2.78 2.78 0 0 1 .94 1.09 5.4 5.4 0 0 1 .43 1.28 10.64 10.64 0 0 1 .13 1.56 8.49 8.49 0 0 1-.1 1.27 5.42 5.42 0 0 1-.35 1.17 4.3 4.3 0 0 1-.58 1 2.45 2.45 0 0 1-.89.69 2.65 2.65 0 0 1-1.2.27zm.68-.71H316a2 2 0 0 0 1.1-.31 2.31 2.31 0 0 0 .77-.84 5.23 5.23 0 0 0 .57-2.51c0-2.49-.82-3.73-2.44-3.73h-2.5zm6.96 1.61l-.23.08h-.2a.66.66 0 0 1-.17 0v-.28c.19 0 .29-.1.29-.31v-.38h-.06a.22.22 0 0 1-.24-.25V193c0-.17.08-.26.24-.26h.44c.16 0 .24.09.24.26v1.18c0 .29-.1.51-.31.61zm-81.86 16.1v-8.79h3.18a2.75 2.75 0 0 1 1.63.45 2.78 2.78 0 0 1 .94 1.09 5.4 5.4 0 0 1 .42 1.28 12.23 12.23 0 0 1 .13 1.56 8.49 8.49 0 0 1-.1 1.27 5.42 5.42 0 0 1-.35 1.17 4.3 4.3 0 0 1-.58 1 2.54 2.54 0 0 1-.89.69 2.65 2.65 0 0 1-1.2.27zm.68-.71h2.5a2 2 0 0 0 1.1-.31 2.31 2.31 0 0 0 .77-.84 5.22 5.22 0 0 0 .56-2.51q0-3.73-2.43-3.73h-2.5zm7.43.45a1.71 1.71 0 0 1-.64-1 6.24 6.24 0 0 1-.19-1.67 13.89 13.89 0 0 1 .06-1.5 3.26 3.26 0 0 1 .21-.87 2.14 2.14 0 0 1 .34-.57 1.21 1.21 0 0 1 .52-.34 4.7 4.7 0 0 1 1.54-.2 3.58 3.58 0 0 1 1.58.23 1.28 1.28 0 0 1 .62.66 2.79 2.79 0 0 1 .23 1.18 1.92 1.92 0 0 1-.18.95 1.59 1.59 0 0 1-1.46.59h-2.77c0 1.12.2 1.79.61 2a1.57 1.57 0 0 0 .8.16 22.11 22.11 0 0 0 2.88-.15v.5a10.18 10.18 0 0 1-2.83.4 2.33 2.33 0 0 1-1.32-.37zm-.14-3.22h2.77a1.36 1.36 0 0 0 .71-.15.66.66 0 0 0 .25-.62 3.25 3.25 0 0 0-.08-.77.75.75 0 0 0-.31-.47 1.15 1.15 0 0 0-.51-.21 7.36 7.36 0 0 0-.78 0h-.73a1.85 1.85 0 0 0-.5.1.83.83 0 0 0-.38.22 1.55 1.55 0 0 0-.25.39 4.18 4.18 0 0 0-.19 1.51zm5.46-.84V206a1.65 1.65 0 0 1 .38-1.17 1.73 1.73 0 0 1 1.28-.39q.43 0 1.47.06l1.54.1v.51h-3a1.07 1.07 0 0 0-.79.21 1 1 0 0 0-.19.68v.55c0 .38.09.62.27.71a2.07 2.07 0 0 0 .71.09h1.77a1.62 1.62 0 0 1 1.15.4 1.47 1.47 0 0 1 .41 1.09v.59a1.36 1.36 0 0 1-.5 1.25 1.89 1.89 0 0 1-.94.25c-.35 0-.92 0-1.71-.07s-1.31-.09-1.58-.12v-.5h3.17a.9.9 0 0 0 .58-.12.85.85 0 0 0 .3-.69v-.59c0-.54-.29-.8-.88-.8h-1.77a2.09 2.09 0 0 1-1.28-.3 1.48 1.48 0 0 1-.39-1.17zm7 4.06a1.71 1.71 0 0 1-.64-1 6.24 6.24 0 0 1-.19-1.67 13.89 13.89 0 0 1 .06-1.5 3.26 3.26 0 0 1 .21-.87 2.14 2.14 0 0 1 .34-.57 1.21 1.21 0 0 1 .52-.34 4.7 4.7 0 0 1 1.54-.2 3.58 3.58 0 0 1 1.58.23 1.28 1.28 0 0 1 .62.66 2.79 2.79 0 0 1 .23 1.18 1.92 1.92 0 0 1-.18.95 1.59 1.59 0 0 1-1.46.59h-2.73c0 1.12.2 1.79.61 2a1.57 1.57 0 0 0 .8.16 22.11 22.11 0 0 0 2.88-.15v.5a10.18 10.18 0 0 1-2.82.34 2.33 2.33 0 0 1-1.37-.31zm-.14-3.22h2.77a1.36 1.36 0 0 0 .71-.15.66.66 0 0 0 .25-.62 3.25 3.25 0 0 0-.08-.77.79.79 0 0 0-.31-.47 1.15 1.15 0 0 0-.51-.21 7.36 7.36 0 0 0-.78 0h-.73a1.85 1.85 0 0 0-.5.1.78.78 0 0 0-.38.22 1.55 1.55 0 0 0-.25.39 4.18 4.18 0 0 0-.15 1.51zm7.22-2.58a5 5 0 0 1 .76-.28 3.22 3.22 0 0 1 1-.14 1.74 1.74 0 0 1 1 .29 1.92 1.92 0 0 1 .9 1.75v4.44h-.68v-4.44a1.34 1.34 0 0 0-.36-1 1.15 1.15 0 0 0-.88-.37 4.31 4.31 0 0 0-.93.09 3.51 3.51 0 0 0-.71.22q-.3.12-.84.39v5.1h-.69v-6.37h.47l.22.74c.29-.17.54-.32.74-.42zm5.8-3.35v3.78q.45-.27.75-.42a3.41 3.41 0 0 1 1.56-.43 2.12 2.12 0 0 1 1.19.29 1.92 1.92 0 0 1 .9 1.75v4.44h-.68v-4.44a1.38 1.38 0 0 0-.35-1 1.18 1.18 0 0 0-.88-.36 4.35 4.35 0 0 0-.94.09 3.51 3.51 0 0 0-.71.22q-.3.12-.84.39v5.1h-.69v-9.41zm5.81 3.28a11.61 11.61 0 0 1 3-.36 1.89 1.89 0 0 1 1.3.45 1.78 1.78 0 0 1 .51 1.39v4.65h-.5l-.18-.77-.2.08-.47.21c-.2.09-.41.17-.64.25a4.37 4.37 0 0 1-1.47.3 1.57 1.57 0 0 1-1.11-.42 1.49 1.49 0 0 1-.46-1.16v-.74a1.44 1.44 0 0 1 .75-1.4 1.75 1.75 0 0 1 .85-.19h2.75v-.81c0-.79-.42-1.18-1.24-1.18-.66 0-1.63.06-2.9.19zm.48 4.56a.94.94 0 0 0 .25.73.88.88 0 0 0 .6.23 4.6 4.6 0 0 0 .71-.07c.25 0 .5-.1.73-.16.49-.13.88-.25 1.17-.35l.2-.07v-2.07l-2.75.17a.86.86 0 0 0-.91 1zm5.92.18a4.59 4.59 0 0 1-.19-.86 6.86 6.86 0 0 1-.06-.94 9.41 9.41 0 0 1 0-1 4.08 4.08 0 0 1 .19-.88 2.38 2.38 0 0 1 .36-.75 1.79 1.79 0 0 1 1.54-.7 6.09 6.09 0 0 1 1.13.13 7.22 7.22 0 0 1 1.23.35v-3.43h.71v9.42h-.47l-.2-.71a3.7 3.7 0 0 1-1 .5 3.81 3.81 0 0 1-1.33.37 2 2 0 0 1-.91-.2 1.74 1.74 0 0 1-.62-.51 2.93 2.93 0 0 1-.38-.79zm.44-1.74a3.65 3.65 0 0 0 .39 1.89 1.19 1.19 0 0 0 1.06.63 6 6 0 0 0 2.35-.59v-4.26a9.29 9.29 0 0 0-2.33-.33 1.19 1.19 0 0 0-1.19.78 5.05 5.05 0 0 0-.28 1.88zm6.02-3a11.66 11.66 0 0 1 3-.36 1.89 1.89 0 0 1 1.3.45 1.78 1.78 0 0 1 .51 1.39v4.65h-.5l-.18-.77-.19.08-.48.21a6.59 6.59 0 0 1-.64.25 4.28 4.28 0 0 1-1.47.3 1.6 1.6 0 0 1-1.11-.42 1.51 1.51 0 0 1-.45-1.16v-.74a1.43 1.43 0 0 1 .74-1.4 1.75 1.75 0 0 1 .85-.19h2.75v-.81c0-.79-.41-1.18-1.24-1.18-.66 0-1.63.06-2.9.19zm.48 4.56a.94.94 0 0 0 .25.73.92.92 0 0 0 .6.23 4.73 4.73 0 0 0 .72-.07c.25 0 .49-.1.72-.16.49-.13.88-.25 1.18-.35l.19-.07v-2.07l-2.75.17a.86.86 0 0 0-.91 1zm9.62 1.31a1.76 1.76 0 0 1-.64-1 6.72 6.72 0 0 1-.18-1.67 11.68 11.68 0 0 1 .06-1.5 3.26 3.26 0 0 1 .21-.87 1.91 1.91 0 0 1 .34-.57 1.24 1.24 0 0 1 .51-.34 4.74 4.74 0 0 1 1.54-.2 3.56 3.56 0 0 1 1.58.23 1.26 1.26 0 0 1 .63.66 3 3 0 0 1 .23 1.18 1.92 1.92 0 0 1-.18.95 1.6 1.6 0 0 1-1.47.59h-2.77c0 1.12.2 1.79.61 2a1.61 1.61 0 0 0 .81.16 22.32 22.32 0 0 0 2.88-.15v.5a10.27 10.27 0 0 1-2.81.4 2.37 2.37 0 0 1-1.35-.37zm-.14-3.22h2.77a1.43 1.43 0 0 0 .72-.15.68.68 0 0 0 .24-.62 2.8 2.8 0 0 0-.08-.77.78.78 0 0 0-.3-.47 1.19 1.19 0 0 0-.52-.21 7.31 7.31 0 0 0-.77 0h-.73a1.78 1.78 0 0 0-.5.1.82.82 0 0 0-.39.22 1.88 1.88 0 0 0-.25.39 4.18 4.18 0 0 0-.19 1.51zm8.87 3.48v-8.79h3.51a1.92 1.92 0 0 1 1.64.69 3 3 0 0 1 .47 1.81c0 1.47-.43 2.32-1.3 2.53a3 3 0 0 1-.75.09q-.41 0-1.62-.09a12.31 12.31 0 0 1-1.27-.13v3.88zm.68-4.37h2.83a1.48 1.48 0 0 0 1-.31 2.15 2.15 0 0 0 .43-1.57c0-.89-.23-1.45-.67-1.68a1.53 1.53 0 0 0-.74-.16h-2.85zm6.24-1.76a11.66 11.66 0 0 1 3-.36 1.89 1.89 0 0 1 1.3.45 1.79 1.79 0 0 1 .52 1.39v4.65h-.5l-.18-.77-.19.08-.48.21a6.59 6.59 0 0 1-.64.25 4.28 4.28 0 0 1-1.47.3 1.6 1.6 0 0 1-1.11-.42 1.51 1.51 0 0 1-.45-1.16v-.74a1.43 1.43 0 0 1 .74-1.4 1.75 1.75 0 0 1 .85-.19h2.75v-.81c0-.79-.41-1.18-1.23-1.18-.67 0-1.64.06-2.91.19zm.48 4.56a.94.94 0 0 0 .25.73.92.92 0 0 0 .6.23 4.73 4.73 0 0 0 .72-.07c.25 0 .49-.1.72-.16.49-.13.88-.25 1.18-.35l.19-.07v-2.07l-2.75.17a.86.86 0 0 0-.91 1zm5.81 1.57v-6.37h.47l.21.8.22-.12.23-.13.21-.12a.85.85 0 0 1 .24-.12l.22-.1a1.49 1.49 0 0 1 .26-.11l.24-.07.27-.06a6.06 6.06 0 0 1 .79 0 1.89 1.89 0 0 1 .67.1v.67a3.08 3.08 0 0 0-.68-.07h-.75a1 1 0 0 0-.26 0h-.22a.64.64 0 0 0-.24.07l-.21.08-.24.1a1.68 1.68 0 0 0-.23.11l-.25.12-.27.12v5zm5.04-6.13a11.61 11.61 0 0 1 3-.36 1.89 1.89 0 0 1 1.3.45 1.78 1.78 0 0 1 .51 1.39v4.65H332l-.18-.77-.19.08-.48.21a6.59 6.59 0 0 1-.64.25 4.28 4.28 0 0 1-1.51.34 1.57 1.57 0 0 1-1.11-.42 1.52 1.52 0 0 1-.46-1.16v-.74a1.44 1.44 0 0 1 .75-1.4 1.75 1.75 0 0 1 .85-.19h2.75v-.81c0-.79-.41-1.18-1.24-1.18-.66 0-1.63.06-2.9.19zm.48 4.56a.94.94 0 0 0 .25.73.92.92 0 0 0 .6.23 4.6 4.6 0 0 0 .71-.07 7.17 7.17 0 0 0 .73-.16c.49-.13.88-.25 1.18-.35l.19-.07v-2.07l-2.77.17a.86.86 0 0 0-.91 1zm7.23-4.47a4.87 4.87 0 0 1 .74-.28 3.39 3.39 0 0 1 1-.14 2 2 0 0 1 1 .26 1.59 1.59 0 0 1 .69.69 4.31 4.31 0 0 1 1.23-.68 4.16 4.16 0 0 1 1.5-.27 1.82 1.82 0 0 1 1.35.58 2.09 2.09 0 0 1 .55 1.47v4.41h-.69v-4.41a1.37 1.37 0 0 0-.35-1 1.14 1.14 0 0 0-.88-.38 4.37 4.37 0 0 0-2.53.73 2 2 0 0 1 .06.61v4.43h-.69v-4.41a1.38 1.38 0 0 0-.36-1 1.14 1.14 0 0 0-.88-.38 4.06 4.06 0 0 0-1.6.3 15 15 0 0 0-.83.39v5.08h-.68v-6.37h.46l.22.75zm10.06 5.78a1.71 1.71 0 0 1-.64-1 6.24 6.24 0 0 1-.19-1.67 13.89 13.89 0 0 1 .06-1.5 3.26 3.26 0 0 1 .21-.87 2.14 2.14 0 0 1 .34-.57 1.21 1.21 0 0 1 .52-.34 4.7 4.7 0 0 1 1.54-.2 3.58 3.58 0 0 1 1.58.23 1.28 1.28 0 0 1 .62.66 2.79 2.79 0 0 1 .23 1.18 1.92 1.92 0 0 1-.18.95 1.59 1.59 0 0 1-1.46.59h-2.77c0 1.12.2 1.79.61 2a1.57 1.57 0 0 0 .8.16 22.11 22.11 0 0 0 2.88-.15v.5a10.18 10.18 0 0 1-2.82.34 2.33 2.33 0 0 1-1.33-.31zm-.14-3.22H348a1.36 1.36 0 0 0 .71-.15.66.66 0 0 0 .25-.62 3.25 3.25 0 0 0-.08-.77.75.75 0 0 0-.31-.47 1.15 1.15 0 0 0-.51-.21 7.36 7.36 0 0 0-.78 0h-.73a1.85 1.85 0 0 0-.5.1.83.83 0 0 0-.38.22 1.55 1.55 0 0 0-.25.39 4.18 4.18 0 0 0-.16 1.51zm5.2-2.22v-.51l1.13-.18.18-1.77h.51v1.77h1.94v.69h-1.94v3.43a2.05 2.05 0 0 0 .27 1.26.94.94 0 0 0 .55.32c.62.14 1 .21 1 .21v.48h-1c-1 0-1.55-.76-1.55-2.27v-3.43zm4.96 5.7v-6.37h.47l.21.8.22-.12.23-.13.21-.12a1 1 0 0 1 .24-.12l.23-.1a1.19 1.19 0 0 1 .25-.11l.24-.07.27-.06a6.06 6.06 0 0 1 .79 0 1.85 1.85 0 0 1 .67.1v.67a3.08 3.08 0 0 0-.68-.07h-.75a.92.92 0 0 0-.25 0h-.23a.76.76 0 0 0-.24.07l-.21.08-.24.1a1.32 1.32 0 0 0-.22.11l-.26.12-.27.12v5zm4.97-7.43v-.67c0-.17.08-.25.24-.25h.44c.15 0 .23.08.23.25v.67a.21.21 0 0 1-.23.24h-.44a.2.2 0 0 1-.19-.08.27.27 0 0 1-.05-.16zm.09 7.43v-6.37h.69v6.37zm6.63-6.37v.68l-3.67 5h3.67v.69h-4.56v-.69l3.71-5h-3.9v-.68zm1.14.24a11.61 11.61 0 0 1 3-.36 1.89 1.89 0 0 1 1.3.45 1.78 1.78 0 0 1 .51 1.39v4.65h-.5l-.18-.77-.19.08-.48.21a6.59 6.59 0 0 1-.64.25 4.28 4.28 0 0 1-1.47.3 1.57 1.57 0 0 1-1.11-.42 1.52 1.52 0 0 1-.46-1.16v-.74a1.44 1.44 0 0 1 .75-1.4 1.75 1.75 0 0 1 .85-.19h2.75v-.81c0-.79-.41-1.18-1.24-1.18-.66 0-1.63.06-2.9.19zm.48 4.56a.94.94 0 0 0 .25.73.92.92 0 0 0 .6.23 4.6 4.6 0 0 0 .71-.07 7.17 7.17 0 0 0 .73-.16c.49-.13.88-.25 1.18-.35l.19-.07v-2.07l-2.75.17a.86.86 0 0 0-.91 1zm5.93.18a4 4 0 0 1-.2-.86 6.86 6.86 0 0 1-.06-.94 9.41 9.41 0 0 1 .05-1 4.79 4.79 0 0 1 .19-.88 2.38 2.38 0 0 1 .36-.75 1.79 1.79 0 0 1 1.54-.7 6 6 0 0 1 1.13.13 7.22 7.22 0 0 1 1.23.35v-3.43h.66v9.42h-.46l-.21-.71a5.29 5.29 0 0 1-2.33.78 2 2 0 0 1-.91-.2 1.83 1.83 0 0 1-.62-.51 2.63 2.63 0 0 1-.37-.7zm.43-1.74a3.65 3.65 0 0 0 .39 1.89 1.19 1.19 0 0 0 1.06.63 6 6 0 0 0 2.35-.59v-4.26a9.29 9.29 0 0 0-2.35-.33 1.19 1.19 0 0 0-1.19.78 5.27 5.27 0 0 0-.26 1.88zm6.02-3a11.66 11.66 0 0 1 3-.36 1.91 1.91 0 0 1 1.31.45 1.82 1.82 0 0 1 .51 1.39v4.65h-.51l-.18-.77-.19.08-.47.21a6.82 6.82 0 0 1-.65.25 4.28 4.28 0 0 1-1.47.3 1.6 1.6 0 0 1-1.11-.42 1.51 1.51 0 0 1-.45-1.16v-.74a1.45 1.45 0 0 1 .74-1.4 1.78 1.78 0 0 1 .85-.19h2.75v-.81c0-.79-.41-1.18-1.23-1.18-.67 0-1.64.06-2.91.19zm.48 4.56a1 1 0 0 0 .25.73.92.92 0 0 0 .6.23 4.61 4.61 0 0 0 .72-.07c.25 0 .49-.1.72-.16.49-.13.88-.25 1.18-.35l.19-.07v-2.07l-2.75.17a.86.86 0 0 0-.91 1z"/><path class="a" d="M238.09 81.93v-.76a2.14 2.14 0 0 1 .68-1.79 2.86 2.86 0 0 1 1.7-.48h.6a12.44 12.44 0 0 1 1.36.1 8.79 8.79 0 0 1 1.43.25v1.32c-.91-.08-1.64-.12-2.18-.12h-.87a1.74 1.74 0 0 0-.79.14c-.17.1-.25.34-.25.71v.43a.9.9 0 0 0 .2.68 1.23 1.23 0 0 0 .74.16h1.39a1.8 1.8 0 0 1 1.83 1.1 3 3 0 0 1 .24 1.23v.59a2.07 2.07 0 0 1-1.06 2.1 3.09 3.09 0 0 1-1.36.26 12.61 12.61 0 0 1-3.4-.36v-1.32c.88.09 1.65.14 2.31.14a11 11 0 0 0 1.14 0 1.35 1.35 0 0 0 .33-.09.63.63 0 0 0 .36-.64v-.5c0-.41-.13-.67-.39-.77a1.16 1.16 0 0 0-.4-.06h-1.34a2 2 0 0 1-2.27-2.32zm6.73-1.41V79h6.49v1.55h-2.43v7.21h-1.68v-7.24zm8.09-1.22a1.92 1.92 0 0 1 .6-.25A2 2 0 0 1 254 79h1.74a18.62 18.62 0 0 1 2.26.17v1.39h-3.46c-.3 0-.48.07-.56.21a1.44 1.44 0 0 0-.07.46v1.37l3.55.12v1.39l-3.55.11v1.37c0 .3.09.48.25.55a1.36 1.36 0 0 0 .5.07H258v1.38c-.4.06-1.38.11-3 .17h-1.33a2.4 2.4 0 0 1-.49-.13 1.69 1.69 0 0 1-.51-.29 1.7 1.7 0 0 1-.41-1.34v-5.2a1.63 1.63 0 0 1 .65-1.5zm6.31 8.46V79H263a2.3 2.3 0 0 1 1.9.74 3.08 3.08 0 0 1 .54 2 5.07 5.07 0 0 1-.16 1.26 2.44 2.44 0 0 1-.4.84 1.46 1.46 0 0 1-.59.45 2.41 2.41 0 0 1-1 .22c-.28 0-.73 0-1.35-.11s-1-.12-1-.13v3.49zm3.65-7.3h-2V83h2a.93.93 0 0 0 .47-.11c.27-.16.41-.57.41-1.22-.01-.8-.3-1.21-.88-1.21zm7.13 5.16v-4.44a2.19 2.19 0 0 1 .59-1.64 2.26 2.26 0 0 1 1.57-.54h2a1.84 1.84 0 0 1 2 1.32 3 3 0 0 1 .11.82v4.48a2.12 2.12 0 0 1-.56 1.59 2.14 2.14 0 0 1-1.58.55h-2a2.3 2.3 0 0 1-1.62-.54 2.06 2.06 0 0 1-.51-1.6zm1.68-.27c0 .57.3.86.9.86h1.16a1 1 0 0 0 .61-.21.83.83 0 0 0 .22-.66v-4a.74.74 0 0 0-.82-.85h-1.26a.78.78 0 0 0-.67.26 1 1 0 0 0-.19.59zm10.14-1.1v-2l.38-.92h1.3v2.92h.89v1.3l-.89.29v1.89h-1.68v-1.89h-4.12l-.41-.77 3.14-6.07h1.84l-2.62 5.25z"/><path class="c" d="M240.66 95.86c.32 0 .82 0 1.47.09s1.15.12 1.48.17v.53l-2.89-.11h-.17a1.9 1.9 0 0 0-1.11.28q-.39.27-.39 1.17v.79a1.53 1.53 0 0 0 .13.78.94.94 0 0 0 .25.29.73.73 0 0 0 .28.13 3.1 3.1 0 0 0 .74.08h1.6a1.72 1.72 0 0 1 1.55.62 2.4 2.4 0 0 1 .34 1.32v.82a1.66 1.66 0 0 1-1 1.76 3.19 3.19 0 0 1-1.16.21c-.42 0-1 0-1.67-.09a14.44 14.44 0 0 1-1.47-.18V104c.78.07 1.51.1 2.18.1H242a2.84 2.84 0 0 0 .45-.1 1.18 1.18 0 0 0 .42-.21 1.14 1.14 0 0 0 .4-1V102a1.38 1.38 0 0 0-.28-.95 1.17 1.17 0 0 0-.93-.32h-1.57c-1 0-1.66-.28-1.92-.85a2.74 2.74 0 0 1-.2-1.12V98a2 2 0 0 1 .63-1.74 2.86 2.86 0 0 1 1.66-.4zm4.51 1.42v-.67c0-.17.08-.25.24-.25h.44c.15 0 .23.08.23.25v.67a.21.21 0 0 1-.23.24h-.44c-.1 0-.16 0-.19-.08a.27.27 0 0 1-.05-.16zm.09 7.43v-6.37h.74v6.37zm2.02-4.32v-.55a1.62 1.62 0 0 1 .38-1.16 1.69 1.69 0 0 1 1.28-.4q.44 0 1.47.06l1.54.11V99h-3a1.07 1.07 0 0 0-.79.21 1 1 0 0 0-.19.68v.55c0 .39.09.62.27.71a2 2 0 0 0 .71.1h1.77a1.58 1.58 0 0 1 1.15.4 1.46 1.46 0 0 1 .41 1.08v.59a1.36 1.36 0 0 1-.5 1.25 1.79 1.79 0 0 1-.94.25c-.35 0-.92 0-1.71-.07s-1.31-.09-1.58-.12v-.49h3.17a.9.9 0 0 0 .58-.12.87.87 0 0 0 .3-.7v-.59c0-.53-.29-.8-.88-.8h-1.77a2.09 2.09 0 0 1-1.28-.3 1.48 1.48 0 0 1-.39-1.24zm5.54-1.39v-.5l1.13-.18.18-1.78h.51v1.78h1.94V99h-1.94v3.43a2 2 0 0 0 .27 1.26 1 1 0 0 0 .55.33l1 .2v.48h-1c-1 0-1.55-.75-1.55-2.27V99zm5.66 5.45a1.7 1.7 0 0 1-.65-1 6.75 6.75 0 0 1-.18-1.68 13.81 13.81 0 0 1 .06-1.49 3.26 3.26 0 0 1 .21-.87 2.11 2.11 0 0 1 .34-.58 1.29 1.29 0 0 1 .52-.33 4.38 4.38 0 0 1 1.53-.21 3.76 3.76 0 0 1 1.59.23 1.28 1.28 0 0 1 .62.66 3 3 0 0 1 .23 1.18 1.94 1.94 0 0 1-.18 1 1.6 1.6 0 0 1-1.47.58h-2.77c0 1.12.21 1.8.61 2a1.63 1.63 0 0 0 .81.17 20.42 20.42 0 0 0 2.88-.16v.51a10.6 10.6 0 0 1-2.82.33 2.23 2.23 0 0 1-1.33-.34zm-.15-3.22h2.77a1.4 1.4 0 0 0 .72-.15.67.67 0 0 0 .24-.62 3.31 3.31 0 0 0-.07-.77.87.87 0 0 0-.31-.47 1.13 1.13 0 0 0-.52-.2 5.32 5.32 0 0 0-.77 0h-.73a3 3 0 0 0-.5.1.81.81 0 0 0-.38.22 1.63 1.63 0 0 0-.26.4 4.35 4.35 0 0 0-.19 1.49zm7.18-2.55a4.6 4.6 0 0 1 .73-.29 3.42 3.42 0 0 1 1-.13 2 2 0 0 1 1 .25 1.67 1.67 0 0 1 .68.69 4.43 4.43 0 0 1 1.22-.67 4.25 4.25 0 0 1 1.51-.27 1.78 1.78 0 0 1 1.34.58 2 2 0 0 1 .55 1.47v4.4h-.68v-4.4a1.4 1.4 0 0 0-.36-1 1.16 1.16 0 0 0-.88-.38 5.44 5.44 0 0 0-1 .08 4.86 4.86 0 0 0-1.58.65 2 2 0 0 1 .06.61v4.43h-.68v-4.4a1.4 1.4 0 0 0-.36-1 1.19 1.19 0 0 0-.89-.38 4.12 4.12 0 0 0-.91.09 4.07 4.07 0 0 0-.69.21c-.19.08-.47.21-.83.4v5.07h-.68v-6.35h.47l.21.76c.34-.19.58-.33.77-.42zm9.42-.1a11.61 11.61 0 0 1 3-.36 1.85 1.85 0 0 1 1.3.46 1.75 1.75 0 0 1 .51 1.39v4.64h-.5l-.18-.77-.19.09-.48.21-.64.24a4.28 4.28 0 0 1-1.47.3 1.57 1.57 0 0 1-1.11-.42 1.51 1.51 0 0 1-.46-1.16v-.73a1.47 1.47 0 0 1 .75-1.41 1.87 1.87 0 0 1 .85-.19h2.75v-.8c0-.79-.41-1.19-1.24-1.19-.66 0-1.63.06-2.9.19zm.48 4.56a.92.92 0 0 0 .25.73.92.92 0 0 0 .6.23 3.63 3.63 0 0 0 .74-.1 5.21 5.21 0 0 0 .73-.16c.49-.13.88-.24 1.18-.35l.19-.07v-2.03l-2.75.17a.86.86 0 0 0-.91 1zm5.59-2.75v-.55a1.62 1.62 0 0 1 .38-1.16 1.69 1.69 0 0 1 1.28-.4q.44 0 1.47.06l1.54.11V99h-3a1.08 1.08 0 0 0-.79.21 1 1 0 0 0-.19.68v.55c0 .39.09.62.27.71a2 2 0 0 0 .71.1h1.77a1.58 1.58 0 0 1 1.15.4 1.46 1.46 0 0 1 .41 1.08v.59a1.33 1.33 0 0 1-.5 1.25 1.79 1.79 0 0 1-.94.25c-.35 0-.92 0-1.71-.07s-1.31-.09-1.57-.12v-.49h3.16a.9.9 0 0 0 .56-.14.87.87 0 0 0 .3-.7v-.59c0-.53-.29-.8-.88-.8h-1.77a2.09 2.09 0 0 1-1.28-.3 1.48 1.48 0 0 1-.37-1.22zm9.26-3.11v-.67c0-.17.08-.25.24-.25h.5c.15 0 .23.08.23.25v.67a.21.21 0 0 1-.23.24h-.45c-.09 0-.16 0-.19-.08a.37.37 0 0 1-.1-.16zm.1 7.43v-6.37h.64v6.37zm3.72-6.05a4.51 4.51 0 0 1 .76-.29 3.55 3.55 0 0 1 1-.14 1.87 1.87 0 0 1 1 .29 1.93 1.93 0 0 1 .9 1.75v4.44H297v-4.44a1.36 1.36 0 0 0-.35-1 1.19 1.19 0 0 0-.88-.36 4.41 4.41 0 0 0-.94.09 4.67 4.67 0 0 0-.71.21l-.84.39v5.1h-.68v-6.36h.47l.21.74c.35-.18.6-.32.8-.42zm4.45.34v-.5l1.13-.18.18-1.78h.5v1.78h1.95V99h-1.95v3.43a2 2 0 0 0 .28 1.26 1 1 0 0 0 .55.33c.62.13.95.2 1 .2v.48h-1c-1 0-1.55-.75-1.55-2.27V99zm5.65 5.45a1.73 1.73 0 0 1-.64-1 6.75 6.75 0 0 1-.18-1.68 13.81 13.81 0 0 1 .06-1.49 3.26 3.26 0 0 1 .21-.87 2.11 2.11 0 0 1 .34-.58 1.33 1.33 0 0 1 .51-.33 4.45 4.45 0 0 1 1.52-.21 3.71 3.71 0 0 1 1.58.23 1.26 1.26 0 0 1 .63.66 3 3 0 0 1 .23 1.18 1.94 1.94 0 0 1-.18 1 1.6 1.6 0 0 1-1.47.58H304c0 1.12.2 1.8.61 2a1.6 1.6 0 0 0 .81.17 20.42 20.42 0 0 0 2.88-.16v.51a10.7 10.7 0 0 1-2.82.33 2.29 2.29 0 0 1-1.3-.34zm-.18-3.22h2.77a1.43 1.43 0 0 0 .72-.15.67.67 0 0 0 .24-.62 2.8 2.8 0 0 0-.08-.77.81.81 0 0 0-.3-.47 1.18 1.18 0 0 0-.52-.2 5.32 5.32 0 0 0-.77 0h-.73a3 3 0 0 0-.5.1.91.91 0 0 0-.39.22 2 2 0 0 0-.25.4 4.12 4.12 0 0 0-.19 1.49zm5.62 2.08a.91.91 0 0 1 .22-.6.87.87 0 0 1 .6-.34 1.82 1.82 0 0 1-.82-1.79c0-1.51.69-2.26 2.08-2.26h3.74v.5l-1.09.18.07.1.1.13a.71.71 0 0 0 .09.15 1.65 1.65 0 0 1 .09.21c0 .07 0 .16.07.26a2.38 2.38 0 0 1 .07.63 3.59 3.59 0 0 1 0 .61 3.39 3.39 0 0 1-.17.59 2 2 0 0 1-.33.57 1.62 1.62 0 0 1-.58.41 2.06 2.06 0 0 1-.86.17H311a.74.74 0 0 0-.51.14.43.43 0 0 0-.18.36.39.39 0 0 0 .2.34.77.77 0 0 0 .49.13h2.53a1.57 1.57 0 0 1 1.19.44 1.65 1.65 0 0 1 .42 1.19v.71a1.93 1.93 0 0 1-.31 1.18 1.29 1.29 0 0 1-.71.52 2.63 2.63 0 0 1-.78.11h-1.8a1.72 1.72 0 0 1-1.65-.83 1.93 1.93 0 0 1-.26-1v-1.07l.38-.95a.91.91 0 0 1-.39-.79zm1.38 1.16a1.21 1.21 0 0 1-.68-.18v1.81a1 1 0 0 0 .44 1 1.72 1.72 0 0 0 .77.19h1.8a1 1 0 0 0 1.12-1.13v-.67a1.16 1.16 0 0 0-.22-.75 1.09 1.09 0 0 0-.81-.25zm-.36-5a2 2 0 0 0-.3 1.14 1.94 1.94 0 0 0 .32 1.14 1.14 1.14 0 0 0 1 .43h1.14a1.22 1.22 0 0 0 1.3-1 1.86 1.86 0 0 0 .06-.48c0-1.16-.4-1.7-1.16-1.7h-1.34a1.2 1.2 0 0 0-1.06.43zm5.87 5.24v-6.37h.49l.21.8a1 1 0 0 0 .2-.14l.23-.13.21-.12.24-.12.22-.1a1.3 1.3 0 0 1 .26-.1l.23-.07a.83.83 0 0 1 .28-.06 4.7 4.7 0 0 1 .79-.05 1.92 1.92 0 0 1 .67.09V99a3.08 3.08 0 0 0-.68 0h-.75a1.66 1.66 0 0 0-.26 0 .91.91 0 0 1-.22.05.93.93 0 0 0-.24.07l-.21.09-.24.1-.23.1-.25.13-.27.12v5zm5.04-6.13a11.61 11.61 0 0 1 3-.36 1.85 1.85 0 0 1 1.3.46 1.75 1.75 0 0 1 .51 1.39v4.64h-.5l-.18-.77-.18.06-.5.24-.64.24a4.32 4.32 0 0 1-1.47.3 1.57 1.57 0 0 1-1.11-.42 1.47 1.47 0 0 1-.46-1.16v-.73a1.47 1.47 0 0 1 .75-1.41 1.87 1.87 0 0 1 .85-.19h2.77v-.8a1.08 1.08 0 0 0-1.24-1.19c-.66 0-1.63.06-2.9.19zm.45 4.56a.92.92 0 0 0 .25.73.9.9 0 0 0 .6.23 3.63 3.63 0 0 0 .74-.1 5.55 5.55 0 0 0 .73-.16c.49-.13.88-.24 1.18-.35l.19-.07v-2.03l-2.75.17a.86.86 0 0 0-.91 1zm7.26-4.46a5 5 0 0 1 .73-.29 3.46 3.46 0 0 1 1-.13 2 2 0 0 1 1 .25 1.76 1.76 0 0 1 .69.69 4.37 4.37 0 0 1 1.21-.67 4.25 4.25 0 0 1 1.51-.27 1.75 1.75 0 0 1 1.34.58 2.06 2.06 0 0 1 .56 1.47v4.4h-.69v-4.4a1.44 1.44 0 0 0-.35-1 1.17 1.17 0 0 0-.88-.38 5.35 5.35 0 0 0-.95.08 5 5 0 0 0-1.59.65 2 2 0 0 1 .06.61v4.43h-.68v-4.4a1.4 1.4 0 0 0-.36-1 1.17 1.17 0 0 0-.88-.38 4.15 4.15 0 0 0-.98.08 4.24 4.24 0 0 0-.68.21c-.2.08-.47.21-.83.4v5.07h-.66v-6.34h.47l.22.76c.31-.19.56-.33.74-.42zm12.34 1.71v-.55a1.58 1.58 0 0 1 .4-1.16 1.68 1.68 0 0 1 1.28-.4q.43 0 1.47.06l1.54.11V99h-3a1.05 1.05 0 0 0-.79.21 1 1 0 0 0-.19.68v.55c0 .39.09.62.27.71a2 2 0 0 0 .71.1H345a1.58 1.58 0 0 1 1.15.4 1.46 1.46 0 0 1 .41 1.08v.59a1.36 1.36 0 0 1-.5 1.25 1.8 1.8 0 0 1-.95.25c-.34 0-.91 0-1.7-.07s-1.31-.09-1.58-.12v-.49H345a.9.9 0 0 0 .58-.12.87.87 0 0 0 .3-.7v-.59c0-.53-.3-.8-.88-.8h-1.74a2.07 2.07 0 0 1-1.28-.3 1.45 1.45 0 0 1-.38-1.24zm6.19-3.11v-.67c0-.17.08-.25.24-.25h.44c.16 0 .23.08.23.25v.67c0 .16-.07.24-.23.24H348c-.1 0-.16 0-.19-.08a.37.37 0 0 1-.02-.16zm.1 7.43v-6.37h.68v6.37zm3.7-6.03a4.76 4.76 0 0 1 .74-.29 3.39 3.39 0 0 1 1-.13 2 2 0 0 1 1 .25 1.7 1.7 0 0 1 .69.69 4.29 4.29 0 0 1 1.22-.67 4.16 4.16 0 0 1 1.5-.27 1.79 1.79 0 0 1 1.35.58 2.09 2.09 0 0 1 .55 1.47v4.4h-.69v-4.4a1.4 1.4 0 0 0-.35-1 1.17 1.17 0 0 0-.88-.38 5.44 5.44 0 0 0-1 .08 4.86 4.86 0 0 0-1.58.65 2 2 0 0 1 .06.61v4.43h-.69v-4.4a1.4 1.4 0 0 0-.36-1 1.17 1.17 0 0 0-.88-.38 4.06 4.06 0 0 0-1.6.3c-.19.08-.47.21-.83.4v5.07h-.68v-6.35h.46l.22.76c.32-.19.57-.33.75-.42zm10.04-.34v4.44a1.33 1.33 0 0 0 .35 1 1.27 1.27 0 0 0 .93.37 3.49 3.49 0 0 0 1.14-.15 10.82 10.82 0 0 0 1.3-.56v-5.1h.65v6.37h-.47l-.18-.71-.76.42a3.62 3.62 0 0 1-1.71.43 1.78 1.78 0 0 1-1.41-.6 2.12 2.12 0 0 1-.53-1.44v-4.47zm6 4.1v-7.12h.68v7.12a1.93 1.93 0 0 0 .28 1.26 1 1 0 0 0 .55.33c.61.14 1 .21 1 .21v.47h-1c-1 0-1.51-.71-1.51-2.27zm3.52-3.86a11.69 11.69 0 0 1 3-.36 1.86 1.86 0 0 1 1.3.46 1.75 1.75 0 0 1 .55 1.39v4.64h-.51l-.18-.77-.21.06-.47.21-.64.24a4.37 4.37 0 0 1-1.47.3 1.57 1.57 0 0 1-1.11-.42 1.47 1.47 0 0 1-.41-1.13v-.73a1.48 1.48 0 0 1 .74-1.41 1.91 1.91 0 0 1 .86-.19h2.74v-.8a1.07 1.07 0 0 0-1.23-1.19c-.67 0-1.63.06-2.91.19zm.48 4.56a.92.92 0 0 0 .26.73.88.88 0 0 0 .6.23 3.63 3.63 0 0 0 .71-.1 5.93 5.93 0 0 0 .73-.16c.48-.13.88-.24 1.17-.35l.19-.07v-2.03l-2.74.17a.87.87 0 0 0-.92 1zm5.68-1.62a8.12 8.12 0 0 1 .1-1.4 3.49 3.49 0 0 1 .28-1 1.61 1.61 0 0 1 .46-.57 2.26 2.26 0 0 1 1.34-.33 14.88 14.88 0 0 1 2.54.32v.48C381 99 380.25 99 379.8 99a6.75 6.75 0 0 0-.87 0 .93.93 0 0 0-.38.2 1 1 0 0 0-.3.42 5 5 0 0 0-.26 1.8 6.62 6.62 0 0 0 .17 1.73 1.34 1.34 0 0 0 .46.76 1.42 1.42 0 0 0 .79.2c.66 0 1.41 0 2.27-.12l.43-.05v.51a10 10 0 0 1-2.7.34 1.72 1.72 0 0 1-1.7-.9 5.33 5.33 0 0 1-.4-2.37zm3.11 3.62a2.41 2.41 0 0 1-.25 1.29 1.13 1.13 0 0 1-1 .35h-.53v-.32l.55-.14a.68.68 0 0 0 .46-.36 2.08 2.08 0 0 0 .13-.82zm2.65-3.52a7.92 7.92 0 0 1 .14-1.62 2.2 2.2 0 0 1 .47-1 1.8 1.8 0 0 1 .84-.54 4.3 4.3 0 0 1 1.3-.16 2.63 2.63 0 0 1 2.18.7 4.11 4.11 0 0 1 .6 2.55 3.9 3.9 0 0 1-.6 2.51 2.74 2.74 0 0 1-2.16.69 2.69 2.69 0 0 1-2.15-.7 3.91 3.91 0 0 1-.62-2.43zm.93-1.79a2.36 2.36 0 0 0-.18.74 7 7 0 0 0-.06.95v.85a3 3 0 0 0 .11.59 1.94 1.94 0 0 0 .16.43 1.19 1.19 0 0 0 .23.31 1.68 1.68 0 0 0 .29.2 1.52 1.52 0 0 0 .36.12 5.11 5.11 0 0 0 .85.07 7.74 7.74 0 0 0 .79 0 1.69 1.69 0 0 0 .56-.19 1.15 1.15 0 0 0 .43-.42 4 4 0 0 0 .32-1.82 4.73 4.73 0 0 0-.23-1.76 1.8 1.8 0 0 0-.27-.46.91.91 0 0 0-.4-.28 2.64 2.64 0 0 0-.52-.13 5.79 5.79 0 0 0-.65 0 5.29 5.29 0 0 0-.63 0 1.87 1.87 0 0 0-.51.11.92.92 0 0 0-.41.27 1.64 1.64 0 0 0-.24.42zm3-2.37a1.13 1.13 0 0 1-1.16-.2 1.42 1.42 0 0 0-.64-.26 1.23 1.23 0 0 0-.39.07 1.77 1.77 0 0 0-.41.21 4 4 0 0 1-.36.2l-.18-.36.46-.37a1.4 1.4 0 0 1 .85-.36 1.77 1.77 0 0 1 .81.29 2 2 0 0 0 .56.28h.29l.13-.05.13-.06.13-.06.13-.07.12-.08.13-.07.11-.08.21.36-.18.14-.18.16-.18.14a2.16 2.16 0 0 1-.38.17zm3.61 6.99a1.7 1.7 0 0 1-.65-1 6.75 6.75 0 0 1-.18-1.68 13.81 13.81 0 0 1 .06-1.49 3.26 3.26 0 0 1 .21-.87 2.11 2.11 0 0 1 .34-.58 1.29 1.29 0 0 1 .52-.33 4.38 4.38 0 0 1 1.53-.21 3.76 3.76 0 0 1 1.59.23 1.28 1.28 0 0 1 .62.66 3 3 0 0 1 .23 1.18 1.94 1.94 0 0 1-.18 1 1.6 1.6 0 0 1-1.47.58h-2.77c0 1.12.21 1.8.61 2a1.63 1.63 0 0 0 .81.17 20.42 20.42 0 0 0 2.88-.16v.51a10.6 10.6 0 0 1-2.82.33 2.23 2.23 0 0 1-1.33-.34zm-.15-3.22h2.77a1.4 1.4 0 0 0 .72-.15.67.67 0 0 0 .24-.62 3.31 3.31 0 0 0-.07-.77.87.87 0 0 0-.31-.47 1.13 1.13 0 0 0-.52-.2 5.32 5.32 0 0 0-.77 0h-.73a3 3 0 0 0-.5.1.81.81 0 0 0-.38.22 1.63 1.63 0 0 0-.26.4 4.35 4.35 0 0 0-.19 1.49zm5.54-.84v-.55a1.62 1.62 0 0 1 .37-1.16 1.71 1.71 0 0 1 1.28-.4c.3 0 .79 0 1.48.06l1.53.11V99h-3a1 1 0 0 0-.78.21 1 1 0 0 0-.19.68v.55c0 .39.09.62.26.71a2.06 2.06 0 0 0 .71.1h1.78a1.54 1.54 0 0 1 1.14.4 1.43 1.43 0 0 1 .42 1.08v.59a1.34 1.34 0 0 1-.51 1.25 1.76 1.76 0 0 1-.94.25c-.35 0-.91 0-1.7-.07s-1.32-.09-1.58-.12v-.49h3.17a.88.88 0 0 0 .56-.14.87.87 0 0 0 .3-.7v-.59c0-.53-.29-.8-.87-.8h-1.83a2.11 2.11 0 0 1-1.28-.3 1.48 1.48 0 0 1-.32-1.22zm6.68 5.22a1 1 0 0 1-.24.08h-.33v-.27c.2 0 .29-.11.29-.31v-.39h-.1c-.16 0-.24-.08-.24-.25v-.68q0-.27.24-.27h.45q.24 0 .24.27V105c.01.3-.11.52-.31.61zm-164.93 9.73h.75l2.16 5.38 2.19-5.38h.73l-2.58 6.37h-.69zm6.77-1.06v-.67c0-.17.08-.25.24-.25h.45c.15 0 .22.08.22.25v.67c0 .16-.07.24-.22.24h-.45c-.09 0-.16 0-.19-.08a.37.37 0 0 1-.05-.16zm.1 7.43v-6.37h.68v6.37zm2.01-4.32v-.55a1.62 1.62 0 0 1 .37-1.16 1.69 1.69 0 0 1 1.28-.4q.45 0 1.47.06l1.54.11v.55h-3a1.08 1.08 0 0 0-.79.21 1 1 0 0 0-.18.68v.55c0 .39.08.62.26.71a2 2 0 0 0 .71.1h1.77a1.58 1.58 0 0 1 1.15.4 1.43 1.43 0 0 1 .42 1.08v.59a1.34 1.34 0 0 1-.51 1.25 1.76 1.76 0 0 1-.94.25c-.35 0-.92 0-1.71-.07s-1.31-.09-1.57-.12v-.49h3.16a.9.9 0 0 0 .58-.12.87.87 0 0 0 .3-.7v-.59c0-.53-.29-.8-.88-.8h-1.77a2.09 2.09 0 0 1-1.28-.3 1.48 1.48 0 0 1-.38-1.24zm6.88-2.05v4.44a1.37 1.37 0 0 0 .35 1 1.27 1.27 0 0 0 .93.37 3.49 3.49 0 0 0 1.14-.15 10.18 10.18 0 0 0 1.3-.56v-5.1h.68v6.37h-.47l-.21-.74-.76.42a3.62 3.62 0 0 1-1.71.43 1.79 1.79 0 0 1-1.41-.6 2.12 2.12 0 0 1-.53-1.44v-4.44zm5.94.24a11.61 11.61 0 0 1 3-.36 1.85 1.85 0 0 1 1.3.46 1.75 1.75 0 0 1 .51 1.39v4.64h-.5l-.18-.77-.19.09-.48.21-.64.24a4.28 4.28 0 0 1-1.47.3 1.57 1.57 0 0 1-1.11-.42 1.51 1.51 0 0 1-.46-1.16v-.73a1.47 1.47 0 0 1 .77-1.41 1.87 1.87 0 0 1 .85-.19h2.75v-.8c0-.79-.41-1.19-1.24-1.19-.66 0-1.63.06-2.9.19zm.48 4.56a.92.92 0 0 0 .25.73.92.92 0 0 0 .6.23 3.63 3.63 0 0 0 .71-.07 5.21 5.21 0 0 0 .73-.16c.49-.13.88-.24 1.18-.35l.19-.07v-2.06l-2.75.17a.86.86 0 0 0-.91 1zm5.81-.7v-7.12h.68v7.12a1.93 1.93 0 0 0 .28 1.26 1 1 0 0 0 .55.33c.61.14 1 .21 1 .21v.47h-1c-1 0-1.51-.71-1.51-2.27zm3.45-5.16v-.67c0-.17.08-.25.24-.25h.45c.15 0 .22.08.22.25v.67c0 .16-.07.24-.22.24h-.45c-.09 0-.16 0-.19-.08a.37.37 0 0 1-.05-.16zm.1 7.43v-6.37h.71v6.37zm6.62-6.37v.66l-3.67 5h3.67v.68h-4.56V121l3.71-5h-3.9v-.68zm1.14.24a11.66 11.66 0 0 1 3-.36 1.87 1.87 0 0 1 1.31.46 1.75 1.75 0 0 1 .51 1.39v4.64h-.51l-.18-.77-.18.06-.47.21-.65.24a4.28 4.28 0 0 1-1.47.3 1.6 1.6 0 0 1-1.11-.42 1.5 1.5 0 0 1-.45-1.16v-.73a1.48 1.48 0 0 1 .74-1.41 1.9 1.9 0 0 1 .85-.19h2.75v-.8a1.07 1.07 0 0 0-1.19-1.16c-.67 0-1.64.06-2.91.19zm.48 4.56a1 1 0 0 0 .25.73.92.92 0 0 0 .6.23 3.65 3.65 0 0 0 .72-.1 5.4 5.4 0 0 0 .72-.16c.49-.13.88-.24 1.18-.35l.19-.07v-2.03l-2.75.17a.86.86 0 0 0-.91 1zm5.68-1.62a8.12 8.12 0 0 1 .1-1.4 3.49 3.49 0 0 1 .28-.95 1.61 1.61 0 0 1 .46-.57 2.25 2.25 0 0 1 1.33-.33 14.77 14.77 0 0 1 2.54.32v.48q-1.55-.12-2.22-.12a6.75 6.75 0 0 0-.87 0 1 1 0 0 0-.39.2 1.13 1.13 0 0 0-.3.42 5.31 5.31 0 0 0-.25 1.8 6.62 6.62 0 0 0 .17 1.73 1.34 1.34 0 0 0 .46.76 1.42 1.42 0 0 0 .79.2c.65 0 1.41 0 2.27-.12h.43v.51a10 10 0 0 1-2.7.34 1.74 1.74 0 0 1-1.71-.9 5.5 5.5 0 0 1-.39-2.37zm3.11 3.62a2.3 2.3 0 0 1-.26 1.29 1.1 1.1 0 0 1-1 .35h-.52v-.32l.55-.14a.66.66 0 0 0 .45-.36 1.89 1.89 0 0 0 .14-.82zm2.96-6.56a11.66 11.66 0 0 1 3-.36 1.85 1.85 0 0 1 1.3.46 1.75 1.75 0 0 1 .51 1.39v4.64h-.5l-.18-.77-.19.09-.48.21-.64.24a4.28 4.28 0 0 1-1.47.3 1.6 1.6 0 0 1-1.11-.42 1.5 1.5 0 0 1-.45-1.16v-.73a1.46 1.46 0 0 1 .74-1.41 1.87 1.87 0 0 1 .85-.19h2.75v-.8c0-.79-.41-1.19-1.24-1.19-.66 0-1.63.06-2.9.19zm3.48-1.21a1.16 1.16 0 0 1-1.17-.21 1.31 1.31 0 0 0-.62-.27 1.21 1.21 0 0 0-.38.06 2 2 0 0 0-.42.21l-.36.21-.18-.36.46-.37a1.49 1.49 0 0 1 .85-.37 1.57 1.57 0 0 1 .81.29 1.64 1.64 0 0 0 .57.28h.36l.16-.07.17-.09.16-.09.17-.1.14-.09.2.36-.16.15-.19.15-.17.14a2.68 2.68 0 0 1-.4.17zm-3 5.77a.92.92 0 0 0 .25.73.92.92 0 0 0 .6.23 3.73 3.73 0 0 0 .72-.07 5.4 5.4 0 0 0 .72-.16c.49-.13.88-.24 1.18-.35l.19-.07v-2.06l-2.75.17a.86.86 0 0 0-.91 1zm6.24.91a2.18 2.18 0 0 1-.45-1 8.56 8.56 0 0 1-.13-1.67 5 5 0 0 1 .28-1.82 1.75 1.75 0 0 1 .85-1 3.73 3.73 0 0 1 1.62-.29 2.67 2.67 0 0 1 2.16.74 4.19 4.19 0 0 1 .59 2.55 4 4 0 0 1-.59 2.51 2.77 2.77 0 0 1-2.16.69 4.24 4.24 0 0 1-1.34-.17 1.72 1.72 0 0 1-.83-.54zm.34-4.22a3.08 3.08 0 0 0-.18.74 9.25 9.25 0 0 0-.05 1v.85a3 3 0 0 0 .1.59 2.61 2.61 0 0 0 .16.43 1 1 0 0 0 .24.31 1.62 1.62 0 0 0 .28.2 1.46 1.46 0 0 0 .37.12 4.76 4.76 0 0 0 .8.07 6.49 6.49 0 0 0 .71 0 2.36 2.36 0 0 0 .51-.12 1 1 0 0 0 .41-.26 1.45 1.45 0 0 0 .28-.44 3.24 3.24 0 0 0 .24-1.37 9.94 9.94 0 0 0-.06-1.28 2.72 2.72 0 0 0-.17-.72 1.71 1.71 0 0 0-.27-.47.94.94 0 0 0-.41-.28 2.33 2.33 0 0 0-.52-.13 5.6 5.6 0 0 0-.64 0 5.48 5.48 0 0 0-.64 0 1.88 1.88 0 0 0-.5.11.87.87 0 0 0-.41.27 1.92 1.92 0 0 0-.24.38zm8.77-3.66a5.76 5.76 0 0 1 1.36-.24h2.31a2.08 2.08 0 0 1 1.53.57 1.94 1.94 0 0 1 .54 1.41v.83a2.07 2.07 0 0 1-.17.84 1.4 1.4 0 0 1-.85.79 1.78 1.78 0 0 1 1 1.73v.71c0 1.34-.71 2-2.14 2-1.13 0-1.93 0-2.42-.07a5 5 0 0 1-1.13-.2v-.43h3.47c.72 0 1.17-.21 1.36-.64a1.53 1.53 0 0 0 .13-.68v-.71a1.2 1.2 0 0 0-.43-1 1.7 1.7 0 0 0-1-.35l-2.81-.08v-.52l2.81-.11a1.62 1.62 0 0 0 1.06-.34 1.15 1.15 0 0 0 .39-.93v-.83a1.15 1.15 0 0 0-.41-1 1.66 1.66 0 0 0-1-.32h-3.63zm7.83 8.54v-8.78h3.18a2.86 2.86 0 0 1 1.64.44 2.74 2.74 0 0 1 .93 1.09 4.56 4.56 0 0 1 .42 1.29 10.43 10.43 0 0 1 .13 1.56 7.15 7.15 0 0 1-.1 1.26 5.4 5.4 0 0 1-.34 1.17 4.13 4.13 0 0 1-.59 1 2.59 2.59 0 0 1-.89.7 2.78 2.78 0 0 1-1.2.26zm.69-.71h2.49a2 2 0 0 0 1.11-.31 2.4 2.4 0 0 0 .77-.84 5.31 5.31 0 0 0 .56-2.51c0-2.48-.81-3.73-2.44-3.73h-2.49zm10.21-.67a4.73 4.73 0 0 1-.2-.87 8.7 8.7 0 0 1-.05-.93 9.39 9.39 0 0 1 0-1 5.9 5.9 0 0 1 .19-.89 2.39 2.39 0 0 1 .37-.75 1.79 1.79 0 0 1 1.53-.7 6.23 6.23 0 0 1 1.14.14 6.43 6.43 0 0 1 1.23.34v-3.38h.66v9.42h-.43l-.2-.71a3.8 3.8 0 0 1-1 .51 4 4 0 0 1-1.29.27 1.94 1.94 0 0 1-.91-.19 1.87 1.87 0 0 1-.62-.51 2.41 2.41 0 0 1-.42-.75zm.43-1.74a3.64 3.64 0 0 0 .39 1.88 1.2 1.2 0 0 0 1.06.63 6 6 0 0 0 2.36-.59v-4.26a9.8 9.8 0 0 0-2.36-.32 1.17 1.17 0 0 0-1.18.78 5 5 0 0 0-.27 1.88zm6.03-3.01a11.55 11.55 0 0 1 3-.36 1.85 1.85 0 0 1 1.3.46 1.75 1.75 0 0 1 .51 1.39v4.64h-.5l-.19-.77-.19.09-.47.21-.64.24a4.37 4.37 0 0 1-1.47.3 1.57 1.57 0 0 1-1.11-.42 1.47 1.47 0 0 1-.46-1.16v-.73a1.47 1.47 0 0 1 .75-1.41 1.87 1.87 0 0 1 .85-.19h2.74v-.8a1.07 1.07 0 0 0-1.23-1.19c-.67 0-1.63.06-2.9.19zm.47 4.56a.92.92 0 0 0 .26.73.88.88 0 0 0 .6.23 3.63 3.63 0 0 0 .71-.07 5.55 5.55 0 0 0 .73-.16c.48-.13.88-.24 1.17-.35l.19-.07v-2.06l-2.74.17a.87.87 0 0 0-.92 1zm8.39-4.14v-.5l1.13-.18v-1.17a2.49 2.49 0 0 1 .3-1.4 1.15 1.15 0 0 1 .41-.33 1.39 1.39 0 0 1 .65-.14 5.79 5.79 0 0 1 1.71.24v.48h-1.7a.83.83 0 0 0-.31.08.55.55 0 0 0-.26.26 2.42 2.42 0 0 0-.12.86v1.19h1.9v.61H341v5.69h-.68V116zm4.97-.42a11.66 11.66 0 0 1 3-.36 1.85 1.85 0 0 1 1.3.46 1.75 1.75 0 0 1 .57 1.39v4.64h-.5l-.18-.77-.19.09-.48.21-.64.24a4.28 4.28 0 0 1-1.47.3 1.6 1.6 0 0 1-1.11-.42 1.5 1.5 0 0 1-.45-1.16v-.73a1.46 1.46 0 0 1 .74-1.41 1.87 1.87 0 0 1 .85-.19h2.75v-.8c0-.79-.41-1.19-1.24-1.19-.66 0-1.63.06-2.9.19zm.48 4.56a.84.84 0 0 0 .85 1 3.73 3.73 0 0 0 .72-.07 5.4 5.4 0 0 0 .72-.16c.49-.13.88-.24 1.18-.35l.19-.07v-2.1l-2.75.17a.86.86 0 0 0-.91 1zm1.63-5.64l1.33-1.6h.87l-1.6 1.6zm4.18 7.21v-9.42h.66v3.43a6.43 6.43 0 0 1 1.23-.34 6.24 6.24 0 0 1 1.13-.14 2.38 2.38 0 0 1 .79.13 1.38 1.38 0 0 1 .58.37 2.57 2.57 0 0 1 .38.55 2.38 2.38 0 0 1 .24.68 6.25 6.25 0 0 1 .16 1.39 10.59 10.59 0 0 1-.05 1.1 4.78 4.78 0 0 1-.21.87 2.93 2.93 0 0 1-.38.75 2 2 0 0 1-.62.51 2 2 0 0 1-.91.19 4 4 0 0 1-1.29-.27 4 4 0 0 1-1-.51l-.19.71zm3-.61a1.2 1.2 0 0 0 1.07-.64 3.71 3.71 0 0 0 .4-1.9 3.78 3.78 0 0 0-.42-2.12 1.23 1.23 0 0 0-1.05-.51 9.72 9.72 0 0 0-2.35.32v4.26a6 6 0 0 0 2.37.59zm3.63.61v-6.37h.47l.22.8a1.08 1.08 0 0 0 .26-.14l.24-.13.21-.12.23-.12a1.57 1.57 0 0 0 .23-.1 1.27 1.27 0 0 1 .25-.1l.24-.07a.74.74 0 0 1 .27-.06 4.77 4.77 0 0 1 .79-.05 2 2 0 0 1 .68.09v.66a3.25 3.25 0 0 0-.74 0h-.74a1.66 1.66 0 0 0-.26.05l-.22.05a.93.93 0 0 0-.24.07l-.22.09-.24.1-.22.1-.26.13-.26.12v5zm4.95-7.43v-.67c0-.17.08-.25.24-.25h.45c.15 0 .22.08.22.25v.67c0 .16-.07.24-.22.24h-.45c-.09 0-.16 0-.19-.08a.37.37 0 0 1-.05-.16zm.1 7.43v-6.37h.68v6.37zm2.16-3.19a8 8 0 0 1 .11-1.4 3.88 3.88 0 0 1 .28-.95 1.37 1.37 0 0 1 .45-.55 1.48 1.48 0 0 1 .57-.27 2.8 2.8 0 0 1 .7-.07 13.82 13.82 0 0 1 2.61.31v.48c-.98-.07-1.76-.07-2.18-.07h-.78a.86.86 0 0 0-.3.09.73.73 0 0 0-.27.17 1.29 1.29 0 0 0-.21.3 2.14 2.14 0 0 0-.16.47 7.46 7.46 0 0 0-.08 1.56 5.7 5.7 0 0 0 .17 1.54 1.32 1.32 0 0 0 .46.76 1.4 1.4 0 0 0 .79.2c.65 0 1.41-.05 2.26-.13h.43v.5a10.21 10.21 0 0 1-2.69.35 1.72 1.72 0 0 1-1.71-.9 5.43 5.43 0 0 1-.45-2.39zm6.08-2.94a11.61 11.61 0 0 1 3-.36 1.85 1.85 0 0 1 1.3.46 1.75 1.75 0 0 1 .51 1.39v4.64h-.5l-.18-.77-.19.09-.48.21-.64.24a4.32 4.32 0 0 1-1.47.3 1.57 1.57 0 0 1-1.11-.42 1.47 1.47 0 0 1-.46-1.16v-.73a1.47 1.47 0 0 1 .75-1.41 1.87 1.87 0 0 1 .85-.19h2.75v-.8a1.08 1.08 0 0 0-1.24-1.19c-.66 0-1.63.06-2.9.19zm.48 4.56a.92.92 0 0 0 .25.73.9.9 0 0 0 .6.23 3.63 3.63 0 0 0 .71-.07 5.55 5.55 0 0 0 .73-.16c.49-.13.88-.24 1.18-.35l.19-.07v-2.06l-2.75.17a.86.86 0 0 0-.91 1z"/><path stroke="url(#a)" stroke-width="5" fill="none" stroke-linecap="round" stroke-linejoin="round" d="M21.95 57.07l-9.73-9.72-9.72 9.72"/><path stroke="url(#b)" stroke-width="5" fill="none" stroke-linecap="round" stroke-linejoin="round" d="M12.22 403.72V49.58"/><path class="f" d="M143.83 286.71l4.6-4.6m-46-36.67l.36-.36m1.82-1.82l.37-.37m1.82-1.82l.36-.36m8.49-4.61l4.05-4.04m-25.93 25.92l19.03-19.03m23.15 48.91l14.06-14.05m-20.21 20.2l3.49-3.49M159 271.34l1 1a3.55 3.55 0 0 1 0 5l-20.9 20.9a3.56 3.56 0 0 1-5 0l-8-8-6.52-6.51m-20.71-20.66l-6.42-6.41a3.57 3.57 0 0 1 0-5l20.9-20.9a3.57 3.57 0 0 1 5 0l12.81 12.82m-18.68 13.02l1.56-1.56 7.91 7.91-7.91 7.91-2.32-2.32"/><path class="f" d="M112.51 260.63l1.53-1.53 3.84 3.85-3.84 3.84-1.87-1.87m4.654 8.722l7.912-7.912 7.913 7.912-7.913 7.913z"/><path class="f" d="M120.89 273.65l3.846-3.847 3.847 3.847-3.847 3.846zm9.62-19.26l-5.84 5.84-7.92-7.91 7.92-7.91 3.82 3.81"/><path class="f" d="M120.824 252.32l3.847-3.847 3.847 3.846-3.847 3.847zm6.676 10.75l.67-.67m1.52-1.52l.83-.83m3.9.33l-.45.45 2.93 2.93"/><path class="f" d="M129.62 265.18l2.19-2.18 2.93 2.93 2.97-2.98m-6.02 4.31l1.71 1.71m1.96 1.96l.77-.77m1.28-2.62l.67.67 2.83-2.83m9.8-1.38c1.2-1.21 3.68-2.76 5.87-.73 2.75 2.56 2 4.62-.06 6.65s-4.22 2.94-6.77.18c-2.03-2.22-.25-4.93.96-6.1zm-10.98-13.35c2.82-2.82 1.93-5 .1-6.62a4 4 0 0 0-5.41.18l-2.34 2.35a4 4 0 0 0-.18 5.41c1.66 1.83 3.8 2.71 6.61-.11z"/><path class="f" d="M146.54 256c1.41-1.43 3.41-3.85.45-6.81-2.4-2.41-4.69-1.06-6.54.72l-2.59 2.58c-1.94 1.91-3.64 4.34-1.08 6.9 3.23 3.24 5.82.56 7.17-.81z"/><path class="f" d="M152.54 262c1.13-1.14 3.08-3.52.45-6.15s-5.14-1.16-6.15-.16l-.3.31-2.58 2.58-.3.3c-1 1-2.52 3.48.16 6.15s5 .68 6.14-.45zm-48.97-3.57a3.52 3.52 0 0 1 3.89-3.1 3.51 3.51 0 0 1 3.1 3.89m-1.81 16.11a8.69 8.69 0 0 1 7.68 9.62"/><path class="f" d="M104.05 257L100 269.77a4.67 4.67 0 0 0-.17 2.13l2.3 14.81-2.47 2.76 19.49 15.2m-8.59-45.45l-2.47 16.03"/><path class="f" d="M129.62 297.88l-7.71 3.81-2.78 2.99m-6.41-175.65h26.95m-13.47-.55v-7.58m31-50.59a4.24 4.24 0 0 1 4.23 4.23v41.58a4.24 4.24 0 0 1-4.23 4.23h-62a4.24 4.24 0 0 1-4.2-4.23V74.54a4.24 4.24 0 0 1 4.22-4.23h10.5m-13.83 44.74h68.62m-3.31-39.44h3.31m-68.62 0h13.8"/><circle class="f" cx="131.17" cy="94.26" r="3.51"/><circle class="f" cx="151.21" cy="84.74" r="3.51"/><circle class="f" cx="151.21" cy="62.94" r="3.51"/><circle class="f" cx="111.14" cy="84.74" r="3.51"/><circle class="f" cx="111.14" cy="62.94" r="3.51"/><circle class="f" cx="131.17" cy="70.68" r="3.51"/><circle class="f" cx="131.17" cy="53.15" r="3.51"/><path class="f" d="M131.17 90.75V74.19m-16.98 12.28l13.6 6.87m-16.65-26.89v14.78m16.52-11.76l-13.01-5.14m33.51 22.14l-13.48 6.81m16.53-26.83v14.78m-16.72-11.68l13.21-5.22m-13.37-9.64l13.73 6.71m-33.77 0l13.73-6.71M116.2 97.77l5.13 5.09-5.1 5.13m-13.44-10.22l-5.13 5.09 5.09 5.13m9.54-10.22l-5.6 10.45m47.58-10.17h-9.51m9.51 4.94h-12.85m12.85 4.95h-12.85m-12.84 87.65l-.35 2.72a1.5 1.5 0 0 1-1.33 1.44h-1.4a1.5 1.5 0 0 1-1.33-1.44l-.35-2.72a11.09 11.09 0 0 1-3.72-1.59l-2.12 1.66a1.45 1.45 0 0 1-1.94.06l-.49-.51-.5-.51a1.56 1.56 0 0 1 .06-2l1.66-2.11a11.59 11.59 0 0 1-1.58-3.89l-2.65-.36a1.49 1.49 0 0 1-1.4-1.36v-1.42a1.48 1.48 0 0 1 1.4-1.36l2.64-.33a11.72 11.72 0 0 1 1.56-3.87h-.06l-1.57-2.12a1.54 1.54 0 0 1-.06-2l.5-.51.49-.51a1.45 1.45 0 0 1 1.94.06l2.12 1.66a11.06 11.06 0 0 1 3.75-1.58l.32-2.71a1.5 1.5 0 0 1 1.33-1.44h1.4a1.5 1.5 0 0 1 1.33 1.44l.36 2.72a11.22 11.22 0 0 1 3.69 1.57l2.14-1.65a1.45 1.45 0 0 1 1.94-.06l.49.51.49.51a1.53 1.53 0 0 1-.05 2l-1.63 2.11a11.7 11.7 0 0 1 1.55 3.83l2.65.37a1.48 1.48 0 0 1 1.4 1.36V185a1.49 1.49 0 0 1-1.4 1.36l-2.64.33a11.76 11.76 0 0 1-1.51 3.79l1.58 2.24a1.54 1.54 0 0 1 .05 2l-.49.51-.49.51a1.45 1.45 0 0 1-1.94-.06l-2.13-1.65a11.32 11.32 0 0 1-3.71 1.57"/><ellipse class="f" cx="126.2" cy="184.28" rx="5.01" ry="5.15"/><path class="f" d="M112.72 217.98h26.95m-13.47-.55v-7.58m-4.34-50.59h-2.4m13.84 0h-2.81m-19.69 0H95.19a4.24 4.24 0 0 0-4.19 4.23v41.58a4.24 4.24 0 0 0 4.22 4.23h62a4.24 4.24 0 0 0 4.23-4.23v-41.58a4.24 4.24 0 0 0-4.23-4.23h-15.38M91.89 204h68.62m-18.69-39.44h18.69m-30.02 0h2.81m-13.94 0h2.5m-29.97 0h18.91m46.41 24.1h-6.45m6.45 4.95h-9.78m9.78 4.95h-9.78m-21.23-29.75l.15-19.8m-11.3 24.84zm22.33 0z"/><circle class="f" cx="126.35" cy="146.75" r="2.27"/><circle class="f" cx="103.4" cy="146.75" r="2.27"/><circle class="f" cx="149.22" cy="146.75" r="2.27"/><path class="f" d="M115.05 154.99H103.4v-5.98m34.17 5.98h11.65v-5.98m-54.01 39.65h6.45m-6.45 4.95H105m-9.79 4.95H105m32.17 192.41l-.11 1.43-11.36-.79.16-2.07m10.03-59.44l2.54-2.27-.62-7.76-1.19-.08-1.18-.08-1.74 7.58 2.19 2.61-2.06 28.29m5.19 6.41l.28-3.12-11.36-.8-.12 1.69m-23.55 11.52l.54-4.89m5.71-51.12a9 9 0 0 0-6.17 7.57 9.22 9.22 0 0 0 4.34 8.85l-.93 8m10.32-23.5a9.18 9.18 0 0 1 4.33 8.85 9 9 0 0 1-6.17 7.57l-.85 6.68"/><path class="f" d="M110.52 318.08l-.95 8.51 3.54 2.64 4.02-1.72.95-8.51m-15.65 71.52a9.2 9.2 0 0 1-4.33-8.85 9 9 0 0 1 6.17-7.58m5.73 17.35a9 9 0 0 0 6.17-7.58 9.22 9.22 0 0 0-4.34-8.85l.48-5.34"/><path class="f" d="M102.43 390.52l.95-8.51 4.02-1.73 3.54 2.65-.95 8.51m-21.71-45.9l5.27-.34 1.31 20.44-5.27.34m4.03-19.7l2.8-.18 7.94-5.12M95 364.53l2.3-.15 9.13 2.24 8.72-.55c1.05-.07 2.77-.59 2.72-2.45-.06-2.34-1.44-2.82-3.21-2.7m-26.38-15.38l1.31 20.44m16.82-20.3l13.1-.84a2.44 2.44 0 0 1 2.58 2.15c.17 1.53-.29 2.89-2.74 3.05l-10 .64"/><path class="f" d="M109.67 356l11.81-.75c1.15-.07 3.58-.1 3.39-3-.21-3.22-3.82-2.26-5.57-2.15"/><path class="f" d="M110 361.2s5.95-.33 10.69-.63c.63 0 3.35.05 3.17-2.71a2.52 2.52 0 0 0-2.79-2.61m34.54 14.45l-5.18-1-3.86 20.11 5.18 1m-1.53-20.05l-2.75-.52-4.81-5.49m3.89 23.94l-2.25-.43-9.35 1.07-8.57-1.64c-1-.2-2.68-.93-2.4-2.77.35-2.32 1.79-2.62 3.53-2.28m28.1-11.94l-3.86 20.11m-14.14-22.25l-12.89-2.48a2.45 2.45 0 0 0-2.83 1.81c-.36 1.5-.08 2.9 2.33 3.37l9.87 1.89"/><path class="f" d="M133.09 377.35l-11.62-2.23c-1.14-.22-3.54-.55-3-3.42.61-3.17 4.07-1.76 5.8-1.43"/><path class="f" d="M132.1 382.5s-5.86-1.07-10.53-2c-.62-.12-3.32-.36-2.8-3.08a2.51 2.51 0 0 1 3.09-2.24"/></svg>