<svg xmlns="http://www.w3.org/2000/svg" viewBox="0 0 413.87 178.53"><defs><style>.a{fill:#1f3178}.b{fill:#d7e1ee}.c{fill:none;stroke:#1f3178;stroke-linecap:round;stroke-linejoin:round;stroke-width:1.5px}</style></defs><path class="a" d="M152.92 19.21V.18h8.32a5.33 5.33 0 0 1 4.32 1.59 6.78 6.78 0 0 1 1.22 4.42 10.09 10.09 0 0 1-.38 2.92 5.45 5.45 0 0 1-.91 1.89 3.58 3.58 0 0 1-1.34 1 5.65 5.65 0 0 1-2.28.44 22.73 22.73 0 0 1-2.75-.23c-1.22-.16-1.86-.25-1.93-.29v7.28zm4.27-10.45h3.66a1.4 1.4 0 0 0 1.24-.58 3.53 3.53 0 0 0 .4-1.94c0-1.58-.56-2.37-1.64-2.37h-3.66zm13.05 10.45V.18h4.26v19zm7.98-3.84V.18h4.26V14c0 .66.19 1 .55 1.19a2.8 2.8 0 0 0 1.07.16h6v3.87h-7.77a4.64 4.64 0 0 1-3-.89 3.56 3.56 0 0 1-1.11-2.96zm14.53 3.84L199 .18h4.94l6 19h-4.44l-1.25-3.82h-5.75l-1.24 3.82zm6.76-7.51h3.77l-1.79-6.06zm13.21 7.51V.18h8.4a5.61 5.61 0 0 1 4 1.38q1.46 1.38 1.46 4.63a7.78 7.78 0 0 1-.81 4.05 3.33 3.33 0 0 1-1 1.07 9 9 0 0 1-1.17.55l3.46 7.35h-4.84l-2.83-7-2.39-.35v7.35zM217 8.58h3.62a1.5 1.5 0 0 0 1.38-.49 3.42 3.42 0 0 0 .34-1.82 3.25 3.25 0 0 0-.39-1.86 1.47 1.47 0 0 0-1.27-.54H217zm13 6.68V4.34A3.68 3.68 0 0 1 232.09.6a6 6 0 0 1 2.34-.42 83.6 83.6 0 0 1 8.43.42v3.56h-7.26c-.64 0-1 .16-1.19.47a2.43 2.43 0 0 0-.16 1v2.14l7.38.26v3.54l-7.38.23V14c0 .66.18 1.06.55 1.2a3 3 0 0 0 1.06.15h7v3.54q-1.87.25-7.52.42h-1.88a4.52 4.52 0 0 1-1.15-.27 3.48 3.48 0 0 1-1.17-.65 3.34 3.34 0 0 1-.82-1.21 4.83 4.83 0 0 1-.32-1.92zm15.87-8.6V5q0-4.9 5.15-5h1.09a21.34 21.34 0 0 1 6.58.83v3.33c-1.77-.17-3.27-.26-4.51-.26h-1.94a3.71 3.71 0 0 0-1.64.26c-.31.17-.47.6-.47 1.27v.65a1.63 1.63 0 0 0 .29 1.15 2.32 2.32 0 0 0 1.53.41h2.76a4.42 4.42 0 0 1 2.94.91 5.4 5.4 0 0 1 1.74 4.35V14q0 3.66-2.31 4.83a6.72 6.72 0 0 1-3 .6c-2 0-3.56-.05-4.53-.15a16 16 0 0 1-3.11-.68v-3.34c1.91.19 4.13.29 6.68.29a3.1 3.1 0 0 0 1.46-.29 1.14 1.14 0 0 0 .52-1.09v-.75a1.68 1.68 0 0 0-.34-1.15 1.65 1.65 0 0 0-1.22-.36h-2.68a5.23 5.23 0 0 1-2.78-.63 3.78 3.78 0 0 1-1.51-1.45 6.25 6.25 0 0 1-.6-1.59 11.22 11.22 0 0 1-.1-1.58zM6.34 68.32v-1.54h6.49v1.54H10.4v7.24H8.72v-7.24zm8.09-1.22a2.27 2.27 0 0 1 .59-.25 2 2 0 0 1 .47-.07h1.74c1 0 1.81.08 2.32.15v1.39h-3.46c-.3 0-.48.07-.56.22a1.32 1.32 0 0 0-.07.45v1.41l3.55.12v1.39l-3.55.09v1.37c0 .3.09.49.25.55a1.36 1.36 0 0 0 .5.07h3.34v1.38c-.4.06-1.38.11-3 .17h-1.33a1.89 1.89 0 0 1-.49-.13 1.46 1.46 0 0 1-1-1.62V68.6a1.63 1.63 0 0 1 .7-1.5zm6.8.76a2.29 2.29 0 0 1 1.34-1 3.77 3.77 0 0 1 1.05-.13 10.56 10.56 0 0 1 3.06.4v1.27h-2.62a4.07 4.07 0 0 0-.69 0 1.34 1.34 0 0 0-.47.22 1 1 0 0 0-.34.48 7.47 7.47 0 0 0-.24 2.22 5 5 0 0 0 .36 2.21 1.37 1.37 0 0 0 1.35.67c.75 0 1.51 0 2.28-.07h.38v1.17a9.74 9.74 0 0 1-2.78.33h-.28a2.51 2.51 0 0 1-2.3-1.15 6.66 6.66 0 0 1-.69-3.39 6.47 6.47 0 0 1 .59-3.23zm6.77 7.7v-8.78h1.71l3.48 5.67v-5.67h1.68v8.78h-1.73l-3.49-5.62v5.62zm8.38-2.17a7.71 7.71 0 0 1-.13-1 12.37 12.37 0 0 1 0-1.3 10.91 10.91 0 0 1 .09-1.44 6.89 6.89 0 0 1 .24-1.16 3.09 3.09 0 0 1 .42-.81 2.6 2.6 0 0 1 .54-.52 2 2 0 0 1 .66-.3 4.78 4.78 0 0 1 1.32-.18h1a6.06 6.06 0 0 1 .67.1 2.21 2.21 0 0 1 .6.22 3.27 3.27 0 0 1 .51.37 1.71 1.71 0 0 1 .43.56 5.46 5.46 0 0 1 .3.79 7.16 7.16 0 0 1 .26 2.08 14.13 14.13 0 0 1-.09 1.83 6.81 6.81 0 0 1-.23 1.1 2.77 2.77 0 0 1-.39.79 2.39 2.39 0 0 1-.52.53 2.18 2.18 0 0 1-.65.31 6.87 6.87 0 0 1-2.34.16 2.81 2.81 0 0 1-1.66-.48 1.6 1.6 0 0 1-.42-.4 3.19 3.19 0 0 1-.32-.56 3.66 3.66 0 0 1-.29-.69zm1.63-4c0 .21-.07.47-.1.76s0 .67 0 1.12a9.62 9.62 0 0 0 0 1.15 3.52 3.52 0 0 0 .16.81 1 1 0 0 0 .34.5 2.2 2.2 0 0 0 1.3.3 2.09 2.09 0 0 0 1.29-.28c.39-.3.58-1.14.58-2.52a7.22 7.22 0 0 0-.15-1.86 3.16 3.16 0 0 0-.27-.65.82.82 0 0 0-.36-.3 2.29 2.29 0 0 0-.87-.16h-.7a2.07 2.07 0 0 0-.42.08.69.69 0 0 0-.35.19 1.2 1.2 0 0 0-.25.34 1.5 1.5 0 0 0-.21.55zm6.61 4.47v-7.08h1.68v6.61c0 .3.09.49.25.55a1.36 1.36 0 0 0 .5.07h3v1.55h-3.6c-1.22 0-1.83-.56-1.83-1.7zm6.38-.47c-.06-.28-.1-.6-.14-1s0-.8 0-1.3a10.91 10.91 0 0 1 .09-1.44 6.89 6.89 0 0 1 .24-1.16 3.09 3.09 0 0 1 .42-.81 2.6 2.6 0 0 1 .54-.52 2 2 0 0 1 .66-.3 4.78 4.78 0 0 1 1.32-.18h1a5.88 5.88 0 0 1 .68.1 2.34 2.34 0 0 1 .6.22 3.27 3.27 0 0 1 .51.37 1.86 1.86 0 0 1 .43.56 5.46 5.46 0 0 1 .3.79 7.52 7.52 0 0 1 .26 2.08 14.13 14.13 0 0 1-.09 1.83 6.81 6.81 0 0 1-.23 1.1 2.77 2.77 0 0 1-.39.79 2.62 2.62 0 0 1-.52.53 2.31 2.31 0 0 1-.65.31 6.87 6.87 0 0 1-2.34.16 3.12 3.12 0 0 1-1.08-.18 2.85 2.85 0 0 1-.58-.3 1.46 1.46 0 0 1-.42-.4 3.19 3.19 0 0 1-.32-.56 3.14 3.14 0 0 1-.29-.69zm1.63-4c0 .21-.07.47-.1.76s0 .67 0 1.12a9.62 9.62 0 0 0 0 1.15 3.52 3.52 0 0 0 .16.81 1 1 0 0 0 .34.5 2.19 2.19 0 0 0 1.29.3 2.12 2.12 0 0 0 1.27-.31c.39-.3.58-1.14.58-2.52a7.22 7.22 0 0 0-.15-1.86 3.16 3.16 0 0 0-.27-.65.88.88 0 0 0-.36-.3 2.33 2.33 0 0 0-.87-.16h-.7a2.07 2.07 0 0 0-.42.08.69.69 0 0 0-.35.19 1.2 1.2 0 0 0-.25.34 1.5 1.5 0 0 0-.15.58zm6.63 4.41a5.92 5.92 0 0 1-.26-1.23v-1.44a12.64 12.64 0 0 1 0-1.46 6 6 0 0 1 .25-1.21 2.73 2.73 0 0 1 .51-1 2.51 2.51 0 0 1 2-.82 16.64 16.64 0 0 1 1.73.08 12.32 12.32 0 0 1 1.64.3v1.31h-.2l-.49-.06-.66-.05c-.58 0-1.12-.07-1.62-.07a1.26 1.26 0 0 0-1.27.64 6 6 0 0 0-.32 2.36 6 6 0 0 0 .29 2.29 1.24 1.24 0 0 0 1.22.59 2.2 2.2 0 0 0 .74-.14 2.55 2.55 0 0 0 .57-.27l.19-.14v-1.56h-1.14v-1.06a5.63 5.63 0 0 1 2.09-.29h.81v5h-1.2l-.45-.57a2 2 0 0 1-.9.52 3.47 3.47 0 0 1-2.21-.07 2.13 2.13 0 0 1-.83-.62 2.75 2.75 0 0 1-.49-1.03zm7.55 1.76v-8.78h1.68v8.78zm2.86 0l3-8.78h1.91l2.85 8.78h-1.82L75 73.62h-2.9l-.63 1.94zm2.88-3.43h2L73.6 69zm94.69 3.43v-8.78h3.62a2.18 2.18 0 0 1 2.47 2.35 2.51 2.51 0 0 1-.3 1.22 1.23 1.23 0 0 1-.9.65 1.49 1.49 0 0 1 1 .64 2.21 2.21 0 0 1 .39 1.34 2.72 2.72 0 0 1-.62 1.92 2.59 2.59 0 0 1-2 .66zm1.68-5.3h1.83a.88.88 0 0 0 .69-.26 1.1 1.1 0 0 0 .24-.78.88.88 0 0 0-.27-.73 1 1 0 0 0-.66-.23h-1.83zm2.88 2.65a1.53 1.53 0 0 0-.24-.89.84.84 0 0 0-.73-.35h-1.91v2.4h1.91c.64.01.97-.38.97-1.16zm6.65-6.13a2.27 2.27 0 0 1 1.71.58 3 3 0 0 1 .69 2.15 2.78 2.78 0 0 1-.71 2.25 1.42 1.42 0 0 1-.35.22 2 2 0 0 1-.35.12l1.67 3.46h-1.9l-1.45-3.32-1.47-.17v3.49h-1.68v-8.78zm-2.15 4h2a.84.84 0 0 0 .67-.24 1.68 1.68 0 0 0 .19-1 1.74 1.74 0 0 0-.21-1 .79.79 0 0 0-.65-.27h-2zm5.63 4.78l3-8.78h1.91l2.85 8.78h-1.78l-.63-1.94h-2.88l-.63 1.94zm2.88-3.43h2l-1-3.15zm5.49-2.4V69a2.13 2.13 0 0 1 .69-1.79 2.83 2.83 0 0 1 1.69-.48h.6c.31 0 .76 0 1.36.1a8.59 8.59 0 0 1 1.43.25v1.32c-.91-.08-1.63-.12-2.17-.12h-.9a1.64 1.64 0 0 0-.8.15c-.16.09-.25.33-.25.7v.44a.84.84 0 0 0 .21.67 1.18 1.18 0 0 0 .73.17h1.39a1.81 1.81 0 0 1 1.84 1.09 3.07 3.07 0 0 1 .24 1.23v.59a2.08 2.08 0 0 1-1.07 2.1 3.08 3.08 0 0 1-1.36.27 12.48 12.48 0 0 1-3.39-.36V74c.88.08 1.64.13 2.3.13a11.21 11.21 0 0 0 1.15 0 1.17 1.17 0 0 0 .33-.09.63.63 0 0 0 .36-.64v-.47c0-.41-.14-.67-.4-.76a1.12 1.12 0 0 0-.4-.06h-1.34a2 2 0 0 1-2.24-2.38zm7.45 5.83v-8.78h1.68v8.78zm3.18-1.7v-7.08h1.68v6.61c0 .3.09.49.26.55a1.3 1.3 0 0 0 .49.07h3v1.55h-3.61c-1.21 0-1.82-.56-1.82-1.7zm6.71 1.7v-8.78h1.68v8.78zm3.18 0v-8.78h3.73c2 0 3 1.47 3 4.42 0 1.83-.44 3.09-1.31 3.8a2.69 2.69 0 0 1-1.74.56zm5.1-4.37q0-2.18-.69-2.7a1.36 1.36 0 0 0-.81-.23h-1.92v5.8h1.92c1 0 1.5-.96 1.5-2.87zm2.22 4.37l3-8.78H223l2.86 8.78h-1.79l-.62-1.94h-2.88l-.64 1.94zm2.86-3.43h2l-1-3.15zm6 3.43v-8.78h3.73q3 0 3 4.42c0 1.83-.44 3.09-1.31 3.8a2.69 2.69 0 0 1-1.74.56zm5.1-4.37c0-1.45-.23-2.35-.7-2.7a1.33 1.33 0 0 0-.8-.23h-1.92v5.8h1.92c1.01 0 1.51-.96 1.51-2.87zm3.46-4.09a2.19 2.19 0 0 1 .6-.25 1.9 1.9 0 0 1 .47-.07h1.73c1 0 1.82.08 2.33.15v1.39h-3.47c-.3 0-.48.07-.55.22a1.12 1.12 0 0 0-.07.45v1.41l3.55.12v1.39l-3.55.09v1.37c0 .3.08.49.25.55a1.3 1.3 0 0 0 .49.07h3.35v1.38c-.4.06-1.39.11-3 .17h-1.33a2 2 0 0 1-.49-.13 1.64 1.64 0 0 1-.5-.29 1.69 1.69 0 0 1-.48-1.33V68.6a1.63 1.63 0 0 1 .67-1.5zm100.3 8.46v-8.78h1.68v8.78zm3.14 0v-8.78h1.71l3.48 5.67v-5.67h1.68v8.78h-1.68l-3.5-5.62v5.62zm8.42 0v-8.78h3.73q3 0 3.05 4.42c0 1.83-.44 3.09-1.31 3.8a2.73 2.73 0 0 1-1.74.56zm5.1-4.37c0-1.45-.24-2.35-.7-2.7a1.35 1.35 0 0 0-.8-.23h-1.92v5.8h1.9c1 0 1.52-.96 1.52-2.87zm6.48 4.43h-.17a4.08 4.08 0 0 1-1.92-.3 3.42 3.42 0 0 1-.51-.43 1.73 1.73 0 0 1-.43-.69 7.43 7.43 0 0 1-.36-2.48v-4.94h1.68v4.94a4.66 4.66 0 0 0 .23 1.69 1 1 0 0 0 .8.61 3.81 3.81 0 0 0 .76 0 1.77 1.77 0 0 0 .84-.18c.47-.25.71-1 .71-2.17v-4.89h1.69v4.94a5.28 5.28 0 0 1-.55 2.74 2.49 2.49 0 0 1-.36.48 1.54 1.54 0 0 1-.44.33 3.78 3.78 0 0 1-.46.2 2.52 2.52 0 0 1-.52.1 9 9 0 0 1-.99.05zm-.59-9.62l1.08-1.67H361L359.5 66zm5.27 3.73V69a2.13 2.13 0 0 1 .68-1.79 2.85 2.85 0 0 1 1.69-.48h.61c.31 0 .76 0 1.35.1a8.74 8.74 0 0 1 1.44.25v1.32c-.91-.08-1.64-.12-2.18-.12h-.87a1.6 1.6 0 0 0-.79.15c-.17.09-.25.33-.25.7v.44a.84.84 0 0 0 .2.67 1.2 1.2 0 0 0 .73.17h1.39a1.8 1.8 0 0 1 1.84 1.09 3.07 3.07 0 0 1 .24 1.23v.59a2.08 2.08 0 0 1-1.07 2.1 3.07 3.07 0 0 1-1.35.27 12.61 12.61 0 0 1-3.4-.36V74c.88.08 1.65.13 2.3.13a11.21 11.21 0 0 0 1.15 0 1 1 0 0 0 .33-.09.63.63 0 0 0 .36-.64v-.47c0-.41-.13-.67-.4-.76a1.07 1.07 0 0 0-.39-.06h-1.35a2 2 0 0 1-2.26-2.38zm6.73-1.41v-1.54h6.49v1.54h-2.43v7.24h-1.69v-7.24zm11.43-1.54a2.29 2.29 0 0 1 1.72.58 3 3 0 0 1 .68 2.15 2.78 2.78 0 0 1-.7 2.25 1.63 1.63 0 0 1-.35.22 2 2 0 0 1-.35.12l1.67 3.46h-1.9l-1.45-3.32-1.48-.17v3.49H378v-8.78zm-2.14 4h2a.81.81 0 0 0 .66-.24 1.59 1.59 0 0 0 .2-1 1.74 1.74 0 0 0-.21-1 .79.79 0 0 0-.65-.27h-2zm5.95 4.78v-8.78h1.68v8.78zm2.85 0l3-8.78h1.91l2.85 8.78h-1.79l-.62-1.94h-2.88l-.64 1.94zm2.88-3.43h2l-1-3.15z"/><circle class="b" cx="41.87" cy="136.67" r="41.87"/><circle class="b" cx="203.87" cy="136.67" r="41.87"/><circle class="b" cx="365.87" cy="136.67" r="41.87"/><path class="c" d="M25.95 109.44h45.62v45.62H25.95z"/><circle class="c" cx="15.23" cy="118.61" r="2.36"/><circle class="c" cx="17.62" cy="127.69" r="2.36"/><circle class="c" cx="16.83" cy="136.77" r="2.36"/><circle class="c" cx="19.21" cy="145.85" r="2.36"/><circle class="c" cx="78.31" cy="118.61" r="2.36"/><circle class="c" cx="81.5" cy="127.69" r="2.36"/><circle class="c" cx="79.11" cy="136.77" r="2.36"/><circle class="c" cx="82.29" cy="145.85" r="2.36"/><circle class="c" cx="35.08" cy="100.31" r="2.36"/><circle class="c" cx="44.2" cy="96.33" r="2.36"/><circle class="c" cx="53.32" cy="100.31" r="2.36"/><circle class="c" cx="62.45" cy="98.72" r="2.36"/><circle class="c" cx="35.08" cy="166.58" r="2.36"/><circle class="c" cx="44.2" cy="164.98" r="2.36"/><circle class="c" cx="53.32" cy="167.37" r="2.36"/><circle class="c" cx="62.45" cy="163.39" r="2.36"/><path class="c" d="M35.08 109.44v-6.77m9.12 6.77V98.69m9.12 10.75v-6.77m9.13 6.77v-8.36m-27.37 63.18v-9.16m9.12 7.56v-7.56m9.12 9.95v-9.95m9.13 5.97v-5.97m-36.5-9.16h-4.38m4.38-9.13h-6.77m6.77-9.12h-5.97m5.97-9.13h-8.36m62.35 27.38h-8.37m5.18-9.13h-5.18m7.57-9.12h-7.57m4.39-9.13h-4.39m-37.66 4.2v-5.37h9.54m8.2 29.72H33.91v-19.26m14.18-10.46h15.53v29.72h-6.8"/><path class="c" d="M41.97 143.44h-4.4v-22.38h14.16m8.22 17.43v4.95H46.19m10.2-22.38h3.56v12.84m-11.19 2.6l3.09 3.09M41.36 129.1l5.04 5.04m2.36-5.33l6.96 6.96m-10.48-10.49l1.37 1.38"/><circle class="c" cx="342.35" cy="150.72" r="5.36"/><circle class="c" cx="407.75" cy="150.72" r="5.36"/><path class="c" d="M342.35 156.07h54.41m10.99 0h-6.79m-57.08-.23l2.86 13.89h58.24l2.51-12.98m-65.14-11.39h65.4m-65.19 5.29h2.18m60.59 0h2.16m-59.18.07h1.95m4.3 0h4.67m4.29 0h4.67m4.3 0h4.65m4.31 0h4.67m4.28 0h4.69m4.29 0h3.01m-38.11-5.64h-10.41a1.43 1.43 0 0 1-1.43-1.43v-5.14a1.44 1.44 0 0 1 1.43-1.43h10.41a1.44 1.44 0 0 1 1.43 1.43v5.14a1.43 1.43 0 0 1-1.43 1.43zm31.96 0h-10.42a1.44 1.44 0 0 1-1.43-1.43v-5.14a1.44 1.44 0 0 1 1.43-1.43h10.42a1.44 1.44 0 0 1 1.43 1.43v5.14a1.44 1.44 0 0 1-1.43 1.43zM350.3 112a6.42 6.42 0 1 0 10.47 0m-12.83 0v-1.68a7.61 7.61 0 0 1 15.21 0V112m2.1.01h-4.46m-10.49 0h10.49m-10.49 0h-4.48m15.76 12.89s.4-.44 4.17.53 3.88 5.58 3.88 5.58v9.75"/><path class="c" d="M341.46 140.76V131s.13-4.61 3.88-5.58 4.16-.53 4.16-.53a11.5 11.5 0 0 0 12.1 0v7.29m-6.06-20.17v-11"/><path class="c" d="M348.52 140.76v-6.89a1.94 1.94 0 0 1 1.94-1.93h10.15a1.94 1.94 0 0 1 1.82 1.24m-12.67-8.38v7.21m39.56-19.96a6.42 6.42 0 1 0 10.47 0m-12.79 0v-1.68a7.61 7.61 0 0 1 15.22 0v1.68m2.05 0h-4.47m-10.48 0h10.48m-10.48 0h-4.48M400.6 125s.4-.44 4.17.52 3.88 5.58 3.88 5.58v9.76"/><path class="c" d="M380.48 140.81v-9.76s.12-4.61 3.88-5.58 4.16-.52 4.16-.52a11.56 11.56 0 0 0 12.1 0v7.29m-6.07-20.19v-10.99"/><path class="c" d="M387.67 133.21a2 2 0 0 1 1.81-1.23h10.15a1.94 1.94 0 0 1 1.94 1.94v6.89m-12.79-15.96v7.2m-178.06 28.19l15.87-51.33m-6.66 8.09l-15.69 51.29a1 1 0 0 0 .62 1.19l2.09.21a.94.94 0 0 0 1.19-.62l1.5-5.26m13.04-55.68l-1.65 5.3"/><circle class="c" cx="225.27" cy="106.08" r="2.95"/><path class="c" d="M253.31 144.76l-33.032-10.431 7.491-23.721 33.032 10.43z"/><path class="c" d="M225.81 123.58l10.28 13.64 16.21-5.39-10.28-13.63-16.21 5.38z"/><circle class="c" cx="239.05" cy="127.71" r="5.52"/><path class="c" d="M228.52 114.57l-.96 3.09m-.73 2.31l-.12.39m9.45 6.64c1.8-.37 5.71-.74 8.05 2.36m-29.97 6.24l-8.25-26.69m15.87 51.33l-5.49-17.76m2.01-6.74l10 32.54a1 1 0 0 1-.63 1.19l-2.08.21a1 1 0 0 1-1.2-.62l-1.58-5.57m-10.24-46.5l3.64 11.9m-6.4-20.76l1.65 5.3"/><circle class="c" cx="207.31" cy="106.08" r="2.95"/><path class="c" d="M173.206 120.94l33.197-10.339 7.425 23.84-33.197 10.34z"/><path class="c" d="M206.77 123.58l-10.29 13.64-16.2-5.39 10.28-13.63 16.21 5.38z"/><circle class="c" cx="193.52" cy="127.71" r="5.52"/><path class="c" d="M204.08 114.38l.96 3.08m.73 2.32l.12.38m-15.32 7.7c1.6-.92 5.2-2.5 8.39-.29"/><path class="a" d="M35 55.23v-4.9a1.81 1.81 0 0 1 .58-1.44 2.21 2.21 0 0 1 1.48-.5h1.84a1.73 1.73 0 0 1 1.89 1.19 2.27 2.27 0 0 1 .11.75v4.9a1.74 1.74 0 0 1-2 1.94h-1.85a2.3 2.3 0 0 1-1.44-.43 1.76 1.76 0 0 1-.61-1.51zm.68 0a1.18 1.18 0 0 0 .38 1 1.59 1.59 0 0 0 1 .31h1.84q1.32 0 1.32-1.26v-4.9q0-1.26-1.32-1.26h-1.85a1.47 1.47 0 0 0-1 .34 1.25 1.25 0 0 0-.35.92zm9.64-6.84v8.78h-.69v-8l-2 .71v-.47l2-1zm2.27 8.55v-.7c0-.17.07-.26.22-.26h.47c.17 0 .25.09.25.26v.7c0 .16-.08.23-.25.23h-.47a.25.25 0 0 1-.16-.06.25.25 0 0 1-.06-.17zm147.97-1.71v-4.9a1.81 1.81 0 0 1 .58-1.44 2.21 2.21 0 0 1 1.48-.5h1.85a1.75 1.75 0 0 1 1.9 1.19 2.57 2.57 0 0 1 .1.75v4.9a1.74 1.74 0 0 1-2 1.94h-1.85a2.34 2.34 0 0 1-1.44-.43 1.78 1.78 0 0 1-.62-1.51zm.68 0a1.15 1.15 0 0 0 .39 1 1.54 1.54 0 0 0 1 .31h1.85q1.32 0 1.32-1.26v-4.9q0-1.26-1.32-1.26h-1.85a1.42 1.42 0 0 0-1 .34 1.22 1.22 0 0 0-.36.92zm6.95-6.23v-.49a28.55 28.55 0 0 1 3.53-.2 2.15 2.15 0 0 1 2.28 1.53 3.12 3.12 0 0 1 .14 1 2.93 2.93 0 0 1-.41 1.36 7.49 7.49 0 0 1-1 1.41 15.25 15.25 0 0 1-1.27 1.28 18.73 18.73 0 0 1-1.94 1.59h4.59v.68h-5.88v-.63a28.77 28.77 0 0 0 2.28-1.77c.5-.44.92-.83 1.26-1.18a9.43 9.43 0 0 0 .84-1 3.26 3.26 0 0 0 .81-1.86 1.57 1.57 0 0 0-1-1.68 2.18 2.18 0 0 0-.77-.12zm7.81 7.94v-.7c0-.17.08-.26.23-.26h.47c.17 0 .25.09.25.26v.7c0 .16-.08.23-.25.23h-.47a.23.23 0 0 1-.16-.06.26.26 0 0 1-.07-.17zm146.56-1.71v-4.9a1.81 1.81 0 0 1 .59-1.44 2.19 2.19 0 0 1 1.48-.5h1.85a1.74 1.74 0 0 1 1.89 1.19 2.56 2.56 0 0 1 .11.75v4.9a1.74 1.74 0 0 1-2 1.94h-1.85a2.3 2.3 0 0 1-1.44-.43 1.76 1.76 0 0 1-.63-1.51zm.69 0a1.18 1.18 0 0 0 .38 1 1.59 1.59 0 0 0 1 .31h1.85q1.32 0 1.32-1.26v-4.9q0-1.26-1.32-1.26h-1.85a1.47 1.47 0 0 0-1 .34 1.25 1.25 0 0 0-.35.92zm6.8-6.6a6 6 0 0 1 1.36-.24h2.31a2.08 2.08 0 0 1 1.52.57 1.94 1.94 0 0 1 .54 1.41v.83a1.91 1.91 0 0 1-.17.84 1.38 1.38 0 0 1-.85.79 1.78 1.78 0 0 1 1 1.73v.71c0 1.34-.71 2-2.13 2-1.13 0-1.94 0-2.42-.07a5.15 5.15 0 0 1-1.14-.2v-.43h3.47c.72 0 1.17-.21 1.35-.64a1.53 1.53 0 0 0 .13-.68v-.71a1.22 1.22 0 0 0-.42-1 1.75 1.75 0 0 0-1-.35l-2.81-.08v-.52l2.81-.11a1.58 1.58 0 0 0 1.05-.34 1.13 1.13 0 0 0 .4-.93v-.83a1.15 1.15 0 0 0-.42-1 1.61 1.61 0 0 0-1-.32h-3.64zm7.95 8.31v-.7c0-.17.07-.26.23-.26h.46a.23.23 0 0 1 .26.26v.7c0 .16-.09.23-.26.23h-.46a.21.21 0 0 1-.23-.23z"/></svg>